<?xml version="1.0" encoding="UTF-8" standalone="no"?>
<svg width="595.446px" height="90.7087px" viewBox="0 0 595.446 90.7087"
 xmlns="http://www.w3.org/2000/svg" xmlns:xlink="http://www.w3.org/1999/xlink" version="1.2" baseProfile="tiny">
<title>231</title>
<desc>Generated by MuseScore 2.3.2</desc>
<polyline class="StaffLines" fill="none" stroke="#000000" stroke-width="0.40" stroke-linejoin="bevel" points="28.3465,35.0022 567.099,35.0022"/>
<polyline class="StaffLines" fill="none" stroke="#000000" stroke-width="0.40" stroke-linejoin="bevel" points="28.3465,40.0025 567.099,40.0025"/>
<polyline class="StaffLines" fill="none" stroke="#000000" stroke-width="0.40" stroke-linejoin="bevel" points="28.3465,45.0028 567.099,45.0028"/>
<polyline class="StaffLines" fill="none" stroke="#000000" stroke-width="0.40" stroke-linejoin="bevel" points="28.3465,50.0031 567.099,50.0031"/>
<polyline class="StaffLines" fill="none" stroke="#000000" stroke-width="0.40" stroke-linejoin="bevel" points="28.3465,55.0035 567.099,55.0035"/>
<polyline class="BarLine" fill="none" stroke="#000000" stroke-width="0.80" stroke-linejoin="bevel" points="562.199,35.0022 562.199,55.0035"/>
<polyline class="BarLine" fill="none" stroke="#000000" stroke-width="2.50" stroke-linejoin="bevel" points="565.849,35.0022 565.849,55.0035"/>
<polyline class="LedgerLine" fill="none" stroke="#000000" stroke-width="0.80" stroke-linecap="square" stroke-linejoin="bevel" points="536.949,60.0038 546.533,60.0038"/>
<polyline class="LedgerLine" fill="none" stroke="#000000" stroke-width="0.80" stroke-linecap="square" stroke-linejoin="bevel" points="513.6,60.0038 523.183,60.0038"/>
<polyline class="LedgerLine" fill="none" stroke="#000000" stroke-width="0.80" stroke-linecap="square" stroke-linejoin="bevel" points="490.251,60.0038 499.834,60.0038"/>
<polyline class="LedgerLine" fill="none" stroke="#000000" stroke-width="0.80" stroke-linecap="square" stroke-linejoin="bevel" points="466.901,60.0038 476.484,60.0038"/>
<polyline class="LedgerLine" fill="none" stroke="#000000" stroke-width="0.80" stroke-linecap="square" stroke-linejoin="bevel" points="443.552,60.0038 453.135,60.0038"/>
<polyline class="LedgerLine" fill="none" stroke="#000000" stroke-width="0.80" stroke-linecap="square" stroke-linejoin="bevel" points="420.202,60.0038 429.786,60.0038"/>
<polyline class="LedgerLine" fill="none" stroke="#000000" stroke-width="0.80" stroke-linecap="square" stroke-linejoin="bevel" points="396.853,60.0038 406.436,60.0038"/>
<polyline class="LedgerLine" fill="none" stroke="#000000" stroke-width="0.80" stroke-linecap="square" stroke-linejoin="bevel" points="373.503,60.0038 383.087,60.0038"/>
<polyline class="LedgerLine" fill="none" stroke="#000000" stroke-width="0.80" stroke-linecap="square" stroke-linejoin="bevel" points="350.154,60.0038 359.737,60.0038"/>
<polyline class="LedgerLine" fill="none" stroke="#000000" stroke-width="0.80" stroke-linecap="square" stroke-linejoin="bevel" points="326.805,60.0038 336.388,60.0038"/>
<polyline class="LedgerLine" fill="none" stroke="#000000" stroke-width="0.80" stroke-linecap="square" stroke-linejoin="bevel" points="303.455,60.0038 313.038,60.0038"/>
<polyline class="LedgerLine" fill="none" stroke="#000000" stroke-width="0.80" stroke-linecap="square" stroke-linejoin="bevel" points="280.106,60.0038 289.689,60.0038"/>
<polyline class="LedgerLine" fill="none" stroke="#000000" stroke-width="0.80" stroke-linecap="square" stroke-linejoin="bevel" points="256.756,60.0038 266.34,60.0038"/>
<polyline class="LedgerLine" fill="none" stroke="#000000" stroke-width="0.80" stroke-linecap="square" stroke-linejoin="bevel" points="233.407,60.0038 242.99,60.0038"/>
<polyline class="LedgerLine" fill="none" stroke="#000000" stroke-width="0.80" stroke-linecap="square" stroke-linejoin="bevel" points="210.057,60.0038 219.641,60.0038"/>
<polyline class="LedgerLine" fill="none" stroke="#000000" stroke-width="0.80" stroke-linecap="square" stroke-linejoin="bevel" points="186.708,60.0038 196.291,60.0038"/>
<polyline class="LedgerLine" fill="none" stroke="#000000" stroke-width="0.80" stroke-linecap="square" stroke-linejoin="bevel" points="163.359,60.0038 172.942,60.0038"/>
<polyline class="LedgerLine" fill="none" stroke="#000000" stroke-width="0.80" stroke-linecap="square" stroke-linejoin="bevel" points="140.009,60.0038 149.592,60.0038"/>
<polyline class="LedgerLine" fill="none" stroke="#000000" stroke-width="0.80" stroke-linecap="square" stroke-linejoin="bevel" points="116.66,60.0038 126.243,60.0038"/>
<polyline class="LedgerLine" fill="none" stroke="#000000" stroke-width="0.80" stroke-linecap="square" stroke-linejoin="bevel" points="93.3102,60.0038 102.894,60.0038"/>
<polyline class="LedgerLine" fill="none" stroke="#000000" stroke-width="0.80" stroke-linecap="square" stroke-linejoin="bevel" points="69.9608,60.0038 79.5442,60.0038"/>
<polyline class="Stem" fill="none" stroke="#000000" stroke-width="0.65" stroke-linecap="round" stroke-linejoin="bevel" points="538.774,60.9429 538.774,75.0047"/>
<polyline class="Stem" fill="none" stroke="#000000" stroke-width="0.65" stroke-linecap="round" stroke-linejoin="bevel" points="515.425,60.9429 515.425,75.0047"/>
<polyline class="Stem" fill="none" stroke="#000000" stroke-width="0.65" stroke-linecap="round" stroke-linejoin="bevel" points="492.076,60.9429 492.076,75.0047"/>
<polyline class="Stem" fill="none" stroke="#000000" stroke-width="0.65" stroke-linecap="round" stroke-linejoin="bevel" points="498.009,39.0634 498.009,25.0016"/>
<polyline class="Stem" fill="none" stroke="#000000" stroke-width="0.65" stroke-linecap="round" stroke-linejoin="bevel" points="468.726,60.9429 468.726,75.0047"/>
<polyline class="Stem" fill="none" stroke="#000000" stroke-width="0.65" stroke-linecap="round" stroke-linejoin="bevel" points="445.377,60.9429 445.377,75.0047"/>
<polyline class="Stem" fill="none" stroke="#000000" stroke-width="0.65" stroke-linecap="round" stroke-linejoin="bevel" points="422.027,60.9429 422.027,75.0047"/>
<polyline class="Stem" fill="none" stroke="#000000" stroke-width="0.65" stroke-linecap="round" stroke-linejoin="bevel" points="427.961,39.0634 427.961,25.0016"/>
<polyline class="Stem" fill="none" stroke="#000000" stroke-width="0.65" stroke-linecap="round" stroke-linejoin="bevel" points="398.678,60.9429 398.678,75.0047"/>
<polyline class="Stem" fill="none" stroke="#000000" stroke-width="0.65" stroke-linecap="round" stroke-linejoin="bevel" points="375.328,60.9429 375.328,75.0047"/>
<polyline class="Stem" fill="none" stroke="#000000" stroke-width="0.65" stroke-linecap="round" stroke-linejoin="bevel" points="351.979,60.9429 351.979,75.0047"/>
<polyline class="Stem" fill="none" stroke="#000000" stroke-width="0.65" stroke-linecap="round" stroke-linejoin="bevel" points="357.912,39.0634 357.912,25.0016"/>
<polyline class="Stem" fill="none" stroke="#000000" stroke-width="0.65" stroke-linecap="round" stroke-linejoin="bevel" points="328.63,60.9429 328.63,75.0047"/>
<polyline class="Stem" fill="none" stroke="#000000" stroke-width="0.65" stroke-linecap="round" stroke-linejoin="bevel" points="305.28,60.9429 305.28,75.0047"/>
<polyline class="Stem" fill="none" stroke="#000000" stroke-width="0.65" stroke-linecap="round" stroke-linejoin="bevel" points="281.931,60.9429 281.931,75.0047"/>
<polyline class="Stem" fill="none" stroke="#000000" stroke-width="0.65" stroke-linecap="round" stroke-linejoin="bevel" points="287.864,39.0634 287.864,25.0016"/>
<polyline class="Stem" fill="none" stroke="#000000" stroke-width="0.65" stroke-linecap="round" stroke-linejoin="bevel" points="258.581,60.9429 258.581,75.0047"/>
<polyline class="Stem" fill="none" stroke="#000000" stroke-width="0.65" stroke-linecap="round" stroke-linejoin="bevel" points="235.232,60.9429 235.232,75.0047"/>
<polyline class="Stem" fill="none" stroke="#000000" stroke-width="0.65" stroke-linecap="round" stroke-linejoin="bevel" points="211.882,60.9429 211.882,75.0047"/>
<polyline class="Stem" fill="none" stroke="#000000" stroke-width="0.65" stroke-linecap="round" stroke-linejoin="bevel" points="217.816,39.0634 217.816,25.0016"/>
<polyline class="Stem" fill="none" stroke="#000000" stroke-width="0.65" stroke-linecap="round" stroke-linejoin="bevel" points="188.533,60.9429 188.533,75.0047"/>
<polyline class="Stem" fill="none" stroke="#000000" stroke-width="0.65" stroke-linecap="round" stroke-linejoin="bevel" points="165.184,60.9429 165.184,75.0047"/>
<polyline class="Stem" fill="none" stroke="#000000" stroke-width="0.65" stroke-linecap="round" stroke-linejoin="bevel" points="141.834,60.9429 141.834,75.0047"/>
<polyline class="Stem" fill="none" stroke="#000000" stroke-width="0.65" stroke-linecap="round" stroke-linejoin="bevel" points="147.767,39.0634 147.767,25.0016"/>
<polyline class="Stem" fill="none" stroke="#000000" stroke-width="0.65" stroke-linecap="round" stroke-linejoin="bevel" points="118.485,60.9429 118.485,75.0047"/>
<polyline class="Stem" fill="none" stroke="#000000" stroke-width="0.65" stroke-linecap="round" stroke-linejoin="bevel" points="95.1353,60.9429 95.1353,75.0047"/>
<polyline class="Stem" fill="none" stroke="#000000" stroke-width="0.65" stroke-linecap="round" stroke-linejoin="bevel" points="71.7859,60.9429 71.7859,75.0047"/>
<polyline class="Stem" fill="none" stroke="#000000" stroke-width="0.65" stroke-linecap="round" stroke-linejoin="bevel" points="77.7191,39.0634 77.7191,25.0016"/>
<path class="Note" d="M542.844,57.2499 C543.469,57.2499 543.996,57.4126 544.426,57.7382 C544.83,58.0897 545.031,58.5324 545.031,59.0663 C545.031,59.9647 544.569,60.8046 543.645,61.5858 C542.707,62.3671 541.705,62.7577 540.637,62.7577 C540.012,62.7577 539.485,62.5949 539.055,62.2694 C538.651,61.9178 538.449,61.4751 538.449,60.9413 C538.449,60.0428 538.918,59.203 539.856,58.4217 C540.767,57.6405 541.763,57.2499 542.844,57.2499"/>
<path class="Note" d="M519.495,57.2499 C520.12,57.2499 520.647,57.4126 521.077,57.7382 C521.48,58.0897 521.682,58.5324 521.682,59.0663 C521.682,59.9647 521.22,60.8046 520.295,61.5858 C519.358,62.3671 518.355,62.7577 517.288,62.7577 C516.663,62.7577 516.135,62.5949 515.705,62.2694 C515.302,61.9178 515.1,61.4751 515.1,60.9413 C515.1,60.0428 515.569,59.203 516.506,58.4217 C517.418,57.6405 518.414,57.2499 519.495,57.2499"/>
<path class="Note" d="M496.145,57.2499 C496.77,57.2499 497.297,57.4126 497.727,57.7382 C498.131,58.0897 498.333,58.5324 498.333,59.0663 C498.333,59.9647 497.87,60.8046 496.946,61.5858 C496.008,62.3671 495.006,62.7577 493.938,62.7577 C493.313,62.7577 492.786,62.5949 492.356,62.2694 C491.952,61.9178 491.751,61.4751 491.751,60.9413 C491.751,60.0428 492.219,59.203 493.157,58.4217 C494.068,57.6405 495.064,57.2499 496.145,57.2499"/>
<path class="Note" d="M496.145,37.2486 C496.77,37.2486 497.297,37.4114 497.727,37.7369 C498.131,38.0885 498.333,38.5312 498.333,39.065 C498.333,39.9635 497.87,40.8033 496.946,41.5846 C496.008,42.3658 495.006,42.7564 493.938,42.7564 C493.313,42.7564 492.786,42.5937 492.356,42.2681 C491.952,41.9166 491.751,41.4739 491.751,40.94 C491.751,40.0416 492.219,39.2017 493.157,38.4205 C494.068,37.6392 495.064,37.2486 496.145,37.2486"/>
<path class="Note" d="M472.796,57.2499 C473.421,57.2499 473.948,57.4126 474.378,57.7382 C474.781,58.0897 474.983,58.5324 474.983,59.0663 C474.983,59.9647 474.521,60.8046 473.596,61.5858 C472.659,62.3671 471.656,62.7577 470.589,62.7577 C469.964,62.7577 469.436,62.5949 469.007,62.2694 C468.603,61.9178 468.401,61.4751 468.401,60.9413 C468.401,60.0428 468.87,59.203 469.807,58.4217 C470.719,57.6405 471.715,57.2499 472.796,57.2499"/>
<path class="Note" d="M449.446,57.2499 C450.071,57.2499 450.599,57.4126 451.028,57.7382 C451.432,58.0897 451.634,58.5324 451.634,59.0663 C451.634,59.9647 451.172,60.8046 450.247,61.5858 C449.31,62.3671 448.307,62.7577 447.239,62.7577 C446.614,62.7577 446.087,62.5949 445.657,62.2694 C445.254,61.9178 445.052,61.4751 445.052,60.9413 C445.052,60.0428 445.52,59.203 446.458,58.4217 C447.369,57.6405 448.366,57.2499 449.446,57.2499"/>
<path class="Note" d="M426.097,57.2499 C426.722,57.2499 427.249,57.4126 427.679,57.7382 C428.083,58.0897 428.284,58.5324 428.284,59.0663 C428.284,59.9647 427.822,60.8046 426.898,61.5858 C425.96,62.3671 424.958,62.7577 423.89,62.7577 C423.265,62.7577 422.737,62.5949 422.308,62.2694 C421.904,61.9178 421.702,61.4751 421.702,60.9413 C421.702,60.0428 422.171,59.203 423.109,58.4217 C424.02,57.6405 425.016,57.2499 426.097,57.2499"/>
<path class="Note" d="M426.097,37.2486 C426.722,37.2486 427.249,37.4114 427.679,37.7369 C428.083,38.0885 428.284,38.5312 428.284,39.065 C428.284,39.9635 427.822,40.8033 426.898,41.5846 C425.96,42.3658 424.958,42.7564 423.89,42.7564 C423.265,42.7564 422.737,42.5937 422.308,42.2681 C421.904,41.9166 421.702,41.4739 421.702,40.94 C421.702,40.0416 422.171,39.2017 423.109,38.4205 C424.02,37.6392 425.016,37.2486 426.097,37.2486"/>
<path class="Note" d="M402.747,57.2499 C403.372,57.2499 403.9,57.4126 404.329,57.7382 C404.733,58.0897 404.935,58.5324 404.935,59.0663 C404.935,59.9647 404.473,60.8046 403.548,61.5858 C402.611,62.3671 401.608,62.7577 400.54,62.7577 C399.915,62.7577 399.388,62.5949 398.958,62.2694 C398.555,61.9178 398.353,61.4751 398.353,60.9413 C398.353,60.0428 398.822,59.203 399.759,58.4217 C400.671,57.6405 401.667,57.2499 402.747,57.2499"/>
<path class="Note" d="M379.398,57.2499 C380.023,57.2499 380.55,57.4126 380.98,57.7382 C381.384,58.0897 381.585,58.5324 381.585,59.0663 C381.585,59.9647 381.123,60.8046 380.199,61.5858 C379.261,62.3671 378.259,62.7577 377.191,62.7577 C376.566,62.7577 376.039,62.5949 375.609,62.2694 C375.205,61.9178 375.003,61.4751 375.003,60.9413 C375.003,60.0428 375.472,59.203 376.41,58.4217 C377.321,57.6405 378.317,57.2499 379.398,57.2499"/>
<path class="Note" d="M356.049,57.2499 C356.674,57.2499 357.201,57.4126 357.631,57.7382 C358.034,58.0897 358.236,58.5324 358.236,59.0663 C358.236,59.9647 357.774,60.8046 356.849,61.5858 C355.912,62.3671 354.909,62.7577 353.842,62.7577 C353.217,62.7577 352.689,62.5949 352.259,62.2694 C351.856,61.9178 351.654,61.4751 351.654,60.9413 C351.654,60.0428 352.123,59.203 353.06,58.4217 C353.972,57.6405 354.968,57.2499 356.049,57.2499"/>
<path class="Note" d="M356.049,37.2486 C356.674,37.2486 357.201,37.4114 357.631,37.7369 C358.034,38.0885 358.236,38.5312 358.236,39.065 C358.236,39.9635 357.774,40.8033 356.849,41.5846 C355.912,42.3658 354.909,42.7564 353.842,42.7564 C353.217,42.7564 352.689,42.5937 352.259,42.2681 C351.856,41.9166 351.654,41.4739 351.654,40.94 C351.654,40.0416 352.123,39.2017 353.06,38.4205 C353.972,37.6392 354.968,37.2486 356.049,37.2486"/>
<path class="Note" d="M332.699,57.2499 C333.324,57.2499 333.851,57.4126 334.281,57.7382 C334.685,58.0897 334.887,58.5324 334.887,59.0663 C334.887,59.9647 334.424,60.8046 333.5,61.5858 C332.562,62.3671 331.56,62.7577 330.492,62.7577 C329.867,62.7577 329.34,62.5949 328.91,62.2694 C328.506,61.9178 328.305,61.4751 328.305,60.9413 C328.305,60.0428 328.773,59.203 329.711,58.4217 C330.622,57.6405 331.618,57.2499 332.699,57.2499"/>
<path class="Note" d="M309.35,57.2499 C309.975,57.2499 310.502,57.4126 310.932,57.7382 C311.335,58.0897 311.537,58.5324 311.537,59.0663 C311.537,59.9647 311.075,60.8046 310.15,61.5858 C309.213,62.3671 308.21,62.7577 307.143,62.7577 C306.518,62.7577 305.99,62.5949 305.561,62.2694 C305.157,61.9178 304.955,61.4751 304.955,60.9413 C304.955,60.0428 305.424,59.203 306.361,58.4217 C307.273,57.6405 308.269,57.2499 309.35,57.2499"/>
<path class="Note" d="M286,57.2499 C286.625,57.2499 287.153,57.4126 287.582,57.7382 C287.986,58.0897 288.188,58.5324 288.188,59.0663 C288.188,59.9647 287.726,60.8046 286.801,61.5858 C285.864,62.3671 284.861,62.7577 283.793,62.7577 C283.168,62.7577 282.641,62.5949 282.211,62.2694 C281.808,61.9178 281.606,61.4751 281.606,60.9413 C281.606,60.0428 282.074,59.203 283.012,58.4217 C283.923,57.6405 284.92,57.2499 286,57.2499"/>
<path class="Note" d="M286,37.2486 C286.625,37.2486 287.153,37.4114 287.582,37.7369 C287.986,38.0885 288.188,38.5312 288.188,39.065 C288.188,39.9635 287.726,40.8033 286.801,41.5846 C285.864,42.3658 284.861,42.7564 283.793,42.7564 C283.168,42.7564 282.641,42.5937 282.211,42.2681 C281.808,41.9166 281.606,41.4739 281.606,40.94 C281.606,40.0416 282.074,39.2017 283.012,38.4205 C283.923,37.6392 284.92,37.2486 286,37.2486"/>
<path class="Note" d="M262.651,57.2499 C263.276,57.2499 263.803,57.4126 264.233,57.7382 C264.637,58.0897 264.838,58.5324 264.838,59.0663 C264.838,59.9647 264.376,60.8046 263.452,61.5858 C262.514,62.3671 261.512,62.7577 260.444,62.7577 C259.819,62.7577 259.291,62.5949 258.862,62.2694 C258.458,61.9178 258.256,61.4751 258.256,60.9413 C258.256,60.0428 258.725,59.203 259.663,58.4217 C260.574,57.6405 261.57,57.2499 262.651,57.2499"/>
<path class="Note" d="M239.301,57.2499 C239.926,57.2499 240.454,57.4126 240.883,57.7382 C241.287,58.0897 241.489,58.5324 241.489,59.0663 C241.489,59.9647 241.027,60.8046 240.102,61.5858 C239.165,62.3671 238.162,62.7577 237.094,62.7577 C236.469,62.7577 235.942,62.5949 235.512,62.2694 C235.109,61.9178 234.907,61.4751 234.907,60.9413 C234.907,60.0428 235.376,59.203 236.313,58.4217 C237.225,57.6405 238.221,57.2499 239.301,57.2499"/>
<path class="Note" d="M215.952,57.2499 C216.577,57.2499 217.104,57.4126 217.534,57.7382 C217.938,58.0897 218.139,58.5324 218.139,59.0663 C218.139,59.9647 217.677,60.8046 216.753,61.5858 C215.815,62.3671 214.813,62.7577 213.745,62.7577 C213.12,62.7577 212.593,62.5949 212.163,62.2694 C211.759,61.9178 211.557,61.4751 211.557,60.9413 C211.557,60.0428 212.026,59.203 212.964,58.4217 C213.875,57.6405 214.871,57.2499 215.952,57.2499"/>
<path class="Note" d="M215.952,37.2486 C216.577,37.2486 217.104,37.4114 217.534,37.7369 C217.938,38.0885 218.139,38.5312 218.139,39.065 C218.139,39.9635 217.677,40.8033 216.753,41.5846 C215.815,42.3658 214.813,42.7564 213.745,42.7564 C213.12,42.7564 212.593,42.5937 212.163,42.2681 C211.759,41.9166 211.557,41.4739 211.557,40.94 C211.557,40.0416 212.026,39.2017 212.964,38.4205 C213.875,37.6392 214.871,37.2486 215.952,37.2486"/>
<path class="Note" d="M192.603,57.2499 C193.228,57.2499 193.755,57.4126 194.185,57.7382 C194.588,58.0897 194.79,58.5324 194.79,59.0663 C194.79,59.9647 194.328,60.8046 193.403,61.5858 C192.466,62.3671 191.463,62.7577 190.396,62.7577 C189.771,62.7577 189.243,62.5949 188.813,62.2694 C188.41,61.9178 188.208,61.4751 188.208,60.9413 C188.208,60.0428 188.677,59.203 189.614,58.4217 C190.526,57.6405 191.522,57.2499 192.603,57.2499"/>
<path class="Note" d="M169.253,57.2499 C169.878,57.2499 170.405,57.4126 170.835,57.7382 C171.239,58.0897 171.441,58.5324 171.441,59.0663 C171.441,59.9647 170.978,60.8046 170.054,61.5858 C169.116,62.3671 168.114,62.7577 167.046,62.7577 C166.421,62.7577 165.894,62.5949 165.464,62.2694 C165.06,61.9178 164.859,61.4751 164.859,60.9413 C164.859,60.0428 165.327,59.203 166.265,58.4217 C167.176,57.6405 168.172,57.2499 169.253,57.2499"/>
<path class="Note" d="M145.904,57.2499 C146.529,57.2499 147.056,57.4126 147.486,57.7382 C147.889,58.0897 148.091,58.5324 148.091,59.0663 C148.091,59.9647 147.629,60.8046 146.704,61.5858 C145.767,62.3671 144.764,62.7577 143.697,62.7577 C143.072,62.7577 142.544,62.5949 142.115,62.2694 C141.711,61.9178 141.509,61.4751 141.509,60.9413 C141.509,60.0428 141.978,59.203 142.915,58.4217 C143.827,57.6405 144.823,57.2499 145.904,57.2499"/>
<path class="Note" d="M145.904,37.2486 C146.529,37.2486 147.056,37.4114 147.486,37.7369 C147.889,38.0885 148.091,38.5312 148.091,39.065 C148.091,39.9635 147.629,40.8033 146.704,41.5846 C145.767,42.3658 144.764,42.7564 143.697,42.7564 C143.072,42.7564 142.544,42.5937 142.115,42.2681 C141.711,41.9166 141.509,41.4739 141.509,40.94 C141.509,40.0416 141.978,39.2017 142.915,38.4205 C143.827,37.6392 144.823,37.2486 145.904,37.2486"/>
<path class="Note" d="M122.554,57.2499 C123.179,57.2499 123.707,57.4126 124.136,57.7382 C124.54,58.0897 124.742,58.5324 124.742,59.0663 C124.742,59.9647 124.28,60.8046 123.355,61.5858 C122.418,62.3671 121.415,62.7577 120.347,62.7577 C119.722,62.7577 119.195,62.5949 118.765,62.2694 C118.362,61.9178 118.16,61.4751 118.16,60.9413 C118.16,60.0428 118.628,59.203 119.566,58.4217 C120.477,57.6405 121.474,57.2499 122.554,57.2499"/>
<path class="Note" d="M99.2049,57.2499 C99.8299,57.2499 100.357,57.4126 100.787,57.7382 C101.191,58.0897 101.392,58.5324 101.392,59.0663 C101.392,59.9647 100.93,60.8046 100.006,61.5858 C99.0681,62.3671 98.0655,62.7577 96.9978,62.7577 C96.3728,62.7577 95.8455,62.5949 95.4158,62.2694 C95.0121,61.9178 94.8103,61.4751 94.8103,60.9413 C94.8103,60.0428 95.2791,59.203 96.2166,58.4217 C97.128,57.6405 98.1241,57.2499 99.2049,57.2499"/>
<path class="Note" d="M75.8554,57.2499 C76.4804,57.2499 77.0078,57.4126 77.4375,57.7382 C77.8411,58.0897 78.0429,58.5324 78.0429,59.0663 C78.0429,59.9647 77.5807,60.8046 76.6562,61.5858 C75.7187,62.3671 74.7161,62.7577 73.6484,62.7577 C73.0234,62.7577 72.496,62.5949 72.0664,62.2694 C71.6627,61.9178 71.4609,61.4751 71.4609,60.9413 C71.4609,60.0428 71.9296,59.203 72.8671,58.4217 C73.7786,57.6405 74.7747,57.2499 75.8554,57.2499"/>
<path class="Note" d="M75.8554,37.2486 C76.4804,37.2486 77.0078,37.4114 77.4375,37.7369 C77.8411,38.0885 78.0429,38.5312 78.0429,39.065 C78.0429,39.9635 77.5807,40.8033 76.6562,41.5846 C75.7187,42.3658 74.7161,42.7564 73.6484,42.7564 C73.0234,42.7564 72.496,42.5937 72.0664,42.2681 C71.6627,41.9166 71.4609,41.4739 71.4609,40.94 C71.4609,40.0416 71.9296,39.2017 72.8671,38.4205 C73.7786,37.6392 74.7747,37.2486 75.8554,37.2486"/>
<path class="Clef" d="M38.8904,44.886 C38.8904,44.886 38.9295,44.886 39.0076,44.886 C39.0597,44.8729 39.1053,44.8664 39.1443,44.8664 C40.6026,44.8664 41.8006,45.3808 42.7381,46.4094 C43.6756,47.425 44.1443,48.6099 44.1443,49.9641 C44.1443,51.6438 43.4477,53.011 42.0545,54.0656 C41.6899,54.3521 41.2146,54.5865 40.6287,54.7688 C40.6938,55.6151 40.7263,56.2987 40.7263,56.8196 C40.7263,56.9237 40.7133,57.3013 40.6873,57.9524 C40.6352,59.1633 40.2185,60.2115 39.4373,61.0969 C38.6821,61.9693 37.7446,62.4055 36.6248,62.4055 C35.5701,62.4055 34.6717,62.0344 33.9295,61.2922 C33.1873,60.537 32.8162,59.6255 32.8162,58.5578 C32.8162,57.9979 33.031,57.5227 33.4607,57.1321 C33.9034,56.7414 34.4178,56.5461 35.0037,56.5461 C35.5245,56.5461 35.9607,56.7479 36.3123,57.1516 C36.6769,57.5292 36.8592,57.9979 36.8592,58.5578 C36.8592,59.0656 36.6769,59.5018 36.3123,59.8664 C35.9477,60.231 35.5115,60.4133 35.0037,60.4133 C34.7954,60.4133 34.5935,60.3742 34.3982,60.2961 C34.9711,61.1425 35.7329,61.5656 36.6834,61.5656 C37.5818,61.5656 38.3175,61.2011 38.8904,60.4719 C39.4894,59.7167 39.8149,58.8378 39.867,57.8352 C39.893,57.2102 39.906,56.8521 39.906,56.761 C39.906,56.0318 39.88,55.4328 39.8279,54.9641 C39.1769,55.0683 38.5974,55.1203 38.0896,55.1203 C36.2797,55.1203 34.7368,54.4042 33.4607,52.9719 C32.2107,51.5266 31.5857,49.8078 31.5857,47.8156 C31.5857,47.399 31.6248,46.9758 31.7029,46.5461 C31.781,46.1946 31.8787,45.8104 31.9959,45.3938 C32.061,45.1594 32.2368,44.7818 32.5232,44.261 C32.6274,44.1047 32.7446,43.9094 32.8748,43.675 C33.005,43.4406 33.0961,43.2844 33.1482,43.2063 C33.2784,42.9459 33.5323,42.5943 33.9099,42.1516 C34.0141,42.0344 34.1215,41.9042 34.2322,41.761 C34.3429,41.6177 34.4373,41.5005 34.5154,41.4094 C34.5935,41.3183 34.6521,41.2466 34.6912,41.1946 C34.7303,41.1425 35.0232,40.7974 35.5701,40.1594 C35.7003,40.0292 35.8273,39.8892 35.951,39.7395 C36.0747,39.5897 36.1756,39.4726 36.2537,39.3879 C36.3318,39.3033 36.3904,39.2414 36.4295,39.2024 C35.9607,37.6529 35.6678,36.4159 35.5506,35.4914 C35.4594,34.7492 35.4138,33.7336 35.4138,32.4446 C35.4138,31.3117 35.6743,30.2505 36.1951,29.261 C36.7029,28.2323 37.4125,27.3925 38.324,26.7414 C38.3891,26.7024 38.4542,26.6828 38.5193,26.6828 C38.6105,26.6828 38.6756,26.7024 38.7146,26.7414 C39.4178,27.5878 40.0232,28.688 40.531,30.0422 C41.0519,31.3964 41.3123,32.6268 41.3123,33.7336 C41.3123,34.9836 41.0128,36.1555 40.4138,37.2492 C39.7368,38.4081 38.8644,39.606 37.7967,40.843 C38.0701,41.7024 38.4347,43.05 38.8904,44.886 M40.5506,53.968 C41.2276,53.7206 41.755,53.2974 42.1326,52.6985 C42.5493,52.1255 42.7576,51.481 42.7576,50.7649 C42.7576,49.8404 42.4451,49.0201 41.8201,48.3039 C41.1821,47.5617 40.3683,47.1451 39.3787,47.0539 C39.9386,49.8013 40.3292,52.106 40.5506,53.968 M32.992,49.4563 C32.992,50.7453 33.5128,51.8781 34.5545,52.8547 C35.6222,53.8052 36.8201,54.2805 38.1482,54.2805 C38.6951,54.2805 39.2289,54.2414 39.7498,54.1633 C39.5414,52.1841 39.1313,49.8143 38.5193,47.0539 C37.7771,47.1321 37.1847,47.3925 36.742,47.8352 C36.3123,48.2909 36.0974,48.8052 36.0974,49.3781 C36.0974,50.3677 36.6248,51.1685 37.6795,51.7805 C37.7706,51.8716 37.8162,51.9693 37.8162,52.0735 C37.8162,52.1776 37.7706,52.2753 37.6795,52.3664 C37.6013,52.4576 37.5037,52.5031 37.3865,52.5031 C37.3735,52.5031 37.3149,52.4901 37.2107,52.4641 C36.4685,52.0604 35.8956,51.5396 35.492,50.9016 C35.1144,50.2245 34.9256,49.5409 34.9256,48.8508 C34.9256,47.9524 35.2055,47.1386 35.7654,46.4094 C36.3513,45.6802 37.1131,45.2115 38.0506,45.0031 C37.686,43.5448 37.3865,42.4055 37.1521,41.5852 C36.9438,41.8196 36.6931,42.1028 36.4002,42.4348 C36.1072,42.7668 35.9347,42.9654 35.8826,43.0305 C35.4138,43.6425 35.0558,44.1177 34.8084,44.4563 C34.3657,45.0683 34.0401,45.5956 33.8318,46.0383 C33.6105,46.5331 33.4151,47.0735 33.2459,47.6594 C33.0766,48.2193 32.992,48.8183 32.992,49.4563 M39.5154,29.593 C38.5388,30.0748 37.7706,30.7649 37.2107,31.6633 C36.6378,32.5878 36.3513,33.5839 36.3513,34.6516 C36.3513,35.5891 36.5857,36.8521 37.0545,38.4406 C37.992,37.3078 38.6951,36.2597 39.1638,35.2961 C39.6586,34.2805 39.906,33.2193 39.906,32.1125 C39.906,31.2792 39.7758,30.4393 39.5154,29.593"/>
<path class="TimeSig" d="M53.6556,45.0025 C53.265,45.0025 52.9134,44.9309 52.6009,44.7877 C52.2884,44.6444 52.067,44.4947 51.9368,44.3385 C51.7676,44.1431 51.5983,43.9934 51.429,43.8892 C51.2207,43.746 51.0058,43.6744 50.7845,43.6744 C50.4459,43.6744 50.166,43.7786 49.9446,43.9869 C49.7103,44.1822 49.5801,44.4491 49.554,44.7877 C49.528,44.9309 49.4498,45.0025 49.3196,45.0025 C49.1634,45.0025 49.0853,44.9309 49.0853,44.7877 C49.0853,44.2799 49.2025,43.8241 49.4368,43.4205 C49.6712,43.0038 49.9577,42.6588 50.2962,42.3853 C50.5827,42.1379 50.9603,41.8385 51.429,41.4869 C51.5071,41.4218 51.6732,41.2851 51.9271,41.0767 C52.181,40.8684 52.3926,40.6926 52.5618,40.5494 C52.9004,40.2629 53.1933,39.8853 53.4407,39.4166 C53.6751,38.9478 53.7923,38.44 53.7923,37.8931 C53.7923,37.2291 53.6816,36.6562 53.4603,36.1744 C53.2259,35.7056 52.8678,35.4713 52.386,35.4713 C52.0866,35.4713 51.8457,35.5364 51.6634,35.6666 C51.4681,35.7968 51.3704,35.9726 51.3704,36.1939 C51.3704,36.3762 51.4876,36.6041 51.722,36.8775 C51.9564,37.151 52.0735,37.3788 52.0735,37.5611 C52.0735,37.9517 51.9368,38.2838 51.6634,38.5572 C51.403,38.8176 51.084,38.9478 50.7064,38.9478 C50.3157,38.9478 49.9837,38.8111 49.7103,38.5377 C49.4498,38.2512 49.3196,37.9257 49.3196,37.5611 C49.3196,36.8189 49.6191,36.2069 50.2181,35.7252 C50.817,35.2434 51.5397,35.0025 52.386,35.0025 C53.3886,35.0025 54.261,35.276 55.0032,35.8228 C55.7454,36.3437 56.1165,37.0338 56.1165,37.8931 C56.1165,38.4791 56.0123,38.9804 55.804,39.3971 C55.6087,39.8398 55.3157,40.1848 54.9251,40.4322 C54.4824,40.7187 54.0983,40.94 53.7728,41.0963 C53.317,41.3046 52.8613,41.4999 52.4056,41.6822 C51.8587,41.9036 51.4355,42.1119 51.136,42.3072 C51.3053,42.2681 51.4811,42.2486 51.6634,42.2486 C52.2623,42.2486 52.8873,42.4439 53.5384,42.8346 C54.2025,43.2252 54.7168,43.4205 55.0814,43.4205 C55.3027,43.4205 55.4785,43.3814 55.6087,43.3033 C55.7389,43.2252 55.8235,43.1405 55.8626,43.0494 C55.9147,42.9192 55.9603,42.828 55.9993,42.776 C56.0514,42.6978 56.1165,42.6588 56.1946,42.6588 C56.3509,42.6588 56.429,42.7369 56.429,42.8931 C56.429,43.2577 56.1686,43.7004 55.6478,44.2213 C55.14,44.7421 54.4759,45.0025 53.6556,45.0025"/>
<path class="TimeSig" d="M59.8943,35.2564 C60.0766,35.2564 60.2654,35.2109 60.4607,35.1197 C60.656,35.0286 60.7732,34.983 60.8123,34.983 C60.9555,34.983 61.0402,35.0937 61.0662,35.315 L61.0662,42.6588 C61.0662,43.1796 61.2029,43.6223 61.4763,43.9869 C61.7628,44.3515 62.1144,44.5338 62.531,44.5338 C62.6873,44.5338 62.7654,44.6119 62.7654,44.7681 C62.7654,44.9244 62.6873,45.0025 62.531,45.0025 C62.1534,45.0025 61.7107,44.9635 61.2029,44.8853 C60.643,44.7942 60.2133,44.7486 59.9138,44.7486 C59.5883,44.7486 59.1456,44.7942 58.5857,44.8853 C57.9998,44.9635 57.5636,45.0025 57.2771,45.0025 C57.1209,45.0025 57.0428,44.9244 57.0428,44.7681 C57.0428,44.6119 57.1209,44.5338 57.2771,44.5338 C57.6938,44.5338 58.0454,44.3515 58.3318,43.9869 C58.6053,43.6223 58.742,43.1796 58.742,42.6588 L58.742,37.7564 C58.742,37.6913 58.7029,37.6067 58.6248,37.5025 C58.5727,37.4244 58.4946,37.3853 58.3904,37.3853 C58.2993,37.3853 58.2342,37.4309 58.1951,37.5221 L56.9256,40.2369 C56.8735,40.3671 56.7758,40.4322 56.6326,40.4322 C56.5675,40.4322 56.5089,40.4062 56.4568,40.3541 C56.3917,40.289 56.3592,40.2174 56.3592,40.1392 C56.3592,40.1262 56.3722,40.0806 56.3982,40.0025 L58.742,35.0025 C58.768,34.9635 58.8006,34.9439 58.8396,34.9439 C58.8787,34.9439 59.0219,34.996 59.2693,35.1002 C59.5167,35.2043 59.725,35.2564 59.8943,35.2564"/>
<path class="TimeSig" d="M52.7376,45.2571 C52.9199,45.2571 53.1087,45.2115 53.304,45.1203 C53.4993,45.0292 53.6165,44.9836 53.6556,44.9836 C53.7988,44.9836 53.8834,45.0943 53.9095,45.3156 L53.9095,52.6594 C53.9095,53.1802 54.0462,53.6229 54.3196,53.9875 C54.6061,54.3521 54.9577,54.5344 55.3743,54.5344 C55.5306,54.5344 55.6087,54.6125 55.6087,54.7688 C55.6087,54.925 55.5306,55.0031 55.3743,55.0031 C54.9967,55.0031 54.554,54.9641 54.0462,54.886 C53.4863,54.7948 53.0566,54.7492 52.7571,54.7492 C52.4316,54.7492 51.9889,54.7948 51.429,54.886 C50.8431,54.9641 50.4069,55.0031 50.1204,55.0031 C49.9642,55.0031 49.8861,54.925 49.8861,54.7688 C49.8861,54.6125 49.9642,54.5344 50.1204,54.5344 C50.5371,54.5344 50.8887,54.3521 51.1751,53.9875 C51.4486,53.6229 51.5853,53.1802 51.5853,52.6594 L51.5853,47.7571 C51.5853,47.692 51.5462,47.6073 51.4681,47.5031 C51.416,47.425 51.3379,47.386 51.2337,47.386 C51.1426,47.386 51.0775,47.4315 51.0384,47.5227 L49.7689,50.2375 C49.7168,50.3677 49.6191,50.4328 49.4759,50.4328 C49.4108,50.4328 49.3522,50.4068 49.3001,50.3547 C49.235,50.2896 49.2025,50.218 49.2025,50.1399 C49.2025,50.1268 49.2155,50.0813 49.2415,50.0031 L51.5853,45.0031 C51.6113,44.9641 51.6439,44.9446 51.6829,44.9446 C51.722,44.9446 51.8652,44.9966 52.1126,45.1008 C52.36,45.205 52.5683,45.2571 52.7376,45.2571"/>
<path class="TimeSig" d="M58.9997,49.886 C58.5049,49.886 58.199,50.0813 58.0818,50.4719 C57.9906,50.7584 57.945,51.2401 57.945,51.9172 L57.945,52.5031 C57.945,53.1802 57.9906,53.662 58.0818,53.9485 C58.199,54.3391 58.5049,54.5344 58.9997,54.5344 C59.5466,54.5344 59.8917,54.3065 60.0349,53.8508 C60.1651,53.4211 60.2302,52.8742 60.2302,52.2102 C60.2302,51.442 60.1586,50.8625 60.0154,50.4719 C59.8591,50.0813 59.5206,49.886 58.9997,49.886 M57.945,49.6906 C58.3357,49.5344 58.6872,49.4433 58.9997,49.4172 C60.0414,49.4172 60.8747,49.6516 61.4997,50.1203 C62.0987,50.6021 62.3982,51.2922 62.3982,52.1906 C62.3982,53.1021 62.0922,53.8052 61.4802,54.3 C60.8682,54.7688 60.0414,55.0031 58.9997,55.0031 C57.932,55.0031 57.0987,54.5084 56.4997,53.5188 C55.9008,52.5292 55.6013,51.3573 55.6013,50.0031 C55.6013,48.675 55.9529,47.5031 56.656,46.4875 C57.3721,45.4979 58.2901,45.0031 59.4099,45.0031 C60.1391,45.0031 60.7836,45.192 61.3435,45.5696 C61.8904,45.9472 62.1638,46.442 62.1638,47.0539 C62.1638,47.4315 62.0336,47.744 61.7732,47.9914 C61.5388,48.2518 61.2393,48.3821 60.8747,48.3821 C60.5102,48.3821 60.1977,48.2518 59.9372,47.9914 C59.6768,47.731 59.5466,47.4185 59.5466,47.0539 C59.5466,46.9107 59.6768,46.7479 59.9372,46.5656 C60.1977,46.4094 60.3279,46.2466 60.3279,46.0774 C60.3279,45.8951 60.2367,45.7453 60.0544,45.6281 C59.8461,45.524 59.6312,45.4719 59.4099,45.4719 C58.8109,45.4719 58.4138,45.7128 58.2185,46.1946 C58.0102,46.6633 57.906,47.3469 57.906,48.2453 C57.906,48.5058 57.9125,48.7466 57.9255,48.968 C57.9385,49.1893 57.945,49.4302 57.945,49.6906"/>
<path class="Beam" fill-rule="evenodd" d="M71.4609,73.7546 L539.099,73.7546 L539.099,76.2548 L71.4609,76.2548 L71.4609,73.7546 "/>
<path class="Beam" fill-rule="evenodd" d="M71.4609,70.0044 L539.099,70.0044 L539.099,72.5046 L71.4609,72.5046 L71.4609,70.0044 "/>
<path class="Beam" fill-rule="evenodd" d="M77.3941,23.7515 L498.334,23.7515 L498.334,26.2517 L77.3941,26.2517 L77.3941,23.7515 "/>
<path class="NoteDot" d="M500.416,38.3031 C500.195,38.0818 500.084,37.8149 500.084,37.5024 C500.084,37.1899 500.195,36.9229 500.416,36.7016 C500.637,36.4802 500.904,36.3695 501.217,36.3695 C501.529,36.3695 501.796,36.4802 502.018,36.7016 C502.239,36.9229 502.35,37.1899 502.35,37.5024 C502.35,37.8149 502.239,38.0818 502.018,38.3031 C501.796,38.5245 501.529,38.6352 501.217,38.6352 C500.904,38.6352 500.637,38.5245 500.416,38.3031"/>
<path class="NoteDot" d="M430.368,38.3031 C430.146,38.0818 430.036,37.8149 430.036,37.5024 C430.036,37.1899 430.146,36.9229 430.368,36.7016 C430.589,36.4802 430.856,36.3695 431.168,36.3695 C431.481,36.3695 431.748,36.4802 431.969,36.7016 C432.191,36.9229 432.301,37.1899 432.301,37.5024 C432.301,37.8149 432.191,38.0818 431.969,38.3031 C431.748,38.5245 431.481,38.6352 431.168,38.6352 C430.856,38.6352 430.589,38.5245 430.368,38.3031"/>
<path class="NoteDot" d="M360.319,38.3031 C360.098,38.0818 359.987,37.8149 359.987,37.5024 C359.987,37.1899 360.098,36.9229 360.319,36.7016 C360.541,36.4802 360.808,36.3695 361.12,36.3695 C361.433,36.3695 361.7,36.4802 361.921,36.7016 C362.142,36.9229 362.253,37.1899 362.253,37.5024 C362.253,37.8149 362.142,38.0818 361.921,38.3031 C361.7,38.5245 361.433,38.6352 361.12,38.6352 C360.808,38.6352 360.541,38.5245 360.319,38.3031"/>
<path class="NoteDot" d="M290.271,38.3031 C290.05,38.0818 289.939,37.8149 289.939,37.5024 C289.939,37.1899 290.05,36.9229 290.271,36.7016 C290.492,36.4802 290.759,36.3695 291.072,36.3695 C291.384,36.3695 291.651,36.4802 291.873,36.7016 C292.094,36.9229 292.205,37.1899 292.205,37.5024 C292.205,37.8149 292.094,38.0818 291.873,38.3031 C291.651,38.5245 291.384,38.6352 291.072,38.6352 C290.759,38.6352 290.492,38.5245 290.271,38.3031"/>
<path class="NoteDot" d="M220.223,38.3031 C220.001,38.0818 219.891,37.8149 219.891,37.5024 C219.891,37.1899 220.001,36.9229 220.223,36.7016 C220.444,36.4802 220.711,36.3695 221.024,36.3695 C221.336,36.3695 221.603,36.4802 221.824,36.7016 C222.046,36.9229 222.156,37.1899 222.156,37.5024 C222.156,37.8149 222.046,38.0818 221.824,38.3031 C221.603,38.5245 221.336,38.6352 221.024,38.6352 C220.711,38.6352 220.444,38.5245 220.223,38.3031"/>
<path class="NoteDot" d="M150.175,38.3031 C149.953,38.0818 149.843,37.8149 149.843,37.5024 C149.843,37.1899 149.953,36.9229 150.175,36.7016 C150.396,36.4802 150.663,36.3695 150.975,36.3695 C151.288,36.3695 151.555,36.4802 151.776,36.7016 C151.997,36.9229 152.108,37.1899 152.108,37.5024 C152.108,37.8149 151.997,38.0818 151.776,38.3031 C151.555,38.5245 151.288,38.6352 150.975,38.6352 C150.663,38.6352 150.396,38.5245 150.175,38.3031"/>
<path class="NoteDot" d="M80.1263,38.3031 C79.9049,38.0818 79.7942,37.8149 79.7942,37.5024 C79.7942,37.1899 79.9049,36.9229 80.1263,36.7016 C80.3476,36.4802 80.6145,36.3695 80.927,36.3695 C81.2395,36.3695 81.5065,36.4802 81.7278,36.7016 C81.9492,36.9229 82.0599,37.1899 82.0599,37.5024 C82.0599,37.8149 81.9492,38.0818 81.7278,38.3031 C81.5065,38.5245 81.2395,38.6352 80.927,38.6352 C80.6145,38.6352 80.3476,38.5245 80.1263,38.3031"/>
</svg>
