<?xml version="1.0" encoding="UTF-8" standalone="no"?>
<svg width="595.446px" height="90.7087px" viewBox="0 0 595.446 90.7087"
 xmlns="http://www.w3.org/2000/svg" xmlns:xlink="http://www.w3.org/1999/xlink" version="1.2" baseProfile="tiny">
<title>polyblog</title>
<desc>Generated by MuseScore 2.3.2</desc>
<polyline class="StaffLines" fill="none" stroke="#000000" stroke-width="0.40" stroke-linejoin="bevel" points="28.3465,35.0022 567.099,35.0022"/>
<polyline class="StaffLines" fill="none" stroke="#000000" stroke-width="0.40" stroke-linejoin="bevel" points="28.3465,40.0025 567.099,40.0025"/>
<polyline class="StaffLines" fill="none" stroke="#000000" stroke-width="0.40" stroke-linejoin="bevel" points="28.3465,45.0028 567.099,45.0028"/>
<polyline class="StaffLines" fill="none" stroke="#000000" stroke-width="0.40" stroke-linejoin="bevel" points="28.3465,50.0031 567.099,50.0031"/>
<polyline class="StaffLines" fill="none" stroke="#000000" stroke-width="0.40" stroke-linejoin="bevel" points="28.3465,55.0035 567.099,55.0035"/>
<path class="SlurSegment" stroke="#000000" stroke-width="0.35" stroke-linecap="round" stroke-linejoin="round" fill-rule="evenodd" d="M321.28,42.9196 C364.067,36.0191 492.43,36.0191 535.218,42.9196 C492.43,36.8192 364.067,36.8192 321.28,42.9196"/>
<path class="SlurSegment" stroke="#000000" stroke-width="0.35" stroke-linecap="round" stroke-linejoin="round" fill-rule="evenodd" d="M73.1638,42.9196 C115.951,36.0191 244.314,36.0191 287.102,42.9196 C244.314,36.8192 115.951,36.8192 73.1638,42.9196"/>
<polyline class="BarLine" stroke="#000000" stroke-width="0.80" stroke-linejoin="bevel" points="562.199,35.0022 562.199,55.0035"/>
<polyline class="BarLine" stroke="#000000" stroke-width="2.50" stroke-linejoin="bevel" points="565.849,35.0022 565.849,55.0035"/>
<polyline class="LedgerLine" stroke="#000000" stroke-width="0.80" stroke-linecap="square" stroke-linejoin="bevel" points="532.73,60.0038 542.314,60.0038"/>
<polyline class="LedgerLine" stroke="#000000" stroke-width="0.80" stroke-linecap="square" stroke-linejoin="bevel" points="505.162,60.0038 514.745,60.0038"/>
<polyline class="LedgerLine" stroke="#000000" stroke-width="0.80" stroke-linecap="square" stroke-linejoin="bevel" points="477.593,60.0038 487.177,60.0038"/>
<polyline class="LedgerLine" stroke="#000000" stroke-width="0.80" stroke-linecap="square" stroke-linejoin="bevel" points="450.025,60.0038 459.608,60.0038"/>
<polyline class="LedgerLine" stroke="#000000" stroke-width="0.80" stroke-linecap="square" stroke-linejoin="bevel" points="422.457,60.0038 432.04,60.0038"/>
<polyline class="LedgerLine" stroke="#000000" stroke-width="0.80" stroke-linecap="square" stroke-linejoin="bevel" points="394.888,60.0038 404.471,60.0038"/>
<polyline class="LedgerLine" stroke="#000000" stroke-width="0.80" stroke-linecap="square" stroke-linejoin="bevel" points="367.32,60.0038 376.903,60.0038"/>
<polyline class="LedgerLine" stroke="#000000" stroke-width="0.80" stroke-linecap="square" stroke-linejoin="bevel" points="339.751,60.0038 349.335,60.0038"/>
<polyline class="LedgerLine" stroke="#000000" stroke-width="0.80" stroke-linecap="square" stroke-linejoin="bevel" points="312.183,60.0038 321.766,60.0038"/>
<polyline class="LedgerLine" stroke="#000000" stroke-width="0.80" stroke-linecap="square" stroke-linejoin="bevel" points="284.614,60.0038 294.198,60.0038"/>
<polyline class="LedgerLine" stroke="#000000" stroke-width="0.80" stroke-linecap="square" stroke-linejoin="bevel" points="257.046,60.0038 266.629,60.0038"/>
<polyline class="LedgerLine" stroke="#000000" stroke-width="0.80" stroke-linecap="square" stroke-linejoin="bevel" points="229.477,60.0038 239.061,60.0038"/>
<polyline class="LedgerLine" stroke="#000000" stroke-width="0.80" stroke-linecap="square" stroke-linejoin="bevel" points="201.909,60.0038 211.492,60.0038"/>
<polyline class="LedgerLine" stroke="#000000" stroke-width="0.80" stroke-linecap="square" stroke-linejoin="bevel" points="174.34,60.0038 183.924,60.0038"/>
<polyline class="LedgerLine" stroke="#000000" stroke-width="0.80" stroke-linecap="square" stroke-linejoin="bevel" points="146.772,60.0038 156.355,60.0038"/>
<polyline class="LedgerLine" stroke="#000000" stroke-width="0.80" stroke-linecap="square" stroke-linejoin="bevel" points="119.204,60.0038 128.787,60.0038"/>
<polyline class="LedgerLine" stroke="#000000" stroke-width="0.80" stroke-linecap="square" stroke-linejoin="bevel" points="91.6351,60.0038 101.219,60.0038"/>
<polyline class="LedgerLine" stroke="#000000" stroke-width="0.80" stroke-linecap="square" stroke-linejoin="bevel" points="64.0667,60.0038 73.6501,60.0038"/>
<polyline class="Stem" stroke="#000000" stroke-width="0.65" stroke-linecap="round" stroke-linejoin="bevel" points="540.489,44.0637 540.489,27.5017"/>
<polyline class="Stem" stroke="#000000" stroke-width="0.65" stroke-linecap="round" stroke-linejoin="bevel" points="534.555,60.9429 534.555,75.0047"/>
<polyline class="Stem" stroke="#000000" stroke-width="0.65" stroke-linecap="round" stroke-linejoin="bevel" points="506.987,60.9429 506.987,75.0047"/>
<polyline class="Stem" stroke="#000000" stroke-width="0.65" stroke-linecap="round" stroke-linejoin="bevel" points="479.419,60.9429 479.419,75.0047"/>
<polyline class="Stem" stroke="#000000" stroke-width="0.65" stroke-linecap="round" stroke-linejoin="bevel" points="451.85,60.9429 451.85,75.0047"/>
<polyline class="Stem" stroke="#000000" stroke-width="0.65" stroke-linecap="round" stroke-linejoin="bevel" points="424.282,60.9429 424.282,75.0047"/>
<polyline class="Stem" stroke="#000000" stroke-width="0.65" stroke-linecap="round" stroke-linejoin="bevel" points="396.713,60.9429 396.713,75.0047"/>
<polyline class="Stem" stroke="#000000" stroke-width="0.65" stroke-linecap="round" stroke-linejoin="bevel" points="369.145,60.9429 369.145,75.0047"/>
<polyline class="Stem" stroke="#000000" stroke-width="0.65" stroke-linecap="round" stroke-linejoin="bevel" points="341.576,60.9429 341.576,75.0047"/>
<polyline class="Stem" stroke="#000000" stroke-width="0.65" stroke-linecap="round" stroke-linejoin="bevel" points="320.122,44.2348 320.122,29.3769"/>
<polyline class="Stem" stroke="#000000" stroke-width="0.65" stroke-linecap="round" stroke-linejoin="bevel" points="314.008,60.9429 314.008,75.0047"/>
<polyline class="Stem" stroke="#000000" stroke-width="0.65" stroke-linecap="round" stroke-linejoin="bevel" points="292.373,44.0637 292.373,27.5017"/>
<polyline class="Stem" stroke="#000000" stroke-width="0.65" stroke-linecap="round" stroke-linejoin="bevel" points="286.439,60.9429 286.439,75.0047"/>
<polyline class="Stem" stroke="#000000" stroke-width="0.65" stroke-linecap="round" stroke-linejoin="bevel" points="258.871,60.9429 258.871,75.0047"/>
<polyline class="Stem" stroke="#000000" stroke-width="0.65" stroke-linecap="round" stroke-linejoin="bevel" points="231.302,60.9429 231.302,75.0047"/>
<polyline class="Stem" stroke="#000000" stroke-width="0.65" stroke-linecap="round" stroke-linejoin="bevel" points="203.734,60.9429 203.734,75.0047"/>
<polyline class="Stem" stroke="#000000" stroke-width="0.65" stroke-linecap="round" stroke-linejoin="bevel" points="176.166,60.9429 176.166,75.0047"/>
<polyline class="Stem" stroke="#000000" stroke-width="0.65" stroke-linecap="round" stroke-linejoin="bevel" points="148.597,60.9429 148.597,75.0047"/>
<polyline class="Stem" stroke="#000000" stroke-width="0.65" stroke-linecap="round" stroke-linejoin="bevel" points="121.029,60.9429 121.029,75.0047"/>
<polyline class="Stem" stroke="#000000" stroke-width="0.65" stroke-linecap="round" stroke-linejoin="bevel" points="93.4602,60.9429 93.4602,75.0047"/>
<polyline class="Stem" stroke="#000000" stroke-width="0.65" stroke-linecap="round" stroke-linejoin="bevel" points="72.0055,44.2348 72.0055,29.3769"/>
<polyline class="Stem" stroke="#000000" stroke-width="0.65" stroke-linecap="round" stroke-linejoin="bevel" points="65.8918,60.9429 65.8918,75.0047"/>
<path class="Note" d="M538.625,42.2489 C539.25,42.2489 539.777,42.4117 540.207,42.7372 C540.611,43.0888 540.812,43.5315 540.812,44.0653 C540.812,44.9638 540.35,45.8036 539.426,46.5849 C538.488,47.3661 537.486,47.7567 536.418,47.7567 C535.793,47.7567 535.266,47.594 534.836,47.2685 C534.432,46.9169 534.23,46.4742 534.23,45.9403 C534.23,45.0419 534.699,44.2021 535.637,43.4208 C536.548,42.6396 537.544,42.2489 538.625,42.2489"/>
<path class="Note" d="M538.625,57.2499 C539.25,57.2499 539.777,57.4126 540.207,57.7382 C540.611,58.0897 540.812,58.5324 540.812,59.0663 C540.812,59.9647 540.35,60.8046 539.426,61.5858 C538.488,62.3671 537.486,62.7577 536.418,62.7577 C535.793,62.7577 535.266,62.5949 534.836,62.2694 C534.432,61.9178 534.23,61.4751 534.23,60.9413 C534.23,60.0428 534.699,59.203 535.637,58.4217 C536.548,57.6405 537.544,57.2499 538.625,57.2499"/>
<path class="Note" d="M511.057,57.2499 C511.682,57.2499 512.209,57.4126 512.639,57.7382 C513.042,58.0897 513.244,58.5324 513.244,59.0663 C513.244,59.9647 512.782,60.8046 511.857,61.5858 C510.92,62.3671 509.917,62.7577 508.849,62.7577 C508.224,62.7577 507.697,62.5949 507.267,62.2694 C506.864,61.9178 506.662,61.4751 506.662,60.9413 C506.662,60.0428 507.131,59.203 508.068,58.4217 C508.98,57.6405 509.976,57.2499 511.057,57.2499"/>
<path class="Note" d="M483.488,57.2499 C484.113,57.2499 484.64,57.4126 485.07,57.7382 C485.474,58.0897 485.676,58.5324 485.676,59.0663 C485.676,59.9647 485.213,60.8046 484.289,61.5858 C483.351,62.3671 482.349,62.7577 481.281,62.7577 C480.656,62.7577 480.129,62.5949 479.699,62.2694 C479.295,61.9178 479.094,61.4751 479.094,60.9413 C479.094,60.0428 479.562,59.203 480.5,58.4217 C481.411,57.6405 482.407,57.2499 483.488,57.2499"/>
<path class="Note" d="M455.92,57.2499 C456.545,57.2499 457.072,57.4126 457.502,57.7382 C457.905,58.0897 458.107,58.5324 458.107,59.0663 C458.107,59.9647 457.645,60.8046 456.72,61.5858 C455.783,62.3671 454.78,62.7577 453.713,62.7577 C453.088,62.7577 452.56,62.5949 452.131,62.2694 C451.727,61.9178 451.525,61.4751 451.525,60.9413 C451.525,60.0428 451.994,59.203 452.931,58.4217 C453.843,57.6405 454.839,57.2499 455.92,57.2499"/>
<path class="Note" d="M428.351,57.2499 C428.976,57.2499 429.504,57.4126 429.933,57.7382 C430.337,58.0897 430.539,58.5324 430.539,59.0663 C430.539,59.9647 430.076,60.8046 429.152,61.5858 C428.214,62.3671 427.212,62.7577 426.144,62.7577 C425.519,62.7577 424.992,62.5949 424.562,62.2694 C424.158,61.9178 423.957,61.4751 423.957,60.9413 C423.957,60.0428 424.425,59.203 425.363,58.4217 C426.274,57.6405 427.27,57.2499 428.351,57.2499"/>
<path class="Note" d="M400.783,57.2499 C401.408,57.2499 401.935,57.4126 402.365,57.7382 C402.768,58.0897 402.97,58.5324 402.97,59.0663 C402.97,59.9647 402.508,60.8046 401.583,61.5858 C400.646,62.3671 399.643,62.7577 398.576,62.7577 C397.951,62.7577 397.423,62.5949 396.994,62.2694 C396.59,61.9178 396.388,61.4751 396.388,60.9413 C396.388,60.0428 396.857,59.203 397.794,58.4217 C398.706,57.6405 399.702,57.2499 400.783,57.2499"/>
<path class="Note" d="M373.214,57.2499 C373.839,57.2499 374.367,57.4126 374.796,57.7382 C375.2,58.0897 375.402,58.5324 375.402,59.0663 C375.402,59.9647 374.94,60.8046 374.015,61.5858 C373.078,62.3671 372.075,62.7577 371.007,62.7577 C370.382,62.7577 369.855,62.5949 369.425,62.2694 C369.022,61.9178 368.82,61.4751 368.82,60.9413 C368.82,60.0428 369.288,59.203 370.226,58.4217 C371.137,57.6405 372.134,57.2499 373.214,57.2499"/>
<path class="Note" d="M345.646,57.2499 C346.271,57.2499 346.798,57.4126 347.228,57.7382 C347.631,58.0897 347.833,58.5324 347.833,59.0663 C347.833,59.9647 347.371,60.8046 346.447,61.5858 C345.509,62.3671 344.506,62.7577 343.439,62.7577 C342.814,62.7577 342.286,62.5949 341.857,62.2694 C341.453,61.9178 341.251,61.4751 341.251,60.9413 C341.251,60.0428 341.72,59.203 342.658,58.4217 C343.569,57.6405 344.565,57.2499 345.646,57.2499"/>
<path class="Note" d="M319.811,43.6942 C319.811,43.4729 319.726,43.2841 319.557,43.1278 C319.388,42.9586 319.192,42.8739 318.971,42.8739 C318.58,42.8739 317.793,43.2646 316.608,44.0458 C315.384,44.8401 314.635,45.4065 314.362,45.745 C314.218,45.9273 314.147,46.1161 314.147,46.3114 C314.147,46.5328 314.232,46.7216 314.401,46.8778 C314.557,47.0471 314.752,47.1317 314.987,47.1317 C315.364,47.1317 316.159,46.7411 317.37,45.9599 C318.567,45.1786 319.31,44.6122 319.596,44.2606 C319.739,44.0914 319.811,43.9026 319.811,43.6942 M318.776,42.2489 C319.896,42.2489 320.455,42.7307 320.455,43.6942 C320.455,44.163 320.319,44.7099 320.045,45.3349 C319.772,45.9468 319.407,46.4156 318.952,46.7411 C317.949,47.4182 316.692,47.7567 315.182,47.7567 C314.062,47.7567 313.502,47.275 313.502,46.3114 C313.502,45.8817 313.639,45.3414 313.913,44.6903 C314.173,44.0653 314.538,43.5901 315.006,43.2646 C316.009,42.5875 317.265,42.2489 318.776,42.2489"/>
<path class="Note" d="M318.077,57.2499 C318.702,57.2499 319.23,57.4126 319.659,57.7382 C320.063,58.0897 320.265,58.5324 320.265,59.0663 C320.265,59.9647 319.803,60.8046 318.878,61.5858 C317.941,62.3671 316.938,62.7577 315.87,62.7577 C315.245,62.7577 314.718,62.5949 314.288,62.2694 C313.885,61.9178 313.683,61.4751 313.683,60.9413 C313.683,60.0428 314.152,59.203 315.089,58.4217 C316.001,57.6405 316.997,57.2499 318.077,57.2499"/>
<path class="Note" d="M290.509,42.2489 C291.134,42.2489 291.661,42.4117 292.091,42.7372 C292.495,43.0888 292.696,43.5315 292.696,44.0653 C292.696,44.9638 292.234,45.8036 291.31,46.5849 C290.372,47.3661 289.37,47.7567 288.302,47.7567 C287.677,47.7567 287.15,47.594 286.72,47.2685 C286.316,46.9169 286.114,46.4742 286.114,45.9403 C286.114,45.0419 286.583,44.2021 287.521,43.4208 C288.432,42.6396 289.428,42.2489 290.509,42.2489"/>
<path class="Note" d="M290.509,57.2499 C291.134,57.2499 291.661,57.4126 292.091,57.7382 C292.495,58.0897 292.696,58.5324 292.696,59.0663 C292.696,59.9647 292.234,60.8046 291.31,61.5858 C290.372,62.3671 289.37,62.7577 288.302,62.7577 C287.677,62.7577 287.15,62.5949 286.72,62.2694 C286.316,61.9178 286.114,61.4751 286.114,60.9413 C286.114,60.0428 286.583,59.203 287.521,58.4217 C288.432,57.6405 289.428,57.2499 290.509,57.2499"/>
<path class="Note" d="M262.94,57.2499 C263.565,57.2499 264.093,57.4126 264.522,57.7382 C264.926,58.0897 265.128,58.5324 265.128,59.0663 C265.128,59.9647 264.666,60.8046 263.741,61.5858 C262.804,62.3671 261.801,62.7577 260.733,62.7577 C260.108,62.7577 259.581,62.5949 259.151,62.2694 C258.748,61.9178 258.546,61.4751 258.546,60.9413 C258.546,60.0428 259.015,59.203 259.952,58.4217 C260.864,57.6405 261.86,57.2499 262.94,57.2499"/>
<path class="Note" d="M235.372,57.2499 C235.997,57.2499 236.524,57.4126 236.954,57.7382 C237.358,58.0897 237.56,58.5324 237.56,59.0663 C237.56,59.9647 237.097,60.8046 236.173,61.5858 C235.235,62.3671 234.233,62.7577 233.165,62.7577 C232.54,62.7577 232.013,62.5949 231.583,62.2694 C231.179,61.9178 230.977,61.4751 230.977,60.9413 C230.977,60.0428 231.446,59.203 232.384,58.4217 C233.295,57.6405 234.291,57.2499 235.372,57.2499"/>
<path class="Note" d="M207.804,57.2499 C208.429,57.2499 208.956,57.4126 209.386,57.7382 C209.789,58.0897 209.991,58.5324 209.991,59.0663 C209.991,59.9647 209.529,60.8046 208.604,61.5858 C207.667,62.3671 206.664,62.7577 205.597,62.7577 C204.972,62.7577 204.444,62.5949 204.014,62.2694 C203.611,61.9178 203.409,61.4751 203.409,60.9413 C203.409,60.0428 203.878,59.203 204.815,58.4217 C205.727,57.6405 206.723,57.2499 207.804,57.2499"/>
<path class="Note" d="M180.235,57.2499 C180.86,57.2499 181.387,57.4126 181.817,57.7382 C182.221,58.0897 182.423,58.5324 182.423,59.0663 C182.423,59.9647 181.96,60.8046 181.036,61.5858 C180.098,62.3671 179.096,62.7577 178.028,62.7577 C177.403,62.7577 176.876,62.5949 176.446,62.2694 C176.042,61.9178 175.841,61.4751 175.841,60.9413 C175.841,60.0428 176.309,59.203 177.247,58.4217 C178.158,57.6405 179.154,57.2499 180.235,57.2499"/>
<path class="Note" d="M152.667,57.2499 C153.292,57.2499 153.819,57.4126 154.249,57.7382 C154.652,58.0897 154.854,58.5324 154.854,59.0663 C154.854,59.9647 154.392,60.8046 153.467,61.5858 C152.53,62.3671 151.527,62.7577 150.46,62.7577 C149.835,62.7577 149.307,62.5949 148.878,62.2694 C148.474,61.9178 148.272,61.4751 148.272,60.9413 C148.272,60.0428 148.741,59.203 149.678,58.4217 C150.59,57.6405 151.586,57.2499 152.667,57.2499"/>
<path class="Note" d="M125.098,57.2499 C125.723,57.2499 126.251,57.4126 126.68,57.7382 C127.084,58.0897 127.286,58.5324 127.286,59.0663 C127.286,59.9647 126.823,60.8046 125.899,61.5858 C124.961,62.3671 123.959,62.7577 122.891,62.7577 C122.266,62.7577 121.739,62.5949 121.309,62.2694 C120.905,61.9178 120.704,61.4751 120.704,60.9413 C120.704,60.0428 121.172,59.203 122.11,58.4217 C123.021,57.6405 124.017,57.2499 125.098,57.2499"/>
<path class="Note" d="M97.5298,57.2499 C98.1548,57.2499 98.6821,57.4126 99.1118,57.7382 C99.5154,58.0897 99.7173,58.5324 99.7173,59.0663 C99.7173,59.9647 99.255,60.8046 98.3305,61.5858 C97.393,62.3671 96.3904,62.7577 95.3227,62.7577 C94.6977,62.7577 94.1704,62.5949 93.7407,62.2694 C93.337,61.9178 93.1352,61.4751 93.1352,60.9413 C93.1352,60.0428 93.604,59.203 94.5415,58.4217 C95.4529,57.6405 96.449,57.2499 97.5298,57.2499"/>
<path class="Note" d="M71.6949,43.6942 C71.6949,43.4729 71.6102,43.2841 71.441,43.1278 C71.2717,42.9586 71.0764,42.8739 70.855,42.8739 C70.4644,42.8739 69.6767,43.2646 68.4918,44.0458 C67.2678,44.8401 66.5191,45.4065 66.2457,45.745 C66.1024,45.9273 66.0308,46.1161 66.0308,46.3114 C66.0308,46.5328 66.1155,46.7216 66.2847,46.8778 C66.441,47.0471 66.6363,47.1317 66.8707,47.1317 C67.2483,47.1317 68.0425,46.7411 69.2535,45.9599 C70.4514,45.1786 71.1936,44.6122 71.48,44.2606 C71.6233,44.0914 71.6949,43.9026 71.6949,43.6942 M70.6597,42.2489 C71.7795,42.2489 72.3394,42.7307 72.3394,43.6942 C72.3394,44.163 72.2027,44.7099 71.9293,45.3349 C71.6558,45.9468 71.2912,46.4156 70.8355,46.7411 C69.8329,47.4182 68.5764,47.7567 67.066,47.7567 C65.9462,47.7567 65.3863,47.275 65.3863,46.3114 C65.3863,45.8817 65.523,45.3414 65.7964,44.6903 C66.0569,44.0653 66.4214,43.5901 66.8902,43.2646 C67.8928,42.5875 69.1493,42.2489 70.6597,42.2489"/>
<path class="Note" d="M69.9613,57.2499 C70.5863,57.2499 71.1136,57.4126 71.5433,57.7382 C71.947,58.0897 72.1488,58.5324 72.1488,59.0663 C72.1488,59.9647 71.6866,60.8046 70.7621,61.5858 C69.8246,62.3671 68.822,62.7577 67.7543,62.7577 C67.1293,62.7577 66.6019,62.5949 66.1722,62.2694 C65.7686,61.9178 65.5668,61.4751 65.5668,60.9413 C65.5668,60.0428 66.0355,59.203 66.973,58.4217 C67.8845,57.6405 68.8806,57.2499 69.9613,57.2499"/>
<path class="Clef" d="M38.8904,44.886 C38.8904,44.886 38.9295,44.886 39.0076,44.886 C39.0597,44.8729 39.1053,44.8664 39.1443,44.8664 C40.6026,44.8664 41.8006,45.3808 42.7381,46.4094 C43.6756,47.425 44.1443,48.6099 44.1443,49.9641 C44.1443,51.6438 43.4477,53.011 42.0545,54.0656 C41.6899,54.3521 41.2146,54.5865 40.6287,54.7688 C40.6938,55.6151 40.7263,56.2987 40.7263,56.8196 C40.7263,56.9237 40.7133,57.3013 40.6873,57.9524 C40.6352,59.1633 40.2185,60.2115 39.4373,61.0969 C38.6821,61.9693 37.7446,62.4055 36.6248,62.4055 C35.5701,62.4055 34.6717,62.0344 33.9295,61.2922 C33.1873,60.537 32.8162,59.6255 32.8162,58.5578 C32.8162,57.9979 33.031,57.5227 33.4607,57.1321 C33.9034,56.7414 34.4178,56.5461 35.0037,56.5461 C35.5245,56.5461 35.9607,56.7479 36.3123,57.1516 C36.6769,57.5292 36.8592,57.9979 36.8592,58.5578 C36.8592,59.0656 36.6769,59.5018 36.3123,59.8664 C35.9477,60.231 35.5115,60.4133 35.0037,60.4133 C34.7954,60.4133 34.5935,60.3742 34.3982,60.2961 C34.9711,61.1425 35.7329,61.5656 36.6834,61.5656 C37.5818,61.5656 38.3175,61.2011 38.8904,60.4719 C39.4894,59.7167 39.8149,58.8378 39.867,57.8352 C39.893,57.2102 39.906,56.8521 39.906,56.761 C39.906,56.0318 39.88,55.4328 39.8279,54.9641 C39.1769,55.0683 38.5974,55.1203 38.0896,55.1203 C36.2797,55.1203 34.7368,54.4042 33.4607,52.9719 C32.2107,51.5266 31.5857,49.8078 31.5857,47.8156 C31.5857,47.399 31.6248,46.9758 31.7029,46.5461 C31.781,46.1946 31.8787,45.8104 31.9959,45.3938 C32.061,45.1594 32.2368,44.7818 32.5232,44.261 C32.6274,44.1047 32.7446,43.9094 32.8748,43.675 C33.005,43.4406 33.0961,43.2844 33.1482,43.2063 C33.2784,42.9459 33.5323,42.5943 33.9099,42.1516 C34.0141,42.0344 34.1215,41.9042 34.2322,41.761 C34.3429,41.6177 34.4373,41.5005 34.5154,41.4094 C34.5935,41.3183 34.6521,41.2466 34.6912,41.1946 C34.7303,41.1425 35.0232,40.7974 35.5701,40.1594 C35.7003,40.0292 35.8273,39.8892 35.951,39.7395 C36.0747,39.5897 36.1756,39.4726 36.2537,39.3879 C36.3318,39.3033 36.3904,39.2414 36.4295,39.2024 C35.9607,37.6529 35.6678,36.4159 35.5506,35.4914 C35.4594,34.7492 35.4138,33.7336 35.4138,32.4446 C35.4138,31.3117 35.6743,30.2505 36.1951,29.261 C36.7029,28.2323 37.4125,27.3925 38.324,26.7414 C38.3891,26.7024 38.4542,26.6828 38.5193,26.6828 C38.6105,26.6828 38.6756,26.7024 38.7146,26.7414 C39.4178,27.5878 40.0232,28.688 40.531,30.0422 C41.0519,31.3964 41.3123,32.6268 41.3123,33.7336 C41.3123,34.9836 41.0128,36.1555 40.4138,37.2492 C39.7368,38.4081 38.8644,39.606 37.7967,40.843 C38.0701,41.7024 38.4347,43.05 38.8904,44.886 M40.5506,53.968 C41.2276,53.7206 41.755,53.2974 42.1326,52.6985 C42.5493,52.1255 42.7576,51.481 42.7576,50.7649 C42.7576,49.8404 42.4451,49.0201 41.8201,48.3039 C41.1821,47.5617 40.3683,47.1451 39.3787,47.0539 C39.9386,49.8013 40.3292,52.106 40.5506,53.968 M32.992,49.4563 C32.992,50.7453 33.5128,51.8781 34.5545,52.8547 C35.6222,53.8052 36.8201,54.2805 38.1482,54.2805 C38.6951,54.2805 39.2289,54.2414 39.7498,54.1633 C39.5414,52.1841 39.1313,49.8143 38.5193,47.0539 C37.7771,47.1321 37.1847,47.3925 36.742,47.8352 C36.3123,48.2909 36.0974,48.8052 36.0974,49.3781 C36.0974,50.3677 36.6248,51.1685 37.6795,51.7805 C37.7706,51.8716 37.8162,51.9693 37.8162,52.0735 C37.8162,52.1776 37.7706,52.2753 37.6795,52.3664 C37.6013,52.4576 37.5037,52.5031 37.3865,52.5031 C37.3735,52.5031 37.3149,52.4901 37.2107,52.4641 C36.4685,52.0604 35.8956,51.5396 35.492,50.9016 C35.1144,50.2245 34.9256,49.5409 34.9256,48.8508 C34.9256,47.9524 35.2055,47.1386 35.7654,46.4094 C36.3513,45.6802 37.1131,45.2115 38.0506,45.0031 C37.686,43.5448 37.3865,42.4055 37.1521,41.5852 C36.9438,41.8196 36.6931,42.1028 36.4002,42.4348 C36.1072,42.7668 35.9347,42.9654 35.8826,43.0305 C35.4138,43.6425 35.0558,44.1177 34.8084,44.4563 C34.3657,45.0683 34.0401,45.5956 33.8318,46.0383 C33.6105,46.5331 33.4151,47.0735 33.2459,47.6594 C33.0766,48.2193 32.992,48.8183 32.992,49.4563 M39.5154,29.593 C38.5388,30.0748 37.7706,30.7649 37.2107,31.6633 C36.6378,32.5878 36.3513,33.5839 36.3513,34.6516 C36.3513,35.5891 36.5857,36.8521 37.0545,38.4406 C37.992,37.3078 38.6951,36.2597 39.1638,35.2961 C39.6586,34.2805 39.906,33.2193 39.906,32.1125 C39.906,31.2792 39.7758,30.4393 39.5154,29.593"/>
<path class="TimeSig" d="M52.8775,40.1197 C53.3723,40.1197 53.6783,39.9244 53.7954,39.5338 C53.8866,39.2473 53.9322,38.7655 53.9322,38.0885 L53.9322,37.5025 C53.9322,36.8254 53.8866,36.3437 53.7954,36.0572 C53.6783,35.6666 53.3723,35.4713 52.8775,35.4713 C52.2915,35.4713 51.94,35.6991 51.8228,36.1549 C51.7186,36.5715 51.6665,37.1184 51.6665,37.7955 C51.6665,38.6028 51.7382,39.1822 51.8814,39.5338 C52.0507,39.9244 52.3827,40.1197 52.8775,40.1197 M53.9322,40.315 C53.4895,40.4973 53.1379,40.5885 52.8775,40.5885 C51.8358,40.5885 51.0025,40.3541 50.3775,39.8853 C49.7785,39.4036 49.479,38.7135 49.479,37.815 C49.479,36.9036 49.785,36.2004 50.397,35.7056 C51.009,35.2369 51.8358,35.0025 52.8775,35.0025 C53.9452,35.0025 54.7785,35.4973 55.3775,36.4869 C55.9764,37.4765 56.2759,38.6484 56.2759,40.0025 C56.2759,41.3306 55.9244,42.5025 55.2212,43.5181 C54.5311,44.5077 53.6197,45.0025 52.4869,45.0025 C51.7577,45.0025 51.1066,44.8137 50.5337,44.4361 C49.9869,44.0585 49.7134,43.5637 49.7134,42.9517 C49.7134,42.5741 49.8436,42.2616 50.104,42.0142 C50.3384,41.7538 50.6379,41.6236 51.0025,41.6236 C51.3671,41.6236 51.6796,41.7538 51.94,42.0142 C52.2004,42.2747 52.3306,42.5872 52.3306,42.9517 C52.3306,43.095 52.2004,43.2577 51.94,43.44 C51.6796,43.5963 51.5494,43.759 51.5494,43.9283 C51.5494,44.1106 51.6405,44.2603 51.8228,44.3775 C52.0311,44.4817 52.2525,44.5338 52.4869,44.5338 C53.0858,44.5338 53.4829,44.2929 53.6783,43.8111 C53.8736,43.3293 53.9712,42.6457 53.9712,41.7603 C53.9712,41.4999 53.9647,41.259 53.9517,41.0377 C53.9387,40.8163 53.9322,40.5754 53.9322,40.315"/>
<path class="TimeSig" d="M54.311,49.2414 C54.9621,48.5253 55.2876,47.8482 55.2876,47.2102 C55.2876,46.6763 55.0597,46.2531 54.604,45.9406 C54.1613,45.6281 53.6144,45.4719 52.9634,45.4719 C52.5077,45.4719 52.1431,45.6151 51.8696,45.9016 C51.5962,46.188 51.4595,46.5136 51.4595,46.8781 C51.4595,47.3339 51.6613,47.6854 52.065,47.9328 L54.311,49.2414 M54.9165,49.5735 C56.0233,50.2115 56.5767,51.0643 56.5767,52.1321 C56.5767,52.9263 56.2446,53.5969 55.5806,54.1438 C54.9165,54.7167 53.9855,55.0031 52.7876,55.0031 C51.772,55.0031 50.9191,54.7427 50.229,54.2219 C49.4998,53.7011 49.1353,53.0305 49.1353,52.2102 C49.1353,51.9107 49.2264,51.5917 49.4087,51.2531 C49.578,50.9537 49.7472,50.7193 49.9165,50.55 C49.9946,50.4459 50.242,50.1985 50.6587,49.8078 C49.8514,49.2349 49.4413,48.5253 49.4282,47.6789 C49.4282,46.9628 49.7472,46.3313 50.3853,45.7844 C51.0233,45.2636 51.8827,45.0031 52.9634,45.0031 C53.8228,45.0031 54.578,45.1985 55.229,45.5891 C55.854,45.9797 56.1665,46.5201 56.1665,47.2102 C56.1405,47.9133 55.7238,48.7011 54.9165,49.5735 M51.2642,50.1594 C50.4569,50.8755 50.0402,51.5591 50.0142,52.2102 C50.0142,52.8742 50.2941,53.4276 50.854,53.8703 C51.3879,54.313 52.0324,54.5344 52.7876,54.5344 C53.3215,54.5344 53.7381,54.3651 54.0376,54.0266 C54.3501,53.7141 54.5064,53.33 54.5064,52.8742 C54.5064,52.3143 54.2785,51.9042 53.8228,51.6438 L51.2642,50.1594 "/>
<path class="Beam" fill-rule="evenodd" d="M65.5668,73.7546 L534.88,73.7546 L534.88,76.2548 L65.5668,76.2548 L65.5668,73.7546 "/>
<path class="Beam" fill-rule="evenodd" d="M65.5668,70.0044 L534.88,70.0044 L534.88,72.5046 L65.5668,72.5046 L65.5668,70.0044 "/>
<path class="Hook" d="M540.789,27.5017 C540.789,28.1658 540.932,28.8299 541.218,29.4939 C541.492,30.145 541.83,30.7635 542.234,31.3494 L543.406,33.0681 C543.796,33.602 544.135,34.2205 544.421,34.9236 C544.708,35.5746 544.851,36.2322 544.851,36.8963 C544.851,37.5082 544.695,38.1463 544.382,38.8103 C544.773,39.6046 544.968,40.3793 544.968,41.1345 C544.968,42.3325 544.688,43.5564 544.128,44.8064 C544.037,44.9627 543.914,45.0408 543.757,45.0408 C543.627,45.0408 543.51,44.9887 543.406,44.8845 C543.328,44.8064 543.289,44.7088 543.289,44.5916 C543.289,44.5916 543.289,44.559 543.289,44.4939 C543.849,43.3871 544.128,42.2674 544.128,41.1345 C544.128,40.6267 544.031,40.158 543.835,39.7283 C543.601,39.2205 543.315,38.7517 542.976,38.322 C542.546,37.7621 542.208,37.3585 541.96,37.1111 C541.622,36.7726 541.231,36.4015 540.789,35.9978 L540.789,37.5017 L540.164,37.5017 L540.164,27.5017 L540.789,27.5017 M543.855,37.8338 C543.946,37.5603 543.992,37.2478 543.992,36.8963 C543.992,36.4405 543.901,35.9783 543.718,35.5095 C543.523,35.0408 543.25,34.5655 542.898,34.0838 C542.572,33.6801 542.24,33.283 541.902,32.8924 C541.641,32.6059 541.27,32.2283 540.789,31.7595 C540.789,32.2934 540.899,32.8598 541.121,33.4588 C541.355,34.0187 541.596,34.5069 541.843,34.9236 C542.13,35.3663 542.481,35.8676 542.898,36.4275 C543.315,36.9874 543.634,37.4562 543.855,37.8338"/>
<path class="Hook" d="M292.673,27.5017 C292.673,28.1658 292.816,28.8299 293.102,29.4939 C293.376,30.145 293.714,30.7635 294.118,31.3494 L295.29,33.0681 C295.68,33.602 296.019,34.2205 296.305,34.9236 C296.592,35.5746 296.735,36.2322 296.735,36.8963 C296.735,37.5082 296.579,38.1463 296.266,38.8103 C296.657,39.6046 296.852,40.3793 296.852,41.1345 C296.852,42.3325 296.572,43.5564 296.012,44.8064 C295.921,44.9627 295.798,45.0408 295.641,45.0408 C295.511,45.0408 295.394,44.9887 295.29,44.8845 C295.212,44.8064 295.173,44.7088 295.173,44.5916 C295.173,44.5916 295.173,44.559 295.173,44.4939 C295.732,43.3871 296.012,42.2674 296.012,41.1345 C296.012,40.6267 295.915,40.158 295.719,39.7283 C295.485,39.2205 295.199,38.7517 294.86,38.322 C294.43,37.7621 294.092,37.3585 293.844,37.1111 C293.506,36.7726 293.115,36.4015 292.673,35.9978 L292.673,37.5017 L292.048,37.5017 L292.048,27.5017 L292.673,27.5017 M295.739,37.8338 C295.83,37.5603 295.876,37.2478 295.876,36.8963 C295.876,36.4405 295.785,35.9783 295.602,35.5095 C295.407,35.0408 295.133,34.5655 294.782,34.0838 C294.456,33.6801 294.124,33.283 293.786,32.8924 C293.525,32.6059 293.154,32.2283 292.673,31.7595 C292.673,32.2934 292.783,32.8598 293.005,33.4588 C293.239,34.0187 293.48,34.5069 293.727,34.9236 C294.014,35.3663 294.365,35.8676 294.782,36.4275 C295.199,36.9874 295.518,37.4562 295.739,37.8338"/>
</svg>
