<?xml version="1.0" encoding="UTF-8" standalone="no"?>
<svg width="595.446px" height="90.7087px" viewBox="0 0 595.446 90.7087"
 xmlns="http://www.w3.org/2000/svg" xmlns:xlink="http://www.w3.org/1999/xlink" version="1.2" baseProfile="tiny">
<title>231</title>
<desc>Generated by MuseScore 2.3.2</desc>
<polyline class="StaffLines" fill="none" stroke="#000000" stroke-width="0.40" stroke-linejoin="bevel" points="28.3465,35.0022 567.099,35.0022"/>
<polyline class="StaffLines" fill="none" stroke="#000000" stroke-width="0.40" stroke-linejoin="bevel" points="28.3465,40.0025 567.099,40.0025"/>
<polyline class="StaffLines" fill="none" stroke="#000000" stroke-width="0.40" stroke-linejoin="bevel" points="28.3465,45.0028 567.099,45.0028"/>
<polyline class="StaffLines" fill="none" stroke="#000000" stroke-width="0.40" stroke-linejoin="bevel" points="28.3465,50.0031 567.099,50.0031"/>
<polyline class="StaffLines" fill="none" stroke="#000000" stroke-width="0.40" stroke-linejoin="bevel" points="28.3465,55.0035 567.099,55.0035"/>
<polyline class="BarLine" fill="none" stroke="#000000" stroke-width="0.80" stroke-linejoin="bevel" points="588.168,35.0022 588.168,55.0035"/>
<polyline class="BarLine" fill="none" stroke="#000000" stroke-width="2.50" stroke-linejoin="bevel" points="591.819,35.0022 591.819,55.0035"/>
<polyline class="LedgerLine" fill="none" stroke="#000000" stroke-width="0.80" stroke-linecap="square" stroke-linejoin="bevel" points="574.685,60.0038 584.268,60.0038"/>
<polyline class="LedgerLine" fill="none" stroke="#000000" stroke-width="0.80" stroke-linecap="square" stroke-linejoin="bevel" points="562.851,60.0038 572.435,60.0038"/>
<polyline class="LedgerLine" fill="none" stroke="#000000" stroke-width="0.80" stroke-linecap="square" stroke-linejoin="bevel" points="551.018,60.0038 560.601,60.0038"/>
<polyline class="LedgerLine" fill="none" stroke="#000000" stroke-width="0.80" stroke-linecap="square" stroke-linejoin="bevel" points="539.184,60.0038 548.768,60.0038"/>
<polyline class="LedgerLine" fill="none" stroke="#000000" stroke-width="0.80" stroke-linecap="square" stroke-linejoin="bevel" points="527.351,60.0038 536.934,60.0038"/>
<polyline class="LedgerLine" fill="none" stroke="#000000" stroke-width="0.80" stroke-linecap="square" stroke-linejoin="bevel" points="515.517,60.0038 525.1,60.0038"/>
<polyline class="LedgerLine" fill="none" stroke="#000000" stroke-width="0.80" stroke-linecap="square" stroke-linejoin="bevel" points="503.683,60.0038 513.267,60.0038"/>
<polyline class="LedgerLine" fill="none" stroke="#000000" stroke-width="0.80" stroke-linecap="square" stroke-linejoin="bevel" points="491.85,60.0038 501.433,60.0038"/>
<polyline class="LedgerLine" fill="none" stroke="#000000" stroke-width="0.80" stroke-linecap="square" stroke-linejoin="bevel" points="480.016,60.0038 489.6,60.0038"/>
<polyline class="LedgerLine" fill="none" stroke="#000000" stroke-width="0.80" stroke-linecap="square" stroke-linejoin="bevel" points="468.183,60.0038 477.766,60.0038"/>
<polyline class="LedgerLine" fill="none" stroke="#000000" stroke-width="0.80" stroke-linecap="square" stroke-linejoin="bevel" points="456.349,60.0038 465.933,60.0038"/>
<polyline class="LedgerLine" fill="none" stroke="#000000" stroke-width="0.80" stroke-linecap="square" stroke-linejoin="bevel" points="444.516,60.0038 454.099,60.0038"/>
<polyline class="LedgerLine" fill="none" stroke="#000000" stroke-width="0.80" stroke-linecap="square" stroke-linejoin="bevel" points="432.682,60.0038 442.265,60.0038"/>
<polyline class="LedgerLine" fill="none" stroke="#000000" stroke-width="0.80" stroke-linecap="square" stroke-linejoin="bevel" points="414.332,60.0038 423.916,60.0038"/>
<polyline class="LedgerLine" fill="none" stroke="#000000" stroke-width="0.80" stroke-linecap="square" stroke-linejoin="bevel" points="402.499,60.0038 412.082,60.0038"/>
<polyline class="LedgerLine" fill="none" stroke="#000000" stroke-width="0.80" stroke-linecap="square" stroke-linejoin="bevel" points="390.665,60.0038 400.249,60.0038"/>
<polyline class="LedgerLine" fill="none" stroke="#000000" stroke-width="0.80" stroke-linecap="square" stroke-linejoin="bevel" points="378.832,60.0038 388.415,60.0038"/>
<polyline class="LedgerLine" fill="none" stroke="#000000" stroke-width="0.80" stroke-linecap="square" stroke-linejoin="bevel" points="366.998,60.0038 376.582,60.0038"/>
<polyline class="LedgerLine" fill="none" stroke="#000000" stroke-width="0.80" stroke-linecap="square" stroke-linejoin="bevel" points="355.165,60.0038 364.748,60.0038"/>
<polyline class="LedgerLine" fill="none" stroke="#000000" stroke-width="0.80" stroke-linecap="square" stroke-linejoin="bevel" points="343.331,60.0038 352.915,60.0038"/>
<polyline class="LedgerLine" fill="none" stroke="#000000" stroke-width="0.80" stroke-linecap="square" stroke-linejoin="bevel" points="331.498,60.0038 341.081,60.0038"/>
<polyline class="LedgerLine" fill="none" stroke="#000000" stroke-width="0.80" stroke-linecap="square" stroke-linejoin="bevel" points="319.664,60.0038 329.247,60.0038"/>
<polyline class="LedgerLine" fill="none" stroke="#000000" stroke-width="0.80" stroke-linecap="square" stroke-linejoin="bevel" points="307.83,60.0038 317.414,60.0038"/>
<polyline class="LedgerLine" fill="none" stroke="#000000" stroke-width="0.80" stroke-linecap="square" stroke-linejoin="bevel" points="295.997,60.0038 305.58,60.0038"/>
<polyline class="LedgerLine" fill="none" stroke="#000000" stroke-width="0.80" stroke-linecap="square" stroke-linejoin="bevel" points="284.163,60.0038 293.747,60.0038"/>
<polyline class="LedgerLine" fill="none" stroke="#000000" stroke-width="0.80" stroke-linecap="square" stroke-linejoin="bevel" points="272.33,60.0038 281.913,60.0038"/>
<polyline class="LedgerLine" fill="none" stroke="#000000" stroke-width="0.80" stroke-linecap="square" stroke-linejoin="bevel" points="260.496,60.0038 270.08,60.0038"/>
<polyline class="LedgerLine" fill="none" stroke="#000000" stroke-width="0.80" stroke-linecap="square" stroke-linejoin="bevel" points="242.147,60.0038 251.73,60.0038"/>
<polyline class="LedgerLine" fill="none" stroke="#000000" stroke-width="0.80" stroke-linecap="square" stroke-linejoin="bevel" points="230.313,60.0038 239.897,60.0038"/>
<polyline class="LedgerLine" fill="none" stroke="#000000" stroke-width="0.80" stroke-linecap="square" stroke-linejoin="bevel" points="218.48,60.0038 228.063,60.0038"/>
<polyline class="LedgerLine" fill="none" stroke="#000000" stroke-width="0.80" stroke-linecap="square" stroke-linejoin="bevel" points="206.646,60.0038 216.229,60.0038"/>
<polyline class="LedgerLine" fill="none" stroke="#000000" stroke-width="0.80" stroke-linecap="square" stroke-linejoin="bevel" points="194.812,60.0038 204.396,60.0038"/>
<polyline class="LedgerLine" fill="none" stroke="#000000" stroke-width="0.80" stroke-linecap="square" stroke-linejoin="bevel" points="182.979,60.0038 192.562,60.0038"/>
<polyline class="LedgerLine" fill="none" stroke="#000000" stroke-width="0.80" stroke-linecap="square" stroke-linejoin="bevel" points="171.145,60.0038 180.729,60.0038"/>
<polyline class="LedgerLine" fill="none" stroke="#000000" stroke-width="0.80" stroke-linecap="square" stroke-linejoin="bevel" points="159.312,60.0038 168.895,60.0038"/>
<polyline class="LedgerLine" fill="none" stroke="#000000" stroke-width="0.80" stroke-linecap="square" stroke-linejoin="bevel" points="147.478,60.0038 157.062,60.0038"/>
<polyline class="LedgerLine" fill="none" stroke="#000000" stroke-width="0.80" stroke-linecap="square" stroke-linejoin="bevel" points="135.645,60.0038 145.228,60.0038"/>
<polyline class="LedgerLine" fill="none" stroke="#000000" stroke-width="0.80" stroke-linecap="square" stroke-linejoin="bevel" points="123.811,60.0038 133.394,60.0038"/>
<polyline class="LedgerLine" fill="none" stroke="#000000" stroke-width="0.80" stroke-linecap="square" stroke-linejoin="bevel" points="111.978,60.0038 121.561,60.0038"/>
<polyline class="LedgerLine" fill="none" stroke="#000000" stroke-width="0.80" stroke-linecap="square" stroke-linejoin="bevel" points="100.144,60.0038 109.727,60.0038"/>
<polyline class="LedgerLine" fill="none" stroke="#000000" stroke-width="0.80" stroke-linecap="square" stroke-linejoin="bevel" points="88.3104,60.0038 97.8938,60.0038"/>
<polyline class="LedgerLine" fill="none" stroke="#000000" stroke-width="0.80" stroke-linecap="square" stroke-linejoin="bevel" points="69.9608,60.0038 79.5442,60.0038"/>
<polyline class="Stem" fill="none" stroke="#000000" stroke-width="0.65" stroke-linecap="round" stroke-linejoin="bevel" points="576.51,60.9429 576.51,78.755"/>
<polyline class="Stem" fill="none" stroke="#000000" stroke-width="0.65" stroke-linecap="round" stroke-linejoin="bevel" points="564.676,60.9429 564.676,78.755"/>
<polyline class="Stem" fill="none" stroke="#000000" stroke-width="0.65" stroke-linecap="round" stroke-linejoin="bevel" points="552.843,60.9429 552.843,78.755"/>
<polyline class="Stem" fill="none" stroke="#000000" stroke-width="0.65" stroke-linecap="round" stroke-linejoin="bevel" points="541.009,60.9429 541.009,78.755"/>
<polyline class="Stem" fill="none" stroke="#000000" stroke-width="0.65" stroke-linecap="round" stroke-linejoin="bevel" points="529.176,60.9429 529.176,78.755"/>
<polyline class="Stem" fill="none" stroke="#000000" stroke-width="0.65" stroke-linecap="round" stroke-linejoin="bevel" points="517.342,60.9429 517.342,78.755"/>
<polyline class="Stem" fill="none" stroke="#000000" stroke-width="0.65" stroke-linecap="round" stroke-linejoin="bevel" points="505.509,60.9429 505.509,78.755"/>
<polyline class="Stem" fill="none" stroke="#000000" stroke-width="0.65" stroke-linecap="round" stroke-linejoin="bevel" points="493.675,60.9429 493.675,78.755"/>
<polyline class="Stem" fill="none" stroke="#000000" stroke-width="0.65" stroke-linecap="round" stroke-linejoin="bevel" points="481.841,60.9429 481.841,78.755"/>
<polyline class="Stem" fill="none" stroke="#000000" stroke-width="0.65" stroke-linecap="round" stroke-linejoin="bevel" points="470.008,60.9429 470.008,78.755"/>
<polyline class="Stem" fill="none" stroke="#000000" stroke-width="0.65" stroke-linecap="round" stroke-linejoin="bevel" points="458.174,60.9429 458.174,78.755"/>
<polyline class="Stem" fill="none" stroke="#000000" stroke-width="0.65" stroke-linecap="round" stroke-linejoin="bevel" points="446.341,60.9429 446.341,78.755"/>
<polyline class="Stem" fill="none" stroke="#000000" stroke-width="0.65" stroke-linecap="round" stroke-linejoin="bevel" points="434.507,60.9429 434.507,78.755"/>
<polyline class="Stem" fill="none" stroke="#000000" stroke-width="0.65" stroke-linecap="round" stroke-linejoin="bevel" points="416.158,60.9429 416.158,78.755"/>
<polyline class="Stem" fill="none" stroke="#000000" stroke-width="0.65" stroke-linecap="round" stroke-linejoin="bevel" points="422.091,39.0634 422.091,25.6266"/>
<polyline class="Stem" fill="none" stroke="#000000" stroke-width="0.65" stroke-linecap="round" stroke-linejoin="bevel" points="404.324,60.9429 404.324,78.755"/>
<polyline class="Stem" fill="none" stroke="#000000" stroke-width="0.65" stroke-linecap="round" stroke-linejoin="bevel" points="392.49,60.9429 392.49,78.755"/>
<polyline class="Stem" fill="none" stroke="#000000" stroke-width="0.65" stroke-linecap="round" stroke-linejoin="bevel" points="380.657,60.9429 380.657,78.755"/>
<polyline class="Stem" fill="none" stroke="#000000" stroke-width="0.65" stroke-linecap="round" stroke-linejoin="bevel" points="368.823,60.9429 368.823,78.755"/>
<polyline class="Stem" fill="none" stroke="#000000" stroke-width="0.65" stroke-linecap="round" stroke-linejoin="bevel" points="356.99,60.9429 356.99,78.755"/>
<polyline class="Stem" fill="none" stroke="#000000" stroke-width="0.65" stroke-linecap="round" stroke-linejoin="bevel" points="345.156,60.9429 345.156,78.755"/>
<polyline class="Stem" fill="none" stroke="#000000" stroke-width="0.65" stroke-linecap="round" stroke-linejoin="bevel" points="333.323,60.9429 333.323,78.755"/>
<polyline class="Stem" fill="none" stroke="#000000" stroke-width="0.65" stroke-linecap="round" stroke-linejoin="bevel" points="321.489,60.9429 321.489,78.755"/>
<polyline class="Stem" fill="none" stroke="#000000" stroke-width="0.65" stroke-linecap="round" stroke-linejoin="bevel" points="309.656,60.9429 309.656,78.755"/>
<polyline class="Stem" fill="none" stroke="#000000" stroke-width="0.65" stroke-linecap="round" stroke-linejoin="bevel" points="297.822,60.9429 297.822,78.755"/>
<polyline class="Stem" fill="none" stroke="#000000" stroke-width="0.65" stroke-linecap="round" stroke-linejoin="bevel" points="285.988,60.9429 285.988,78.755"/>
<polyline class="Stem" fill="none" stroke="#000000" stroke-width="0.65" stroke-linecap="round" stroke-linejoin="bevel" points="274.155,60.9429 274.155,78.755"/>
<polyline class="Stem" fill="none" stroke="#000000" stroke-width="0.65" stroke-linecap="round" stroke-linejoin="bevel" points="262.321,60.9429 262.321,78.755"/>
<polyline class="Stem" fill="none" stroke="#000000" stroke-width="0.65" stroke-linecap="round" stroke-linejoin="bevel" points="243.972,60.9429 243.972,78.755"/>
<polyline class="Stem" fill="none" stroke="#000000" stroke-width="0.65" stroke-linecap="round" stroke-linejoin="bevel" points="249.905,39.0634 249.905,25.6266"/>
<polyline class="Stem" fill="none" stroke="#000000" stroke-width="0.65" stroke-linecap="round" stroke-linejoin="bevel" points="232.138,60.9429 232.138,78.755"/>
<polyline class="Stem" fill="none" stroke="#000000" stroke-width="0.65" stroke-linecap="round" stroke-linejoin="bevel" points="220.305,60.9429 220.305,78.755"/>
<polyline class="Stem" fill="none" stroke="#000000" stroke-width="0.65" stroke-linecap="round" stroke-linejoin="bevel" points="208.471,60.9429 208.471,78.755"/>
<polyline class="Stem" fill="none" stroke="#000000" stroke-width="0.65" stroke-linecap="round" stroke-linejoin="bevel" points="196.638,60.9429 196.638,78.755"/>
<polyline class="Stem" fill="none" stroke="#000000" stroke-width="0.65" stroke-linecap="round" stroke-linejoin="bevel" points="184.804,60.9429 184.804,78.755"/>
<polyline class="Stem" fill="none" stroke="#000000" stroke-width="0.65" stroke-linecap="round" stroke-linejoin="bevel" points="172.97,60.9429 172.97,78.755"/>
<polyline class="Stem" fill="none" stroke="#000000" stroke-width="0.65" stroke-linecap="round" stroke-linejoin="bevel" points="161.137,60.9429 161.137,78.755"/>
<polyline class="Stem" fill="none" stroke="#000000" stroke-width="0.65" stroke-linecap="round" stroke-linejoin="bevel" points="149.303,60.9429 149.303,78.755"/>
<polyline class="Stem" fill="none" stroke="#000000" stroke-width="0.65" stroke-linecap="round" stroke-linejoin="bevel" points="137.47,60.9429 137.47,78.755"/>
<polyline class="Stem" fill="none" stroke="#000000" stroke-width="0.65" stroke-linecap="round" stroke-linejoin="bevel" points="125.636,60.9429 125.636,78.755"/>
<polyline class="Stem" fill="none" stroke="#000000" stroke-width="0.65" stroke-linecap="round" stroke-linejoin="bevel" points="113.803,60.9429 113.803,78.755"/>
<polyline class="Stem" fill="none" stroke="#000000" stroke-width="0.65" stroke-linecap="round" stroke-linejoin="bevel" points="101.969,60.9429 101.969,78.755"/>
<polyline class="Stem" fill="none" stroke="#000000" stroke-width="0.65" stroke-linecap="round" stroke-linejoin="bevel" points="90.1355,60.9429 90.1355,78.755"/>
<polyline class="Stem" fill="none" stroke="#000000" stroke-width="0.65" stroke-linecap="round" stroke-linejoin="bevel" points="71.7859,60.9429 71.7859,78.755"/>
<polyline class="Stem" fill="none" stroke="#000000" stroke-width="0.65" stroke-linecap="round" stroke-linejoin="bevel" points="77.7191,39.0634 77.7191,25.6266"/>
<path class="Note" d="M580.579,57.2499 C581.204,57.2499 581.732,57.4126 582.161,57.7382 C582.565,58.0897 582.767,58.5324 582.767,59.0663 C582.767,59.9647 582.305,60.8046 581.38,61.5858 C580.443,62.3671 579.44,62.7577 578.372,62.7577 C577.747,62.7577 577.22,62.5949 576.79,62.2694 C576.387,61.9178 576.185,61.4751 576.185,60.9413 C576.185,60.0428 576.654,59.203 577.591,58.4217 C578.503,57.6405 579.499,57.2499 580.579,57.2499"/>
<path class="Note" d="M568.746,57.2499 C569.371,57.2499 569.898,57.4126 570.328,57.7382 C570.732,58.0897 570.933,58.5324 570.933,59.0663 C570.933,59.9647 570.471,60.8046 569.547,61.5858 C568.609,62.3671 567.607,62.7577 566.539,62.7577 C565.914,62.7577 565.386,62.5949 564.957,62.2694 C564.553,61.9178 564.351,61.4751 564.351,60.9413 C564.351,60.0428 564.82,59.203 565.758,58.4217 C566.669,57.6405 567.665,57.2499 568.746,57.2499"/>
<path class="Note" d="M556.912,57.2499 C557.537,57.2499 558.065,57.4126 558.494,57.7382 C558.898,58.0897 559.1,58.5324 559.1,59.0663 C559.1,59.9647 558.638,60.8046 557.713,61.5858 C556.776,62.3671 555.773,62.7577 554.705,62.7577 C554.08,62.7577 553.553,62.5949 553.123,62.2694 C552.72,61.9178 552.518,61.4751 552.518,60.9413 C552.518,60.0428 552.987,59.203 553.924,58.4217 C554.835,57.6405 555.832,57.2499 556.912,57.2499"/>
<path class="Note" d="M545.079,57.2499 C545.704,57.2499 546.231,57.4126 546.661,57.7382 C547.064,58.0897 547.266,58.5324 547.266,59.0663 C547.266,59.9647 546.804,60.8046 545.88,61.5858 C544.942,62.3671 543.939,62.7577 542.872,62.7577 C542.247,62.7577 541.719,62.5949 541.29,62.2694 C540.886,61.9178 540.684,61.4751 540.684,60.9413 C540.684,60.0428 541.153,59.203 542.09,58.4217 C543.002,57.6405 543.998,57.2499 545.079,57.2499"/>
<path class="Note" d="M533.245,57.2499 C533.87,57.2499 534.398,57.4126 534.827,57.7382 C535.231,58.0897 535.433,58.5324 535.433,59.0663 C535.433,59.9647 534.97,60.8046 534.046,61.5858 C533.108,62.3671 532.106,62.7577 531.038,62.7577 C530.413,62.7577 529.886,62.5949 529.456,62.2694 C529.052,61.9178 528.851,61.4751 528.851,60.9413 C528.851,60.0428 529.319,59.203 530.257,58.4217 C531.168,57.6405 532.164,57.2499 533.245,57.2499"/>
<path class="Note" d="M521.412,57.2499 C522.037,57.2499 522.564,57.4126 522.994,57.7382 C523.397,58.0897 523.599,58.5324 523.599,59.0663 C523.599,59.9647 523.137,60.8046 522.212,61.5858 C521.275,62.3671 520.272,62.7577 519.205,62.7577 C518.58,62.7577 518.052,62.5949 517.623,62.2694 C517.219,61.9178 517.017,61.4751 517.017,60.9413 C517.017,60.0428 517.486,59.203 518.423,58.4217 C519.335,57.6405 520.331,57.2499 521.412,57.2499"/>
<path class="Note" d="M509.578,57.2499 C510.203,57.2499 510.73,57.4126 511.16,57.7382 C511.564,58.0897 511.766,58.5324 511.766,59.0663 C511.766,59.9647 511.303,60.8046 510.379,61.5858 C509.441,62.3671 508.439,62.7577 507.371,62.7577 C506.746,62.7577 506.219,62.5949 505.789,62.2694 C505.385,61.9178 505.184,61.4751 505.184,60.9413 C505.184,60.0428 505.652,59.203 506.59,58.4217 C507.501,57.6405 508.497,57.2499 509.578,57.2499"/>
<path class="Note" d="M497.744,57.2499 C498.369,57.2499 498.897,57.4126 499.327,57.7382 C499.73,58.0897 499.932,58.5324 499.932,59.0663 C499.932,59.9647 499.47,60.8046 498.545,61.5858 C497.608,62.3671 496.605,62.7577 495.537,62.7577 C494.912,62.7577 494.385,62.5949 493.955,62.2694 C493.552,61.9178 493.35,61.4751 493.35,60.9413 C493.35,60.0428 493.819,59.203 494.756,58.4217 C495.668,57.6405 496.664,57.2499 497.744,57.2499"/>
<path class="Note" d="M485.911,57.2499 C486.536,57.2499 487.063,57.4126 487.493,57.7382 C487.897,58.0897 488.098,58.5324 488.098,59.0663 C488.098,59.9647 487.636,60.8046 486.712,61.5858 C485.774,62.3671 484.772,62.7577 483.704,62.7577 C483.079,62.7577 482.552,62.5949 482.122,62.2694 C481.718,61.9178 481.516,61.4751 481.516,60.9413 C481.516,60.0428 481.985,59.203 482.923,58.4217 C483.834,57.6405 484.83,57.2499 485.911,57.2499"/>
<path class="Note" d="M474.077,57.2499 C474.702,57.2499 475.23,57.4126 475.659,57.7382 C476.063,58.0897 476.265,58.5324 476.265,59.0663 C476.265,59.9647 475.803,60.8046 474.878,61.5858 C473.941,62.3671 472.938,62.7577 471.87,62.7577 C471.245,62.7577 470.718,62.5949 470.288,62.2694 C469.885,61.9178 469.683,61.4751 469.683,60.9413 C469.683,60.0428 470.152,59.203 471.089,58.4217 C472.001,57.6405 472.997,57.2499 474.077,57.2499"/>
<path class="Note" d="M462.244,57.2499 C462.869,57.2499 463.396,57.4126 463.826,57.7382 C464.229,58.0897 464.431,58.5324 464.431,59.0663 C464.431,59.9647 463.969,60.8046 463.045,61.5858 C462.107,62.3671 461.104,62.7577 460.037,62.7577 C459.412,62.7577 458.884,62.5949 458.455,62.2694 C458.051,61.9178 457.849,61.4751 457.849,60.9413 C457.849,60.0428 458.318,59.203 459.256,58.4217 C460.167,57.6405 461.163,57.2499 462.244,57.2499"/>
<path class="Note" d="M450.41,57.2499 C451.035,57.2499 451.563,57.4126 451.992,57.7382 C452.396,58.0897 452.598,58.5324 452.598,59.0663 C452.598,59.9647 452.136,60.8046 451.211,61.5858 C450.274,62.3671 449.271,62.7577 448.203,62.7577 C447.578,62.7577 447.051,62.5949 446.621,62.2694 C446.218,61.9178 446.016,61.4751 446.016,60.9413 C446.016,60.0428 446.484,59.203 447.422,58.4217 C448.333,57.6405 449.33,57.2499 450.41,57.2499"/>
<path class="Note" d="M438.577,57.2499 C439.202,57.2499 439.729,57.4126 440.159,57.7382 C440.562,58.0897 440.764,58.5324 440.764,59.0663 C440.764,59.9647 440.302,60.8046 439.377,61.5858 C438.44,62.3671 437.437,62.7577 436.37,62.7577 C435.745,62.7577 435.217,62.5949 434.788,62.2694 C434.384,61.9178 434.182,61.4751 434.182,60.9413 C434.182,60.0428 434.651,59.203 435.588,58.4217 C436.5,57.6405 437.496,57.2499 438.577,57.2499"/>
<path class="Note" d="M420.227,57.2499 C420.852,57.2499 421.379,57.4126 421.809,57.7382 C422.213,58.0897 422.415,58.5324 422.415,59.0663 C422.415,59.9647 421.952,60.8046 421.028,61.5858 C420.09,62.3671 419.088,62.7577 418.02,62.7577 C417.395,62.7577 416.868,62.5949 416.438,62.2694 C416.034,61.9178 415.833,61.4751 415.833,60.9413 C415.833,60.0428 416.301,59.203 417.239,58.4217 C418.15,57.6405 419.146,57.2499 420.227,57.2499"/>
<path class="Note" d="M420.227,37.2486 C420.852,37.2486 421.379,37.4114 421.809,37.7369 C422.213,38.0885 422.415,38.5312 422.415,39.065 C422.415,39.9635 421.952,40.8033 421.028,41.5846 C420.09,42.3658 419.088,42.7564 418.02,42.7564 C417.395,42.7564 416.868,42.5937 416.438,42.2681 C416.034,41.9166 415.833,41.4739 415.833,40.94 C415.833,40.0416 416.301,39.2017 417.239,38.4205 C418.15,37.6392 419.146,37.2486 420.227,37.2486"/>
<path class="Note" d="M408.394,57.2499 C409.019,57.2499 409.546,57.4126 409.976,57.7382 C410.379,58.0897 410.581,58.5324 410.581,59.0663 C410.581,59.9647 410.119,60.8046 409.194,61.5858 C408.257,62.3671 407.254,62.7577 406.187,62.7577 C405.562,62.7577 405.034,62.5949 404.604,62.2694 C404.201,61.9178 403.999,61.4751 403.999,60.9413 C403.999,60.0428 404.468,59.203 405.405,58.4217 C406.317,57.6405 407.313,57.2499 408.394,57.2499"/>
<path class="Note" d="M396.56,57.2499 C397.185,57.2499 397.712,57.4126 398.142,57.7382 C398.546,58.0897 398.747,58.5324 398.747,59.0663 C398.747,59.9647 398.285,60.8046 397.361,61.5858 C396.423,62.3671 395.421,62.7577 394.353,62.7577 C393.728,62.7577 393.201,62.5949 392.771,62.2694 C392.367,61.9178 392.165,61.4751 392.165,60.9413 C392.165,60.0428 392.634,59.203 393.572,58.4217 C394.483,57.6405 395.479,57.2499 396.56,57.2499"/>
<path class="Note" d="M384.726,57.2499 C385.351,57.2499 385.879,57.4126 386.308,57.7382 C386.712,58.0897 386.914,58.5324 386.914,59.0663 C386.914,59.9647 386.452,60.8046 385.527,61.5858 C384.59,62.3671 383.587,62.7577 382.519,62.7577 C381.894,62.7577 381.367,62.5949 380.937,62.2694 C380.534,61.9178 380.332,61.4751 380.332,60.9413 C380.332,60.0428 380.801,59.203 381.738,58.4217 C382.65,57.6405 383.646,57.2499 384.726,57.2499"/>
<path class="Note" d="M372.893,57.2499 C373.518,57.2499 374.045,57.4126 374.475,57.7382 C374.879,58.0897 375.08,58.5324 375.08,59.0663 C375.08,59.9647 374.618,60.8046 373.694,61.5858 C372.756,62.3671 371.754,62.7577 370.686,62.7577 C370.061,62.7577 369.534,62.5949 369.104,62.2694 C368.7,61.9178 368.498,61.4751 368.498,60.9413 C368.498,60.0428 368.967,59.203 369.905,58.4217 C370.816,57.6405 371.812,57.2499 372.893,57.2499"/>
<path class="Note" d="M361.059,57.2499 C361.684,57.2499 362.212,57.4126 362.641,57.7382 C363.045,58.0897 363.247,58.5324 363.247,59.0663 C363.247,59.9647 362.785,60.8046 361.86,61.5858 C360.923,62.3671 359.92,62.7577 358.852,62.7577 C358.227,62.7577 357.7,62.5949 357.27,62.2694 C356.867,61.9178 356.665,61.4751 356.665,60.9413 C356.665,60.0428 357.134,59.203 358.071,58.4217 C358.983,57.6405 359.979,57.2499 361.059,57.2499"/>
<path class="Note" d="M349.226,57.2499 C349.851,57.2499 350.378,57.4126 350.808,57.7382 C351.211,58.0897 351.413,58.5324 351.413,59.0663 C351.413,59.9647 350.951,60.8046 350.027,61.5858 C349.089,62.3671 348.086,62.7577 347.019,62.7577 C346.394,62.7577 345.866,62.5949 345.437,62.2694 C345.033,61.9178 344.831,61.4751 344.831,60.9413 C344.831,60.0428 345.3,59.203 346.237,58.4217 C347.149,57.6405 348.145,57.2499 349.226,57.2499"/>
<path class="Note" d="M337.392,57.2499 C338.017,57.2499 338.545,57.4126 338.974,57.7382 C339.378,58.0897 339.58,58.5324 339.58,59.0663 C339.58,59.9647 339.117,60.8046 338.193,61.5858 C337.255,62.3671 336.253,62.7577 335.185,62.7577 C334.56,62.7577 334.033,62.5949 333.603,62.2694 C333.2,61.9178 332.998,61.4751 332.998,60.9413 C332.998,60.0428 333.466,59.203 334.404,58.4217 C335.315,57.6405 336.311,57.2499 337.392,57.2499"/>
<path class="Note" d="M325.559,57.2499 C326.184,57.2499 326.711,57.4126 327.141,57.7382 C327.544,58.0897 327.746,58.5324 327.746,59.0663 C327.746,59.9647 327.284,60.8046 326.359,61.5858 C325.422,62.3671 324.419,62.7577 323.352,62.7577 C322.727,62.7577 322.199,62.5949 321.77,62.2694 C321.366,61.9178 321.164,61.4751 321.164,60.9413 C321.164,60.0428 321.633,59.203 322.57,58.4217 C323.482,57.6405 324.478,57.2499 325.559,57.2499"/>
<path class="Note" d="M313.725,57.2499 C314.35,57.2499 314.877,57.4126 315.307,57.7382 C315.711,58.0897 315.913,58.5324 315.913,59.0663 C315.913,59.9647 315.45,60.8046 314.526,61.5858 C313.588,62.3671 312.586,62.7577 311.518,62.7577 C310.893,62.7577 310.366,62.5949 309.936,62.2694 C309.532,61.9178 309.331,61.4751 309.331,60.9413 C309.331,60.0428 309.799,59.203 310.737,58.4217 C311.648,57.6405 312.644,57.2499 313.725,57.2499"/>
<path class="Note" d="M301.892,57.2499 C302.517,57.2499 303.044,57.4126 303.474,57.7382 C303.877,58.0897 304.079,58.5324 304.079,59.0663 C304.079,59.9647 303.617,60.8046 302.692,61.5858 C301.755,62.3671 300.752,62.7577 299.685,62.7577 C299.06,62.7577 298.532,62.5949 298.102,62.2694 C297.699,61.9178 297.497,61.4751 297.497,60.9413 C297.497,60.0428 297.966,59.203 298.903,58.4217 C299.815,57.6405 300.811,57.2499 301.892,57.2499"/>
<path class="Note" d="M290.058,57.2499 C290.683,57.2499 291.21,57.4126 291.64,57.7382 C292.044,58.0897 292.245,58.5324 292.245,59.0663 C292.245,59.9647 291.783,60.8046 290.859,61.5858 C289.921,62.3671 288.919,62.7577 287.851,62.7577 C287.226,62.7577 286.699,62.5949 286.269,62.2694 C285.865,61.9178 285.663,61.4751 285.663,60.9413 C285.663,60.0428 286.132,59.203 287.07,58.4217 C287.981,57.6405 288.977,57.2499 290.058,57.2499"/>
<path class="Note" d="M278.224,57.2499 C278.849,57.2499 279.377,57.4126 279.806,57.7382 C280.21,58.0897 280.412,58.5324 280.412,59.0663 C280.412,59.9647 279.95,60.8046 279.025,61.5858 C278.088,62.3671 277.085,62.7577 276.017,62.7577 C275.392,62.7577 274.865,62.5949 274.435,62.2694 C274.032,61.9178 273.83,61.4751 273.83,60.9413 C273.83,60.0428 274.299,59.203 275.236,58.4217 C276.148,57.6405 277.144,57.2499 278.224,57.2499"/>
<path class="Note" d="M266.391,57.2499 C267.016,57.2499 267.543,57.4126 267.973,57.7382 C268.377,58.0897 268.578,58.5324 268.578,59.0663 C268.578,59.9647 268.116,60.8046 267.192,61.5858 C266.254,62.3671 265.252,62.7577 264.184,62.7577 C263.559,62.7577 263.031,62.5949 262.602,62.2694 C262.198,61.9178 261.996,61.4751 261.996,60.9413 C261.996,60.0428 262.465,59.203 263.403,58.4217 C264.314,57.6405 265.31,57.2499 266.391,57.2499"/>
<path class="Note" d="M248.041,57.2499 C248.666,57.2499 249.194,57.4126 249.623,57.7382 C250.027,58.0897 250.229,58.5324 250.229,59.0663 C250.229,59.9647 249.767,60.8046 248.842,61.5858 C247.905,62.3671 246.902,62.7577 245.834,62.7577 C245.209,62.7577 244.682,62.5949 244.252,62.2694 C243.849,61.9178 243.647,61.4751 243.647,60.9413 C243.647,60.0428 244.115,59.203 245.053,58.4217 C245.964,57.6405 246.961,57.2499 248.041,57.2499"/>
<path class="Note" d="M248.041,37.2486 C248.666,37.2486 249.194,37.4114 249.623,37.7369 C250.027,38.0885 250.229,38.5312 250.229,39.065 C250.229,39.9635 249.767,40.8033 248.842,41.5846 C247.905,42.3658 246.902,42.7564 245.834,42.7564 C245.209,42.7564 244.682,42.5937 244.252,42.2681 C243.849,41.9166 243.647,41.4739 243.647,40.94 C243.647,40.0416 244.115,39.2017 245.053,38.4205 C245.964,37.6392 246.961,37.2486 248.041,37.2486"/>
<path class="Note" d="M236.208,57.2499 C236.833,57.2499 237.36,57.4126 237.79,57.7382 C238.193,58.0897 238.395,58.5324 238.395,59.0663 C238.395,59.9647 237.933,60.8046 237.008,61.5858 C236.071,62.3671 235.068,62.7577 234.001,62.7577 C233.376,62.7577 232.848,62.5949 232.419,62.2694 C232.015,61.9178 231.813,61.4751 231.813,60.9413 C231.813,60.0428 232.282,59.203 233.219,58.4217 C234.131,57.6405 235.127,57.2499 236.208,57.2499"/>
<path class="Note" d="M224.374,57.2499 C224.999,57.2499 225.526,57.4126 225.956,57.7382 C226.36,58.0897 226.562,58.5324 226.562,59.0663 C226.562,59.9647 226.099,60.8046 225.175,61.5858 C224.237,62.3671 223.235,62.7577 222.167,62.7577 C221.542,62.7577 221.015,62.5949 220.585,62.2694 C220.181,61.9178 219.98,61.4751 219.98,60.9413 C219.98,60.0428 220.448,59.203 221.386,58.4217 C222.297,57.6405 223.293,57.2499 224.374,57.2499"/>
<path class="Note" d="M212.541,57.2499 C213.166,57.2499 213.693,57.4126 214.123,57.7382 C214.526,58.0897 214.728,58.5324 214.728,59.0663 C214.728,59.9647 214.266,60.8046 213.341,61.5858 C212.404,62.3671 211.401,62.7577 210.334,62.7577 C209.709,62.7577 209.181,62.5949 208.752,62.2694 C208.348,61.9178 208.146,61.4751 208.146,60.9413 C208.146,60.0428 208.615,59.203 209.552,58.4217 C210.464,57.6405 211.46,57.2499 212.541,57.2499"/>
<path class="Note" d="M200.707,57.2499 C201.332,57.2499 201.859,57.4126 202.289,57.7382 C202.693,58.0897 202.895,58.5324 202.895,59.0663 C202.895,59.9647 202.432,60.8046 201.508,61.5858 C200.57,62.3671 199.568,62.7577 198.5,62.7577 C197.875,62.7577 197.348,62.5949 196.918,62.2694 C196.514,61.9178 196.313,61.4751 196.313,60.9413 C196.313,60.0428 196.781,59.203 197.719,58.4217 C198.63,57.6405 199.626,57.2499 200.707,57.2499"/>
<path class="Note" d="M188.873,57.2499 C189.498,57.2499 190.026,57.4126 190.456,57.7382 C190.859,58.0897 191.061,58.5324 191.061,59.0663 C191.061,59.9647 190.599,60.8046 189.674,61.5858 C188.737,62.3671 187.734,62.7577 186.666,62.7577 C186.041,62.7577 185.514,62.5949 185.084,62.2694 C184.681,61.9178 184.479,61.4751 184.479,60.9413 C184.479,60.0428 184.948,59.203 185.885,58.4217 C186.797,57.6405 187.793,57.2499 188.873,57.2499"/>
<path class="Note" d="M177.04,57.2499 C177.665,57.2499 178.192,57.4126 178.622,57.7382 C179.026,58.0897 179.227,58.5324 179.227,59.0663 C179.227,59.9647 178.765,60.8046 177.841,61.5858 C176.903,62.3671 175.901,62.7577 174.833,62.7577 C174.208,62.7577 173.681,62.5949 173.251,62.2694 C172.847,61.9178 172.645,61.4751 172.645,60.9413 C172.645,60.0428 173.114,59.203 174.052,58.4217 C174.963,57.6405 175.959,57.2499 177.04,57.2499"/>
<path class="Note" d="M165.206,57.2499 C165.831,57.2499 166.359,57.4126 166.788,57.7382 C167.192,58.0897 167.394,58.5324 167.394,59.0663 C167.394,59.9647 166.932,60.8046 166.007,61.5858 C165.07,62.3671 164.067,62.7577 162.999,62.7577 C162.374,62.7577 161.847,62.5949 161.417,62.2694 C161.014,61.9178 160.812,61.4751 160.812,60.9413 C160.812,60.0428 161.281,59.203 162.218,58.4217 C163.13,57.6405 164.126,57.2499 165.206,57.2499"/>
<path class="Note" d="M153.373,57.2499 C153.998,57.2499 154.525,57.4126 154.955,57.7382 C155.358,58.0897 155.56,58.5324 155.56,59.0663 C155.56,59.9647 155.098,60.8046 154.174,61.5858 C153.236,62.3671 152.233,62.7577 151.166,62.7577 C150.541,62.7577 150.013,62.5949 149.584,62.2694 C149.18,61.9178 148.978,61.4751 148.978,60.9413 C148.978,60.0428 149.447,59.203 150.385,58.4217 C151.296,57.6405 152.292,57.2499 153.373,57.2499"/>
<path class="Note" d="M141.539,57.2499 C142.164,57.2499 142.692,57.4126 143.121,57.7382 C143.525,58.0897 143.727,58.5324 143.727,59.0663 C143.727,59.9647 143.265,60.8046 142.34,61.5858 C141.403,62.3671 140.4,62.7577 139.332,62.7577 C138.707,62.7577 138.18,62.5949 137.75,62.2694 C137.347,61.9178 137.145,61.4751 137.145,60.9413 C137.145,60.0428 137.613,59.203 138.551,58.4217 C139.462,57.6405 140.459,57.2499 141.539,57.2499"/>
<path class="Note" d="M129.706,57.2499 C130.331,57.2499 130.858,57.4126 131.288,57.7382 C131.691,58.0897 131.893,58.5324 131.893,59.0663 C131.893,59.9647 131.431,60.8046 130.506,61.5858 C129.569,62.3671 128.566,62.7577 127.499,62.7577 C126.874,62.7577 126.346,62.5949 125.917,62.2694 C125.513,61.9178 125.311,61.4751 125.311,60.9413 C125.311,60.0428 125.78,59.203 126.717,58.4217 C127.629,57.6405 128.625,57.2499 129.706,57.2499"/>
<path class="Note" d="M117.872,57.2499 C118.497,57.2499 119.024,57.4126 119.454,57.7382 C119.858,58.0897 120.06,58.5324 120.06,59.0663 C120.06,59.9647 119.597,60.8046 118.673,61.5858 C117.735,62.3671 116.733,62.7577 115.665,62.7577 C115.04,62.7577 114.513,62.5949 114.083,62.2694 C113.679,61.9178 113.478,61.4751 113.478,60.9413 C113.478,60.0428 113.946,59.203 114.884,58.4217 C115.795,57.6405 116.791,57.2499 117.872,57.2499"/>
<path class="Note" d="M106.039,57.2499 C106.664,57.2499 107.191,57.4126 107.621,57.7382 C108.024,58.0897 108.226,58.5324 108.226,59.0663 C108.226,59.9647 107.764,60.8046 106.839,61.5858 C105.902,62.3671 104.899,62.7577 103.832,62.7577 C103.207,62.7577 102.679,62.5949 102.25,62.2694 C101.846,61.9178 101.644,61.4751 101.644,60.9413 C101.644,60.0428 102.113,59.203 103.05,58.4217 C103.962,57.6405 104.958,57.2499 106.039,57.2499"/>
<path class="Note" d="M94.205,57.2499 C94.83,57.2499 95.3574,57.4126 95.787,57.7382 C96.1907,58.0897 96.3925,58.5324 96.3925,59.0663 C96.3925,59.9647 95.9303,60.8046 95.0058,61.5858 C94.0683,62.3671 93.0657,62.7577 91.998,62.7577 C91.373,62.7577 90.8456,62.5949 90.416,62.2694 C90.0123,61.9178 89.8105,61.4751 89.8105,60.9413 C89.8105,60.0428 90.2792,59.203 91.2167,58.4217 C92.1282,57.6405 93.1243,57.2499 94.205,57.2499"/>
<path class="Note" d="M75.8554,57.2499 C76.4804,57.2499 77.0078,57.4126 77.4375,57.7382 C77.8411,58.0897 78.0429,58.5324 78.0429,59.0663 C78.0429,59.9647 77.5807,60.8046 76.6562,61.5858 C75.7187,62.3671 74.7161,62.7577 73.6484,62.7577 C73.0234,62.7577 72.496,62.5949 72.0664,62.2694 C71.6627,61.9178 71.4609,61.4751 71.4609,60.9413 C71.4609,60.0428 71.9296,59.203 72.8671,58.4217 C73.7786,57.6405 74.7747,57.2499 75.8554,57.2499"/>
<path class="Note" d="M75.8554,37.2486 C76.4804,37.2486 77.0078,37.4114 77.4375,37.7369 C77.8411,38.0885 78.0429,38.5312 78.0429,39.065 C78.0429,39.9635 77.5807,40.8033 76.6562,41.5846 C75.7187,42.3658 74.7161,42.7564 73.6484,42.7564 C73.0234,42.7564 72.496,42.5937 72.0664,42.2681 C71.6627,41.9166 71.4609,41.4739 71.4609,40.94 C71.4609,40.0416 71.9296,39.2017 72.8671,38.4205 C73.7786,37.6392 74.7747,37.2486 75.8554,37.2486"/>
<path class="Clef" d="M38.8904,44.886 C38.8904,44.886 38.9295,44.886 39.0076,44.886 C39.0597,44.8729 39.1053,44.8664 39.1443,44.8664 C40.6026,44.8664 41.8006,45.3808 42.7381,46.4094 C43.6756,47.425 44.1443,48.6099 44.1443,49.9641 C44.1443,51.6438 43.4477,53.011 42.0545,54.0656 C41.6899,54.3521 41.2146,54.5865 40.6287,54.7688 C40.6938,55.6151 40.7263,56.2987 40.7263,56.8196 C40.7263,56.9237 40.7133,57.3013 40.6873,57.9524 C40.6352,59.1633 40.2185,60.2115 39.4373,61.0969 C38.6821,61.9693 37.7446,62.4055 36.6248,62.4055 C35.5701,62.4055 34.6717,62.0344 33.9295,61.2922 C33.1873,60.537 32.8162,59.6255 32.8162,58.5578 C32.8162,57.9979 33.031,57.5227 33.4607,57.1321 C33.9034,56.7414 34.4178,56.5461 35.0037,56.5461 C35.5245,56.5461 35.9607,56.7479 36.3123,57.1516 C36.6769,57.5292 36.8592,57.9979 36.8592,58.5578 C36.8592,59.0656 36.6769,59.5018 36.3123,59.8664 C35.9477,60.231 35.5115,60.4133 35.0037,60.4133 C34.7954,60.4133 34.5935,60.3742 34.3982,60.2961 C34.9711,61.1425 35.7329,61.5656 36.6834,61.5656 C37.5818,61.5656 38.3175,61.2011 38.8904,60.4719 C39.4894,59.7167 39.8149,58.8378 39.867,57.8352 C39.893,57.2102 39.906,56.8521 39.906,56.761 C39.906,56.0318 39.88,55.4328 39.8279,54.9641 C39.1769,55.0683 38.5974,55.1203 38.0896,55.1203 C36.2797,55.1203 34.7368,54.4042 33.4607,52.9719 C32.2107,51.5266 31.5857,49.8078 31.5857,47.8156 C31.5857,47.399 31.6248,46.9758 31.7029,46.5461 C31.781,46.1946 31.8787,45.8104 31.9959,45.3938 C32.061,45.1594 32.2368,44.7818 32.5232,44.261 C32.6274,44.1047 32.7446,43.9094 32.8748,43.675 C33.005,43.4406 33.0961,43.2844 33.1482,43.2063 C33.2784,42.9459 33.5323,42.5943 33.9099,42.1516 C34.0141,42.0344 34.1215,41.9042 34.2322,41.761 C34.3429,41.6177 34.4373,41.5005 34.5154,41.4094 C34.5935,41.3183 34.6521,41.2466 34.6912,41.1946 C34.7303,41.1425 35.0232,40.7974 35.5701,40.1594 C35.7003,40.0292 35.8273,39.8892 35.951,39.7395 C36.0747,39.5897 36.1756,39.4726 36.2537,39.3879 C36.3318,39.3033 36.3904,39.2414 36.4295,39.2024 C35.9607,37.6529 35.6678,36.4159 35.5506,35.4914 C35.4594,34.7492 35.4138,33.7336 35.4138,32.4446 C35.4138,31.3117 35.6743,30.2505 36.1951,29.261 C36.7029,28.2323 37.4125,27.3925 38.324,26.7414 C38.3891,26.7024 38.4542,26.6828 38.5193,26.6828 C38.6105,26.6828 38.6756,26.7024 38.7146,26.7414 C39.4178,27.5878 40.0232,28.688 40.531,30.0422 C41.0519,31.3964 41.3123,32.6268 41.3123,33.7336 C41.3123,34.9836 41.0128,36.1555 40.4138,37.2492 C39.7368,38.4081 38.8644,39.606 37.7967,40.843 C38.0701,41.7024 38.4347,43.05 38.8904,44.886 M40.5506,53.968 C41.2276,53.7206 41.755,53.2974 42.1326,52.6985 C42.5493,52.1255 42.7576,51.481 42.7576,50.7649 C42.7576,49.8404 42.4451,49.0201 41.8201,48.3039 C41.1821,47.5617 40.3683,47.1451 39.3787,47.0539 C39.9386,49.8013 40.3292,52.106 40.5506,53.968 M32.992,49.4563 C32.992,50.7453 33.5128,51.8781 34.5545,52.8547 C35.6222,53.8052 36.8201,54.2805 38.1482,54.2805 C38.6951,54.2805 39.2289,54.2414 39.7498,54.1633 C39.5414,52.1841 39.1313,49.8143 38.5193,47.0539 C37.7771,47.1321 37.1847,47.3925 36.742,47.8352 C36.3123,48.2909 36.0974,48.8052 36.0974,49.3781 C36.0974,50.3677 36.6248,51.1685 37.6795,51.7805 C37.7706,51.8716 37.8162,51.9693 37.8162,52.0735 C37.8162,52.1776 37.7706,52.2753 37.6795,52.3664 C37.6013,52.4576 37.5037,52.5031 37.3865,52.5031 C37.3735,52.5031 37.3149,52.4901 37.2107,52.4641 C36.4685,52.0604 35.8956,51.5396 35.492,50.9016 C35.1144,50.2245 34.9256,49.5409 34.9256,48.8508 C34.9256,47.9524 35.2055,47.1386 35.7654,46.4094 C36.3513,45.6802 37.1131,45.2115 38.0506,45.0031 C37.686,43.5448 37.3865,42.4055 37.1521,41.5852 C36.9438,41.8196 36.6931,42.1028 36.4002,42.4348 C36.1072,42.7668 35.9347,42.9654 35.8826,43.0305 C35.4138,43.6425 35.0558,44.1177 34.8084,44.4563 C34.3657,45.0683 34.0401,45.5956 33.8318,46.0383 C33.6105,46.5331 33.4151,47.0735 33.2459,47.6594 C33.0766,48.2193 32.992,48.8183 32.992,49.4563 M39.5154,29.593 C38.5388,30.0748 37.7706,30.7649 37.2107,31.6633 C36.6378,32.5878 36.3513,33.5839 36.3513,34.6516 C36.3513,35.5891 36.5857,36.8521 37.0545,38.4406 C37.992,37.3078 38.6951,36.2597 39.1638,35.2961 C39.6586,34.2805 39.906,33.2193 39.906,32.1125 C39.906,31.2792 39.7758,30.4393 39.5154,29.593"/>
<path class="TimeSig" d="M53.6556,45.0025 C53.265,45.0025 52.9134,44.9309 52.6009,44.7877 C52.2884,44.6444 52.067,44.4947 51.9368,44.3385 C51.7676,44.1431 51.5983,43.9934 51.429,43.8892 C51.2207,43.746 51.0058,43.6744 50.7845,43.6744 C50.4459,43.6744 50.166,43.7786 49.9446,43.9869 C49.7103,44.1822 49.5801,44.4491 49.554,44.7877 C49.528,44.9309 49.4498,45.0025 49.3196,45.0025 C49.1634,45.0025 49.0853,44.9309 49.0853,44.7877 C49.0853,44.2799 49.2025,43.8241 49.4368,43.4205 C49.6712,43.0038 49.9577,42.6588 50.2962,42.3853 C50.5827,42.1379 50.9603,41.8385 51.429,41.4869 C51.5071,41.4218 51.6732,41.2851 51.9271,41.0767 C52.181,40.8684 52.3926,40.6926 52.5618,40.5494 C52.9004,40.2629 53.1933,39.8853 53.4407,39.4166 C53.6751,38.9478 53.7923,38.44 53.7923,37.8931 C53.7923,37.2291 53.6816,36.6562 53.4603,36.1744 C53.2259,35.7056 52.8678,35.4713 52.386,35.4713 C52.0866,35.4713 51.8457,35.5364 51.6634,35.6666 C51.4681,35.7968 51.3704,35.9726 51.3704,36.1939 C51.3704,36.3762 51.4876,36.6041 51.722,36.8775 C51.9564,37.151 52.0735,37.3788 52.0735,37.5611 C52.0735,37.9517 51.9368,38.2838 51.6634,38.5572 C51.403,38.8176 51.084,38.9478 50.7064,38.9478 C50.3157,38.9478 49.9837,38.8111 49.7103,38.5377 C49.4498,38.2512 49.3196,37.9257 49.3196,37.5611 C49.3196,36.8189 49.6191,36.2069 50.2181,35.7252 C50.817,35.2434 51.5397,35.0025 52.386,35.0025 C53.3886,35.0025 54.261,35.276 55.0032,35.8228 C55.7454,36.3437 56.1165,37.0338 56.1165,37.8931 C56.1165,38.4791 56.0123,38.9804 55.804,39.3971 C55.6087,39.8398 55.3157,40.1848 54.9251,40.4322 C54.4824,40.7187 54.0983,40.94 53.7728,41.0963 C53.317,41.3046 52.8613,41.4999 52.4056,41.6822 C51.8587,41.9036 51.4355,42.1119 51.136,42.3072 C51.3053,42.2681 51.4811,42.2486 51.6634,42.2486 C52.2623,42.2486 52.8873,42.4439 53.5384,42.8346 C54.2025,43.2252 54.7168,43.4205 55.0814,43.4205 C55.3027,43.4205 55.4785,43.3814 55.6087,43.3033 C55.7389,43.2252 55.8235,43.1405 55.8626,43.0494 C55.9147,42.9192 55.9603,42.828 55.9993,42.776 C56.0514,42.6978 56.1165,42.6588 56.1946,42.6588 C56.3509,42.6588 56.429,42.7369 56.429,42.8931 C56.429,43.2577 56.1686,43.7004 55.6478,44.2213 C55.14,44.7421 54.4759,45.0025 53.6556,45.0025"/>
<path class="TimeSig" d="M59.8943,35.2564 C60.0766,35.2564 60.2654,35.2109 60.4607,35.1197 C60.656,35.0286 60.7732,34.983 60.8123,34.983 C60.9555,34.983 61.0402,35.0937 61.0662,35.315 L61.0662,42.6588 C61.0662,43.1796 61.2029,43.6223 61.4763,43.9869 C61.7628,44.3515 62.1144,44.5338 62.531,44.5338 C62.6873,44.5338 62.7654,44.6119 62.7654,44.7681 C62.7654,44.9244 62.6873,45.0025 62.531,45.0025 C62.1534,45.0025 61.7107,44.9635 61.2029,44.8853 C60.643,44.7942 60.2133,44.7486 59.9138,44.7486 C59.5883,44.7486 59.1456,44.7942 58.5857,44.8853 C57.9998,44.9635 57.5636,45.0025 57.2771,45.0025 C57.1209,45.0025 57.0428,44.9244 57.0428,44.7681 C57.0428,44.6119 57.1209,44.5338 57.2771,44.5338 C57.6938,44.5338 58.0454,44.3515 58.3318,43.9869 C58.6053,43.6223 58.742,43.1796 58.742,42.6588 L58.742,37.7564 C58.742,37.6913 58.7029,37.6067 58.6248,37.5025 C58.5727,37.4244 58.4946,37.3853 58.3904,37.3853 C58.2993,37.3853 58.2342,37.4309 58.1951,37.5221 L56.9256,40.2369 C56.8735,40.3671 56.7758,40.4322 56.6326,40.4322 C56.5675,40.4322 56.5089,40.4062 56.4568,40.3541 C56.3917,40.289 56.3592,40.2174 56.3592,40.1392 C56.3592,40.1262 56.3722,40.0806 56.3982,40.0025 L58.742,35.0025 C58.768,34.9635 58.8006,34.9439 58.8396,34.9439 C58.8787,34.9439 59.0219,34.996 59.2693,35.1002 C59.5167,35.2043 59.725,35.2564 59.8943,35.2564"/>
<path class="TimeSig" d="M52.7376,45.2571 C52.9199,45.2571 53.1087,45.2115 53.304,45.1203 C53.4993,45.0292 53.6165,44.9836 53.6556,44.9836 C53.7988,44.9836 53.8834,45.0943 53.9095,45.3156 L53.9095,52.6594 C53.9095,53.1802 54.0462,53.6229 54.3196,53.9875 C54.6061,54.3521 54.9577,54.5344 55.3743,54.5344 C55.5306,54.5344 55.6087,54.6125 55.6087,54.7688 C55.6087,54.925 55.5306,55.0031 55.3743,55.0031 C54.9967,55.0031 54.554,54.9641 54.0462,54.886 C53.4863,54.7948 53.0566,54.7492 52.7571,54.7492 C52.4316,54.7492 51.9889,54.7948 51.429,54.886 C50.8431,54.9641 50.4069,55.0031 50.1204,55.0031 C49.9642,55.0031 49.8861,54.925 49.8861,54.7688 C49.8861,54.6125 49.9642,54.5344 50.1204,54.5344 C50.5371,54.5344 50.8887,54.3521 51.1751,53.9875 C51.4486,53.6229 51.5853,53.1802 51.5853,52.6594 L51.5853,47.7571 C51.5853,47.692 51.5462,47.6073 51.4681,47.5031 C51.416,47.425 51.3379,47.386 51.2337,47.386 C51.1426,47.386 51.0775,47.4315 51.0384,47.5227 L49.7689,50.2375 C49.7168,50.3677 49.6191,50.4328 49.4759,50.4328 C49.4108,50.4328 49.3522,50.4068 49.3001,50.3547 C49.235,50.2896 49.2025,50.218 49.2025,50.1399 C49.2025,50.1268 49.2155,50.0813 49.2415,50.0031 L51.5853,45.0031 C51.6113,44.9641 51.6439,44.9446 51.6829,44.9446 C51.722,44.9446 51.8652,44.9966 52.1126,45.1008 C52.36,45.205 52.5683,45.2571 52.7376,45.2571"/>
<path class="TimeSig" d="M58.9997,49.886 C58.5049,49.886 58.199,50.0813 58.0818,50.4719 C57.9906,50.7584 57.945,51.2401 57.945,51.9172 L57.945,52.5031 C57.945,53.1802 57.9906,53.662 58.0818,53.9485 C58.199,54.3391 58.5049,54.5344 58.9997,54.5344 C59.5466,54.5344 59.8917,54.3065 60.0349,53.8508 C60.1651,53.4211 60.2302,52.8742 60.2302,52.2102 C60.2302,51.442 60.1586,50.8625 60.0154,50.4719 C59.8591,50.0813 59.5206,49.886 58.9997,49.886 M57.945,49.6906 C58.3357,49.5344 58.6872,49.4433 58.9997,49.4172 C60.0414,49.4172 60.8747,49.6516 61.4997,50.1203 C62.0987,50.6021 62.3982,51.2922 62.3982,52.1906 C62.3982,53.1021 62.0922,53.8052 61.4802,54.3 C60.8682,54.7688 60.0414,55.0031 58.9997,55.0031 C57.932,55.0031 57.0987,54.5084 56.4997,53.5188 C55.9008,52.5292 55.6013,51.3573 55.6013,50.0031 C55.6013,48.675 55.9529,47.5031 56.656,46.4875 C57.3721,45.4979 58.2901,45.0031 59.4099,45.0031 C60.1391,45.0031 60.7836,45.192 61.3435,45.5696 C61.8904,45.9472 62.1638,46.442 62.1638,47.0539 C62.1638,47.4315 62.0336,47.744 61.7732,47.9914 C61.5388,48.2518 61.2393,48.3821 60.8747,48.3821 C60.5102,48.3821 60.1977,48.2518 59.9372,47.9914 C59.6768,47.731 59.5466,47.4185 59.5466,47.0539 C59.5466,46.9107 59.6768,46.7479 59.9372,46.5656 C60.1977,46.4094 60.3279,46.2466 60.3279,46.0774 C60.3279,45.8951 60.2367,45.7453 60.0544,45.6281 C59.8461,45.524 59.6312,45.4719 59.4099,45.4719 C58.8109,45.4719 58.4138,45.7128 58.2185,46.1946 C58.0102,46.6633 57.906,47.3469 57.906,48.2453 C57.906,48.5058 57.9125,48.7466 57.9255,48.968 C57.9385,49.1893 57.945,49.4302 57.945,49.6906"/>
<path class="Beam" fill-rule="evenodd" d="M71.4609,77.5049 L576.835,77.5049 L576.835,80.005 L71.4609,80.005 L71.4609,77.5049 "/>
<path class="Beam" fill-rule="evenodd" d="M71.4609,73.7546 L576.835,73.7546 L576.835,76.2548 L71.4609,76.2548 L71.4609,73.7546 "/>
<path class="Beam" fill-rule="evenodd" d="M71.4609,70.0044 L576.835,70.0044 L576.835,72.5046 L71.4609,72.5046 L71.4609,70.0044 "/>
<path class="NoteDot" d="M426.998,38.3031 C426.777,38.0818 426.666,37.8149 426.666,37.5024 C426.666,37.1899 426.777,36.9229 426.998,36.7016 C427.219,36.4802 427.486,36.3695 427.799,36.3695 C428.111,36.3695 428.378,36.4802 428.6,36.7016 C428.821,36.9229 428.932,37.1899 428.932,37.5024 C428.932,37.8149 428.821,38.0818 428.6,38.3031 C428.378,38.5245 428.111,38.6352 427.799,38.6352 C427.486,38.6352 427.219,38.5245 426.998,38.3031"/>
<path class="NoteDot" d="M424.498,38.3031 C424.277,38.0818 424.166,37.8149 424.166,37.5024 C424.166,37.1899 424.277,36.9229 424.498,36.7016 C424.719,36.4802 424.986,36.3695 425.299,36.3695 C425.611,36.3695 425.878,36.4802 426.1,36.7016 C426.321,36.9229 426.432,37.1899 426.432,37.5024 C426.432,37.8149 426.321,38.0818 426.1,38.3031 C425.878,38.5245 425.611,38.6352 425.299,38.6352 C424.986,38.6352 424.719,38.5245 424.498,38.3031"/>
<path class="NoteDot" d="M254.812,38.3031 C254.591,38.0818 254.48,37.8149 254.48,37.5024 C254.48,37.1899 254.591,36.9229 254.812,36.7016 C255.034,36.4802 255.301,36.3695 255.613,36.3695 C255.926,36.3695 256.192,36.4802 256.414,36.7016 C256.635,36.9229 256.746,37.1899 256.746,37.5024 C256.746,37.8149 256.635,38.0818 256.414,38.3031 C256.192,38.5245 255.926,38.6352 255.613,38.6352 C255.301,38.6352 255.034,38.5245 254.812,38.3031"/>
<path class="NoteDot" d="M252.312,38.3031 C252.091,38.0818 251.98,37.8149 251.98,37.5024 C251.98,37.1899 252.091,36.9229 252.312,36.7016 C252.533,36.4802 252.8,36.3695 253.113,36.3695 C253.425,36.3695 253.692,36.4802 253.914,36.7016 C254.135,36.9229 254.246,37.1899 254.246,37.5024 C254.246,37.8149 254.135,38.0818 253.914,38.3031 C253.692,38.5245 253.425,38.6352 253.113,38.6352 C252.8,38.6352 252.533,38.5245 252.312,38.3031"/>
<path class="NoteDot" d="M82.6264,38.3031 C82.4051,38.0818 82.2944,37.8149 82.2944,37.5024 C82.2944,37.1899 82.4051,36.9229 82.6264,36.7016 C82.8478,36.4802 83.1147,36.3695 83.4272,36.3695 C83.7397,36.3695 84.0066,36.4802 84.228,36.7016 C84.4493,36.9229 84.56,37.1899 84.56,37.5024 C84.56,37.8149 84.4493,38.0818 84.228,38.3031 C84.0066,38.5245 83.7397,38.6352 83.4272,38.6352 C83.1147,38.6352 82.8478,38.5245 82.6264,38.3031"/>
<path class="NoteDot" d="M80.1263,38.3031 C79.9049,38.0818 79.7942,37.8149 79.7942,37.5024 C79.7942,37.1899 79.9049,36.9229 80.1263,36.7016 C80.3476,36.4802 80.6145,36.3695 80.927,36.3695 C81.2395,36.3695 81.5065,36.4802 81.7278,36.7016 C81.9492,36.9229 82.0599,37.1899 82.0599,37.5024 C82.0599,37.8149 81.9492,38.0818 81.7278,38.3031 C81.5065,38.5245 81.2395,38.6352 80.927,38.6352 C80.6145,38.6352 80.3476,38.5245 80.1263,38.3031"/>
</svg>
