<?xml version="1.0" encoding="UTF-8" standalone="no"?>
<svg width="595.446px" height="90.7087px" viewBox="0 0 595.446 90.7087"
 xmlns="http://www.w3.org/2000/svg" xmlns:xlink="http://www.w3.org/1999/xlink" version="1.2" baseProfile="tiny">
<title>4454</title>
<desc>Generated by MuseScore 2.3.2</desc>
<polyline class="StaffLines" fill="none" stroke="#000000" stroke-width="0.40" stroke-linejoin="bevel" points="28.3465,35.0022 567.099,35.0022"/>
<polyline class="StaffLines" fill="none" stroke="#000000" stroke-width="0.40" stroke-linejoin="bevel" points="28.3465,40.0025 567.099,40.0025"/>
<polyline class="StaffLines" fill="none" stroke="#000000" stroke-width="0.40" stroke-linejoin="bevel" points="28.3465,45.0028 567.099,45.0028"/>
<polyline class="StaffLines" fill="none" stroke="#000000" stroke-width="0.40" stroke-linejoin="bevel" points="28.3465,50.0031 567.099,50.0031"/>
<polyline class="StaffLines" fill="none" stroke="#000000" stroke-width="0.40" stroke-linejoin="bevel" points="28.3465,55.0035 567.099,55.0035"/>
<polyline class="BarLine" fill="none" stroke="#000000" stroke-width="0.80" stroke-linejoin="bevel" points="562.199,35.0022 562.199,55.0035"/>
<polyline class="BarLine" fill="none" stroke="#000000" stroke-width="2.50" stroke-linejoin="bevel" points="565.849,35.0022 565.849,55.0035"/>
<polyline class="BarLine" fill="none" stroke="#000000" stroke-width="0.80" stroke-linejoin="bevel" points="460.826,35.0022 460.826,55.0035"/>
<polyline class="BarLine" fill="none" stroke="#000000" stroke-width="0.80" stroke-linejoin="bevel" points="359.454,35.0022 359.454,55.0035"/>
<polyline class="BarLine" fill="none" stroke="#000000" stroke-width="0.80" stroke-linejoin="bevel" points="258.081,35.0022 258.081,55.0035"/>
<polyline class="BarLine" fill="none" stroke="#000000" stroke-width="0.80" stroke-linejoin="bevel" points="156.708,35.0022 156.708,55.0035"/>
<polyline class="LedgerLine" fill="none" stroke="#000000" stroke-width="0.80" stroke-linecap="square" stroke-linejoin="bevel" points="538.806,60.0038 548.389,60.0038"/>
<polyline class="LedgerLine" fill="none" stroke="#000000" stroke-width="0.80" stroke-linecap="square" stroke-linejoin="bevel" points="513.013,30.0019 522.596,30.0019"/>
<polyline class="LedgerLine" fill="none" stroke="#000000" stroke-width="0.80" stroke-linecap="square" stroke-linejoin="bevel" points="515.163,60.0038 524.746,60.0038"/>
<polyline class="LedgerLine" fill="none" stroke="#000000" stroke-width="0.80" stroke-linecap="square" stroke-linejoin="bevel" points="515.163,65.0041 524.746,65.0041"/>
<polyline class="LedgerLine" fill="none" stroke="#000000" stroke-width="0.80" stroke-linecap="square" stroke-linejoin="bevel" points="491.52,60.0038 501.103,60.0038"/>
<polyline class="LedgerLine" fill="none" stroke="#000000" stroke-width="0.80" stroke-linecap="square" stroke-linejoin="bevel" points="467.877,60.0038 477.46,60.0038"/>
<polyline class="LedgerLine" fill="none" stroke="#000000" stroke-width="0.80" stroke-linecap="square" stroke-linejoin="bevel" points="437.433,60.0038 447.017,60.0038"/>
<polyline class="LedgerLine" fill="none" stroke="#000000" stroke-width="0.80" stroke-linecap="square" stroke-linejoin="bevel" points="413.79,60.0038 423.374,60.0038"/>
<polyline class="LedgerLine" fill="none" stroke="#000000" stroke-width="0.80" stroke-linecap="square" stroke-linejoin="bevel" points="413.79,65.0041 423.374,65.0041"/>
<polyline class="LedgerLine" fill="none" stroke="#000000" stroke-width="0.80" stroke-linecap="square" stroke-linejoin="bevel" points="387.997,30.0019 397.58,30.0019"/>
<polyline class="LedgerLine" fill="none" stroke="#000000" stroke-width="0.80" stroke-linecap="square" stroke-linejoin="bevel" points="390.147,60.0038 399.731,60.0038"/>
<polyline class="LedgerLine" fill="none" stroke="#000000" stroke-width="0.80" stroke-linecap="square" stroke-linejoin="bevel" points="366.504,60.0038 376.087,60.0038"/>
<polyline class="LedgerLine" fill="none" stroke="#000000" stroke-width="0.80" stroke-linecap="square" stroke-linejoin="bevel" points="336.061,60.0038 345.644,60.0038"/>
<polyline class="LedgerLine" fill="none" stroke="#000000" stroke-width="0.80" stroke-linecap="square" stroke-linejoin="bevel" points="312.418,60.0038 322.001,60.0038"/>
<polyline class="LedgerLine" fill="none" stroke="#000000" stroke-width="0.80" stroke-linecap="square" stroke-linejoin="bevel" points="312.418,65.0041 322.001,65.0041"/>
<polyline class="LedgerLine" fill="none" stroke="#000000" stroke-width="0.80" stroke-linecap="square" stroke-linejoin="bevel" points="288.774,60.0038 298.358,60.0038"/>
<polyline class="LedgerLine" fill="none" stroke="#000000" stroke-width="0.80" stroke-linecap="square" stroke-linejoin="bevel" points="262.981,30.0019 272.565,30.0019"/>
<polyline class="LedgerLine" fill="none" stroke="#000000" stroke-width="0.80" stroke-linecap="square" stroke-linejoin="bevel" points="265.131,60.0038 274.715,60.0038"/>
<polyline class="LedgerLine" fill="none" stroke="#000000" stroke-width="0.80" stroke-linecap="square" stroke-linejoin="bevel" points="234.688,60.0038 244.271,60.0038"/>
<polyline class="LedgerLine" fill="none" stroke="#000000" stroke-width="0.80" stroke-linecap="square" stroke-linejoin="bevel" points="211.045,60.0038 220.628,60.0038"/>
<polyline class="LedgerLine" fill="none" stroke="#000000" stroke-width="0.80" stroke-linecap="square" stroke-linejoin="bevel" points="211.045,65.0041 220.628,65.0041"/>
<polyline class="LedgerLine" fill="none" stroke="#000000" stroke-width="0.80" stroke-linecap="square" stroke-linejoin="bevel" points="187.402,60.0038 196.985,60.0038"/>
<polyline class="LedgerLine" fill="none" stroke="#000000" stroke-width="0.80" stroke-linecap="square" stroke-linejoin="bevel" points="163.759,60.0038 173.342,60.0038"/>
<polyline class="LedgerLine" fill="none" stroke="#000000" stroke-width="0.80" stroke-linecap="square" stroke-linejoin="bevel" points="132.215,30.0019 141.799,30.0019"/>
<polyline class="LedgerLine" fill="none" stroke="#000000" stroke-width="0.80" stroke-linecap="square" stroke-linejoin="bevel" points="134.365,60.0038 143.949,60.0038"/>
<polyline class="LedgerLine" fill="none" stroke="#000000" stroke-width="0.80" stroke-linecap="square" stroke-linejoin="bevel" points="111.772,60.0038 121.356,60.0038"/>
<polyline class="LedgerLine" fill="none" stroke="#000000" stroke-width="0.80" stroke-linecap="square" stroke-linejoin="bevel" points="111.772,65.0041 121.356,65.0041"/>
<polyline class="LedgerLine" fill="none" stroke="#000000" stroke-width="0.80" stroke-linecap="square" stroke-linejoin="bevel" points="89.1794,60.0038 98.7628,60.0038"/>
<polyline class="LedgerLine" fill="none" stroke="#000000" stroke-width="0.80" stroke-linecap="square" stroke-linejoin="bevel" points="66.5864,60.0038 76.1698,60.0038"/>
<polyline class="Stem" fill="none" stroke="#000000" stroke-width="0.65" stroke-linecap="round" stroke-linejoin="bevel" points="538.481,33.4412 538.481,50.0031"/>
<polyline class="Stem" fill="none" stroke="#000000" stroke-width="0.65" stroke-linecap="round" stroke-linejoin="bevel" points="546.564,61.5648 546.564,45.0028"/>
<polyline class="Stem" fill="none" stroke="#000000" stroke-width="0.65" stroke-linecap="round" stroke-linejoin="bevel" points="514.838,30.941 514.838,47.503"/>
<polyline class="Stem" fill="none" stroke="#000000" stroke-width="0.65" stroke-linecap="round" stroke-linejoin="bevel" points="522.921,64.065 522.921,45.0028"/>
<polyline class="Stem" fill="none" stroke="#000000" stroke-width="0.65" stroke-linecap="round" stroke-linejoin="bevel" points="491.195,33.4412 491.195,50.0031"/>
<polyline class="Stem" fill="none" stroke="#000000" stroke-width="0.65" stroke-linecap="round" stroke-linejoin="bevel" points="499.278,61.5648 499.278,45.0028"/>
<polyline class="Stem" fill="none" stroke="#000000" stroke-width="0.65" stroke-linecap="round" stroke-linejoin="bevel" points="467.552,35.9413 467.552,52.5033"/>
<polyline class="Stem" fill="none" stroke="#000000" stroke-width="0.65" stroke-linecap="round" stroke-linejoin="bevel" points="475.635,59.0647 475.635,42.5027"/>
<polyline class="Stem" fill="none" stroke="#000000" stroke-width="0.65" stroke-linecap="round" stroke-linejoin="bevel" points="437.108,38.4415 437.108,55.0035"/>
<polyline class="Stem" fill="none" stroke="#000000" stroke-width="0.65" stroke-linecap="round" stroke-linejoin="bevel" points="445.192,61.5648 445.192,45.0028"/>
<polyline class="Stem" fill="none" stroke="#000000" stroke-width="0.65" stroke-linecap="round" stroke-linejoin="bevel" points="413.465,33.4412 413.465,50.0031"/>
<polyline class="Stem" fill="none" stroke="#000000" stroke-width="0.65" stroke-linecap="round" stroke-linejoin="bevel" points="421.548,64.065 421.548,45.0028"/>
<polyline class="Stem" fill="none" stroke="#000000" stroke-width="0.65" stroke-linecap="round" stroke-linejoin="bevel" points="389.822,30.941 389.822,47.503"/>
<polyline class="Stem" fill="none" stroke="#000000" stroke-width="0.65" stroke-linecap="round" stroke-linejoin="bevel" points="397.905,61.5648 397.905,45.0028"/>
<polyline class="Stem" fill="none" stroke="#000000" stroke-width="0.65" stroke-linecap="round" stroke-linejoin="bevel" points="366.179,33.4412 366.179,50.0031"/>
<polyline class="Stem" fill="none" stroke="#000000" stroke-width="0.65" stroke-linecap="round" stroke-linejoin="bevel" points="374.262,59.0647 374.262,42.5027"/>
<polyline class="Stem" fill="none" stroke="#000000" stroke-width="0.65" stroke-linecap="round" stroke-linejoin="bevel" points="335.736,35.9413 335.736,52.5033"/>
<polyline class="Stem" fill="none" stroke="#000000" stroke-width="0.65" stroke-linecap="round" stroke-linejoin="bevel" points="343.819,61.5648 343.819,45.0028"/>
<polyline class="Stem" fill="none" stroke="#000000" stroke-width="0.65" stroke-linecap="round" stroke-linejoin="bevel" points="312.092,38.4415 312.092,55.0035"/>
<polyline class="Stem" fill="none" stroke="#000000" stroke-width="0.65" stroke-linecap="round" stroke-linejoin="bevel" points="320.176,64.065 320.176,45.0028"/>
<polyline class="Stem" fill="none" stroke="#000000" stroke-width="0.65" stroke-linecap="round" stroke-linejoin="bevel" points="288.449,33.4412 288.449,50.0031"/>
<polyline class="Stem" fill="none" stroke="#000000" stroke-width="0.65" stroke-linecap="round" stroke-linejoin="bevel" points="296.533,61.5648 296.533,45.0028"/>
<polyline class="Stem" fill="none" stroke="#000000" stroke-width="0.65" stroke-linecap="round" stroke-linejoin="bevel" points="264.806,30.941 264.806,47.503"/>
<polyline class="Stem" fill="none" stroke="#000000" stroke-width="0.65" stroke-linecap="round" stroke-linejoin="bevel" points="272.89,59.0647 272.89,42.5027"/>
<polyline class="Stem" fill="none" stroke="#000000" stroke-width="0.65" stroke-linecap="round" stroke-linejoin="bevel" points="234.363,33.4412 234.363,50.0031"/>
<polyline class="Stem" fill="none" stroke="#000000" stroke-width="0.65" stroke-linecap="round" stroke-linejoin="bevel" points="242.446,61.5648 242.446,45.0028"/>
<polyline class="Stem" fill="none" stroke="#000000" stroke-width="0.65" stroke-linecap="round" stroke-linejoin="bevel" points="210.72,35.9413 210.72,52.5033"/>
<polyline class="Stem" fill="none" stroke="#000000" stroke-width="0.65" stroke-linecap="round" stroke-linejoin="bevel" points="218.803,64.065 218.803,45.0028"/>
<polyline class="Stem" fill="none" stroke="#000000" stroke-width="0.65" stroke-linecap="round" stroke-linejoin="bevel" points="187.077,38.4415 187.077,55.0035"/>
<polyline class="Stem" fill="none" stroke="#000000" stroke-width="0.65" stroke-linecap="round" stroke-linejoin="bevel" points="195.16,61.5648 195.16,45.0028"/>
<polyline class="Stem" fill="none" stroke="#000000" stroke-width="0.65" stroke-linecap="round" stroke-linejoin="bevel" points="163.434,33.4412 163.434,50.0031"/>
<polyline class="Stem" fill="none" stroke="#000000" stroke-width="0.65" stroke-linecap="round" stroke-linejoin="bevel" points="171.517,59.0647 171.517,42.5027"/>
<polyline class="Stem" fill="none" stroke="#000000" stroke-width="0.65" stroke-linecap="round" stroke-linejoin="bevel" points="134.04,30.941 134.04,47.503"/>
<polyline class="Stem" fill="none" stroke="#000000" stroke-width="0.65" stroke-linecap="round" stroke-linejoin="bevel" points="142.124,61.5648 142.124,45.0028"/>
<polyline class="Stem" fill="none" stroke="#000000" stroke-width="0.65" stroke-linecap="round" stroke-linejoin="bevel" points="111.447,33.4412 111.447,50.0031"/>
<polyline class="Stem" fill="none" stroke="#000000" stroke-width="0.65" stroke-linecap="round" stroke-linejoin="bevel" points="119.531,64.065 119.531,45.0028"/>
<polyline class="Stem" fill="none" stroke="#000000" stroke-width="0.65" stroke-linecap="round" stroke-linejoin="bevel" points="88.8543,35.9413 88.8543,52.5033"/>
<polyline class="Stem" fill="none" stroke="#000000" stroke-width="0.65" stroke-linecap="round" stroke-linejoin="bevel" points="96.9377,61.5648 96.9377,45.0028"/>
<polyline class="Stem" fill="none" stroke="#000000" stroke-width="0.65" stroke-linecap="round" stroke-linejoin="bevel" points="66.2613,38.4415 66.2613,55.0035"/>
<polyline class="Stem" fill="none" stroke="#000000" stroke-width="0.65" stroke-linecap="round" stroke-linejoin="bevel" points="74.3447,59.0647 74.3447,42.5027"/>
<path class="Note" d="M542.55,29.7481 C543.175,29.7481 543.703,29.9109 544.132,30.2364 C544.536,30.588 544.738,31.0307 544.738,31.5645 C544.738,32.463 544.276,33.3028 543.351,34.0841 C542.414,34.8653 541.411,35.256 540.343,35.256 C539.718,35.256 539.191,35.0932 538.761,34.7677 C538.358,34.4161 538.156,33.9734 538.156,33.4395 C538.156,32.5411 538.625,31.7013 539.562,30.92 C540.474,30.1388 541.47,29.7481 542.55,29.7481"/>
<path class="Note" d="M544.7,59.75 C545.325,59.75 545.853,59.9128 546.283,60.2383 C546.686,60.5899 546.888,61.0326 546.888,61.5664 C546.888,62.4649 546.426,63.3047 545.501,64.086 C544.564,64.8672 543.561,65.2578 542.493,65.2578 C541.868,65.2578 541.341,65.0951 540.911,64.7696 C540.508,64.418 540.306,63.9753 540.306,63.4414 C540.306,62.543 540.775,61.7032 541.712,60.9219 C542.624,60.1407 543.62,59.75 544.7,59.75"/>
<path class="Note" d="M518.907,27.248 C519.532,27.248 520.06,27.4107 520.489,27.7363 C520.893,28.0878 521.095,28.5305 521.095,29.0644 C521.095,29.9628 520.633,30.8027 519.708,31.5839 C518.771,32.3652 517.768,32.7558 516.7,32.7558 C516.075,32.7558 515.548,32.593 515.118,32.2675 C514.715,31.916 514.513,31.4732 514.513,30.9394 C514.513,30.041 514.982,29.2011 515.919,28.4199 C516.83,27.6386 517.827,27.248 518.907,27.248"/>
<path class="Note" d="M521.057,62.2502 C521.682,62.2502 522.21,62.4129 522.639,62.7385 C523.043,63.09 523.245,63.5327 523.245,64.0666 C523.245,64.965 522.783,65.8049 521.858,66.5861 C520.921,67.3674 519.918,67.758 518.85,67.758 C518.225,67.758 517.698,67.5952 517.268,67.2697 C516.865,66.9182 516.663,66.4754 516.663,65.9416 C516.663,65.0432 517.132,64.2033 518.069,63.4221 C518.981,62.6408 519.977,62.2502 521.057,62.2502"/>
<path class="Note" d="M495.264,29.7481 C495.889,29.7481 496.417,29.9109 496.846,30.2364 C497.25,30.588 497.452,31.0307 497.452,31.5645 C497.452,32.463 496.99,33.3028 496.065,34.0841 C495.128,34.8653 494.125,35.256 493.057,35.256 C492.432,35.256 491.905,35.0932 491.475,34.7677 C491.072,34.4161 490.87,33.9734 490.87,33.4395 C490.87,32.5411 491.338,31.7013 492.276,30.92 C493.187,30.1388 494.184,29.7481 495.264,29.7481"/>
<path class="Note" d="M497.414,59.75 C498.039,59.75 498.567,59.9128 498.996,60.2383 C499.4,60.5899 499.602,61.0326 499.602,61.5664 C499.602,62.4649 499.14,63.3047 498.215,64.086 C497.278,64.8672 496.275,65.2578 495.207,65.2578 C494.582,65.2578 494.055,65.0951 493.625,64.7696 C493.222,64.418 493.02,63.9753 493.02,63.4414 C493.02,62.543 493.489,61.7032 494.426,60.9219 C495.338,60.1407 496.334,59.75 497.414,59.75"/>
<path class="Note" d="M471.621,32.2483 C472.246,32.2483 472.774,32.4111 473.203,32.7366 C473.607,33.0881 473.809,33.5309 473.809,34.0647 C473.809,34.9631 473.346,35.803 472.422,36.5842 C471.484,37.3655 470.482,37.7561 469.414,37.7561 C468.789,37.7561 468.262,37.5934 467.832,37.2678 C467.428,36.9163 467.227,36.4736 467.227,35.9397 C467.227,35.0413 467.695,34.2014 468.633,33.4202 C469.544,32.6389 470.54,32.2483 471.621,32.2483"/>
<path class="Note" fill="#ea0003" d="M473.771,57.2499 C474.396,57.2499 474.924,57.4126 475.353,57.7382 C475.757,58.0897 475.959,58.5324 475.959,59.0663 C475.959,59.9647 475.497,60.8046 474.572,61.5858 C473.635,62.3671 472.632,62.7577 471.564,62.7577 C470.939,62.7577 470.412,62.5949 469.982,62.2694 C469.579,61.9178 469.377,61.4751 469.377,60.9413 C469.377,60.0428 469.846,59.203 470.783,58.4217 C471.695,57.6405 472.691,57.2499 473.771,57.2499"/>
<path class="Note" fill="#2600ff" d="M441.178,34.7485 C441.803,34.7485 442.33,34.9112 442.76,35.2367 C443.163,35.5883 443.365,36.031 443.365,36.5649 C443.365,37.4633 442.903,38.3031 441.978,39.0844 C441.041,39.8656 440.038,40.2563 438.971,40.2563 C438.346,40.2563 437.818,40.0935 437.389,39.768 C436.985,39.4164 436.783,38.9737 436.783,38.4399 C436.783,37.5414 437.252,36.7016 438.189,35.9203 C439.101,35.1391 440.097,34.7485 441.178,34.7485"/>
<path class="Note" d="M443.328,59.75 C443.953,59.75 444.48,59.9128 444.91,60.2383 C445.314,60.5899 445.515,61.0326 445.515,61.5664 C445.515,62.4649 445.053,63.3047 444.129,64.086 C443.191,64.8672 442.189,65.2578 441.121,65.2578 C440.496,65.2578 439.968,65.0951 439.539,64.7696 C439.135,64.418 438.933,63.9753 438.933,63.4414 C438.933,62.543 439.402,61.7032 440.34,60.9219 C441.251,60.1407 442.247,59.75 443.328,59.75"/>
<path class="Note" d="M417.535,29.7481 C418.16,29.7481 418.687,29.9109 419.117,30.2364 C419.52,30.588 419.722,31.0307 419.722,31.5645 C419.722,32.463 419.26,33.3028 418.335,34.0841 C417.398,34.8653 416.395,35.256 415.328,35.256 C414.703,35.256 414.175,35.0932 413.746,34.7677 C413.342,34.4161 413.14,33.9734 413.14,33.4395 C413.14,32.5411 413.609,31.7013 414.546,30.92 C415.458,30.1388 416.454,29.7481 417.535,29.7481"/>
<path class="Note" d="M419.685,62.2502 C420.31,62.2502 420.837,62.4129 421.267,62.7385 C421.67,63.09 421.872,63.5327 421.872,64.0666 C421.872,64.965 421.41,65.8049 420.486,66.5861 C419.548,67.3674 418.545,67.758 417.478,67.758 C416.853,67.758 416.325,67.5952 415.896,67.2697 C415.492,66.9182 415.29,66.4754 415.29,65.9416 C415.29,65.0432 415.759,64.2033 416.697,63.4221 C417.608,62.6408 418.604,62.2502 419.685,62.2502"/>
<path class="Note" d="M393.892,27.248 C394.517,27.248 395.044,27.4107 395.474,27.7363 C395.877,28.0878 396.079,28.5305 396.079,29.0644 C396.079,29.9628 395.617,30.8027 394.692,31.5839 C393.755,32.3652 392.752,32.7558 391.685,32.7558 C391.06,32.7558 390.532,32.593 390.103,32.2675 C389.699,31.916 389.497,31.4732 389.497,30.9394 C389.497,30.041 389.966,29.2011 390.903,28.4199 C391.815,27.6386 392.811,27.248 393.892,27.248"/>
<path class="Note" d="M396.042,59.75 C396.667,59.75 397.194,59.9128 397.624,60.2383 C398.027,60.5899 398.229,61.0326 398.229,61.5664 C398.229,62.4649 397.767,63.3047 396.843,64.086 C395.905,64.8672 394.902,65.2578 393.835,65.2578 C393.21,65.2578 392.682,65.0951 392.253,64.7696 C391.849,64.418 391.647,63.9753 391.647,63.4414 C391.647,62.543 392.116,61.7032 393.053,60.9219 C393.965,60.1407 394.961,59.75 396.042,59.75"/>
<path class="Note" d="M370.249,29.7481 C370.874,29.7481 371.401,29.9109 371.831,30.2364 C372.234,30.588 372.436,31.0307 372.436,31.5645 C372.436,32.463 371.974,33.3028 371.049,34.0841 C370.112,34.8653 369.109,35.256 368.042,35.256 C367.417,35.256 366.889,35.0932 366.459,34.7677 C366.056,34.4161 365.854,33.9734 365.854,33.4395 C365.854,32.5411 366.323,31.7013 367.26,30.92 C368.172,30.1388 369.168,29.7481 370.249,29.7481"/>
<path class="Note" fill="#ea0003" d="M372.399,57.2499 C373.024,57.2499 373.551,57.4126 373.981,57.7382 C374.384,58.0897 374.586,58.5324 374.586,59.0663 C374.586,59.9647 374.124,60.8046 373.199,61.5858 C372.262,62.3671 371.259,62.7577 370.192,62.7577 C369.567,62.7577 369.039,62.5949 368.61,62.2694 C368.206,61.9178 368.004,61.4751 368.004,60.9413 C368.004,60.0428 368.473,59.203 369.41,58.4217 C370.322,57.6405 371.318,57.2499 372.399,57.2499"/>
<path class="Note" d="M339.805,32.2483 C340.43,32.2483 340.957,32.4111 341.387,32.7366 C341.791,33.0881 341.993,33.5309 341.993,34.0647 C341.993,34.9631 341.53,35.803 340.606,36.5842 C339.668,37.3655 338.666,37.7561 337.598,37.7561 C336.973,37.7561 336.446,37.5934 336.016,37.2678 C335.612,36.9163 335.411,36.4736 335.411,35.9397 C335.411,35.0413 335.879,34.2014 336.817,33.4202 C337.728,32.6389 338.724,32.2483 339.805,32.2483"/>
<path class="Note" d="M341.955,59.75 C342.58,59.75 343.108,59.9128 343.537,60.2383 C343.941,60.5899 344.143,61.0326 344.143,61.5664 C344.143,62.4649 343.68,63.3047 342.756,64.086 C341.818,64.8672 340.816,65.2578 339.748,65.2578 C339.123,65.2578 338.596,65.0951 338.166,64.7696 C337.762,64.418 337.561,63.9753 337.561,63.4414 C337.561,62.543 338.029,61.7032 338.967,60.9219 C339.878,60.1407 340.874,59.75 341.955,59.75"/>
<path class="Note" fill="#2600ff" d="M316.162,34.7485 C316.787,34.7485 317.314,34.9112 317.744,35.2367 C318.148,35.5883 318.35,36.031 318.35,36.5649 C318.35,37.4633 317.887,38.3031 316.963,39.0844 C316.025,39.8656 315.023,40.2563 313.955,40.2563 C313.33,40.2563 312.803,40.0935 312.373,39.768 C311.969,39.4164 311.767,38.9737 311.767,38.4399 C311.767,37.5414 312.236,36.7016 313.174,35.9203 C314.085,35.1391 315.081,34.7485 316.162,34.7485"/>
<path class="Note" d="M318.312,62.2502 C318.937,62.2502 319.464,62.4129 319.894,62.7385 C320.298,63.09 320.5,63.5327 320.5,64.0666 C320.5,64.965 320.037,65.8049 319.113,66.5861 C318.175,67.3674 317.173,67.758 316.105,67.758 C315.48,67.758 314.953,67.5952 314.523,67.2697 C314.119,66.9182 313.918,66.4754 313.918,65.9416 C313.918,65.0432 314.386,64.2033 315.324,63.4221 C316.235,62.6408 317.231,62.2502 318.312,62.2502"/>
<path class="Note" d="M292.519,29.7481 C293.144,29.7481 293.671,29.9109 294.101,30.2364 C294.505,30.588 294.706,31.0307 294.706,31.5645 C294.706,32.463 294.244,33.3028 293.32,34.0841 C292.382,34.8653 291.38,35.256 290.312,35.256 C289.687,35.256 289.16,35.0932 288.73,34.7677 C288.326,34.4161 288.124,33.9734 288.124,33.4395 C288.124,32.5411 288.593,31.7013 289.531,30.92 C290.442,30.1388 291.438,29.7481 292.519,29.7481"/>
<path class="Note" d="M294.669,59.75 C295.294,59.75 295.821,59.9128 296.251,60.2383 C296.655,60.5899 296.857,61.0326 296.857,61.5664 C296.857,62.4649 296.394,63.3047 295.47,64.086 C294.532,64.8672 293.53,65.2578 292.462,65.2578 C291.837,65.2578 291.31,65.0951 290.88,64.7696 C290.476,64.418 290.275,63.9753 290.275,63.4414 C290.275,62.543 290.743,61.7032 291.681,60.9219 C292.592,60.1407 293.588,59.75 294.669,59.75"/>
<path class="Note" d="M268.876,27.248 C269.501,27.248 270.028,27.4107 270.458,27.7363 C270.862,28.0878 271.063,28.5305 271.063,29.0644 C271.063,29.9628 270.601,30.8027 269.677,31.5839 C268.739,32.3652 267.737,32.7558 266.669,32.7558 C266.044,32.7558 265.517,32.593 265.087,32.2675 C264.683,31.916 264.481,31.4732 264.481,30.9394 C264.481,30.041 264.95,29.2011 265.888,28.4199 C266.799,27.6386 267.795,27.248 268.876,27.248"/>
<path class="Note" fill="#ea0003" d="M271.026,57.2499 C271.651,57.2499 272.178,57.4126 272.608,57.7382 C273.012,58.0897 273.214,58.5324 273.214,59.0663 C273.214,59.9647 272.751,60.8046 271.827,61.5858 C270.889,62.3671 269.887,62.7577 268.819,62.7577 C268.194,62.7577 267.667,62.5949 267.237,62.2694 C266.833,61.9178 266.631,61.4751 266.631,60.9413 C266.631,60.0428 267.1,59.203 268.038,58.4217 C268.949,57.6405 269.945,57.2499 271.026,57.2499"/>
<path class="Note" d="M238.432,29.7481 C239.057,29.7481 239.585,29.9109 240.014,30.2364 C240.418,30.588 240.62,31.0307 240.62,31.5645 C240.62,32.463 240.158,33.3028 239.233,34.0841 C238.296,34.8653 237.293,35.256 236.225,35.256 C235.6,35.256 235.073,35.0932 234.643,34.7677 C234.24,34.4161 234.038,33.9734 234.038,33.4395 C234.038,32.5411 234.507,31.7013 235.444,30.92 C236.356,30.1388 237.352,29.7481 238.432,29.7481"/>
<path class="Note" d="M240.583,59.75 C241.208,59.75 241.735,59.9128 242.165,60.2383 C242.568,60.5899 242.77,61.0326 242.77,61.5664 C242.77,62.4649 242.308,63.3047 241.383,64.086 C240.446,64.8672 239.443,65.2578 238.376,65.2578 C237.751,65.2578 237.223,65.0951 236.793,64.7696 C236.39,64.418 236.188,63.9753 236.188,63.4414 C236.188,62.543 236.657,61.7032 237.594,60.9219 C238.506,60.1407 239.502,59.75 240.583,59.75"/>
<path class="Note" d="M214.789,32.2483 C215.414,32.2483 215.942,32.4111 216.371,32.7366 C216.775,33.0881 216.977,33.5309 216.977,34.0647 C216.977,34.9631 216.515,35.803 215.59,36.5842 C214.653,37.3655 213.65,37.7561 212.582,37.7561 C211.957,37.7561 211.43,37.5934 211,37.2678 C210.597,36.9163 210.395,36.4736 210.395,35.9397 C210.395,35.0413 210.864,34.2014 211.801,33.4202 C212.713,32.6389 213.709,32.2483 214.789,32.2483"/>
<path class="Note" d="M216.939,62.2502 C217.564,62.2502 218.092,62.4129 218.522,62.7385 C218.925,63.09 219.127,63.5327 219.127,64.0666 C219.127,64.965 218.665,65.8049 217.74,66.5861 C216.803,67.3674 215.8,67.758 214.732,67.758 C214.107,67.758 213.58,67.5952 213.15,67.2697 C212.747,66.9182 212.545,66.4754 212.545,65.9416 C212.545,65.0432 213.014,64.2033 213.951,63.4221 C214.863,62.6408 215.859,62.2502 216.939,62.2502"/>
<path class="Note" fill="#2600ff" d="M191.146,34.7485 C191.771,34.7485 192.299,34.9112 192.728,35.2367 C193.132,35.5883 193.334,36.031 193.334,36.5649 C193.334,37.4633 192.872,38.3031 191.947,39.0844 C191.01,39.8656 190.007,40.2563 188.939,40.2563 C188.314,40.2563 187.787,40.0935 187.357,39.768 C186.954,39.4164 186.752,38.9737 186.752,38.4399 C186.752,37.5414 187.221,36.7016 188.158,35.9203 C189.069,35.1391 190.066,34.7485 191.146,34.7485"/>
<path class="Note" d="M193.296,59.75 C193.921,59.75 194.449,59.9128 194.878,60.2383 C195.282,60.5899 195.484,61.0326 195.484,61.5664 C195.484,62.4649 195.022,63.3047 194.097,64.086 C193.16,64.8672 192.157,65.2578 191.089,65.2578 C190.464,65.2578 189.937,65.0951 189.507,64.7696 C189.104,64.418 188.902,63.9753 188.902,63.4414 C188.902,62.543 189.371,61.7032 190.308,60.9219 C191.22,60.1407 192.216,59.75 193.296,59.75"/>
<path class="Note" d="M167.503,29.7481 C168.128,29.7481 168.656,29.9109 169.085,30.2364 C169.489,30.588 169.691,31.0307 169.691,31.5645 C169.691,32.463 169.229,33.3028 168.304,34.0841 C167.367,34.8653 166.364,35.256 165.296,35.256 C164.671,35.256 164.144,35.0932 163.714,34.7677 C163.311,34.4161 163.109,33.9734 163.109,33.4395 C163.109,32.5411 163.577,31.7013 164.515,30.92 C165.426,30.1388 166.423,29.7481 167.503,29.7481"/>
<path class="Note" fill="#ea0003" d="M169.653,57.2499 C170.278,57.2499 170.806,57.4126 171.235,57.7382 C171.639,58.0897 171.841,58.5324 171.841,59.0663 C171.841,59.9647 171.379,60.8046 170.454,61.5858 C169.517,62.3671 168.514,62.7577 167.446,62.7577 C166.821,62.7577 166.294,62.5949 165.864,62.2694 C165.461,61.9178 165.259,61.4751 165.259,60.9413 C165.259,60.0428 165.728,59.203 166.665,58.4217 C167.577,57.6405 168.573,57.2499 169.653,57.2499"/>
<path class="Note" d="M138.11,27.248 C138.735,27.248 139.262,27.4107 139.692,27.7363 C140.096,28.0878 140.297,28.5305 140.297,29.0644 C140.297,29.9628 139.835,30.8027 138.911,31.5839 C137.973,32.3652 136.971,32.7558 135.903,32.7558 C135.278,32.7558 134.75,32.593 134.321,32.2675 C133.917,31.916 133.715,31.4732 133.715,30.9394 C133.715,30.041 134.184,29.2011 135.122,28.4199 C136.033,27.6386 137.029,27.248 138.11,27.248"/>
<path class="Note" d="M140.26,59.75 C140.885,59.75 141.412,59.9128 141.842,60.2383 C142.246,60.5899 142.447,61.0326 142.447,61.5664 C142.447,62.4649 141.985,63.3047 141.061,64.086 C140.123,64.8672 139.121,65.2578 138.053,65.2578 C137.428,65.2578 136.901,65.0951 136.471,64.7696 C136.067,64.418 135.865,63.9753 135.865,63.4414 C135.865,62.543 136.334,61.7032 137.272,60.9219 C138.183,60.1407 139.179,59.75 140.26,59.75"/>
<path class="Note" d="M115.517,29.7481 C116.142,29.7481 116.669,29.9109 117.099,30.2364 C117.503,30.588 117.704,31.0307 117.704,31.5645 C117.704,32.463 117.242,33.3028 116.318,34.0841 C115.38,34.8653 114.378,35.256 113.31,35.256 C112.685,35.256 112.157,35.0932 111.728,34.7677 C111.324,34.4161 111.122,33.9734 111.122,33.4395 C111.122,32.5411 111.591,31.7013 112.529,30.92 C113.44,30.1388 114.436,29.7481 115.517,29.7481"/>
<path class="Note" d="M117.667,62.2502 C118.292,62.2502 118.819,62.4129 119.249,62.7385 C119.653,63.09 119.854,63.5327 119.854,64.0666 C119.854,64.965 119.392,65.8049 118.468,66.5861 C117.53,67.3674 116.528,67.758 115.46,67.758 C114.835,67.758 114.308,67.5952 113.878,67.2697 C113.474,66.9182 113.272,66.4754 113.272,65.9416 C113.272,65.0432 113.741,64.2033 114.679,63.4221 C115.59,62.6408 116.586,62.2502 117.667,62.2502"/>
<path class="Note" d="M92.9238,32.2483 C93.5488,32.2483 94.0762,32.4111 94.5059,32.7366 C94.9095,33.0881 95.1113,33.5309 95.1113,34.0647 C95.1113,34.9631 94.6491,35.803 93.7246,36.5842 C92.7871,37.3655 91.7845,37.7561 90.7168,37.7561 C90.0918,37.7561 89.5645,37.5934 89.1348,37.2678 C88.7311,36.9163 88.5293,36.4736 88.5293,35.9397 C88.5293,35.0413 88.9981,34.2014 89.9356,33.4202 C90.847,32.6389 91.8431,32.2483 92.9238,32.2483"/>
<path class="Note" d="M95.074,59.75 C95.699,59.75 96.2263,59.9128 96.656,60.2383 C97.0597,60.5899 97.2615,61.0326 97.2615,61.5664 C97.2615,62.4649 96.7992,63.3047 95.8748,64.086 C94.9373,64.8672 93.9347,65.2578 92.8669,65.2578 C92.2419,65.2578 91.7146,65.0951 91.2849,64.7696 C90.8813,64.418 90.6794,63.9753 90.6794,63.4414 C90.6794,62.543 91.1482,61.7032 92.0857,60.9219 C92.9972,60.1407 93.9933,59.75 95.074,59.75"/>
<path class="Note" fill="#2600ff" d="M70.3309,34.7485 C70.9559,34.7485 71.4832,34.9112 71.9129,35.2367 C72.3165,35.5883 72.5184,36.031 72.5184,36.5649 C72.5184,37.4633 72.0561,38.3031 71.1316,39.0844 C70.1941,39.8656 69.1915,40.2563 68.1238,40.2563 C67.4988,40.2563 66.9715,40.0935 66.5418,39.768 C66.1381,39.4164 65.9363,38.9737 65.9363,38.4399 C65.9363,37.5414 66.4051,36.7016 67.3426,35.9203 C68.254,35.1391 69.2501,34.7485 70.3309,34.7485"/>
<path class="Note" fill="#e90000" d="M72.481,57.2499 C73.106,57.2499 73.6333,57.4126 74.063,57.7382 C74.4667,58.0897 74.6685,58.5324 74.6685,59.0663 C74.6685,59.9647 74.2063,60.8046 73.2818,61.5858 C72.3443,62.3671 71.3417,62.7577 70.274,62.7577 C69.649,62.7577 69.1216,62.5949 68.6919,62.2694 C68.2883,61.9178 68.0865,61.4751 68.0865,60.9413 C68.0865,60.0428 68.5552,59.203 69.4927,58.4217 C70.4042,57.6405 71.4003,57.2499 72.481,57.2499"/>
<path class="Clef" d="M38.8904,44.886 C38.8904,44.886 38.9295,44.886 39.0076,44.886 C39.0597,44.8729 39.1053,44.8664 39.1443,44.8664 C40.6026,44.8664 41.8006,45.3808 42.7381,46.4094 C43.6756,47.425 44.1443,48.6099 44.1443,49.9641 C44.1443,51.6438 43.4477,53.011 42.0545,54.0656 C41.6899,54.3521 41.2146,54.5865 40.6287,54.7688 C40.6938,55.6151 40.7263,56.2987 40.7263,56.8196 C40.7263,56.9237 40.7133,57.3013 40.6873,57.9524 C40.6352,59.1633 40.2185,60.2115 39.4373,61.0969 C38.6821,61.9693 37.7446,62.4055 36.6248,62.4055 C35.5701,62.4055 34.6717,62.0344 33.9295,61.2922 C33.1873,60.537 32.8162,59.6255 32.8162,58.5578 C32.8162,57.9979 33.031,57.5227 33.4607,57.1321 C33.9034,56.7414 34.4178,56.5461 35.0037,56.5461 C35.5245,56.5461 35.9607,56.7479 36.3123,57.1516 C36.6769,57.5292 36.8592,57.9979 36.8592,58.5578 C36.8592,59.0656 36.6769,59.5018 36.3123,59.8664 C35.9477,60.231 35.5115,60.4133 35.0037,60.4133 C34.7954,60.4133 34.5935,60.3742 34.3982,60.2961 C34.9711,61.1425 35.7329,61.5656 36.6834,61.5656 C37.5818,61.5656 38.3175,61.2011 38.8904,60.4719 C39.4894,59.7167 39.8149,58.8378 39.867,57.8352 C39.893,57.2102 39.906,56.8521 39.906,56.761 C39.906,56.0318 39.88,55.4328 39.8279,54.9641 C39.1769,55.0683 38.5974,55.1203 38.0896,55.1203 C36.2797,55.1203 34.7368,54.4042 33.4607,52.9719 C32.2107,51.5266 31.5857,49.8078 31.5857,47.8156 C31.5857,47.399 31.6248,46.9758 31.7029,46.5461 C31.781,46.1946 31.8787,45.8104 31.9959,45.3938 C32.061,45.1594 32.2368,44.7818 32.5232,44.261 C32.6274,44.1047 32.7446,43.9094 32.8748,43.675 C33.005,43.4406 33.0961,43.2844 33.1482,43.2063 C33.2784,42.9459 33.5323,42.5943 33.9099,42.1516 C34.0141,42.0344 34.1215,41.9042 34.2322,41.761 C34.3429,41.6177 34.4373,41.5005 34.5154,41.4094 C34.5935,41.3183 34.6521,41.2466 34.6912,41.1946 C34.7303,41.1425 35.0232,40.7974 35.5701,40.1594 C35.7003,40.0292 35.8273,39.8892 35.951,39.7395 C36.0747,39.5897 36.1756,39.4726 36.2537,39.3879 C36.3318,39.3033 36.3904,39.2414 36.4295,39.2024 C35.9607,37.6529 35.6678,36.4159 35.5506,35.4914 C35.4594,34.7492 35.4138,33.7336 35.4138,32.4446 C35.4138,31.3117 35.6743,30.2505 36.1951,29.261 C36.7029,28.2323 37.4125,27.3925 38.324,26.7414 C38.3891,26.7024 38.4542,26.6828 38.5193,26.6828 C38.6105,26.6828 38.6756,26.7024 38.7146,26.7414 C39.4178,27.5878 40.0232,28.688 40.531,30.0422 C41.0519,31.3964 41.3123,32.6268 41.3123,33.7336 C41.3123,34.9836 41.0128,36.1555 40.4138,37.2492 C39.7368,38.4081 38.8644,39.606 37.7967,40.843 C38.0701,41.7024 38.4347,43.05 38.8904,44.886 M40.5506,53.968 C41.2276,53.7206 41.755,53.2974 42.1326,52.6985 C42.5493,52.1255 42.7576,51.481 42.7576,50.7649 C42.7576,49.8404 42.4451,49.0201 41.8201,48.3039 C41.1821,47.5617 40.3683,47.1451 39.3787,47.0539 C39.9386,49.8013 40.3292,52.106 40.5506,53.968 M32.992,49.4563 C32.992,50.7453 33.5128,51.8781 34.5545,52.8547 C35.6222,53.8052 36.8201,54.2805 38.1482,54.2805 C38.6951,54.2805 39.2289,54.2414 39.7498,54.1633 C39.5414,52.1841 39.1313,49.8143 38.5193,47.0539 C37.7771,47.1321 37.1847,47.3925 36.742,47.8352 C36.3123,48.2909 36.0974,48.8052 36.0974,49.3781 C36.0974,50.3677 36.6248,51.1685 37.6795,51.7805 C37.7706,51.8716 37.8162,51.9693 37.8162,52.0735 C37.8162,52.1776 37.7706,52.2753 37.6795,52.3664 C37.6013,52.4576 37.5037,52.5031 37.3865,52.5031 C37.3735,52.5031 37.3149,52.4901 37.2107,52.4641 C36.4685,52.0604 35.8956,51.5396 35.492,50.9016 C35.1144,50.2245 34.9256,49.5409 34.9256,48.8508 C34.9256,47.9524 35.2055,47.1386 35.7654,46.4094 C36.3513,45.6802 37.1131,45.2115 38.0506,45.0031 C37.686,43.5448 37.3865,42.4055 37.1521,41.5852 C36.9438,41.8196 36.6931,42.1028 36.4002,42.4348 C36.1072,42.7668 35.9347,42.9654 35.8826,43.0305 C35.4138,43.6425 35.0558,44.1177 34.8084,44.4563 C34.3657,45.0683 34.0401,45.5956 33.8318,46.0383 C33.6105,46.5331 33.4151,47.0735 33.2459,47.6594 C33.0766,48.2193 32.992,48.8183 32.992,49.4563 M39.5154,29.593 C38.5388,30.0748 37.7706,30.7649 37.2107,31.6633 C36.6378,32.5878 36.3513,33.5839 36.3513,34.6516 C36.3513,35.5891 36.5857,36.8521 37.0545,38.4406 C37.992,37.3078 38.6951,36.2597 39.1638,35.2961 C39.6586,34.2805 39.906,33.2193 39.906,32.1125 C39.906,31.2792 39.7758,30.4393 39.5154,29.593"/>
<path class="TimeSig" d="M53.6775,35.2564 C54.0681,35.2564 54.4001,35.2109 54.6736,35.1197 C54.947,35.0286 55.1228,34.983 55.2009,34.983 C55.292,34.983 55.3637,35.009 55.4157,35.0611 C55.4548,35.1002 55.4808,35.1457 55.4939,35.1978 C55.4939,35.2239 55.4808,35.2629 55.4548,35.315 L49.7712,41.9166 L53.1111,41.9166 L53.1111,39.2994 C53.1111,39.1301 53.1566,38.9869 53.2478,38.8697 C53.404,38.7395 53.5342,38.6614 53.6384,38.6353 C53.8077,38.5572 54.016,38.3749 54.2634,38.0885 C54.4717,37.8541 54.7191,37.4439 55.0056,36.858 C55.0446,36.7799 55.1032,36.7408 55.1814,36.7408 C55.3376,36.7408 55.4288,36.8319 55.4548,37.0142 L55.4548,41.9166 L56.8806,41.9166 C57.0629,41.9166 57.167,42.0142 57.1931,42.2096 C57.1931,42.4049 57.0889,42.5025 56.8806,42.5025 L55.4548,42.5025 L55.4548,42.6588 C55.4548,43.1796 55.585,43.6223 55.8454,43.9869 C56.1449,44.3515 56.4965,44.5338 56.9001,44.5338 C57.0564,44.5338 57.1345,44.6119 57.1345,44.7681 C57.1345,44.9244 57.0564,45.0025 56.9001,45.0025 C56.6267,45.0025 56.184,44.9635 55.572,44.8853 C55.0121,44.7942 54.5759,44.7486 54.2634,44.7486 C53.9379,44.7486 53.5017,44.7942 52.9548,44.8853 C52.3689,44.9635 51.9327,45.0025 51.6462,45.0025 C51.49,45.0025 51.4118,44.9244 51.4118,44.7681 C51.4118,44.6119 51.49,44.5338 51.6462,44.5338 C52.0499,44.5338 52.4014,44.3515 52.7009,43.9869 C52.9743,43.6223 53.1111,43.1796 53.1111,42.6588 L53.1111,42.5025 L49.7712,42.5025 C49.5499,42.5025 49.3936,42.4504 49.3025,42.3463 C49.1983,42.2681 49.1462,42.164 49.1462,42.0338 C49.1462,41.9947 49.2439,41.858 49.4392,41.6236 C49.6605,41.3632 49.8949,41.0442 50.1423,40.6666 C50.4288,40.2239 50.7022,39.7681 50.9626,39.2994 C51.2491,38.7655 51.4769,38.1536 51.6462,37.4635 C51.8415,36.7603 51.9392,36.0442 51.9392,35.315 C51.9392,35.1067 52.0303,35.0025 52.2126,35.0025 C52.2517,35.0025 52.3363,35.0221 52.4665,35.0611 C52.5056,35.0741 52.587,35.0937 52.7107,35.1197 C52.8344,35.1457 52.9353,35.1718 53.0134,35.1978 C53.2478,35.2369 53.4691,35.2564 53.6775,35.2564"/>
<path class="TimeSig" d="M53.6775,45.2571 C54.0681,45.2571 54.4001,45.2115 54.6736,45.1203 C54.947,45.0292 55.1228,44.9836 55.2009,44.9836 C55.292,44.9836 55.3637,45.0097 55.4157,45.0617 C55.4548,45.1008 55.4808,45.1464 55.4939,45.1985 C55.4939,45.2245 55.4808,45.2636 55.4548,45.3156 L49.7712,51.9172 L53.1111,51.9172 L53.1111,49.3 C53.1111,49.1308 53.1566,48.9875 53.2478,48.8703 C53.404,48.7401 53.5342,48.662 53.6384,48.636 C53.8077,48.5578 54.016,48.3755 54.2634,48.0891 C54.4717,47.8547 54.7191,47.4446 55.0056,46.8586 C55.0446,46.7805 55.1032,46.7414 55.1814,46.7414 C55.3376,46.7414 55.4288,46.8326 55.4548,47.0149 L55.4548,51.9172 L56.8806,51.9172 C57.0629,51.9172 57.167,52.0149 57.1931,52.2102 C57.1931,52.4055 57.0889,52.5031 56.8806,52.5031 L55.4548,52.5031 L55.4548,52.6594 C55.4548,53.1802 55.585,53.6229 55.8454,53.9875 C56.1449,54.3521 56.4965,54.5344 56.9001,54.5344 C57.0564,54.5344 57.1345,54.6125 57.1345,54.7688 C57.1345,54.925 57.0564,55.0031 56.9001,55.0031 C56.6267,55.0031 56.184,54.9641 55.572,54.886 C55.0121,54.7948 54.5759,54.7492 54.2634,54.7492 C53.9379,54.7492 53.5017,54.7948 52.9548,54.886 C52.3689,54.9641 51.9327,55.0031 51.6462,55.0031 C51.49,55.0031 51.4118,54.925 51.4118,54.7688 C51.4118,54.6125 51.49,54.5344 51.6462,54.5344 C52.0499,54.5344 52.4014,54.3521 52.7009,53.9875 C52.9743,53.6229 53.1111,53.1802 53.1111,52.6594 L53.1111,52.5031 L49.7712,52.5031 C49.5499,52.5031 49.3936,52.4511 49.3025,52.3469 C49.1983,52.2688 49.1462,52.1646 49.1462,52.0344 C49.1462,51.9953 49.2439,51.8586 49.4392,51.6242 C49.6605,51.3638 49.8949,51.0448 50.1423,50.6672 C50.4288,50.2245 50.7022,49.7688 50.9626,49.3 C51.2491,48.7662 51.4769,48.1542 51.6462,47.4641 C51.8415,46.761 51.9392,46.0448 51.9392,45.3156 C51.9392,45.1073 52.0303,45.0031 52.2126,45.0031 C52.2517,45.0031 52.3363,45.0227 52.4665,45.0617 C52.5056,45.0748 52.587,45.0943 52.7107,45.1203 C52.8344,45.1464 52.9353,45.1724 53.0134,45.1985 C53.2478,45.2375 53.4691,45.2571 53.6775,45.2571"/>
</svg>
