<?xml version="1.0" encoding="UTF-8" standalone="no"?>
<svg width="595.446px" height="90.7087px" viewBox="0 0 595.446 90.7087"
 xmlns="http://www.w3.org/2000/svg" xmlns:xlink="http://www.w3.org/1999/xlink" version="1.2" baseProfile="tiny">
<title>polyblog</title>
<desc>Generated by MuseScore 2.3.2</desc>
<polyline class="StaffLines" fill="none" stroke="#000000" stroke-width="0.40" stroke-linejoin="bevel" points="28.3465,35.0022 567.099,35.0022"/>
<polyline class="StaffLines" fill="none" stroke="#000000" stroke-width="0.40" stroke-linejoin="bevel" points="28.3465,40.0025 567.099,40.0025"/>
<polyline class="StaffLines" fill="none" stroke="#000000" stroke-width="0.40" stroke-linejoin="bevel" points="28.3465,45.0028 567.099,45.0028"/>
<polyline class="StaffLines" fill="none" stroke="#000000" stroke-width="0.40" stroke-linejoin="bevel" points="28.3465,50.0031 567.099,50.0031"/>
<polyline class="StaffLines" fill="none" stroke="#000000" stroke-width="0.40" stroke-linejoin="bevel" points="28.3465,55.0035 567.099,55.0035"/>
<polyline class="BarLine" fill="none" stroke="#000000" stroke-width="0.80" stroke-linejoin="bevel" points="562.199,35.0022 562.199,55.0035"/>
<polyline class="BarLine" fill="none" stroke="#000000" stroke-width="2.50" stroke-linejoin="bevel" points="565.849,35.0022 565.849,55.0035"/>
<polyline class="LedgerLine" fill="none" stroke="#000000" stroke-width="0.80" stroke-linecap="square" stroke-linejoin="bevel" points="540.1,60.0038 549.683,60.0038"/>
<polyline class="LedgerLine" fill="none" stroke="#000000" stroke-width="0.80" stroke-linecap="square" stroke-linejoin="bevel" points="513.006,60.0038 522.589,60.0038"/>
<polyline class="LedgerLine" fill="none" stroke="#000000" stroke-width="0.80" stroke-linecap="square" stroke-linejoin="bevel" points="483.626,60.0038 493.209,60.0038"/>
<polyline class="LedgerLine" fill="none" stroke="#000000" stroke-width="0.80" stroke-linecap="square" stroke-linejoin="bevel" points="456.532,60.0038 466.115,60.0038"/>
<polyline class="LedgerLine" fill="none" stroke="#000000" stroke-width="0.80" stroke-linecap="square" stroke-linejoin="bevel" points="436.333,60.0038 445.917,60.0038"/>
<polyline class="LedgerLine" fill="none" stroke="#000000" stroke-width="0.80" stroke-linecap="square" stroke-linejoin="bevel" points="416.134,60.0038 425.718,60.0038"/>
<polyline class="LedgerLine" fill="none" stroke="#000000" stroke-width="0.80" stroke-linecap="square" stroke-linejoin="bevel" points="389.04,60.0038 398.624,60.0038"/>
<polyline class="LedgerLine" fill="none" stroke="#000000" stroke-width="0.80" stroke-linecap="square" stroke-linejoin="bevel" points="359.66,60.0038 369.244,60.0038"/>
<polyline class="LedgerLine" fill="none" stroke="#000000" stroke-width="0.80" stroke-linecap="square" stroke-linejoin="bevel" points="332.566,60.0038 342.15,60.0038"/>
<polyline class="LedgerLine" fill="none" stroke="#000000" stroke-width="0.80" stroke-linecap="square" stroke-linejoin="bevel" points="312.368,60.0038 321.951,60.0038"/>
<polyline class="LedgerLine" fill="none" stroke="#000000" stroke-width="0.80" stroke-linecap="square" stroke-linejoin="bevel" points="292.169,60.0038 301.752,60.0038"/>
<polyline class="LedgerLine" fill="none" stroke="#000000" stroke-width="0.80" stroke-linecap="square" stroke-linejoin="bevel" points="265.075,60.0038 274.658,60.0038"/>
<polyline class="LedgerLine" fill="none" stroke="#000000" stroke-width="0.80" stroke-linecap="square" stroke-linejoin="bevel" points="235.695,60.0038 245.278,60.0038"/>
<polyline class="LedgerLine" fill="none" stroke="#000000" stroke-width="0.80" stroke-linecap="square" stroke-linejoin="bevel" points="208.601,60.0038 218.184,60.0038"/>
<polyline class="LedgerLine" fill="none" stroke="#000000" stroke-width="0.80" stroke-linecap="square" stroke-linejoin="bevel" points="188.402,60.0038 197.985,60.0038"/>
<polyline class="LedgerLine" fill="none" stroke="#000000" stroke-width="0.80" stroke-linecap="square" stroke-linejoin="bevel" points="168.203,60.0038 177.786,60.0038"/>
<polyline class="LedgerLine" fill="none" stroke="#000000" stroke-width="0.80" stroke-linecap="square" stroke-linejoin="bevel" points="141.109,60.0038 150.693,60.0038"/>
<polyline class="LedgerLine" fill="none" stroke="#000000" stroke-width="0.80" stroke-linecap="square" stroke-linejoin="bevel" points="111.729,60.0038 121.312,60.0038"/>
<polyline class="LedgerLine" fill="none" stroke="#000000" stroke-width="0.80" stroke-linecap="square" stroke-linejoin="bevel" points="84.6351,60.0038 94.2185,60.0038"/>
<polyline class="LedgerLine" fill="none" stroke="#000000" stroke-width="0.80" stroke-linecap="square" stroke-linejoin="bevel" points="64.4362,60.0038 74.0196,60.0038"/>
<polyline class="Stem" fill="none" stroke="#000000" stroke-width="0.65" stroke-linecap="round" stroke-linejoin="bevel" points="541.925,60.9429 541.925,75.0047"/>
<polyline class="Stem" fill="none" stroke="#000000" stroke-width="0.65" stroke-linecap="round" stroke-linejoin="bevel" points="538.677,49.064 538.677,35.0022"/>
<polyline class="Stem" fill="none" stroke="#000000" stroke-width="0.65" stroke-linecap="round" stroke-linejoin="bevel" points="514.831,60.9429 514.831,75.0047"/>
<polyline class="Stem" fill="none" stroke="#000000" stroke-width="0.65" stroke-linecap="round" stroke-linejoin="bevel" points="506.074,49.064 506.074,35.0022"/>
<polyline class="Stem" fill="none" stroke="#000000" stroke-width="0.65" stroke-linecap="round" stroke-linejoin="bevel" points="485.451,60.9429 485.451,75.0047"/>
<polyline class="Stem" fill="none" stroke="#000000" stroke-width="0.65" stroke-linecap="round" stroke-linejoin="bevel" points="473.472,49.064 473.472,35.0022"/>
<polyline class="Stem" fill="none" stroke="#000000" stroke-width="0.65" stroke-linecap="round" stroke-linejoin="bevel" points="458.357,60.9429 458.357,75.0047"/>
<polyline class="Stem" fill="none" stroke="#000000" stroke-width="0.65" stroke-linecap="round" stroke-linejoin="bevel" points="444.091,49.064 444.091,35.0022"/>
<polyline class="Stem" fill="none" stroke="#000000" stroke-width="0.65" stroke-linecap="round" stroke-linejoin="bevel" points="438.158,60.9429 438.158,75.0047"/>
<polyline class="Stem" fill="none" stroke="#000000" stroke-width="0.65" stroke-linecap="round" stroke-linejoin="bevel" points="417.959,60.9429 417.959,75.0047"/>
<polyline class="Stem" fill="none" stroke="#000000" stroke-width="0.65" stroke-linecap="round" stroke-linejoin="bevel" points="414.711,49.064 414.711,35.0022"/>
<polyline class="Stem" fill="none" stroke="#000000" stroke-width="0.65" stroke-linecap="round" stroke-linejoin="bevel" points="390.866,60.9429 390.866,75.0047"/>
<polyline class="Stem" fill="none" stroke="#000000" stroke-width="0.65" stroke-linecap="round" stroke-linejoin="bevel" points="382.109,49.064 382.109,35.0022"/>
<polyline class="Stem" fill="none" stroke="#000000" stroke-width="0.65" stroke-linecap="round" stroke-linejoin="bevel" points="361.485,60.9429 361.485,75.0047"/>
<polyline class="Stem" fill="none" stroke="#000000" stroke-width="0.65" stroke-linecap="round" stroke-linejoin="bevel" points="349.506,49.064 349.506,35.0022"/>
<polyline class="Stem" fill="none" stroke="#000000" stroke-width="0.65" stroke-linecap="round" stroke-linejoin="bevel" points="334.392,60.9429 334.392,75.0047"/>
<polyline class="Stem" fill="none" stroke="#000000" stroke-width="0.65" stroke-linecap="round" stroke-linejoin="bevel" points="320.126,49.064 320.126,35.0022"/>
<polyline class="Stem" fill="none" stroke="#000000" stroke-width="0.65" stroke-linecap="round" stroke-linejoin="bevel" points="314.193,60.9429 314.193,75.0047"/>
<polyline class="Stem" fill="none" stroke="#000000" stroke-width="0.65" stroke-linecap="round" stroke-linejoin="bevel" points="293.994,60.9429 293.994,75.0047"/>
<polyline class="Stem" fill="none" stroke="#000000" stroke-width="0.65" stroke-linecap="round" stroke-linejoin="bevel" points="290.746,49.064 290.746,35.0022"/>
<polyline class="Stem" fill="none" stroke="#000000" stroke-width="0.65" stroke-linecap="round" stroke-linejoin="bevel" points="266.9,60.9429 266.9,75.0047"/>
<polyline class="Stem" fill="none" stroke="#000000" stroke-width="0.65" stroke-linecap="round" stroke-linejoin="bevel" points="258.143,49.064 258.143,35.0022"/>
<polyline class="Stem" fill="none" stroke="#000000" stroke-width="0.65" stroke-linecap="round" stroke-linejoin="bevel" points="237.52,60.9429 237.52,75.0047"/>
<polyline class="Stem" fill="none" stroke="#000000" stroke-width="0.65" stroke-linecap="round" stroke-linejoin="bevel" points="225.54,49.064 225.54,35.0022"/>
<polyline class="Stem" fill="none" stroke="#000000" stroke-width="0.65" stroke-linecap="round" stroke-linejoin="bevel" points="210.426,60.9429 210.426,75.0047"/>
<polyline class="Stem" fill="none" stroke="#000000" stroke-width="0.65" stroke-linecap="round" stroke-linejoin="bevel" points="196.16,49.064 196.16,35.0022"/>
<polyline class="Stem" fill="none" stroke="#000000" stroke-width="0.65" stroke-linecap="round" stroke-linejoin="bevel" points="190.227,60.9429 190.227,75.0047"/>
<polyline class="Stem" fill="none" stroke="#000000" stroke-width="0.65" stroke-linecap="round" stroke-linejoin="bevel" points="170.028,60.9429 170.028,75.0047"/>
<polyline class="Stem" fill="none" stroke="#000000" stroke-width="0.65" stroke-linecap="round" stroke-linejoin="bevel" points="166.78,49.064 166.78,35.0022"/>
<polyline class="Stem" fill="none" stroke="#000000" stroke-width="0.65" stroke-linecap="round" stroke-linejoin="bevel" points="142.934,60.9429 142.934,75.0047"/>
<polyline class="Stem" fill="none" stroke="#000000" stroke-width="0.65" stroke-linecap="round" stroke-linejoin="bevel" points="134.177,49.064 134.177,35.0022"/>
<polyline class="Stem" fill="none" stroke="#000000" stroke-width="0.65" stroke-linecap="round" stroke-linejoin="bevel" points="113.554,60.9429 113.554,75.0047"/>
<polyline class="Stem" fill="none" stroke="#000000" stroke-width="0.65" stroke-linecap="round" stroke-linejoin="bevel" points="101.575,49.064 101.575,35.0022"/>
<polyline class="Stem" fill="none" stroke="#000000" stroke-width="0.65" stroke-linecap="round" stroke-linejoin="bevel" points="86.4602,60.9429 86.4602,75.0047"/>
<polyline class="Stem" fill="none" stroke="#000000" stroke-width="0.65" stroke-linecap="round" stroke-linejoin="bevel" points="72.1945,49.064 72.1945,35.0022"/>
<polyline class="Stem" fill="none" stroke="#000000" stroke-width="0.65" stroke-linecap="round" stroke-linejoin="bevel" points="66.2613,60.9429 66.2613,75.0047"/>
<path class="Note" d="M545.995,57.2499 C546.62,57.2499 547.147,57.4126 547.577,57.7382 C547.98,58.0897 548.182,58.5324 548.182,59.0663 C548.182,59.9647 547.72,60.8046 546.795,61.5858 C545.858,62.3671 544.855,62.7577 543.787,62.7577 C543.162,62.7577 542.635,62.5949 542.205,62.2694 C541.802,61.9178 541.6,61.4751 541.6,60.9413 C541.6,60.0428 542.069,59.203 543.006,58.4217 C543.918,57.6405 544.914,57.2499 545.995,57.2499"/>
<path class="Note" d="M536.813,47.2492 C537.438,47.2492 537.966,47.412 538.395,47.7375 C538.799,48.0891 539.001,48.5318 539.001,49.0656 C539.001,49.9641 538.538,50.8039 537.614,51.5852 C536.676,52.3664 535.674,52.7571 534.606,52.7571 C533.981,52.7571 533.454,52.5943 533.024,52.2688 C532.621,51.9172 532.419,51.4745 532.419,50.9406 C532.419,50.0422 532.887,49.2024 533.825,48.4211 C534.736,47.6399 535.732,47.2492 536.813,47.2492"/>
<path class="Note" d="M518.901,57.2499 C519.526,57.2499 520.053,57.4126 520.483,57.7382 C520.886,58.0897 521.088,58.5324 521.088,59.0663 C521.088,59.9647 520.626,60.8046 519.701,61.5858 C518.764,62.3671 517.761,62.7577 516.694,62.7577 C516.069,62.7577 515.541,62.5949 515.112,62.2694 C514.708,61.9178 514.506,61.4751 514.506,60.9413 C514.506,60.0428 514.975,59.203 515.912,58.4217 C516.824,57.6405 517.82,57.2499 518.901,57.2499"/>
<path class="Note" d="M504.211,47.2492 C504.836,47.2492 505.363,47.412 505.793,47.7375 C506.196,48.0891 506.398,48.5318 506.398,49.0656 C506.398,49.9641 505.936,50.8039 505.011,51.5852 C504.074,52.3664 503.071,52.7571 502.004,52.7571 C501.379,52.7571 500.851,52.5943 500.422,52.2688 C500.018,51.9172 499.816,51.4745 499.816,50.9406 C499.816,50.0422 500.285,49.2024 501.222,48.4211 C502.134,47.6399 503.13,47.2492 504.211,47.2492"/>
<path class="Note" d="M489.52,57.2499 C490.145,57.2499 490.673,57.4126 491.103,57.7382 C491.506,58.0897 491.708,58.5324 491.708,59.0663 C491.708,59.9647 491.246,60.8046 490.321,61.5858 C489.384,62.3671 488.381,62.7577 487.313,62.7577 C486.688,62.7577 486.161,62.5949 485.731,62.2694 C485.328,61.9178 485.126,61.4751 485.126,60.9413 C485.126,60.0428 485.595,59.203 486.532,58.4217 C487.444,57.6405 488.44,57.2499 489.52,57.2499"/>
<path class="Note" d="M471.608,47.2492 C472.233,47.2492 472.76,47.412 473.19,47.7375 C473.594,48.0891 473.795,48.5318 473.795,49.0656 C473.795,49.9641 473.333,50.8039 472.409,51.5852 C471.471,52.3664 470.469,52.7571 469.401,52.7571 C468.776,52.7571 468.249,52.5943 467.819,52.2688 C467.415,51.9172 467.213,51.4745 467.213,50.9406 C467.213,50.0422 467.682,49.2024 468.62,48.4211 C469.531,47.6399 470.527,47.2492 471.608,47.2492"/>
<path class="Note" d="M462.427,57.2499 C463.052,57.2499 463.579,57.4126 464.009,57.7382 C464.412,58.0897 464.614,58.5324 464.614,59.0663 C464.614,59.9647 464.152,60.8046 463.227,61.5858 C462.29,62.3671 461.287,62.7577 460.22,62.7577 C459.595,62.7577 459.067,62.5949 458.638,62.2694 C458.234,61.9178 458.032,61.4751 458.032,60.9413 C458.032,60.0428 458.501,59.203 459.438,58.4217 C460.35,57.6405 461.346,57.2499 462.427,57.2499"/>
<path class="Note" d="M442.228,47.2492 C442.853,47.2492 443.38,47.412 443.81,47.7375 C444.213,48.0891 444.415,48.5318 444.415,49.0656 C444.415,49.9641 443.953,50.8039 443.029,51.5852 C442.091,52.3664 441.088,52.7571 440.021,52.7571 C439.396,52.7571 438.868,52.5943 438.439,52.2688 C438.035,51.9172 437.833,51.4745 437.833,50.9406 C437.833,50.0422 438.302,49.2024 439.239,48.4211 C440.151,47.6399 441.147,47.2492 442.228,47.2492"/>
<path class="Note" d="M442.228,57.2499 C442.853,57.2499 443.38,57.4126 443.81,57.7382 C444.213,58.0897 444.415,58.5324 444.415,59.0663 C444.415,59.9647 443.953,60.8046 443.029,61.5858 C442.091,62.3671 441.088,62.7577 440.021,62.7577 C439.396,62.7577 438.868,62.5949 438.439,62.2694 C438.035,61.9178 437.833,61.4751 437.833,60.9413 C437.833,60.0428 438.302,59.203 439.239,58.4217 C440.151,57.6405 441.147,57.2499 442.228,57.2499"/>
<path class="Note" d="M422.029,57.2499 C422.654,57.2499 423.181,57.4126 423.611,57.7382 C424.015,58.0897 424.216,58.5324 424.216,59.0663 C424.216,59.9647 423.754,60.8046 422.83,61.5858 C421.892,62.3671 420.89,62.7577 419.822,62.7577 C419.197,62.7577 418.67,62.5949 418.24,62.2694 C417.836,61.9178 417.634,61.4751 417.634,60.9413 C417.634,60.0428 418.103,59.203 419.041,58.4217 C419.952,57.6405 420.948,57.2499 422.029,57.2499"/>
<path class="Note" d="M412.848,47.2492 C413.473,47.2492 414,47.412 414.43,47.7375 C414.833,48.0891 415.035,48.5318 415.035,49.0656 C415.035,49.9641 414.573,50.8039 413.648,51.5852 C412.711,52.3664 411.708,52.7571 410.641,52.7571 C410.016,52.7571 409.488,52.5943 409.059,52.2688 C408.655,51.9172 408.453,51.4745 408.453,50.9406 C408.453,50.0422 408.922,49.2024 409.859,48.4211 C410.771,47.6399 411.767,47.2492 412.848,47.2492"/>
<path class="Note" d="M394.935,57.2499 C395.56,57.2499 396.087,57.4126 396.517,57.7382 C396.921,58.0897 397.123,58.5324 397.123,59.0663 C397.123,59.9647 396.66,60.8046 395.736,61.5858 C394.798,62.3671 393.796,62.7577 392.728,62.7577 C392.103,62.7577 391.576,62.5949 391.146,62.2694 C390.742,61.9178 390.541,61.4751 390.541,60.9413 C390.541,60.0428 391.009,59.203 391.947,58.4217 C392.858,57.6405 393.854,57.2499 394.935,57.2499"/>
<path class="Note" d="M380.245,47.2492 C380.87,47.2492 381.397,47.412 381.827,47.7375 C382.231,48.0891 382.432,48.5318 382.432,49.0656 C382.432,49.9641 381.97,50.8039 381.046,51.5852 C380.108,52.3664 379.106,52.7571 378.038,52.7571 C377.413,52.7571 376.886,52.5943 376.456,52.2688 C376.052,51.9172 375.85,51.4745 375.85,50.9406 C375.85,50.0422 376.319,49.2024 377.257,48.4211 C378.168,47.6399 379.164,47.2492 380.245,47.2492"/>
<path class="Note" d="M365.555,57.2499 C366.18,57.2499 366.707,57.4126 367.137,57.7382 C367.541,58.0897 367.742,58.5324 367.742,59.0663 C367.742,59.9647 367.28,60.8046 366.356,61.5858 C365.418,62.3671 364.416,62.7577 363.348,62.7577 C362.723,62.7577 362.195,62.5949 361.766,62.2694 C361.362,61.9178 361.16,61.4751 361.16,60.9413 C361.16,60.0428 361.629,59.203 362.567,58.4217 C363.478,57.6405 364.474,57.2499 365.555,57.2499"/>
<path class="Note" d="M347.642,47.2492 C348.267,47.2492 348.795,47.412 349.224,47.7375 C349.628,48.0891 349.83,48.5318 349.83,49.0656 C349.83,49.9641 349.368,50.8039 348.443,51.5852 C347.506,52.3664 346.503,52.7571 345.435,52.7571 C344.81,52.7571 344.283,52.5943 343.853,52.2688 C343.45,51.9172 343.248,51.4745 343.248,50.9406 C343.248,50.0422 343.717,49.2024 344.654,48.4211 C345.566,47.6399 346.562,47.2492 347.642,47.2492"/>
<path class="Note" d="M338.461,57.2499 C339.086,57.2499 339.613,57.4126 340.043,57.7382 C340.447,58.0897 340.649,58.5324 340.649,59.0663 C340.649,59.9647 340.186,60.8046 339.262,61.5858 C338.324,62.3671 337.322,62.7577 336.254,62.7577 C335.629,62.7577 335.102,62.5949 334.672,62.2694 C334.268,61.9178 334.066,61.4751 334.066,60.9413 C334.066,60.0428 334.535,59.203 335.473,58.4217 C336.384,57.6405 337.38,57.2499 338.461,57.2499"/>
<path class="Note" d="M318.262,47.2492 C318.887,47.2492 319.414,47.412 319.844,47.7375 C320.248,48.0891 320.45,48.5318 320.45,49.0656 C320.45,49.9641 319.987,50.8039 319.063,51.5852 C318.125,52.3664 317.123,52.7571 316.055,52.7571 C315.43,52.7571 314.903,52.5943 314.473,52.2688 C314.069,51.9172 313.868,51.4745 313.868,50.9406 C313.868,50.0422 314.336,49.2024 315.274,48.4211 C316.185,47.6399 317.181,47.2492 318.262,47.2492"/>
<path class="Note" d="M318.262,57.2499 C318.887,57.2499 319.414,57.4126 319.844,57.7382 C320.248,58.0897 320.45,58.5324 320.45,59.0663 C320.45,59.9647 319.987,60.8046 319.063,61.5858 C318.125,62.3671 317.123,62.7577 316.055,62.7577 C315.43,62.7577 314.903,62.5949 314.473,62.2694 C314.069,61.9178 313.868,61.4751 313.868,60.9413 C313.868,60.0428 314.336,59.203 315.274,58.4217 C316.185,57.6405 317.181,57.2499 318.262,57.2499"/>
<path class="Note" d="M298.063,57.2499 C298.688,57.2499 299.216,57.4126 299.645,57.7382 C300.049,58.0897 300.251,58.5324 300.251,59.0663 C300.251,59.9647 299.789,60.8046 298.864,61.5858 C297.927,62.3671 296.924,62.7577 295.856,62.7577 C295.231,62.7577 294.704,62.5949 294.274,62.2694 C293.871,61.9178 293.669,61.4751 293.669,60.9413 C293.669,60.0428 294.137,59.203 295.075,58.4217 C295.986,57.6405 296.983,57.2499 298.063,57.2499"/>
<path class="Note" d="M288.882,47.2492 C289.507,47.2492 290.034,47.412 290.464,47.7375 C290.868,48.0891 291.069,48.5318 291.069,49.0656 C291.069,49.9641 290.607,50.8039 289.683,51.5852 C288.745,52.3664 287.743,52.7571 286.675,52.7571 C286.05,52.7571 285.523,52.5943 285.093,52.2688 C284.689,51.9172 284.487,51.4745 284.487,50.9406 C284.487,50.0422 284.956,49.2024 285.894,48.4211 C286.805,47.6399 287.801,47.2492 288.882,47.2492"/>
<path class="Note" d="M270.969,57.2499 C271.594,57.2499 272.122,57.4126 272.551,57.7382 C272.955,58.0897 273.157,58.5324 273.157,59.0663 C273.157,59.9647 272.695,60.8046 271.77,61.5858 C270.833,62.3671 269.83,62.7577 268.762,62.7577 C268.137,62.7577 267.61,62.5949 267.18,62.2694 C266.777,61.9178 266.575,61.4751 266.575,60.9413 C266.575,60.0428 267.044,59.203 267.981,58.4217 C268.893,57.6405 269.889,57.2499 270.969,57.2499"/>
<path class="Note" d="M256.279,47.2492 C256.904,47.2492 257.432,47.412 257.861,47.7375 C258.265,48.0891 258.467,48.5318 258.467,49.0656 C258.467,49.9641 258.005,50.8039 257.08,51.5852 C256.143,52.3664 255.14,52.7571 254.072,52.7571 C253.447,52.7571 252.92,52.5943 252.49,52.2688 C252.087,51.9172 251.885,51.4745 251.885,50.9406 C251.885,50.0422 252.354,49.2024 253.291,48.4211 C254.202,47.6399 255.199,47.2492 256.279,47.2492"/>
<path class="Note" d="M241.589,57.2499 C242.214,57.2499 242.742,57.4126 243.171,57.7382 C243.575,58.0897 243.777,58.5324 243.777,59.0663 C243.777,59.9647 243.314,60.8046 242.39,61.5858 C241.452,62.3671 240.45,62.7577 239.382,62.7577 C238.757,62.7577 238.23,62.5949 237.8,62.2694 C237.397,61.9178 237.195,61.4751 237.195,60.9413 C237.195,60.0428 237.663,59.203 238.601,58.4217 C239.512,57.6405 240.508,57.2499 241.589,57.2499"/>
<path class="Note" d="M223.677,47.2492 C224.302,47.2492 224.829,47.412 225.259,47.7375 C225.662,48.0891 225.864,48.5318 225.864,49.0656 C225.864,49.9641 225.402,50.8039 224.477,51.5852 C223.54,52.3664 222.537,52.7571 221.47,52.7571 C220.845,52.7571 220.317,52.5943 219.888,52.2688 C219.484,51.9172 219.282,51.4745 219.282,50.9406 C219.282,50.0422 219.751,49.2024 220.688,48.4211 C221.6,47.6399 222.596,47.2492 223.677,47.2492"/>
<path class="Note" d="M214.495,57.2499 C215.12,57.2499 215.648,57.4126 216.077,57.7382 C216.481,58.0897 216.683,58.5324 216.683,59.0663 C216.683,59.9647 216.221,60.8046 215.296,61.5858 C214.359,62.3671 213.356,62.7577 212.288,62.7577 C211.663,62.7577 211.136,62.5949 210.706,62.2694 C210.303,61.9178 210.101,61.4751 210.101,60.9413 C210.101,60.0428 210.57,59.203 211.507,58.4217 C212.419,57.6405 213.415,57.2499 214.495,57.2499"/>
<path class="Note" d="M194.296,47.2492 C194.921,47.2492 195.449,47.412 195.879,47.7375 C196.282,48.0891 196.484,48.5318 196.484,49.0656 C196.484,49.9641 196.022,50.8039 195.097,51.5852 C194.16,52.3664 193.157,52.7571 192.089,52.7571 C191.464,52.7571 190.937,52.5943 190.507,52.2688 C190.104,51.9172 189.902,51.4745 189.902,50.9406 C189.902,50.0422 190.371,49.2024 191.308,48.4211 C192.22,47.6399 193.216,47.2492 194.296,47.2492"/>
<path class="Note" d="M194.296,57.2499 C194.921,57.2499 195.449,57.4126 195.879,57.7382 C196.282,58.0897 196.484,58.5324 196.484,59.0663 C196.484,59.9647 196.022,60.8046 195.097,61.5858 C194.16,62.3671 193.157,62.7577 192.089,62.7577 C191.464,62.7577 190.937,62.5949 190.507,62.2694 C190.104,61.9178 189.902,61.4751 189.902,60.9413 C189.902,60.0428 190.371,59.203 191.308,58.4217 C192.22,57.6405 193.216,57.2499 194.296,57.2499"/>
<path class="Note" d="M174.098,57.2499 C174.723,57.2499 175.25,57.4126 175.68,57.7382 C176.083,58.0897 176.285,58.5324 176.285,59.0663 C176.285,59.9647 175.823,60.8046 174.898,61.5858 C173.961,62.3671 172.958,62.7577 171.891,62.7577 C171.266,62.7577 170.738,62.5949 170.309,62.2694 C169.905,61.9178 169.703,61.4751 169.703,60.9413 C169.703,60.0428 170.172,59.203 171.109,58.4217 C172.021,57.6405 173.017,57.2499 174.098,57.2499"/>
<path class="Note" d="M164.916,47.2492 C165.541,47.2492 166.069,47.412 166.498,47.7375 C166.902,48.0891 167.104,48.5318 167.104,49.0656 C167.104,49.9641 166.642,50.8039 165.717,51.5852 C164.78,52.3664 163.777,52.7571 162.709,52.7571 C162.084,52.7571 161.557,52.5943 161.127,52.2688 C160.724,51.9172 160.522,51.4745 160.522,50.9406 C160.522,50.0422 160.991,49.2024 161.928,48.4211 C162.839,47.6399 163.836,47.2492 164.916,47.2492"/>
<path class="Note" d="M147.004,57.2499 C147.629,57.2499 148.156,57.4126 148.586,57.7382 C148.989,58.0897 149.191,58.5324 149.191,59.0663 C149.191,59.9647 148.729,60.8046 147.805,61.5858 C146.867,62.3671 145.864,62.7577 144.797,62.7577 C144.172,62.7577 143.644,62.5949 143.215,62.2694 C142.811,61.9178 142.609,61.4751 142.609,60.9413 C142.609,60.0428 143.078,59.203 144.015,58.4217 C144.927,57.6405 145.923,57.2499 147.004,57.2499"/>
<path class="Note" d="M132.314,47.2492 C132.939,47.2492 133.466,47.412 133.896,47.7375 C134.299,48.0891 134.501,48.5318 134.501,49.0656 C134.501,49.9641 134.039,50.8039 133.114,51.5852 C132.177,52.3664 131.174,52.7571 130.107,52.7571 C129.482,52.7571 128.954,52.5943 128.525,52.2688 C128.121,51.9172 127.919,51.4745 127.919,50.9406 C127.919,50.0422 128.388,49.2024 129.325,48.4211 C130.237,47.6399 131.233,47.2492 132.314,47.2492"/>
<path class="Note" d="M117.624,57.2499 C118.249,57.2499 118.776,57.4126 119.206,57.7382 C119.609,58.0897 119.811,58.5324 119.811,59.0663 C119.811,59.9647 119.349,60.8046 118.424,61.5858 C117.487,62.3671 116.484,62.7577 115.417,62.7577 C114.792,62.7577 114.264,62.5949 113.835,62.2694 C113.431,61.9178 113.229,61.4751 113.229,60.9413 C113.229,60.0428 113.698,59.203 114.635,58.4217 C115.547,57.6405 116.543,57.2499 117.624,57.2499"/>
<path class="Note" d="M99.711,47.2492 C100.336,47.2492 100.863,47.412 101.293,47.7375 C101.697,48.0891 101.899,48.5318 101.899,49.0656 C101.899,49.9641 101.436,50.8039 100.512,51.5852 C99.5743,52.3664 98.5717,52.7571 97.504,52.7571 C96.879,52.7571 96.3517,52.5943 95.922,52.2688 C95.5183,51.9172 95.3165,51.4745 95.3165,50.9406 C95.3165,50.0422 95.7853,49.2024 96.7228,48.4211 C97.6342,47.6399 98.6303,47.2492 99.711,47.2492"/>
<path class="Note" d="M90.5297,57.2499 C91.1547,57.2499 91.6821,57.4126 92.1118,57.7382 C92.5154,58.0897 92.7172,58.5324 92.7172,59.0663 C92.7172,59.9647 92.255,60.8046 91.3305,61.5858 C90.393,62.3671 89.3904,62.7577 88.3227,62.7577 C87.6977,62.7577 87.1704,62.5949 86.7407,62.2694 C86.337,61.9178 86.1352,61.4751 86.1352,60.9413 C86.1352,60.0428 86.604,59.203 87.5415,58.4217 C88.4529,57.6405 89.449,57.2499 90.5297,57.2499"/>
<path class="Note" d="M70.3309,47.2492 C70.9559,47.2492 71.4832,47.412 71.9129,47.7375 C72.3165,48.0891 72.5184,48.5318 72.5184,49.0656 C72.5184,49.9641 72.0561,50.8039 71.1316,51.5852 C70.1941,52.3664 69.1915,52.7571 68.1238,52.7571 C67.4988,52.7571 66.9715,52.5943 66.5418,52.2688 C66.1381,51.9172 65.9363,51.4745 65.9363,50.9406 C65.9363,50.0422 66.4051,49.2024 67.3426,48.4211 C68.254,47.6399 69.2501,47.2492 70.3309,47.2492"/>
<path class="Note" d="M70.3309,57.2499 C70.9559,57.2499 71.4832,57.4126 71.9129,57.7382 C72.3165,58.0897 72.5184,58.5324 72.5184,59.0663 C72.5184,59.9647 72.0561,60.8046 71.1316,61.5858 C70.1941,62.3671 69.1915,62.7577 68.1238,62.7577 C67.4988,62.7577 66.9715,62.5949 66.5418,62.2694 C66.1381,61.9178 65.9363,61.4751 65.9363,60.9413 C65.9363,60.0428 66.4051,59.203 67.3426,58.4217 C68.254,57.6405 69.2501,57.2499 70.3309,57.2499"/>
<path class="Clef" d="M38.8904,44.886 C38.8904,44.886 38.9295,44.886 39.0076,44.886 C39.0597,44.8729 39.1053,44.8664 39.1443,44.8664 C40.6026,44.8664 41.8006,45.3808 42.7381,46.4094 C43.6756,47.425 44.1443,48.6099 44.1443,49.9641 C44.1443,51.6438 43.4477,53.011 42.0545,54.0656 C41.6899,54.3521 41.2146,54.5865 40.6287,54.7688 C40.6938,55.6151 40.7263,56.2987 40.7263,56.8196 C40.7263,56.9237 40.7133,57.3013 40.6873,57.9524 C40.6352,59.1633 40.2185,60.2115 39.4373,61.0969 C38.6821,61.9693 37.7446,62.4055 36.6248,62.4055 C35.5701,62.4055 34.6717,62.0344 33.9295,61.2922 C33.1873,60.537 32.8162,59.6255 32.8162,58.5578 C32.8162,57.9979 33.031,57.5227 33.4607,57.1321 C33.9034,56.7414 34.4178,56.5461 35.0037,56.5461 C35.5245,56.5461 35.9607,56.7479 36.3123,57.1516 C36.6769,57.5292 36.8592,57.9979 36.8592,58.5578 C36.8592,59.0656 36.6769,59.5018 36.3123,59.8664 C35.9477,60.231 35.5115,60.4133 35.0037,60.4133 C34.7954,60.4133 34.5935,60.3742 34.3982,60.2961 C34.9711,61.1425 35.7329,61.5656 36.6834,61.5656 C37.5818,61.5656 38.3175,61.2011 38.8904,60.4719 C39.4894,59.7167 39.8149,58.8378 39.867,57.8352 C39.893,57.2102 39.906,56.8521 39.906,56.761 C39.906,56.0318 39.88,55.4328 39.8279,54.9641 C39.1769,55.0683 38.5974,55.1203 38.0896,55.1203 C36.2797,55.1203 34.7368,54.4042 33.4607,52.9719 C32.2107,51.5266 31.5857,49.8078 31.5857,47.8156 C31.5857,47.399 31.6248,46.9758 31.7029,46.5461 C31.781,46.1946 31.8787,45.8104 31.9959,45.3938 C32.061,45.1594 32.2368,44.7818 32.5232,44.261 C32.6274,44.1047 32.7446,43.9094 32.8748,43.675 C33.005,43.4406 33.0961,43.2844 33.1482,43.2063 C33.2784,42.9459 33.5323,42.5943 33.9099,42.1516 C34.0141,42.0344 34.1215,41.9042 34.2322,41.761 C34.3429,41.6177 34.4373,41.5005 34.5154,41.4094 C34.5935,41.3183 34.6521,41.2466 34.6912,41.1946 C34.7303,41.1425 35.0232,40.7974 35.5701,40.1594 C35.7003,40.0292 35.8273,39.8892 35.951,39.7395 C36.0747,39.5897 36.1756,39.4726 36.2537,39.3879 C36.3318,39.3033 36.3904,39.2414 36.4295,39.2024 C35.9607,37.6529 35.6678,36.4159 35.5506,35.4914 C35.4594,34.7492 35.4138,33.7336 35.4138,32.4446 C35.4138,31.3117 35.6743,30.2505 36.1951,29.261 C36.7029,28.2323 37.4125,27.3925 38.324,26.7414 C38.3891,26.7024 38.4542,26.6828 38.5193,26.6828 C38.6105,26.6828 38.6756,26.7024 38.7146,26.7414 C39.4178,27.5878 40.0232,28.688 40.531,30.0422 C41.0519,31.3964 41.3123,32.6268 41.3123,33.7336 C41.3123,34.9836 41.0128,36.1555 40.4138,37.2492 C39.7368,38.4081 38.8644,39.606 37.7967,40.843 C38.0701,41.7024 38.4347,43.05 38.8904,44.886 M40.5506,53.968 C41.2276,53.7206 41.755,53.2974 42.1326,52.6985 C42.5493,52.1255 42.7576,51.481 42.7576,50.7649 C42.7576,49.8404 42.4451,49.0201 41.8201,48.3039 C41.1821,47.5617 40.3683,47.1451 39.3787,47.0539 C39.9386,49.8013 40.3292,52.106 40.5506,53.968 M32.992,49.4563 C32.992,50.7453 33.5128,51.8781 34.5545,52.8547 C35.6222,53.8052 36.8201,54.2805 38.1482,54.2805 C38.6951,54.2805 39.2289,54.2414 39.7498,54.1633 C39.5414,52.1841 39.1313,49.8143 38.5193,47.0539 C37.7771,47.1321 37.1847,47.3925 36.742,47.8352 C36.3123,48.2909 36.0974,48.8052 36.0974,49.3781 C36.0974,50.3677 36.6248,51.1685 37.6795,51.7805 C37.7706,51.8716 37.8162,51.9693 37.8162,52.0735 C37.8162,52.1776 37.7706,52.2753 37.6795,52.3664 C37.6013,52.4576 37.5037,52.5031 37.3865,52.5031 C37.3735,52.5031 37.3149,52.4901 37.2107,52.4641 C36.4685,52.0604 35.8956,51.5396 35.492,50.9016 C35.1144,50.2245 34.9256,49.5409 34.9256,48.8508 C34.9256,47.9524 35.2055,47.1386 35.7654,46.4094 C36.3513,45.6802 37.1131,45.2115 38.0506,45.0031 C37.686,43.5448 37.3865,42.4055 37.1521,41.5852 C36.9438,41.8196 36.6931,42.1028 36.4002,42.4348 C36.1072,42.7668 35.9347,42.9654 35.8826,43.0305 C35.4138,43.6425 35.0558,44.1177 34.8084,44.4563 C34.3657,45.0683 34.0401,45.5956 33.8318,46.0383 C33.6105,46.5331 33.4151,47.0735 33.2459,47.6594 C33.0766,48.2193 32.992,48.8183 32.992,49.4563 M39.5154,29.593 C38.5388,30.0748 37.7706,30.7649 37.2107,31.6633 C36.6378,32.5878 36.3513,33.5839 36.3513,34.6516 C36.3513,35.5891 36.5857,36.8521 37.0545,38.4406 C37.992,37.3078 38.6951,36.2597 39.1638,35.2961 C39.6586,34.2805 39.906,33.2193 39.906,32.1125 C39.906,31.2792 39.7758,30.4393 39.5154,29.593"/>
<path class="TimeSig" d="M53.6775,35.2564 C54.0681,35.2564 54.4001,35.2109 54.6736,35.1197 C54.947,35.0286 55.1228,34.983 55.2009,34.983 C55.292,34.983 55.3637,35.009 55.4157,35.0611 C55.4548,35.1002 55.4808,35.1457 55.4939,35.1978 C55.4939,35.2239 55.4808,35.2629 55.4548,35.315 L49.7712,41.9166 L53.1111,41.9166 L53.1111,39.2994 C53.1111,39.1301 53.1566,38.9869 53.2478,38.8697 C53.404,38.7395 53.5342,38.6614 53.6384,38.6353 C53.8077,38.5572 54.016,38.3749 54.2634,38.0885 C54.4717,37.8541 54.7191,37.4439 55.0056,36.858 C55.0446,36.7799 55.1032,36.7408 55.1814,36.7408 C55.3376,36.7408 55.4288,36.8319 55.4548,37.0142 L55.4548,41.9166 L56.8806,41.9166 C57.0629,41.9166 57.167,42.0142 57.1931,42.2096 C57.1931,42.4049 57.0889,42.5025 56.8806,42.5025 L55.4548,42.5025 L55.4548,42.6588 C55.4548,43.1796 55.585,43.6223 55.8454,43.9869 C56.1449,44.3515 56.4965,44.5338 56.9001,44.5338 C57.0564,44.5338 57.1345,44.6119 57.1345,44.7681 C57.1345,44.9244 57.0564,45.0025 56.9001,45.0025 C56.6267,45.0025 56.184,44.9635 55.572,44.8853 C55.0121,44.7942 54.5759,44.7486 54.2634,44.7486 C53.9379,44.7486 53.5017,44.7942 52.9548,44.8853 C52.3689,44.9635 51.9327,45.0025 51.6462,45.0025 C51.49,45.0025 51.4118,44.9244 51.4118,44.7681 C51.4118,44.6119 51.49,44.5338 51.6462,44.5338 C52.0499,44.5338 52.4014,44.3515 52.7009,43.9869 C52.9743,43.6223 53.1111,43.1796 53.1111,42.6588 L53.1111,42.5025 L49.7712,42.5025 C49.5499,42.5025 49.3936,42.4504 49.3025,42.3463 C49.1983,42.2681 49.1462,42.164 49.1462,42.0338 C49.1462,41.9947 49.2439,41.858 49.4392,41.6236 C49.6605,41.3632 49.8949,41.0442 50.1423,40.6666 C50.4288,40.2239 50.7022,39.7681 50.9626,39.2994 C51.2491,38.7655 51.4769,38.1536 51.6462,37.4635 C51.8415,36.7603 51.9392,36.0442 51.9392,35.315 C51.9392,35.1067 52.0303,35.0025 52.2126,35.0025 C52.2517,35.0025 52.3363,35.0221 52.4665,35.0611 C52.5056,35.0741 52.587,35.0937 52.7107,35.1197 C52.8344,35.1457 52.9353,35.1718 53.0134,35.1978 C53.2478,35.2369 53.4691,35.2564 53.6775,35.2564"/>
<path class="TimeSig" d="M53.6775,45.2571 C54.0681,45.2571 54.4001,45.2115 54.6736,45.1203 C54.947,45.0292 55.1228,44.9836 55.2009,44.9836 C55.292,44.9836 55.3637,45.0097 55.4157,45.0617 C55.4548,45.1008 55.4808,45.1464 55.4939,45.1985 C55.4939,45.2245 55.4808,45.2636 55.4548,45.3156 L49.7712,51.9172 L53.1111,51.9172 L53.1111,49.3 C53.1111,49.1308 53.1566,48.9875 53.2478,48.8703 C53.404,48.7401 53.5342,48.662 53.6384,48.636 C53.8077,48.5578 54.016,48.3755 54.2634,48.0891 C54.4717,47.8547 54.7191,47.4446 55.0056,46.8586 C55.0446,46.7805 55.1032,46.7414 55.1814,46.7414 C55.3376,46.7414 55.4288,46.8326 55.4548,47.0149 L55.4548,51.9172 L56.8806,51.9172 C57.0629,51.9172 57.167,52.0149 57.1931,52.2102 C57.1931,52.4055 57.0889,52.5031 56.8806,52.5031 L55.4548,52.5031 L55.4548,52.6594 C55.4548,53.1802 55.585,53.6229 55.8454,53.9875 C56.1449,54.3521 56.4965,54.5344 56.9001,54.5344 C57.0564,54.5344 57.1345,54.6125 57.1345,54.7688 C57.1345,54.925 57.0564,55.0031 56.9001,55.0031 C56.6267,55.0031 56.184,54.9641 55.572,54.886 C55.0121,54.7948 54.5759,54.7492 54.2634,54.7492 C53.9379,54.7492 53.5017,54.7948 52.9548,54.886 C52.3689,54.9641 51.9327,55.0031 51.6462,55.0031 C51.49,55.0031 51.4118,54.925 51.4118,54.7688 C51.4118,54.6125 51.49,54.5344 51.6462,54.5344 C52.0499,54.5344 52.4014,54.3521 52.7009,53.9875 C52.9743,53.6229 53.1111,53.1802 53.1111,52.6594 L53.1111,52.5031 L49.7712,52.5031 C49.5499,52.5031 49.3936,52.4511 49.3025,52.3469 C49.1983,52.2688 49.1462,52.1646 49.1462,52.0344 C49.1462,51.9953 49.2439,51.8586 49.4392,51.6242 C49.6605,51.3638 49.8949,51.0448 50.1423,50.6672 C50.4288,50.2245 50.7022,49.7688 50.9626,49.3 C51.2491,48.7662 51.4769,48.1542 51.6462,47.4641 C51.8415,46.761 51.9392,46.0448 51.9392,45.3156 C51.9392,45.1073 52.0303,45.0031 52.2126,45.0031 C52.2517,45.0031 52.3363,45.0227 52.4665,45.0617 C52.5056,45.0748 52.587,45.0943 52.7107,45.1203 C52.8344,45.1464 52.9353,45.1724 53.0134,45.1985 C53.2478,45.2375 53.4691,45.2571 53.6775,45.2571"/>
<path class="Beam" fill-rule="evenodd" d="M443.766,33.7521 L539.002,33.7521 L539.002,36.2523 L443.766,36.2523 L443.766,33.7521 "/>
<path class="Beam" fill-rule="evenodd" d="M443.766,37.5024 L539.002,37.5024 L539.002,40.0025 L443.766,40.0025 L443.766,37.5024 "/>
<path class="Beam" fill-rule="evenodd" d="M437.833,73.7546 L542.25,73.7546 L542.25,76.2548 L437.833,76.2548 L437.833,73.7546 "/>
<path class="Beam" fill-rule="evenodd" d="M437.833,70.0044 L542.25,70.0044 L542.25,72.5046 L437.833,72.5046 L437.833,70.0044 "/>
<path class="Beam" fill-rule="evenodd" d="M319.801,33.7521 L415.036,33.7521 L415.036,36.2523 L319.801,36.2523 L319.801,33.7521 "/>
<path class="Beam" fill-rule="evenodd" d="M319.801,37.5024 L415.036,37.5024 L415.036,40.0025 L319.801,40.0025 L319.801,37.5024 "/>
<path class="Beam" fill-rule="evenodd" d="M313.868,73.7546 L418.284,73.7546 L418.284,76.2548 L313.868,76.2548 L313.868,73.7546 "/>
<path class="Beam" fill-rule="evenodd" d="M313.868,70.0044 L418.284,70.0044 L418.284,72.5046 L313.868,72.5046 L313.868,70.0044 "/>
<path class="Beam" fill-rule="evenodd" d="M195.835,33.7521 L291.071,33.7521 L291.071,36.2523 L195.835,36.2523 L195.835,33.7521 "/>
<path class="Beam" fill-rule="evenodd" d="M195.835,37.5024 L291.071,37.5024 L291.071,40.0025 L195.835,40.0025 L195.835,37.5024 "/>
<path class="Beam" fill-rule="evenodd" d="M189.902,73.7546 L294.319,73.7546 L294.319,76.2548 L189.902,76.2548 L189.902,73.7546 "/>
<path class="Beam" fill-rule="evenodd" d="M189.902,70.0044 L294.319,70.0044 L294.319,72.5046 L189.902,72.5046 L189.902,70.0044 "/>
<path class="Beam" fill-rule="evenodd" d="M71.8695,33.7521 L167.105,33.7521 L167.105,36.2523 L71.8695,36.2523 L71.8695,33.7521 "/>
<path class="Beam" fill-rule="evenodd" d="M71.8695,37.5024 L167.105,37.5024 L167.105,40.0025 L71.8695,40.0025 L71.8695,37.5024 "/>
<path class="Beam" fill-rule="evenodd" d="M65.9363,73.7546 L170.353,73.7546 L170.353,76.2548 L65.9363,76.2548 L65.9363,73.7546 "/>
<path class="Beam" fill-rule="evenodd" d="M65.9363,70.0044 L170.353,70.0044 L170.353,72.5046 L65.9363,72.5046 L65.9363,70.0044 "/>
<path class="Tuplet" transform="matrix(0.01,0,0,0.01,487.217,85.6677)" d="M350,-244 C350,-271.333 345.333,-295.667 336,-317 C326.667,-338.333 316,-355 304,-367 C292,-379 275,-389.833 253,-399.5 C231,-409.167 213.333,-415.667 200,-419 C186.667,-422.333 168.333,-426.667 145,-432 C138.333,-433.333 133.667,-434.333 131,-435 L131,-450 L235,-666 L491,-666 L468,-597 L238,-597 L199,-509 C239.667,-499 270.833,-489 292.5,-479 C314.167,-469 334.333,-455.333 353,-438 C397,-396 419,-344 419,-282 C419,-202.115 390,-133.977 332,-77.5859 C274,-21.1953 203.667,7 121,7 C88.3333,7 62.5,1.83333 43.5,-8.5 C24.5,-18.8333 15,-32.6667 15,-50 C15,-62 18.8333,-71.6667 26.5,-79 C34.1667,-86.3333 44,-90 56,-90 C68.6667,-90 87.8333,-81.1667 113.5,-63.5 C139.167,-45.8333 161,-37 179,-37 C224.333,-37 264.167,-57.8333 298.5,-99.5 C332.833,-141.167 350,-189.333 350,-244"/>
<path class="Tuplet" transform="matrix(0.01,0,0,0.01,363.251,85.6677)" d="M350,-244 C350,-271.333 345.333,-295.667 336,-317 C326.667,-338.333 316,-355 304,-367 C292,-379 275,-389.833 253,-399.5 C231,-409.167 213.333,-415.667 200,-419 C186.667,-422.333 168.333,-426.667 145,-432 C138.333,-433.333 133.667,-434.333 131,-435 L131,-450 L235,-666 L491,-666 L468,-597 L238,-597 L199,-509 C239.667,-499 270.833,-489 292.5,-479 C314.167,-469 334.333,-455.333 353,-438 C397,-396 419,-344 419,-282 C419,-202.115 390,-133.977 332,-77.5859 C274,-21.1953 203.667,7 121,7 C88.3333,7 62.5,1.83333 43.5,-8.5 C24.5,-18.8333 15,-32.6667 15,-50 C15,-62 18.8333,-71.6667 26.5,-79 C34.1667,-86.3333 44,-90 56,-90 C68.6667,-90 87.8333,-81.1667 113.5,-63.5 C139.167,-45.8333 161,-37 179,-37 C224.333,-37 264.167,-57.8333 298.5,-99.5 C332.833,-141.167 350,-189.333 350,-244"/>
<path class="Tuplet" transform="matrix(0.01,0,0,0.01,239.285,85.6677)" d="M350,-244 C350,-271.333 345.333,-295.667 336,-317 C326.667,-338.333 316,-355 304,-367 C292,-379 275,-389.833 253,-399.5 C231,-409.167 213.333,-415.667 200,-419 C186.667,-422.333 168.333,-426.667 145,-432 C138.333,-433.333 133.667,-434.333 131,-435 L131,-450 L235,-666 L491,-666 L468,-597 L238,-597 L199,-509 C239.667,-499 270.833,-489 292.5,-479 C314.167,-469 334.333,-455.333 353,-438 C397,-396 419,-344 419,-282 C419,-202.115 390,-133.977 332,-77.5859 C274,-21.1953 203.667,7 121,7 C88.3333,7 62.5,1.83333 43.5,-8.5 C24.5,-18.8333 15,-32.6667 15,-50 C15,-62 18.8333,-71.6667 26.5,-79 C34.1667,-86.3333 44,-90 56,-90 C68.6667,-90 87.8333,-81.1667 113.5,-63.5 C139.167,-45.8333 161,-37 179,-37 C224.333,-37 264.167,-57.8333 298.5,-99.5 C332.833,-141.167 350,-189.333 350,-244"/>
<path class="Tuplet" transform="matrix(0.01,0,0,0.01,115.32,85.6677)" d="M350,-244 C350,-271.333 345.333,-295.667 336,-317 C326.667,-338.333 316,-355 304,-367 C292,-379 275,-389.833 253,-399.5 C231,-409.167 213.333,-415.667 200,-419 C186.667,-422.333 168.333,-426.667 145,-432 C138.333,-433.333 133.667,-434.333 131,-435 L131,-450 L235,-666 L491,-666 L468,-597 L238,-597 L199,-509 C239.667,-499 270.833,-489 292.5,-479 C314.167,-469 334.333,-455.333 353,-438 C397,-396 419,-344 419,-282 C419,-202.115 390,-133.977 332,-77.5859 C274,-21.1953 203.667,7 121,7 C88.3333,7 62.5,1.83333 43.5,-8.5 C24.5,-18.8333 15,-32.6667 15,-50 C15,-62 18.8333,-71.6667 26.5,-79 C34.1667,-86.3333 44,-90 56,-90 C68.6667,-90 87.8333,-81.1667 113.5,-63.5 C139.167,-45.8333 161,-37 179,-37 C224.333,-37 264.167,-57.8333 298.5,-99.5 C332.833,-141.167 350,-189.333 350,-244"/>
</svg>
