<?xml version="1.0" encoding="UTF-8" standalone="no"?>
<svg width="595.446px" height="90.7087px" viewBox="0 0 595.446 90.7087"
 xmlns="http://www.w3.org/2000/svg" xmlns:xlink="http://www.w3.org/1999/xlink" version="1.2" baseProfile="tiny">
<title>polyblog</title>
<desc>Generated by MuseScore 2.3.2</desc>
<polyline class="StaffLines" fill="none" stroke="#000000" stroke-width="0.40" stroke-linejoin="bevel" points="28.3465,35.0022 567.099,35.0022"/>
<polyline class="StaffLines" fill="none" stroke="#000000" stroke-width="0.40" stroke-linejoin="bevel" points="28.3465,40.0025 567.099,40.0025"/>
<polyline class="StaffLines" fill="none" stroke="#000000" stroke-width="0.40" stroke-linejoin="bevel" points="28.3465,45.0028 567.099,45.0028"/>
<polyline class="StaffLines" fill="none" stroke="#000000" stroke-width="0.40" stroke-linejoin="bevel" points="28.3465,50.0031 567.099,50.0031"/>
<polyline class="StaffLines" fill="none" stroke="#000000" stroke-width="0.40" stroke-linejoin="bevel" points="28.3465,55.0035 567.099,55.0035"/>
<polyline class="BarLine" fill="none" stroke="#000000" stroke-width="0.80" stroke-linejoin="bevel" points="562.199,35.0022 562.199,55.0035"/>
<polyline class="BarLine" fill="none" stroke="#000000" stroke-width="2.50" stroke-linejoin="bevel" points="565.849,35.0022 565.849,55.0035"/>
<polyline class="LedgerLine" fill="none" stroke="#000000" stroke-width="0.80" stroke-linecap="square" stroke-linejoin="bevel" points="532.72,60.0038 542.304,60.0038"/>
<polyline class="LedgerLine" fill="none" stroke="#000000" stroke-width="0.80" stroke-linecap="square" stroke-linejoin="bevel" points="505.142,60.0038 514.725,60.0038"/>
<polyline class="LedgerLine" fill="none" stroke="#000000" stroke-width="0.80" stroke-linecap="square" stroke-linejoin="bevel" points="477.563,60.0038 487.147,60.0038"/>
<polyline class="LedgerLine" fill="none" stroke="#000000" stroke-width="0.80" stroke-linecap="square" stroke-linejoin="bevel" points="449.985,60.0038 459.568,60.0038"/>
<polyline class="LedgerLine" fill="none" stroke="#000000" stroke-width="0.80" stroke-linecap="square" stroke-linejoin="bevel" points="422.406,60.0038 431.99,60.0038"/>
<polyline class="LedgerLine" fill="none" stroke="#000000" stroke-width="0.80" stroke-linecap="square" stroke-linejoin="bevel" points="394.828,60.0038 404.411,60.0038"/>
<polyline class="LedgerLine" fill="none" stroke="#000000" stroke-width="0.80" stroke-linecap="square" stroke-linejoin="bevel" points="367.249,60.0038 376.833,60.0038"/>
<polyline class="LedgerLine" fill="none" stroke="#000000" stroke-width="0.80" stroke-linecap="square" stroke-linejoin="bevel" points="339.671,60.0038 349.254,60.0038"/>
<polyline class="LedgerLine" fill="none" stroke="#000000" stroke-width="0.80" stroke-linecap="square" stroke-linejoin="bevel" points="312.092,60.0038 321.676,60.0038"/>
<polyline class="LedgerLine" fill="none" stroke="#000000" stroke-width="0.80" stroke-linecap="square" stroke-linejoin="bevel" points="284.514,60.0038 294.097,60.0038"/>
<polyline class="LedgerLine" fill="none" stroke="#000000" stroke-width="0.80" stroke-linecap="square" stroke-linejoin="bevel" points="256.936,60.0038 266.519,60.0038"/>
<polyline class="LedgerLine" fill="none" stroke="#000000" stroke-width="0.80" stroke-linecap="square" stroke-linejoin="bevel" points="229.357,60.0038 238.94,60.0038"/>
<polyline class="LedgerLine" fill="none" stroke="#000000" stroke-width="0.80" stroke-linecap="square" stroke-linejoin="bevel" points="201.779,60.0038 211.362,60.0038"/>
<polyline class="LedgerLine" fill="none" stroke="#000000" stroke-width="0.80" stroke-linecap="square" stroke-linejoin="bevel" points="174.2,60.0038 183.784,60.0038"/>
<polyline class="LedgerLine" fill="none" stroke="#000000" stroke-width="0.80" stroke-linecap="square" stroke-linejoin="bevel" points="146.622,60.0038 156.205,60.0038"/>
<polyline class="LedgerLine" fill="none" stroke="#000000" stroke-width="0.80" stroke-linecap="square" stroke-linejoin="bevel" points="119.043,60.0038 128.627,60.0038"/>
<polyline class="LedgerLine" fill="none" stroke="#000000" stroke-width="0.80" stroke-linecap="square" stroke-linejoin="bevel" points="91.4647,60.0038 101.048,60.0038"/>
<polyline class="LedgerLine" fill="none" stroke="#000000" stroke-width="0.80" stroke-linecap="square" stroke-linejoin="bevel" points="63.8862,60.0038 73.4696,60.0038"/>
<polyline class="Stem" fill="none" stroke="#000000" stroke-width="0.65" stroke-linecap="round" stroke-linejoin="bevel" points="534.545,60.9429 534.545,75.0047"/>
<polyline class="Stem" fill="none" stroke="#000000" stroke-width="0.65" stroke-linecap="round" stroke-linejoin="bevel" points="506.967,60.9429 506.967,75.0047"/>
<polyline class="Stem" fill="none" stroke="#000000" stroke-width="0.65" stroke-linecap="round" stroke-linejoin="bevel" points="485.322,44.0637 485.322,30.0019"/>
<polyline class="Stem" fill="none" stroke="#000000" stroke-width="0.65" stroke-linecap="round" stroke-linejoin="bevel" points="479.388,60.9429 479.388,75.0047"/>
<polyline class="Stem" fill="none" stroke="#000000" stroke-width="0.65" stroke-linecap="round" stroke-linejoin="bevel" points="451.81,60.9429 451.81,75.0047"/>
<polyline class="Stem" fill="none" stroke="#000000" stroke-width="0.65" stroke-linecap="round" stroke-linejoin="bevel" points="424.232,60.9429 424.232,75.0047"/>
<polyline class="Stem" fill="none" stroke="#000000" stroke-width="0.65" stroke-linecap="round" stroke-linejoin="bevel" points="402.586,44.0637 402.586,30.0019"/>
<polyline class="Stem" fill="none" stroke="#000000" stroke-width="0.65" stroke-linecap="round" stroke-linejoin="bevel" points="396.653,60.9429 396.653,75.0047"/>
<polyline class="Stem" fill="none" stroke="#000000" stroke-width="0.65" stroke-linecap="round" stroke-linejoin="bevel" points="369.075,60.9429 369.075,75.0047"/>
<polyline class="Stem" fill="none" stroke="#000000" stroke-width="0.65" stroke-linecap="round" stroke-linejoin="bevel" points="341.496,60.9429 341.496,75.0047"/>
<polyline class="Stem" fill="none" stroke="#000000" stroke-width="0.65" stroke-linecap="round" stroke-linejoin="bevel" points="319.851,44.0637 319.851,30.0019"/>
<polyline class="Stem" fill="none" stroke="#000000" stroke-width="0.65" stroke-linecap="round" stroke-linejoin="bevel" points="313.918,60.9429 313.918,75.0047"/>
<polyline class="Stem" fill="none" stroke="#000000" stroke-width="0.65" stroke-linecap="round" stroke-linejoin="bevel" points="286.339,60.9429 286.339,75.0047"/>
<polyline class="Stem" fill="none" stroke="#000000" stroke-width="0.65" stroke-linecap="round" stroke-linejoin="bevel" points="258.761,60.9429 258.761,75.0047"/>
<polyline class="Stem" fill="none" stroke="#000000" stroke-width="0.65" stroke-linecap="round" stroke-linejoin="bevel" points="237.115,44.0637 237.115,30.0019"/>
<polyline class="Stem" fill="none" stroke="#000000" stroke-width="0.65" stroke-linecap="round" stroke-linejoin="bevel" points="231.182,60.9429 231.182,75.0047"/>
<polyline class="Stem" fill="none" stroke="#000000" stroke-width="0.65" stroke-linecap="round" stroke-linejoin="bevel" points="203.604,60.9429 203.604,75.0047"/>
<polyline class="Stem" fill="none" stroke="#000000" stroke-width="0.65" stroke-linecap="round" stroke-linejoin="bevel" points="176.025,60.9429 176.025,75.0047"/>
<polyline class="Stem" fill="none" stroke="#000000" stroke-width="0.65" stroke-linecap="round" stroke-linejoin="bevel" points="154.38,44.0637 154.38,30.0019"/>
<polyline class="Stem" fill="none" stroke="#000000" stroke-width="0.65" stroke-linecap="round" stroke-linejoin="bevel" points="148.447,60.9429 148.447,75.0047"/>
<polyline class="Stem" fill="none" stroke="#000000" stroke-width="0.65" stroke-linecap="round" stroke-linejoin="bevel" points="120.868,60.9429 120.868,75.0047"/>
<polyline class="Stem" fill="none" stroke="#000000" stroke-width="0.65" stroke-linecap="round" stroke-linejoin="bevel" points="93.2898,60.9429 93.2898,75.0047"/>
<polyline class="Stem" fill="none" stroke="#000000" stroke-width="0.65" stroke-linecap="round" stroke-linejoin="bevel" points="71.6445,44.0637 71.6445,30.0019"/>
<polyline class="Stem" fill="none" stroke="#000000" stroke-width="0.65" stroke-linecap="round" stroke-linejoin="bevel" points="65.7113,60.9429 65.7113,75.0047"/>
<path class="Note" d="M538.615,57.2499 C539.24,57.2499 539.767,57.4126 540.197,57.7382 C540.601,58.0897 540.802,58.5324 540.802,59.0663 C540.802,59.9647 540.34,60.8046 539.416,61.5858 C538.478,62.3671 537.476,62.7577 536.408,62.7577 C535.783,62.7577 535.256,62.5949 534.826,62.2694 C534.422,61.9178 534.22,61.4751 534.22,60.9413 C534.22,60.0428 534.689,59.203 535.627,58.4217 C536.538,57.6405 537.534,57.2499 538.615,57.2499"/>
<path class="Note" d="M511.036,57.2499 C511.661,57.2499 512.189,57.4126 512.618,57.7382 C513.022,58.0897 513.224,58.5324 513.224,59.0663 C513.224,59.9647 512.762,60.8046 511.837,61.5858 C510.9,62.3671 509.897,62.7577 508.829,62.7577 C508.204,62.7577 507.677,62.5949 507.247,62.2694 C506.844,61.9178 506.642,61.4751 506.642,60.9413 C506.642,60.0428 507.111,59.203 508.048,58.4217 C508.96,57.6405 509.956,57.2499 511.036,57.2499"/>
<path class="Note" d="M483.458,42.2489 C484.083,42.2489 484.61,42.4117 485.04,42.7372 C485.444,43.0888 485.645,43.5315 485.645,44.0653 C485.645,44.9638 485.183,45.8036 484.259,46.5849 C483.321,47.3661 482.319,47.7567 481.251,47.7567 C480.626,47.7567 480.099,47.594 479.669,47.2685 C479.265,46.9169 479.063,46.4742 479.063,45.9403 C479.063,45.0419 479.532,44.2021 480.47,43.4208 C481.381,42.6396 482.377,42.2489 483.458,42.2489"/>
<path class="Note" d="M483.458,57.2499 C484.083,57.2499 484.61,57.4126 485.04,57.7382 C485.444,58.0897 485.645,58.5324 485.645,59.0663 C485.645,59.9647 485.183,60.8046 484.259,61.5858 C483.321,62.3671 482.319,62.7577 481.251,62.7577 C480.626,62.7577 480.099,62.5949 479.669,62.2694 C479.265,61.9178 479.063,61.4751 479.063,60.9413 C479.063,60.0428 479.532,59.203 480.47,58.4217 C481.381,57.6405 482.377,57.2499 483.458,57.2499"/>
<path class="Note" d="M455.88,57.2499 C456.505,57.2499 457.032,57.4126 457.462,57.7382 C457.865,58.0897 458.067,58.5324 458.067,59.0663 C458.067,59.9647 457.605,60.8046 456.68,61.5858 C455.743,62.3671 454.74,62.7577 453.672,62.7577 C453.047,62.7577 452.52,62.5949 452.09,62.2694 C451.687,61.9178 451.485,61.4751 451.485,60.9413 C451.485,60.0428 451.954,59.203 452.891,58.4217 C453.803,57.6405 454.799,57.2499 455.88,57.2499"/>
<path class="Note" d="M428.301,57.2499 C428.926,57.2499 429.453,57.4126 429.883,57.7382 C430.287,58.0897 430.489,58.5324 430.489,59.0663 C430.489,59.9647 430.026,60.8046 429.102,61.5858 C428.164,62.3671 427.162,62.7577 426.094,62.7577 C425.469,62.7577 424.942,62.5949 424.512,62.2694 C424.108,61.9178 423.906,61.4751 423.906,60.9413 C423.906,60.0428 424.375,59.203 425.313,58.4217 C426.224,57.6405 427.22,57.2499 428.301,57.2499"/>
<path class="Note" d="M400.723,42.2489 C401.348,42.2489 401.875,42.4117 402.305,42.7372 C402.708,43.0888 402.91,43.5315 402.91,44.0653 C402.91,44.9638 402.448,45.8036 401.523,46.5849 C400.586,47.3661 399.583,47.7567 398.516,47.7567 C397.891,47.7567 397.363,47.594 396.933,47.2685 C396.53,46.9169 396.328,46.4742 396.328,45.9403 C396.328,45.0419 396.797,44.2021 397.734,43.4208 C398.646,42.6396 399.642,42.2489 400.723,42.2489"/>
<path class="Note" d="M400.723,57.2499 C401.348,57.2499 401.875,57.4126 402.305,57.7382 C402.708,58.0897 402.91,58.5324 402.91,59.0663 C402.91,59.9647 402.448,60.8046 401.523,61.5858 C400.586,62.3671 399.583,62.7577 398.516,62.7577 C397.891,62.7577 397.363,62.5949 396.933,62.2694 C396.53,61.9178 396.328,61.4751 396.328,60.9413 C396.328,60.0428 396.797,59.203 397.734,58.4217 C398.646,57.6405 399.642,57.2499 400.723,57.2499"/>
<path class="Note" d="M373.144,57.2499 C373.769,57.2499 374.296,57.4126 374.726,57.7382 C375.13,58.0897 375.332,58.5324 375.332,59.0663 C375.332,59.9647 374.869,60.8046 373.945,61.5858 C373.007,62.3671 372.005,62.7577 370.937,62.7577 C370.312,62.7577 369.785,62.5949 369.355,62.2694 C368.951,61.9178 368.75,61.4751 368.75,60.9413 C368.75,60.0428 369.218,59.203 370.156,58.4217 C371.067,57.6405 372.063,57.2499 373.144,57.2499"/>
<path class="Note" d="M345.566,57.2499 C346.191,57.2499 346.718,57.4126 347.148,57.7382 C347.551,58.0897 347.753,58.5324 347.753,59.0663 C347.753,59.9647 347.291,60.8046 346.366,61.5858 C345.429,62.3671 344.426,62.7577 343.359,62.7577 C342.734,62.7577 342.206,62.5949 341.777,62.2694 C341.373,61.9178 341.171,61.4751 341.171,60.9413 C341.171,60.0428 341.64,59.203 342.577,58.4217 C343.489,57.6405 344.485,57.2499 345.566,57.2499"/>
<path class="Note" d="M317.987,42.2489 C318.612,42.2489 319.139,42.4117 319.569,42.7372 C319.973,43.0888 320.175,43.5315 320.175,44.0653 C320.175,44.9638 319.712,45.8036 318.788,46.5849 C317.85,47.3661 316.848,47.7567 315.78,47.7567 C315.155,47.7567 314.628,47.594 314.198,47.2685 C313.794,46.9169 313.593,46.4742 313.593,45.9403 C313.593,45.0419 314.061,44.2021 314.999,43.4208 C315.91,42.6396 316.906,42.2489 317.987,42.2489"/>
<path class="Note" d="M317.987,57.2499 C318.612,57.2499 319.139,57.4126 319.569,57.7382 C319.973,58.0897 320.175,58.5324 320.175,59.0663 C320.175,59.9647 319.712,60.8046 318.788,61.5858 C317.85,62.3671 316.848,62.7577 315.78,62.7577 C315.155,62.7577 314.628,62.5949 314.198,62.2694 C313.794,61.9178 313.593,61.4751 313.593,60.9413 C313.593,60.0428 314.061,59.203 314.999,58.4217 C315.91,57.6405 316.906,57.2499 317.987,57.2499"/>
<path class="Note" d="M290.409,57.2499 C291.034,57.2499 291.561,57.4126 291.991,57.7382 C292.394,58.0897 292.596,58.5324 292.596,59.0663 C292.596,59.9647 292.134,60.8046 291.209,61.5858 C290.272,62.3671 289.269,62.7577 288.202,62.7577 C287.577,62.7577 287.049,62.5949 286.62,62.2694 C286.216,61.9178 286.014,61.4751 286.014,60.9413 C286.014,60.0428 286.483,59.203 287.42,58.4217 C288.332,57.6405 289.328,57.2499 290.409,57.2499"/>
<path class="Note" d="M262.83,57.2499 C263.455,57.2499 263.983,57.4126 264.412,57.7382 C264.816,58.0897 265.018,58.5324 265.018,59.0663 C265.018,59.9647 264.555,60.8046 263.631,61.5858 C262.693,62.3671 261.691,62.7577 260.623,62.7577 C259.998,62.7577 259.471,62.5949 259.041,62.2694 C258.637,61.9178 258.436,61.4751 258.436,60.9413 C258.436,60.0428 258.904,59.203 259.842,58.4217 C260.753,57.6405 261.749,57.2499 262.83,57.2499"/>
<path class="Note" d="M235.252,42.2489 C235.877,42.2489 236.404,42.4117 236.834,42.7372 C237.237,43.0888 237.439,43.5315 237.439,44.0653 C237.439,44.9638 236.977,45.8036 236.052,46.5849 C235.115,47.3661 234.112,47.7567 233.045,47.7567 C232.42,47.7567 231.892,47.594 231.463,47.2685 C231.059,46.9169 230.857,46.4742 230.857,45.9403 C230.857,45.0419 231.326,44.2021 232.263,43.4208 C233.175,42.6396 234.171,42.2489 235.252,42.2489"/>
<path class="Note" d="M235.252,57.2499 C235.877,57.2499 236.404,57.4126 236.834,57.7382 C237.237,58.0897 237.439,58.5324 237.439,59.0663 C237.439,59.9647 236.977,60.8046 236.052,61.5858 C235.115,62.3671 234.112,62.7577 233.045,62.7577 C232.42,62.7577 231.892,62.5949 231.463,62.2694 C231.059,61.9178 230.857,61.4751 230.857,60.9413 C230.857,60.0428 231.326,59.203 232.263,58.4217 C233.175,57.6405 234.171,57.2499 235.252,57.2499"/>
<path class="Note" d="M207.673,57.2499 C208.298,57.2499 208.826,57.4126 209.255,57.7382 C209.659,58.0897 209.861,58.5324 209.861,59.0663 C209.861,59.9647 209.398,60.8046 208.474,61.5858 C207.536,62.3671 206.534,62.7577 205.466,62.7577 C204.841,62.7577 204.314,62.5949 203.884,62.2694 C203.48,61.9178 203.279,61.4751 203.279,60.9413 C203.279,60.0428 203.747,59.203 204.685,58.4217 C205.596,57.6405 206.592,57.2499 207.673,57.2499"/>
<path class="Note" d="M180.095,57.2499 C180.72,57.2499 181.247,57.4126 181.677,57.7382 C182.08,58.0897 182.282,58.5324 182.282,59.0663 C182.282,59.9647 181.82,60.8046 180.896,61.5858 C179.958,62.3671 178.955,62.7577 177.888,62.7577 C177.263,62.7577 176.735,62.5949 176.306,62.2694 C175.902,61.9178 175.7,61.4751 175.7,60.9413 C175.7,60.0428 176.169,59.203 177.106,58.4217 C178.018,57.6405 179.014,57.2499 180.095,57.2499"/>
<path class="Note" d="M152.516,42.2489 C153.141,42.2489 153.669,42.4117 154.098,42.7372 C154.502,43.0888 154.704,43.5315 154.704,44.0653 C154.704,44.9638 154.242,45.8036 153.317,46.5849 C152.38,47.3661 151.377,47.7567 150.309,47.7567 C149.684,47.7567 149.157,47.594 148.727,47.2685 C148.324,46.9169 148.122,46.4742 148.122,45.9403 C148.122,45.0419 148.59,44.2021 149.528,43.4208 C150.439,42.6396 151.436,42.2489 152.516,42.2489"/>
<path class="Note" d="M152.516,57.2499 C153.141,57.2499 153.669,57.4126 154.098,57.7382 C154.502,58.0897 154.704,58.5324 154.704,59.0663 C154.704,59.9647 154.242,60.8046 153.317,61.5858 C152.38,62.3671 151.377,62.7577 150.309,62.7577 C149.684,62.7577 149.157,62.5949 148.727,62.2694 C148.324,61.9178 148.122,61.4751 148.122,60.9413 C148.122,60.0428 148.59,59.203 149.528,58.4217 C150.439,57.6405 151.436,57.2499 152.516,57.2499"/>
<path class="Note" d="M124.938,57.2499 C125.563,57.2499 126.09,57.4126 126.52,57.7382 C126.923,58.0897 127.125,58.5324 127.125,59.0663 C127.125,59.9647 126.663,60.8046 125.739,61.5858 C124.801,62.3671 123.798,62.7577 122.731,62.7577 C122.106,62.7577 121.578,62.5949 121.149,62.2694 C120.745,61.9178 120.543,61.4751 120.543,60.9413 C120.543,60.0428 121.012,59.203 121.949,58.4217 C122.861,57.6405 123.857,57.2499 124.938,57.2499"/>
<path class="Note" d="M97.3593,57.2499 C97.9843,57.2499 98.5116,57.4126 98.9413,57.7382 C99.345,58.0897 99.5468,58.5324 99.5468,59.0663 C99.5468,59.9647 99.0846,60.8046 98.1601,61.5858 C97.2226,62.3671 96.22,62.7577 95.1523,62.7577 C94.5273,62.7577 93.9999,62.5949 93.5702,62.2694 C93.1666,61.9178 92.9648,61.4751 92.9648,60.9413 C92.9648,60.0428 93.4335,59.203 94.371,58.4217 C95.2825,57.6405 96.2786,57.2499 97.3593,57.2499"/>
<path class="Note" d="M69.7808,42.2489 C70.4058,42.2489 70.9332,42.4117 71.3629,42.7372 C71.7665,43.0888 71.9683,43.5315 71.9683,44.0653 C71.9683,44.9638 71.5061,45.8036 70.5816,46.5849 C69.6441,47.3661 68.6415,47.7567 67.5738,47.7567 C66.9488,47.7567 66.4214,47.594 65.9918,47.2685 C65.5881,46.9169 65.3863,46.4742 65.3863,45.9403 C65.3863,45.0419 65.855,44.2021 66.7925,43.4208 C67.704,42.6396 68.7001,42.2489 69.7808,42.2489"/>
<path class="Note" d="M69.7808,57.2499 C70.4058,57.2499 70.9332,57.4126 71.3629,57.7382 C71.7665,58.0897 71.9683,58.5324 71.9683,59.0663 C71.9683,59.9647 71.5061,60.8046 70.5816,61.5858 C69.6441,62.3671 68.6415,62.7577 67.5738,62.7577 C66.9488,62.7577 66.4214,62.5949 65.9918,62.2694 C65.5881,61.9178 65.3863,61.4751 65.3863,60.9413 C65.3863,60.0428 65.855,59.203 66.7925,58.4217 C67.704,57.6405 68.7001,57.2499 69.7808,57.2499"/>
<path class="Clef" d="M38.8904,44.886 C38.8904,44.886 38.9295,44.886 39.0076,44.886 C39.0597,44.8729 39.1053,44.8664 39.1443,44.8664 C40.6026,44.8664 41.8006,45.3808 42.7381,46.4094 C43.6756,47.425 44.1443,48.6099 44.1443,49.9641 C44.1443,51.6438 43.4477,53.011 42.0545,54.0656 C41.6899,54.3521 41.2146,54.5865 40.6287,54.7688 C40.6938,55.6151 40.7263,56.2987 40.7263,56.8196 C40.7263,56.9237 40.7133,57.3013 40.6873,57.9524 C40.6352,59.1633 40.2185,60.2115 39.4373,61.0969 C38.6821,61.9693 37.7446,62.4055 36.6248,62.4055 C35.5701,62.4055 34.6717,62.0344 33.9295,61.2922 C33.1873,60.537 32.8162,59.6255 32.8162,58.5578 C32.8162,57.9979 33.031,57.5227 33.4607,57.1321 C33.9034,56.7414 34.4178,56.5461 35.0037,56.5461 C35.5245,56.5461 35.9607,56.7479 36.3123,57.1516 C36.6769,57.5292 36.8592,57.9979 36.8592,58.5578 C36.8592,59.0656 36.6769,59.5018 36.3123,59.8664 C35.9477,60.231 35.5115,60.4133 35.0037,60.4133 C34.7954,60.4133 34.5935,60.3742 34.3982,60.2961 C34.9711,61.1425 35.7329,61.5656 36.6834,61.5656 C37.5818,61.5656 38.3175,61.2011 38.8904,60.4719 C39.4894,59.7167 39.8149,58.8378 39.867,57.8352 C39.893,57.2102 39.906,56.8521 39.906,56.761 C39.906,56.0318 39.88,55.4328 39.8279,54.9641 C39.1769,55.0683 38.5974,55.1203 38.0896,55.1203 C36.2797,55.1203 34.7368,54.4042 33.4607,52.9719 C32.2107,51.5266 31.5857,49.8078 31.5857,47.8156 C31.5857,47.399 31.6248,46.9758 31.7029,46.5461 C31.781,46.1946 31.8787,45.8104 31.9959,45.3938 C32.061,45.1594 32.2368,44.7818 32.5232,44.261 C32.6274,44.1047 32.7446,43.9094 32.8748,43.675 C33.005,43.4406 33.0961,43.2844 33.1482,43.2063 C33.2784,42.9459 33.5323,42.5943 33.9099,42.1516 C34.0141,42.0344 34.1215,41.9042 34.2322,41.761 C34.3429,41.6177 34.4373,41.5005 34.5154,41.4094 C34.5935,41.3183 34.6521,41.2466 34.6912,41.1946 C34.7303,41.1425 35.0232,40.7974 35.5701,40.1594 C35.7003,40.0292 35.8273,39.8892 35.951,39.7395 C36.0747,39.5897 36.1756,39.4726 36.2537,39.3879 C36.3318,39.3033 36.3904,39.2414 36.4295,39.2024 C35.9607,37.6529 35.6678,36.4159 35.5506,35.4914 C35.4594,34.7492 35.4138,33.7336 35.4138,32.4446 C35.4138,31.3117 35.6743,30.2505 36.1951,29.261 C36.7029,28.2323 37.4125,27.3925 38.324,26.7414 C38.3891,26.7024 38.4542,26.6828 38.5193,26.6828 C38.6105,26.6828 38.6756,26.7024 38.7146,26.7414 C39.4178,27.5878 40.0232,28.688 40.531,30.0422 C41.0519,31.3964 41.3123,32.6268 41.3123,33.7336 C41.3123,34.9836 41.0128,36.1555 40.4138,37.2492 C39.7368,38.4081 38.8644,39.606 37.7967,40.843 C38.0701,41.7024 38.4347,43.05 38.8904,44.886 M40.5506,53.968 C41.2276,53.7206 41.755,53.2974 42.1326,52.6985 C42.5493,52.1255 42.7576,51.481 42.7576,50.7649 C42.7576,49.8404 42.4451,49.0201 41.8201,48.3039 C41.1821,47.5617 40.3683,47.1451 39.3787,47.0539 C39.9386,49.8013 40.3292,52.106 40.5506,53.968 M32.992,49.4563 C32.992,50.7453 33.5128,51.8781 34.5545,52.8547 C35.6222,53.8052 36.8201,54.2805 38.1482,54.2805 C38.6951,54.2805 39.2289,54.2414 39.7498,54.1633 C39.5414,52.1841 39.1313,49.8143 38.5193,47.0539 C37.7771,47.1321 37.1847,47.3925 36.742,47.8352 C36.3123,48.2909 36.0974,48.8052 36.0974,49.3781 C36.0974,50.3677 36.6248,51.1685 37.6795,51.7805 C37.7706,51.8716 37.8162,51.9693 37.8162,52.0735 C37.8162,52.1776 37.7706,52.2753 37.6795,52.3664 C37.6013,52.4576 37.5037,52.5031 37.3865,52.5031 C37.3735,52.5031 37.3149,52.4901 37.2107,52.4641 C36.4685,52.0604 35.8956,51.5396 35.492,50.9016 C35.1144,50.2245 34.9256,49.5409 34.9256,48.8508 C34.9256,47.9524 35.2055,47.1386 35.7654,46.4094 C36.3513,45.6802 37.1131,45.2115 38.0506,45.0031 C37.686,43.5448 37.3865,42.4055 37.1521,41.5852 C36.9438,41.8196 36.6931,42.1028 36.4002,42.4348 C36.1072,42.7668 35.9347,42.9654 35.8826,43.0305 C35.4138,43.6425 35.0558,44.1177 34.8084,44.4563 C34.3657,45.0683 34.0401,45.5956 33.8318,46.0383 C33.6105,46.5331 33.4151,47.0735 33.2459,47.6594 C33.0766,48.2193 32.992,48.8183 32.992,49.4563 M39.5154,29.593 C38.5388,30.0748 37.7706,30.7649 37.2107,31.6633 C36.6378,32.5878 36.3513,33.5839 36.3513,34.6516 C36.3513,35.5891 36.5857,36.8521 37.0545,38.4406 C37.992,37.3078 38.6951,36.2597 39.1638,35.2961 C39.6586,34.2805 39.906,33.2193 39.906,32.1125 C39.906,31.2792 39.7758,30.4393 39.5154,29.593"/>
<path class="TimeSig" d="M52.8775,40.1197 C53.3723,40.1197 53.6783,39.9244 53.7954,39.5338 C53.8866,39.2473 53.9322,38.7655 53.9322,38.0885 L53.9322,37.5025 C53.9322,36.8254 53.8866,36.3437 53.7954,36.0572 C53.6783,35.6666 53.3723,35.4713 52.8775,35.4713 C52.2915,35.4713 51.94,35.6991 51.8228,36.1549 C51.7186,36.5715 51.6665,37.1184 51.6665,37.7955 C51.6665,38.6028 51.7382,39.1822 51.8814,39.5338 C52.0507,39.9244 52.3827,40.1197 52.8775,40.1197 M53.9322,40.315 C53.4895,40.4973 53.1379,40.5885 52.8775,40.5885 C51.8358,40.5885 51.0025,40.3541 50.3775,39.8853 C49.7785,39.4036 49.479,38.7135 49.479,37.815 C49.479,36.9036 49.785,36.2004 50.397,35.7056 C51.009,35.2369 51.8358,35.0025 52.8775,35.0025 C53.9452,35.0025 54.7785,35.4973 55.3775,36.4869 C55.9764,37.4765 56.2759,38.6484 56.2759,40.0025 C56.2759,41.3306 55.9244,42.5025 55.2212,43.5181 C54.5311,44.5077 53.6197,45.0025 52.4869,45.0025 C51.7577,45.0025 51.1066,44.8137 50.5337,44.4361 C49.9869,44.0585 49.7134,43.5637 49.7134,42.9517 C49.7134,42.5741 49.8436,42.2616 50.104,42.0142 C50.3384,41.7538 50.6379,41.6236 51.0025,41.6236 C51.3671,41.6236 51.6796,41.7538 51.94,42.0142 C52.2004,42.2747 52.3306,42.5872 52.3306,42.9517 C52.3306,43.095 52.2004,43.2577 51.94,43.44 C51.6796,43.5963 51.5494,43.759 51.5494,43.9283 C51.5494,44.1106 51.6405,44.2603 51.8228,44.3775 C52.0311,44.4817 52.2525,44.5338 52.4869,44.5338 C53.0858,44.5338 53.4829,44.2929 53.6783,43.8111 C53.8736,43.3293 53.9712,42.6457 53.9712,41.7603 C53.9712,41.4999 53.9647,41.259 53.9517,41.0377 C53.9387,40.8163 53.9322,40.5754 53.9322,40.315"/>
<path class="TimeSig" d="M54.311,49.2414 C54.9621,48.5253 55.2876,47.8482 55.2876,47.2102 C55.2876,46.6763 55.0597,46.2531 54.604,45.9406 C54.1613,45.6281 53.6144,45.4719 52.9634,45.4719 C52.5077,45.4719 52.1431,45.6151 51.8696,45.9016 C51.5962,46.188 51.4595,46.5136 51.4595,46.8781 C51.4595,47.3339 51.6613,47.6854 52.065,47.9328 L54.311,49.2414 M54.9165,49.5735 C56.0233,50.2115 56.5767,51.0643 56.5767,52.1321 C56.5767,52.9263 56.2446,53.5969 55.5806,54.1438 C54.9165,54.7167 53.9855,55.0031 52.7876,55.0031 C51.772,55.0031 50.9191,54.7427 50.229,54.2219 C49.4998,53.7011 49.1353,53.0305 49.1353,52.2102 C49.1353,51.9107 49.2264,51.5917 49.4087,51.2531 C49.578,50.9537 49.7472,50.7193 49.9165,50.55 C49.9946,50.4459 50.242,50.1985 50.6587,49.8078 C49.8514,49.2349 49.4413,48.5253 49.4282,47.6789 C49.4282,46.9628 49.7472,46.3313 50.3853,45.7844 C51.0233,45.2636 51.8827,45.0031 52.9634,45.0031 C53.8228,45.0031 54.578,45.1985 55.229,45.5891 C55.854,45.9797 56.1665,46.5201 56.1665,47.2102 C56.1405,47.9133 55.7238,48.7011 54.9165,49.5735 M51.2642,50.1594 C50.4569,50.8755 50.0402,51.5591 50.0142,52.2102 C50.0142,52.8742 50.2941,53.4276 50.854,53.8703 C51.3879,54.313 52.0324,54.5344 52.7876,54.5344 C53.3215,54.5344 53.7381,54.3651 54.0376,54.0266 C54.3501,53.7141 54.5064,53.33 54.5064,52.8742 C54.5064,52.3143 54.2785,51.9042 53.8228,51.6438 L51.2642,50.1594 "/>
<path class="Beam" fill-rule="evenodd" d="M71.3195,28.7518 L485.647,28.7518 L485.647,31.252 L71.3195,31.252 L71.3195,28.7518 "/>
<path class="Beam" fill-rule="evenodd" d="M65.3863,73.7546 L534.87,73.7546 L534.87,76.2548 L65.3863,76.2548 L65.3863,73.7546 "/>
<path class="Beam" fill-rule="evenodd" d="M65.3863,70.0044 L534.87,70.0044 L534.87,72.5046 L65.3863,72.5046 L65.3863,70.0044 "/>
<path class="NoteDot" d="M487.729,48.3038 C487.507,48.0824 487.397,47.8155 487.397,47.503 C487.397,47.1905 487.507,46.9236 487.729,46.7022 C487.95,46.4809 488.217,46.3702 488.53,46.3702 C488.842,46.3702 489.109,46.4809 489.33,46.7022 C489.552,46.9236 489.662,47.1905 489.662,47.503 C489.662,47.8155 489.552,48.0824 489.33,48.3038 C489.109,48.5251 488.842,48.6358 488.53,48.6358 C488.217,48.6358 487.95,48.5251 487.729,48.3038"/>
<path class="NoteDot" d="M404.993,48.3038 C404.772,48.0824 404.661,47.8155 404.661,47.503 C404.661,47.1905 404.772,46.9236 404.993,46.7022 C405.215,46.4809 405.482,46.3702 405.794,46.3702 C406.107,46.3702 406.374,46.4809 406.595,46.7022 C406.816,46.9236 406.927,47.1905 406.927,47.503 C406.927,47.8155 406.816,48.0824 406.595,48.3038 C406.374,48.5251 406.107,48.6358 405.794,48.6358 C405.482,48.6358 405.215,48.5251 404.993,48.3038"/>
<path class="NoteDot" d="M322.258,48.3038 C322.037,48.0824 321.926,47.8155 321.926,47.503 C321.926,47.1905 322.037,46.9236 322.258,46.7022 C322.479,46.4809 322.746,46.3702 323.059,46.3702 C323.371,46.3702 323.638,46.4809 323.86,46.7022 C324.081,46.9236 324.192,47.1905 324.192,47.503 C324.192,47.8155 324.081,48.0824 323.86,48.3038 C323.638,48.5251 323.371,48.6358 323.059,48.6358 C322.746,48.6358 322.479,48.5251 322.258,48.3038"/>
<path class="NoteDot" d="M239.523,48.3038 C239.301,48.0824 239.19,47.8155 239.19,47.503 C239.19,47.1905 239.301,46.9236 239.523,46.7022 C239.744,46.4809 240.011,46.3702 240.323,46.3702 C240.636,46.3702 240.903,46.4809 241.124,46.7022 C241.345,46.9236 241.456,47.1905 241.456,47.503 C241.456,47.8155 241.345,48.0824 241.124,48.3038 C240.903,48.5251 240.636,48.6358 240.323,48.6358 C240.011,48.6358 239.744,48.5251 239.523,48.3038"/>
<path class="NoteDot" d="M156.787,48.3038 C156.566,48.0824 156.455,47.8155 156.455,47.503 C156.455,47.1905 156.566,46.9236 156.787,46.7022 C157.008,46.4809 157.275,46.3702 157.588,46.3702 C157.9,46.3702 158.167,46.4809 158.389,46.7022 C158.61,46.9236 158.721,47.1905 158.721,47.503 C158.721,47.8155 158.61,48.0824 158.389,48.3038 C158.167,48.5251 157.9,48.6358 157.588,48.6358 C157.275,48.6358 157.008,48.5251 156.787,48.3038"/>
<path class="NoteDot" d="M74.0517,48.3038 C73.8303,48.0824 73.7196,47.8155 73.7196,47.503 C73.7196,47.1905 73.8303,46.9236 74.0517,46.7022 C74.273,46.4809 74.5399,46.3702 74.8524,46.3702 C75.1649,46.3702 75.4319,46.4809 75.6532,46.7022 C75.8746,46.9236 75.9853,47.1905 75.9853,47.503 C75.9853,47.8155 75.8746,48.0824 75.6532,48.3038 C75.4319,48.5251 75.1649,48.6358 74.8524,48.6358 C74.5399,48.6358 74.273,48.5251 74.0517,48.3038"/>
</svg>
