<?xml version="1.0" encoding="UTF-8" standalone="no"?>
<svg width="595.446px" height="90.7087px" viewBox="0 0 595.446 90.7087"
 xmlns="http://www.w3.org/2000/svg" xmlns:xlink="http://www.w3.org/1999/xlink" version="1.2" baseProfile="tiny">
<title>polyblog</title>
<desc>Generated by MuseScore 2.3.2</desc>
<polyline class="StaffLines" fill="none" stroke="#000000" stroke-width="0.40" stroke-linejoin="bevel" points="28.3465,35.0022 567.099,35.0022"/>
<polyline class="StaffLines" fill="none" stroke="#000000" stroke-width="0.40" stroke-linejoin="bevel" points="28.3465,40.0025 567.099,40.0025"/>
<polyline class="StaffLines" fill="none" stroke="#000000" stroke-width="0.40" stroke-linejoin="bevel" points="28.3465,45.0028 567.099,45.0028"/>
<polyline class="StaffLines" fill="none" stroke="#000000" stroke-width="0.40" stroke-linejoin="bevel" points="28.3465,50.0031 567.099,50.0031"/>
<polyline class="StaffLines" fill="none" stroke="#000000" stroke-width="0.40" stroke-linejoin="bevel" points="28.3465,55.0035 567.099,55.0035"/>
<polyline class="BarLine" fill="none" stroke="#000000" stroke-width="0.80" stroke-linejoin="bevel" points="562.199,35.0022 562.199,55.0035"/>
<polyline class="BarLine" fill="none" stroke="#000000" stroke-width="2.50" stroke-linejoin="bevel" points="565.849,35.0022 565.849,55.0035"/>
<polyline class="Stem" fill="none" stroke="#000000" stroke-width="0.65" stroke-linecap="round" stroke-linejoin="bevel" points="511.21,53.4424 511.21,66.2542"/>
<polyline class="Stem" fill="none" stroke="#000000" stroke-width="0.65" stroke-linecap="round" stroke-linejoin="bevel" points="485.322,36.5632 485.322,23.7515"/>
<polyline class="Stem" fill="none" stroke="#000000" stroke-width="0.65" stroke-linecap="round" stroke-linejoin="bevel" points="447.567,53.4424 447.567,66.2542"/>
<polyline class="Stem" fill="none" stroke="#000000" stroke-width="0.65" stroke-linecap="round" stroke-linejoin="bevel" points="402.586,36.5632 402.586,23.7515"/>
<polyline class="Stem" fill="none" stroke="#000000" stroke-width="0.65" stroke-linecap="round" stroke-linejoin="bevel" points="396.653,53.4424 396.653,66.2542"/>
<polyline class="Stem" fill="none" stroke="#000000" stroke-width="0.65" stroke-linecap="round" stroke-linejoin="bevel" points="345.739,53.4424 345.739,66.2542"/>
<polyline class="Stem" fill="none" stroke="#000000" stroke-width="0.65" stroke-linecap="round" stroke-linejoin="bevel" points="319.851,36.5632 319.851,23.7515"/>
<polyline class="Stem" fill="none" stroke="#000000" stroke-width="0.65" stroke-linecap="round" stroke-linejoin="bevel" points="282.096,53.4424 282.096,66.2542"/>
<polyline class="Stem" fill="none" stroke="#000000" stroke-width="0.65" stroke-linecap="round" stroke-linejoin="bevel" points="237.115,36.5632 237.115,23.7515"/>
<polyline class="Stem" fill="none" stroke="#000000" stroke-width="0.65" stroke-linecap="round" stroke-linejoin="bevel" points="231.182,53.4424 231.182,66.2542"/>
<polyline class="Stem" fill="none" stroke="#000000" stroke-width="0.65" stroke-linecap="round" stroke-linejoin="bevel" points="180.268,53.4424 180.268,66.2542"/>
<polyline class="Stem" fill="none" stroke="#000000" stroke-width="0.65" stroke-linecap="round" stroke-linejoin="bevel" points="154.38,36.5632 154.38,23.7515"/>
<polyline class="Stem" fill="none" stroke="#000000" stroke-width="0.65" stroke-linecap="round" stroke-linejoin="bevel" points="116.625,53.4424 116.625,66.2542"/>
<polyline class="Stem" fill="none" stroke="#000000" stroke-width="0.65" stroke-linecap="round" stroke-linejoin="bevel" points="71.6445,36.5632 71.6445,23.7515"/>
<polyline class="Stem" fill="none" stroke="#000000" stroke-width="0.65" stroke-linecap="round" stroke-linejoin="bevel" points="65.7113,53.4424 65.7113,66.2542"/>
<path class="Note" d="M515.279,49.7494 C515.904,49.7494 516.432,49.9122 516.861,50.2377 C517.265,50.5892 517.467,51.032 517.467,51.5658 C517.467,52.4642 517.005,53.3041 516.08,54.0853 C515.143,54.8666 514.14,55.2572 513.072,55.2572 C512.447,55.2572 511.92,55.0945 511.49,54.7689 C511.087,54.4174 510.885,53.9747 510.885,53.4408 C510.885,52.5424 511.354,51.7025 512.291,50.9213 C513.202,50.14 514.199,49.7494 515.279,49.7494"/>
<path class="Note" d="M483.458,34.7485 C484.083,34.7485 484.61,34.9112 485.04,35.2367 C485.444,35.5883 485.645,36.031 485.645,36.5649 C485.645,37.4633 485.183,38.3031 484.259,39.0844 C483.321,39.8656 482.319,40.2563 481.251,40.2563 C480.626,40.2563 480.099,40.0935 479.669,39.768 C479.265,39.4164 479.063,38.9737 479.063,38.4399 C479.063,37.5414 479.532,36.7016 480.47,35.9203 C481.381,35.1391 482.377,34.7485 483.458,34.7485"/>
<path class="Note" d="M451.637,49.7494 C452.262,49.7494 452.789,49.9122 453.219,50.2377 C453.622,50.5892 453.824,51.032 453.824,51.5658 C453.824,52.4642 453.362,53.3041 452.437,54.0853 C451.5,54.8666 450.497,55.2572 449.43,55.2572 C448.805,55.2572 448.277,55.0945 447.848,54.7689 C447.444,54.4174 447.242,53.9747 447.242,53.4408 C447.242,52.5424 447.711,51.7025 448.648,50.9213 C449.56,50.14 450.556,49.7494 451.637,49.7494"/>
<path class="Note" d="M400.723,34.7485 C401.348,34.7485 401.875,34.9112 402.305,35.2367 C402.708,35.5883 402.91,36.031 402.91,36.5649 C402.91,37.4633 402.448,38.3031 401.523,39.0844 C400.586,39.8656 399.583,40.2563 398.516,40.2563 C397.891,40.2563 397.363,40.0935 396.933,39.768 C396.53,39.4164 396.328,38.9737 396.328,38.4399 C396.328,37.5414 396.797,36.7016 397.734,35.9203 C398.646,35.1391 399.642,34.7485 400.723,34.7485"/>
<path class="Note" d="M400.723,49.7494 C401.348,49.7494 401.875,49.9122 402.305,50.2377 C402.708,50.5892 402.91,51.032 402.91,51.5658 C402.91,52.4642 402.448,53.3041 401.523,54.0853 C400.586,54.8666 399.583,55.2572 398.516,55.2572 C397.891,55.2572 397.363,55.0945 396.933,54.7689 C396.53,54.4174 396.328,53.9747 396.328,53.4408 C396.328,52.5424 396.797,51.7025 397.734,50.9213 C398.646,50.14 399.642,49.7494 400.723,49.7494"/>
<path class="Note" d="M349.808,49.7494 C350.433,49.7494 350.961,49.9122 351.39,50.2377 C351.794,50.5892 351.996,51.032 351.996,51.5658 C351.996,52.4642 351.534,53.3041 350.609,54.0853 C349.672,54.8666 348.669,55.2572 347.601,55.2572 C346.976,55.2572 346.449,55.0945 346.019,54.7689 C345.616,54.4174 345.414,53.9747 345.414,53.4408 C345.414,52.5424 345.883,51.7025 346.82,50.9213 C347.732,50.14 348.728,49.7494 349.808,49.7494"/>
<path class="Note" d="M317.987,34.7485 C318.612,34.7485 319.139,34.9112 319.569,35.2367 C319.973,35.5883 320.175,36.031 320.175,36.5649 C320.175,37.4633 319.712,38.3031 318.788,39.0844 C317.85,39.8656 316.848,40.2563 315.78,40.2563 C315.155,40.2563 314.628,40.0935 314.198,39.768 C313.794,39.4164 313.593,38.9737 313.593,38.4399 C313.593,37.5414 314.061,36.7016 314.999,35.9203 C315.91,35.1391 316.906,34.7485 317.987,34.7485"/>
<path class="Note" d="M286.166,49.7494 C286.791,49.7494 287.318,49.9122 287.748,50.2377 C288.151,50.5892 288.353,51.032 288.353,51.5658 C288.353,52.4642 287.891,53.3041 286.967,54.0853 C286.029,54.8666 285.026,55.2572 283.959,55.2572 C283.334,55.2572 282.806,55.0945 282.377,54.7689 C281.973,54.4174 281.771,53.9747 281.771,53.4408 C281.771,52.5424 282.24,51.7025 283.178,50.9213 C284.089,50.14 285.085,49.7494 286.166,49.7494"/>
<path class="Note" d="M235.252,34.7485 C235.877,34.7485 236.404,34.9112 236.834,35.2367 C237.237,35.5883 237.439,36.031 237.439,36.5649 C237.439,37.4633 236.977,38.3031 236.052,39.0844 C235.115,39.8656 234.112,40.2563 233.045,40.2563 C232.42,40.2563 231.892,40.0935 231.463,39.768 C231.059,39.4164 230.857,38.9737 230.857,38.4399 C230.857,37.5414 231.326,36.7016 232.263,35.9203 C233.175,35.1391 234.171,34.7485 235.252,34.7485"/>
<path class="Note" d="M235.252,49.7494 C235.877,49.7494 236.404,49.9122 236.834,50.2377 C237.237,50.5892 237.439,51.032 237.439,51.5658 C237.439,52.4642 236.977,53.3041 236.052,54.0853 C235.115,54.8666 234.112,55.2572 233.045,55.2572 C232.42,55.2572 231.892,55.0945 231.463,54.7689 C231.059,54.4174 230.857,53.9747 230.857,53.4408 C230.857,52.5424 231.326,51.7025 232.263,50.9213 C233.175,50.14 234.171,49.7494 235.252,49.7494"/>
<path class="Note" d="M184.338,49.7494 C184.963,49.7494 185.49,49.9122 185.92,50.2377 C186.323,50.5892 186.525,51.032 186.525,51.5658 C186.525,52.4642 186.063,53.3041 185.138,54.0853 C184.201,54.8666 183.198,55.2572 182.131,55.2572 C181.506,55.2572 180.978,55.0945 180.549,54.7689 C180.145,54.4174 179.943,53.9747 179.943,53.4408 C179.943,52.5424 180.412,51.7025 181.349,50.9213 C182.261,50.14 183.257,49.7494 184.338,49.7494"/>
<path class="Note" d="M152.516,34.7485 C153.141,34.7485 153.669,34.9112 154.098,35.2367 C154.502,35.5883 154.704,36.031 154.704,36.5649 C154.704,37.4633 154.242,38.3031 153.317,39.0844 C152.38,39.8656 151.377,40.2563 150.309,40.2563 C149.684,40.2563 149.157,40.0935 148.727,39.768 C148.324,39.4164 148.122,38.9737 148.122,38.4399 C148.122,37.5414 148.59,36.7016 149.528,35.9203 C150.439,35.1391 151.436,34.7485 152.516,34.7485"/>
<path class="Note" d="M120.695,49.7494 C121.32,49.7494 121.847,49.9122 122.277,50.2377 C122.681,50.5892 122.882,51.032 122.882,51.5658 C122.882,52.4642 122.42,53.3041 121.496,54.0853 C120.558,54.8666 119.556,55.2572 118.488,55.2572 C117.863,55.2572 117.336,55.0945 116.906,54.7689 C116.502,54.4174 116.3,53.9747 116.3,53.4408 C116.3,52.5424 116.769,51.7025 117.707,50.9213 C118.618,50.14 119.614,49.7494 120.695,49.7494"/>
<path class="Note" d="M69.7808,34.7485 C70.4058,34.7485 70.9332,34.9112 71.3629,35.2367 C71.7665,35.5883 71.9683,36.031 71.9683,36.5649 C71.9683,37.4633 71.5061,38.3031 70.5816,39.0844 C69.6441,39.8656 68.6415,40.2563 67.5738,40.2563 C66.9488,40.2563 66.4214,40.0935 65.9918,39.768 C65.5881,39.4164 65.3863,38.9737 65.3863,38.4399 C65.3863,37.5414 65.855,36.7016 66.7925,35.9203 C67.704,35.1391 68.7001,34.7485 69.7808,34.7485"/>
<path class="Note" d="M69.7808,49.7494 C70.4058,49.7494 70.9332,49.9122 71.3629,50.2377 C71.7665,50.5892 71.9683,51.032 71.9683,51.5658 C71.9683,52.4642 71.5061,53.3041 70.5816,54.0853 C69.6441,54.8666 68.6415,55.2572 67.5738,55.2572 C66.9488,55.2572 66.4214,55.0945 65.9918,54.7689 C65.5881,54.4174 65.3863,53.9747 65.3863,53.4408 C65.3863,52.5424 65.855,51.7025 66.7925,50.9213 C67.704,50.14 68.7001,49.7494 69.7808,49.7494"/>
<path class="Clef" d="M38.8904,44.886 C38.8904,44.886 38.9295,44.886 39.0076,44.886 C39.0597,44.8729 39.1053,44.8664 39.1443,44.8664 C40.6026,44.8664 41.8006,45.3808 42.7381,46.4094 C43.6756,47.425 44.1443,48.6099 44.1443,49.9641 C44.1443,51.6438 43.4477,53.011 42.0545,54.0656 C41.6899,54.3521 41.2146,54.5865 40.6287,54.7688 C40.6938,55.6151 40.7263,56.2987 40.7263,56.8196 C40.7263,56.9237 40.7133,57.3013 40.6873,57.9524 C40.6352,59.1633 40.2185,60.2115 39.4373,61.0969 C38.6821,61.9693 37.7446,62.4055 36.6248,62.4055 C35.5701,62.4055 34.6717,62.0344 33.9295,61.2922 C33.1873,60.537 32.8162,59.6255 32.8162,58.5578 C32.8162,57.9979 33.031,57.5227 33.4607,57.1321 C33.9034,56.7414 34.4178,56.5461 35.0037,56.5461 C35.5245,56.5461 35.9607,56.7479 36.3123,57.1516 C36.6769,57.5292 36.8592,57.9979 36.8592,58.5578 C36.8592,59.0656 36.6769,59.5018 36.3123,59.8664 C35.9477,60.231 35.5115,60.4133 35.0037,60.4133 C34.7954,60.4133 34.5935,60.3742 34.3982,60.2961 C34.9711,61.1425 35.7329,61.5656 36.6834,61.5656 C37.5818,61.5656 38.3175,61.2011 38.8904,60.4719 C39.4894,59.7167 39.8149,58.8378 39.867,57.8352 C39.893,57.2102 39.906,56.8521 39.906,56.761 C39.906,56.0318 39.88,55.4328 39.8279,54.9641 C39.1769,55.0683 38.5974,55.1203 38.0896,55.1203 C36.2797,55.1203 34.7368,54.4042 33.4607,52.9719 C32.2107,51.5266 31.5857,49.8078 31.5857,47.8156 C31.5857,47.399 31.6248,46.9758 31.7029,46.5461 C31.781,46.1946 31.8787,45.8104 31.9959,45.3938 C32.061,45.1594 32.2368,44.7818 32.5232,44.261 C32.6274,44.1047 32.7446,43.9094 32.8748,43.675 C33.005,43.4406 33.0961,43.2844 33.1482,43.2063 C33.2784,42.9459 33.5323,42.5943 33.9099,42.1516 C34.0141,42.0344 34.1215,41.9042 34.2322,41.761 C34.3429,41.6177 34.4373,41.5005 34.5154,41.4094 C34.5935,41.3183 34.6521,41.2466 34.6912,41.1946 C34.7303,41.1425 35.0232,40.7974 35.5701,40.1594 C35.7003,40.0292 35.8273,39.8892 35.951,39.7395 C36.0747,39.5897 36.1756,39.4726 36.2537,39.3879 C36.3318,39.3033 36.3904,39.2414 36.4295,39.2024 C35.9607,37.6529 35.6678,36.4159 35.5506,35.4914 C35.4594,34.7492 35.4138,33.7336 35.4138,32.4446 C35.4138,31.3117 35.6743,30.2505 36.1951,29.261 C36.7029,28.2323 37.4125,27.3925 38.324,26.7414 C38.3891,26.7024 38.4542,26.6828 38.5193,26.6828 C38.6105,26.6828 38.6756,26.7024 38.7146,26.7414 C39.4178,27.5878 40.0232,28.688 40.531,30.0422 C41.0519,31.3964 41.3123,32.6268 41.3123,33.7336 C41.3123,34.9836 41.0128,36.1555 40.4138,37.2492 C39.7368,38.4081 38.8644,39.606 37.7967,40.843 C38.0701,41.7024 38.4347,43.05 38.8904,44.886 M40.5506,53.968 C41.2276,53.7206 41.755,53.2974 42.1326,52.6985 C42.5493,52.1255 42.7576,51.481 42.7576,50.7649 C42.7576,49.8404 42.4451,49.0201 41.8201,48.3039 C41.1821,47.5617 40.3683,47.1451 39.3787,47.0539 C39.9386,49.8013 40.3292,52.106 40.5506,53.968 M32.992,49.4563 C32.992,50.7453 33.5128,51.8781 34.5545,52.8547 C35.6222,53.8052 36.8201,54.2805 38.1482,54.2805 C38.6951,54.2805 39.2289,54.2414 39.7498,54.1633 C39.5414,52.1841 39.1313,49.8143 38.5193,47.0539 C37.7771,47.1321 37.1847,47.3925 36.742,47.8352 C36.3123,48.2909 36.0974,48.8052 36.0974,49.3781 C36.0974,50.3677 36.6248,51.1685 37.6795,51.7805 C37.7706,51.8716 37.8162,51.9693 37.8162,52.0735 C37.8162,52.1776 37.7706,52.2753 37.6795,52.3664 C37.6013,52.4576 37.5037,52.5031 37.3865,52.5031 C37.3735,52.5031 37.3149,52.4901 37.2107,52.4641 C36.4685,52.0604 35.8956,51.5396 35.492,50.9016 C35.1144,50.2245 34.9256,49.5409 34.9256,48.8508 C34.9256,47.9524 35.2055,47.1386 35.7654,46.4094 C36.3513,45.6802 37.1131,45.2115 38.0506,45.0031 C37.686,43.5448 37.3865,42.4055 37.1521,41.5852 C36.9438,41.8196 36.6931,42.1028 36.4002,42.4348 C36.1072,42.7668 35.9347,42.9654 35.8826,43.0305 C35.4138,43.6425 35.0558,44.1177 34.8084,44.4563 C34.3657,45.0683 34.0401,45.5956 33.8318,46.0383 C33.6105,46.5331 33.4151,47.0735 33.2459,47.6594 C33.0766,48.2193 32.992,48.8183 32.992,49.4563 M39.5154,29.593 C38.5388,30.0748 37.7706,30.7649 37.2107,31.6633 C36.6378,32.5878 36.3513,33.5839 36.3513,34.6516 C36.3513,35.5891 36.5857,36.8521 37.0545,38.4406 C37.992,37.3078 38.6951,36.2597 39.1638,35.2961 C39.6586,34.2805 39.906,33.2193 39.906,32.1125 C39.906,31.2792 39.7758,30.4393 39.5154,29.593"/>
<path class="TimeSig" d="M52.8775,40.1197 C53.3723,40.1197 53.6783,39.9244 53.7954,39.5338 C53.8866,39.2473 53.9322,38.7655 53.9322,38.0885 L53.9322,37.5025 C53.9322,36.8254 53.8866,36.3437 53.7954,36.0572 C53.6783,35.6666 53.3723,35.4713 52.8775,35.4713 C52.2915,35.4713 51.94,35.6991 51.8228,36.1549 C51.7186,36.5715 51.6665,37.1184 51.6665,37.7955 C51.6665,38.6028 51.7382,39.1822 51.8814,39.5338 C52.0507,39.9244 52.3827,40.1197 52.8775,40.1197 M53.9322,40.315 C53.4895,40.4973 53.1379,40.5885 52.8775,40.5885 C51.8358,40.5885 51.0025,40.3541 50.3775,39.8853 C49.7785,39.4036 49.479,38.7135 49.479,37.815 C49.479,36.9036 49.785,36.2004 50.397,35.7056 C51.009,35.2369 51.8358,35.0025 52.8775,35.0025 C53.9452,35.0025 54.7785,35.4973 55.3775,36.4869 C55.9764,37.4765 56.2759,38.6484 56.2759,40.0025 C56.2759,41.3306 55.9244,42.5025 55.2212,43.5181 C54.5311,44.5077 53.6197,45.0025 52.4869,45.0025 C51.7577,45.0025 51.1066,44.8137 50.5337,44.4361 C49.9869,44.0585 49.7134,43.5637 49.7134,42.9517 C49.7134,42.5741 49.8436,42.2616 50.104,42.0142 C50.3384,41.7538 50.6379,41.6236 51.0025,41.6236 C51.3671,41.6236 51.6796,41.7538 51.94,42.0142 C52.2004,42.2747 52.3306,42.5872 52.3306,42.9517 C52.3306,43.095 52.2004,43.2577 51.94,43.44 C51.6796,43.5963 51.5494,43.759 51.5494,43.9283 C51.5494,44.1106 51.6405,44.2603 51.8228,44.3775 C52.0311,44.4817 52.2525,44.5338 52.4869,44.5338 C53.0858,44.5338 53.4829,44.2929 53.6783,43.8111 C53.8736,43.3293 53.9712,42.6457 53.9712,41.7603 C53.9712,41.4999 53.9647,41.259 53.9517,41.0377 C53.9387,40.8163 53.9322,40.5754 53.9322,40.315"/>
<path class="TimeSig" d="M54.311,49.2414 C54.9621,48.5253 55.2876,47.8482 55.2876,47.2102 C55.2876,46.6763 55.0597,46.2531 54.604,45.9406 C54.1613,45.6281 53.6144,45.4719 52.9634,45.4719 C52.5077,45.4719 52.1431,45.6151 51.8696,45.9016 C51.5962,46.188 51.4595,46.5136 51.4595,46.8781 C51.4595,47.3339 51.6613,47.6854 52.065,47.9328 L54.311,49.2414 M54.9165,49.5735 C56.0233,50.2115 56.5767,51.0643 56.5767,52.1321 C56.5767,52.9263 56.2446,53.5969 55.5806,54.1438 C54.9165,54.7167 53.9855,55.0031 52.7876,55.0031 C51.772,55.0031 50.9191,54.7427 50.229,54.2219 C49.4998,53.7011 49.1353,53.0305 49.1353,52.2102 C49.1353,51.9107 49.2264,51.5917 49.4087,51.2531 C49.578,50.9537 49.7472,50.7193 49.9165,50.55 C49.9946,50.4459 50.242,50.1985 50.6587,49.8078 C49.8514,49.2349 49.4413,48.5253 49.4282,47.6789 C49.4282,46.9628 49.7472,46.3313 50.3853,45.7844 C51.0233,45.2636 51.8827,45.0031 52.9634,45.0031 C53.8228,45.0031 54.578,45.1985 55.229,45.5891 C55.854,45.9797 56.1665,46.5201 56.1665,47.2102 C56.1405,47.9133 55.7238,48.7011 54.9165,49.5735 M51.2642,50.1594 C50.4569,50.8755 50.0402,51.5591 50.0142,52.2102 C50.0142,52.8742 50.2941,53.4276 50.854,53.8703 C51.3879,54.313 52.0324,54.5344 52.7876,54.5344 C53.3215,54.5344 53.7381,54.3651 54.0376,54.0266 C54.3501,53.7141 54.5064,53.33 54.5064,52.8742 C54.5064,52.3143 54.2785,51.9042 53.8228,51.6438 L51.2642,50.1594 "/>
<path class="Beam" fill-rule="evenodd" d="M71.3195,22.5014 L485.647,22.5014 L485.647,25.0016 L71.3195,25.0016 L71.3195,22.5014 "/>
<path class="Beam" fill-rule="evenodd" d="M65.3863,65.0041 L511.535,65.0041 L511.535,67.5043 L65.3863,67.5043 L65.3863,65.0041 "/>
<path class="NoteDot" d="M487.729,38.3031 C487.507,38.0818 487.397,37.8149 487.397,37.5024 C487.397,37.1899 487.507,36.9229 487.729,36.7016 C487.95,36.4802 488.217,36.3695 488.53,36.3695 C488.842,36.3695 489.109,36.4802 489.33,36.7016 C489.552,36.9229 489.662,37.1899 489.662,37.5024 C489.662,37.8149 489.552,38.0818 489.33,38.3031 C489.109,38.5245 488.842,38.6352 488.53,38.6352 C488.217,38.6352 487.95,38.5245 487.729,38.3031"/>
<path class="NoteDot" d="M404.993,38.3031 C404.772,38.0818 404.661,37.8149 404.661,37.5024 C404.661,37.1899 404.772,36.9229 404.993,36.7016 C405.215,36.4802 405.482,36.3695 405.794,36.3695 C406.107,36.3695 406.374,36.4802 406.595,36.7016 C406.816,36.9229 406.927,37.1899 406.927,37.5024 C406.927,37.8149 406.816,38.0818 406.595,38.3031 C406.374,38.5245 406.107,38.6352 405.794,38.6352 C405.482,38.6352 405.215,38.5245 404.993,38.3031"/>
<path class="NoteDot" d="M322.258,38.3031 C322.037,38.0818 321.926,37.8149 321.926,37.5024 C321.926,37.1899 322.037,36.9229 322.258,36.7016 C322.479,36.4802 322.746,36.3695 323.059,36.3695 C323.371,36.3695 323.638,36.4802 323.86,36.7016 C324.081,36.9229 324.192,37.1899 324.192,37.5024 C324.192,37.8149 324.081,38.0818 323.86,38.3031 C323.638,38.5245 323.371,38.6352 323.059,38.6352 C322.746,38.6352 322.479,38.5245 322.258,38.3031"/>
<path class="NoteDot" d="M239.523,38.3031 C239.301,38.0818 239.19,37.8149 239.19,37.5024 C239.19,37.1899 239.301,36.9229 239.523,36.7016 C239.744,36.4802 240.011,36.3695 240.323,36.3695 C240.636,36.3695 240.903,36.4802 241.124,36.7016 C241.345,36.9229 241.456,37.1899 241.456,37.5024 C241.456,37.8149 241.345,38.0818 241.124,38.3031 C240.903,38.5245 240.636,38.6352 240.323,38.6352 C240.011,38.6352 239.744,38.5245 239.523,38.3031"/>
<path class="NoteDot" d="M156.787,38.3031 C156.566,38.0818 156.455,37.8149 156.455,37.5024 C156.455,37.1899 156.566,36.9229 156.787,36.7016 C157.008,36.4802 157.275,36.3695 157.588,36.3695 C157.9,36.3695 158.167,36.4802 158.389,36.7016 C158.61,36.9229 158.721,37.1899 158.721,37.5024 C158.721,37.8149 158.61,38.0818 158.389,38.3031 C158.167,38.5245 157.9,38.6352 157.588,38.6352 C157.275,38.6352 157.008,38.5245 156.787,38.3031"/>
<path class="NoteDot" d="M74.0517,38.3031 C73.8303,38.0818 73.7196,37.8149 73.7196,37.5024 C73.7196,37.1899 73.8303,36.9229 74.0517,36.7016 C74.273,36.4802 74.5399,36.3695 74.8524,36.3695 C75.1649,36.3695 75.4319,36.4802 75.6532,36.7016 C75.8746,36.9229 75.9853,37.1899 75.9853,37.5024 C75.9853,37.8149 75.8746,38.0818 75.6532,38.3031 C75.4319,38.5245 75.1649,38.6352 74.8524,38.6352 C74.5399,38.6352 74.273,38.5245 74.0517,38.3031"/>
</svg>
