<?xml version="1.0" encoding="UTF-8" standalone="no"?>
<svg width="595.446px" height="90.7087px" viewBox="0 0 595.446 90.7087"
 xmlns="http://www.w3.org/2000/svg" xmlns:xlink="http://www.w3.org/1999/xlink" version="1.2" baseProfile="tiny">
<title>polyblog</title>
<desc>Generated by MuseScore 2.3.2</desc>
<polyline class="StaffLines" fill="none" stroke="#000000" stroke-width="0.40" stroke-linejoin="bevel" points="28.3465,35.0022 567.099,35.0022"/>
<polyline class="StaffLines" fill="none" stroke="#000000" stroke-width="0.40" stroke-linejoin="bevel" points="28.3465,40.0025 567.099,40.0025"/>
<polyline class="StaffLines" fill="none" stroke="#000000" stroke-width="0.40" stroke-linejoin="bevel" points="28.3465,45.0028 567.099,45.0028"/>
<polyline class="StaffLines" fill="none" stroke="#000000" stroke-width="0.40" stroke-linejoin="bevel" points="28.3465,50.0031 567.099,50.0031"/>
<polyline class="StaffLines" fill="none" stroke="#000000" stroke-width="0.40" stroke-linejoin="bevel" points="28.3465,55.0035 567.099,55.0035"/>
<polyline class="BarLine" fill="none" stroke="#000000" stroke-width="0.80" stroke-linejoin="bevel" points="562.199,35.0022 562.199,55.0035"/>
<polyline class="BarLine" fill="none" stroke="#000000" stroke-width="2.50" stroke-linejoin="bevel" points="565.849,35.0022 565.849,55.0035"/>
<polyline class="LedgerLine" fill="none" stroke="#000000" stroke-width="0.80" stroke-linecap="square" stroke-linejoin="bevel" points="523.294,60.0038 532.878,60.0038"/>
<polyline class="LedgerLine" fill="none" stroke="#000000" stroke-width="0.80" stroke-linecap="square" stroke-linejoin="bevel" points="486.289,60.0038 495.873,60.0038"/>
<polyline class="LedgerLine" fill="none" stroke="#000000" stroke-width="0.80" stroke-linecap="square" stroke-linejoin="bevel" points="449.285,60.0038 458.868,60.0038"/>
<polyline class="LedgerLine" fill="none" stroke="#000000" stroke-width="0.80" stroke-linecap="square" stroke-linejoin="bevel" points="412.28,60.0038 421.864,60.0038"/>
<polyline class="LedgerLine" fill="none" stroke="#000000" stroke-width="0.80" stroke-linecap="square" stroke-linejoin="bevel" points="375.275,60.0038 384.859,60.0038"/>
<polyline class="LedgerLine" fill="none" stroke="#000000" stroke-width="0.80" stroke-linecap="square" stroke-linejoin="bevel" points="338.271,60.0038 347.854,60.0038"/>
<polyline class="LedgerLine" fill="none" stroke="#000000" stroke-width="0.80" stroke-linecap="square" stroke-linejoin="bevel" points="301.266,60.0038 310.85,60.0038"/>
<polyline class="LedgerLine" fill="none" stroke="#000000" stroke-width="0.80" stroke-linecap="square" stroke-linejoin="bevel" points="264.261,60.0038 273.845,60.0038"/>
<polyline class="LedgerLine" fill="none" stroke="#000000" stroke-width="0.80" stroke-linecap="square" stroke-linejoin="bevel" points="205.054,60.0038 214.637,60.0038"/>
<polyline class="LedgerLine" fill="none" stroke="#000000" stroke-width="0.80" stroke-linecap="square" stroke-linejoin="bevel" points="145.846,60.0038 155.43,60.0038"/>
<polyline class="LedgerLine" fill="none" stroke="#000000" stroke-width="0.80" stroke-linecap="square" stroke-linejoin="bevel" points="64.4362,60.0038 74.0196,60.0038"/>
<polyline class="Stem" fill="none" stroke="#000000" stroke-width="0.65" stroke-linecap="round" stroke-linejoin="bevel" points="531.052,59.0647 531.052,45.0028"/>
<polyline class="Stem" fill="none" stroke="#000000" stroke-width="0.65" stroke-linecap="round" stroke-linejoin="bevel" points="494.048,59.0647 494.048,45.0028"/>
<polyline class="Stem" fill="none" stroke="#000000" stroke-width="0.65" stroke-linecap="round" stroke-linejoin="bevel" points="457.043,59.0647 457.043,45.0028"/>
<polyline class="Stem" fill="none" stroke="#000000" stroke-width="0.65" stroke-linecap="round" stroke-linejoin="bevel" points="420.038,59.0647 420.038,45.0028"/>
<polyline class="Stem" fill="none" stroke="#000000" stroke-width="0.65" stroke-linecap="round" stroke-linejoin="bevel" points="383.034,59.0647 383.034,45.0028"/>
<polyline class="Stem" fill="none" stroke="#000000" stroke-width="0.65" stroke-linecap="round" stroke-linejoin="bevel" points="346.029,59.0647 346.029,45.0028"/>
<polyline class="Stem" fill="none" stroke="#000000" stroke-width="0.65" stroke-linecap="round" stroke-linejoin="bevel" points="309.024,59.0647 309.024,45.0028"/>
<polyline class="Stem" fill="none" stroke="#000000" stroke-width="0.65" stroke-linecap="round" stroke-linejoin="bevel" points="272.02,59.0647 272.02,45.0028"/>
<polyline class="Stem" fill="none" stroke="#000000" stroke-width="0.65" stroke-linecap="round" stroke-linejoin="bevel" points="212.812,59.0647 212.812,45.0028"/>
<polyline class="Stem" fill="none" stroke="#000000" stroke-width="0.65" stroke-linecap="round" stroke-linejoin="bevel" points="153.605,59.0647 153.605,45.0028"/>
<polyline class="Stem" fill="none" stroke="#000000" stroke-width="0.65" stroke-linecap="round" stroke-linejoin="bevel" points="72.1945,59.0647 72.1945,42.5027"/>
<path class="Note" d="M529.189,57.2499 C529.814,57.2499 530.341,57.4126 530.771,57.7382 C531.174,58.0897 531.376,58.5324 531.376,59.0663 C531.376,59.9647 530.914,60.8046 529.99,61.5858 C529.052,62.3671 528.049,62.7577 526.982,62.7577 C526.357,62.7577 525.829,62.5949 525.4,62.2694 C524.996,61.9178 524.794,61.4751 524.794,60.9413 C524.794,60.0428 525.263,59.203 526.2,58.4217 C527.112,57.6405 528.108,57.2499 529.189,57.2499"/>
<path class="Note" d="M492.184,57.2499 C492.809,57.2499 493.336,57.4126 493.766,57.7382 C494.17,58.0897 494.372,58.5324 494.372,59.0663 C494.372,59.9647 493.909,60.8046 492.985,61.5858 C492.047,62.3671 491.045,62.7577 489.977,62.7577 C489.352,62.7577 488.825,62.5949 488.395,62.2694 C487.991,61.9178 487.79,61.4751 487.79,60.9413 C487.79,60.0428 488.258,59.203 489.196,58.4217 C490.107,57.6405 491.103,57.2499 492.184,57.2499"/>
<path class="Note" d="M455.179,57.2499 C455.804,57.2499 456.332,57.4126 456.761,57.7382 C457.165,58.0897 457.367,58.5324 457.367,59.0663 C457.367,59.9647 456.905,60.8046 455.98,61.5858 C455.043,62.3671 454.04,62.7577 452.972,62.7577 C452.347,62.7577 451.82,62.5949 451.39,62.2694 C450.987,61.9178 450.785,61.4751 450.785,60.9413 C450.785,60.0428 451.254,59.203 452.191,58.4217 C453.103,57.6405 454.099,57.2499 455.179,57.2499"/>
<path class="Note" d="M418.175,57.2499 C418.8,57.2499 419.327,57.4126 419.757,57.7382 C420.16,58.0897 420.362,58.5324 420.362,59.0663 C420.362,59.9647 419.9,60.8046 418.976,61.5858 C418.038,62.3671 417.035,62.7577 415.968,62.7577 C415.343,62.7577 414.815,62.5949 414.386,62.2694 C413.982,61.9178 413.78,61.4751 413.78,60.9413 C413.78,60.0428 414.249,59.203 415.186,58.4217 C416.098,57.6405 417.094,57.2499 418.175,57.2499"/>
<path class="Note" d="M381.17,57.2499 C381.795,57.2499 382.322,57.4126 382.752,57.7382 C383.156,58.0897 383.358,58.5324 383.358,59.0663 C383.358,59.9647 382.895,60.8046 381.971,61.5858 C381.033,62.3671 380.031,62.7577 378.963,62.7577 C378.338,62.7577 377.811,62.5949 377.381,62.2694 C376.977,61.9178 376.776,61.4751 376.776,60.9413 C376.776,60.0428 377.244,59.203 378.182,58.4217 C379.093,57.6405 380.089,57.2499 381.17,57.2499"/>
<path class="Note" d="M344.165,57.2499 C344.79,57.2499 345.318,57.4126 345.747,57.7382 C346.151,58.0897 346.353,58.5324 346.353,59.0663 C346.353,59.9647 345.891,60.8046 344.966,61.5858 C344.029,62.3671 343.026,62.7577 341.958,62.7577 C341.333,62.7577 340.806,62.5949 340.376,62.2694 C339.973,61.9178 339.771,61.4751 339.771,60.9413 C339.771,60.0428 340.24,59.203 341.177,58.4217 C342.089,57.6405 343.085,57.2499 344.165,57.2499"/>
<path class="Note" d="M307.161,57.2499 C307.786,57.2499 308.313,57.4126 308.743,57.7382 C309.146,58.0897 309.348,58.5324 309.348,59.0663 C309.348,59.9647 308.886,60.8046 307.962,61.5858 C307.024,62.3671 306.021,62.7577 304.954,62.7577 C304.329,62.7577 303.801,62.5949 303.372,62.2694 C302.968,61.9178 302.766,61.4751 302.766,60.9413 C302.766,60.0428 303.235,59.203 304.172,58.4217 C305.084,57.6405 306.08,57.2499 307.161,57.2499"/>
<path class="Note" d="M270.156,57.2499 C270.781,57.2499 271.308,57.4126 271.738,57.7382 C272.142,58.0897 272.344,58.5324 272.344,59.0663 C272.344,59.9647 271.881,60.8046 270.957,61.5858 C270.019,62.3671 269.017,62.7577 267.949,62.7577 C267.324,62.7577 266.797,62.5949 266.367,62.2694 C265.963,61.9178 265.762,61.4751 265.762,60.9413 C265.762,60.0428 266.23,59.203 267.168,58.4217 C268.079,57.6405 269.075,57.2499 270.156,57.2499"/>
<path class="Note" d="M210.949,57.2499 C211.574,57.2499 212.101,57.4126 212.531,57.7382 C212.934,58.0897 213.136,58.5324 213.136,59.0663 C213.136,59.9647 212.674,60.8046 211.749,61.5858 C210.812,62.3671 209.809,62.7577 208.742,62.7577 C208.117,62.7577 207.589,62.5949 207.16,62.2694 C206.756,61.9178 206.554,61.4751 206.554,60.9413 C206.554,60.0428 207.023,59.203 207.96,58.4217 C208.872,57.6405 209.868,57.2499 210.949,57.2499"/>
<path class="Note" d="M151.741,57.2499 C152.366,57.2499 152.893,57.4126 153.323,57.7382 C153.727,58.0897 153.929,58.5324 153.929,59.0663 C153.929,59.9647 153.466,60.8046 152.542,61.5858 C151.604,62.3671 150.602,62.7577 149.534,62.7577 C148.909,62.7577 148.382,62.5949 147.952,62.2694 C147.548,61.9178 147.347,61.4751 147.347,60.9413 C147.347,60.0428 147.815,59.203 148.753,58.4217 C149.664,57.6405 150.66,57.2499 151.741,57.2499"/>
<path class="Note" d="M70.3309,57.2499 C70.9559,57.2499 71.4832,57.4126 71.9129,57.7382 C72.3165,58.0897 72.5184,58.5324 72.5184,59.0663 C72.5184,59.9647 72.0561,60.8046 71.1316,61.5858 C70.1941,62.3671 69.1915,62.7577 68.1238,62.7577 C67.4988,62.7577 66.9715,62.5949 66.5418,62.2694 C66.1381,61.9178 65.9363,61.4751 65.9363,60.9413 C65.9363,60.0428 66.4051,59.203 67.3426,58.4217 C68.254,57.6405 69.2501,57.2499 70.3309,57.2499"/>
<path class="Clef" d="M38.8904,44.886 C38.8904,44.886 38.9295,44.886 39.0076,44.886 C39.0597,44.8729 39.1053,44.8664 39.1443,44.8664 C40.6026,44.8664 41.8006,45.3808 42.7381,46.4094 C43.6756,47.425 44.1443,48.6099 44.1443,49.9641 C44.1443,51.6438 43.4477,53.011 42.0545,54.0656 C41.6899,54.3521 41.2146,54.5865 40.6287,54.7688 C40.6938,55.6151 40.7263,56.2987 40.7263,56.8196 C40.7263,56.9237 40.7133,57.3013 40.6873,57.9524 C40.6352,59.1633 40.2185,60.2115 39.4373,61.0969 C38.6821,61.9693 37.7446,62.4055 36.6248,62.4055 C35.5701,62.4055 34.6717,62.0344 33.9295,61.2922 C33.1873,60.537 32.8162,59.6255 32.8162,58.5578 C32.8162,57.9979 33.031,57.5227 33.4607,57.1321 C33.9034,56.7414 34.4178,56.5461 35.0037,56.5461 C35.5245,56.5461 35.9607,56.7479 36.3123,57.1516 C36.6769,57.5292 36.8592,57.9979 36.8592,58.5578 C36.8592,59.0656 36.6769,59.5018 36.3123,59.8664 C35.9477,60.231 35.5115,60.4133 35.0037,60.4133 C34.7954,60.4133 34.5935,60.3742 34.3982,60.2961 C34.9711,61.1425 35.7329,61.5656 36.6834,61.5656 C37.5818,61.5656 38.3175,61.2011 38.8904,60.4719 C39.4894,59.7167 39.8149,58.8378 39.867,57.8352 C39.893,57.2102 39.906,56.8521 39.906,56.761 C39.906,56.0318 39.88,55.4328 39.8279,54.9641 C39.1769,55.0683 38.5974,55.1203 38.0896,55.1203 C36.2797,55.1203 34.7368,54.4042 33.4607,52.9719 C32.2107,51.5266 31.5857,49.8078 31.5857,47.8156 C31.5857,47.399 31.6248,46.9758 31.7029,46.5461 C31.781,46.1946 31.8787,45.8104 31.9959,45.3938 C32.061,45.1594 32.2368,44.7818 32.5232,44.261 C32.6274,44.1047 32.7446,43.9094 32.8748,43.675 C33.005,43.4406 33.0961,43.2844 33.1482,43.2063 C33.2784,42.9459 33.5323,42.5943 33.9099,42.1516 C34.0141,42.0344 34.1215,41.9042 34.2322,41.761 C34.3429,41.6177 34.4373,41.5005 34.5154,41.4094 C34.5935,41.3183 34.6521,41.2466 34.6912,41.1946 C34.7303,41.1425 35.0232,40.7974 35.5701,40.1594 C35.7003,40.0292 35.8273,39.8892 35.951,39.7395 C36.0747,39.5897 36.1756,39.4726 36.2537,39.3879 C36.3318,39.3033 36.3904,39.2414 36.4295,39.2024 C35.9607,37.6529 35.6678,36.4159 35.5506,35.4914 C35.4594,34.7492 35.4138,33.7336 35.4138,32.4446 C35.4138,31.3117 35.6743,30.2505 36.1951,29.261 C36.7029,28.2323 37.4125,27.3925 38.324,26.7414 C38.3891,26.7024 38.4542,26.6828 38.5193,26.6828 C38.6105,26.6828 38.6756,26.7024 38.7146,26.7414 C39.4178,27.5878 40.0232,28.688 40.531,30.0422 C41.0519,31.3964 41.3123,32.6268 41.3123,33.7336 C41.3123,34.9836 41.0128,36.1555 40.4138,37.2492 C39.7368,38.4081 38.8644,39.606 37.7967,40.843 C38.0701,41.7024 38.4347,43.05 38.8904,44.886 M40.5506,53.968 C41.2276,53.7206 41.755,53.2974 42.1326,52.6985 C42.5493,52.1255 42.7576,51.481 42.7576,50.7649 C42.7576,49.8404 42.4451,49.0201 41.8201,48.3039 C41.1821,47.5617 40.3683,47.1451 39.3787,47.0539 C39.9386,49.8013 40.3292,52.106 40.5506,53.968 M32.992,49.4563 C32.992,50.7453 33.5128,51.8781 34.5545,52.8547 C35.6222,53.8052 36.8201,54.2805 38.1482,54.2805 C38.6951,54.2805 39.2289,54.2414 39.7498,54.1633 C39.5414,52.1841 39.1313,49.8143 38.5193,47.0539 C37.7771,47.1321 37.1847,47.3925 36.742,47.8352 C36.3123,48.2909 36.0974,48.8052 36.0974,49.3781 C36.0974,50.3677 36.6248,51.1685 37.6795,51.7805 C37.7706,51.8716 37.8162,51.9693 37.8162,52.0735 C37.8162,52.1776 37.7706,52.2753 37.6795,52.3664 C37.6013,52.4576 37.5037,52.5031 37.3865,52.5031 C37.3735,52.5031 37.3149,52.4901 37.2107,52.4641 C36.4685,52.0604 35.8956,51.5396 35.492,50.9016 C35.1144,50.2245 34.9256,49.5409 34.9256,48.8508 C34.9256,47.9524 35.2055,47.1386 35.7654,46.4094 C36.3513,45.6802 37.1131,45.2115 38.0506,45.0031 C37.686,43.5448 37.3865,42.4055 37.1521,41.5852 C36.9438,41.8196 36.6931,42.1028 36.4002,42.4348 C36.1072,42.7668 35.9347,42.9654 35.8826,43.0305 C35.4138,43.6425 35.0558,44.1177 34.8084,44.4563 C34.3657,45.0683 34.0401,45.5956 33.8318,46.0383 C33.6105,46.5331 33.4151,47.0735 33.2459,47.6594 C33.0766,48.2193 32.992,48.8183 32.992,49.4563 M39.5154,29.593 C38.5388,30.0748 37.7706,30.7649 37.2107,31.6633 C36.6378,32.5878 36.3513,33.5839 36.3513,34.6516 C36.3513,35.5891 36.5857,36.8521 37.0545,38.4406 C37.992,37.3078 38.6951,36.2597 39.1638,35.2961 C39.6586,34.2805 39.906,33.2193 39.906,32.1125 C39.906,31.2792 39.7758,30.4393 39.5154,29.593"/>
<path class="TimeSig" d="M53.6775,35.2564 C54.0681,35.2564 54.4001,35.2109 54.6736,35.1197 C54.947,35.0286 55.1228,34.983 55.2009,34.983 C55.292,34.983 55.3637,35.009 55.4157,35.0611 C55.4548,35.1002 55.4808,35.1457 55.4939,35.1978 C55.4939,35.2239 55.4808,35.2629 55.4548,35.315 L49.7712,41.9166 L53.1111,41.9166 L53.1111,39.2994 C53.1111,39.1301 53.1566,38.9869 53.2478,38.8697 C53.404,38.7395 53.5342,38.6614 53.6384,38.6353 C53.8077,38.5572 54.016,38.3749 54.2634,38.0885 C54.4717,37.8541 54.7191,37.4439 55.0056,36.858 C55.0446,36.7799 55.1032,36.7408 55.1814,36.7408 C55.3376,36.7408 55.4288,36.8319 55.4548,37.0142 L55.4548,41.9166 L56.8806,41.9166 C57.0629,41.9166 57.167,42.0142 57.1931,42.2096 C57.1931,42.4049 57.0889,42.5025 56.8806,42.5025 L55.4548,42.5025 L55.4548,42.6588 C55.4548,43.1796 55.585,43.6223 55.8454,43.9869 C56.1449,44.3515 56.4965,44.5338 56.9001,44.5338 C57.0564,44.5338 57.1345,44.6119 57.1345,44.7681 C57.1345,44.9244 57.0564,45.0025 56.9001,45.0025 C56.6267,45.0025 56.184,44.9635 55.572,44.8853 C55.0121,44.7942 54.5759,44.7486 54.2634,44.7486 C53.9379,44.7486 53.5017,44.7942 52.9548,44.8853 C52.3689,44.9635 51.9327,45.0025 51.6462,45.0025 C51.49,45.0025 51.4118,44.9244 51.4118,44.7681 C51.4118,44.6119 51.49,44.5338 51.6462,44.5338 C52.0499,44.5338 52.4014,44.3515 52.7009,43.9869 C52.9743,43.6223 53.1111,43.1796 53.1111,42.6588 L53.1111,42.5025 L49.7712,42.5025 C49.5499,42.5025 49.3936,42.4504 49.3025,42.3463 C49.1983,42.2681 49.1462,42.164 49.1462,42.0338 C49.1462,41.9947 49.2439,41.858 49.4392,41.6236 C49.6605,41.3632 49.8949,41.0442 50.1423,40.6666 C50.4288,40.2239 50.7022,39.7681 50.9626,39.2994 C51.2491,38.7655 51.4769,38.1536 51.6462,37.4635 C51.8415,36.7603 51.9392,36.0442 51.9392,35.315 C51.9392,35.1067 52.0303,35.0025 52.2126,35.0025 C52.2517,35.0025 52.3363,35.0221 52.4665,35.0611 C52.5056,35.0741 52.587,35.0937 52.7107,35.1197 C52.8344,35.1457 52.9353,35.1718 53.0134,35.1978 C53.2478,35.2369 53.4691,35.2564 53.6775,35.2564"/>
<path class="TimeSig" d="M53.6775,45.2571 C54.0681,45.2571 54.4001,45.2115 54.6736,45.1203 C54.947,45.0292 55.1228,44.9836 55.2009,44.9836 C55.292,44.9836 55.3637,45.0097 55.4157,45.0617 C55.4548,45.1008 55.4808,45.1464 55.4939,45.1985 C55.4939,45.2245 55.4808,45.2636 55.4548,45.3156 L49.7712,51.9172 L53.1111,51.9172 L53.1111,49.3 C53.1111,49.1308 53.1566,48.9875 53.2478,48.8703 C53.404,48.7401 53.5342,48.662 53.6384,48.636 C53.8077,48.5578 54.016,48.3755 54.2634,48.0891 C54.4717,47.8547 54.7191,47.4446 55.0056,46.8586 C55.0446,46.7805 55.1032,46.7414 55.1814,46.7414 C55.3376,46.7414 55.4288,46.8326 55.4548,47.0149 L55.4548,51.9172 L56.8806,51.9172 C57.0629,51.9172 57.167,52.0149 57.1931,52.2102 C57.1931,52.4055 57.0889,52.5031 56.8806,52.5031 L55.4548,52.5031 L55.4548,52.6594 C55.4548,53.1802 55.585,53.6229 55.8454,53.9875 C56.1449,54.3521 56.4965,54.5344 56.9001,54.5344 C57.0564,54.5344 57.1345,54.6125 57.1345,54.7688 C57.1345,54.925 57.0564,55.0031 56.9001,55.0031 C56.6267,55.0031 56.184,54.9641 55.572,54.886 C55.0121,54.7948 54.5759,54.7492 54.2634,54.7492 C53.9379,54.7492 53.5017,54.7948 52.9548,54.886 C52.3689,54.9641 51.9327,55.0031 51.6462,55.0031 C51.49,55.0031 51.4118,54.925 51.4118,54.7688 C51.4118,54.6125 51.49,54.5344 51.6462,54.5344 C52.0499,54.5344 52.4014,54.3521 52.7009,53.9875 C52.9743,53.6229 53.1111,53.1802 53.1111,52.6594 L53.1111,52.5031 L49.7712,52.5031 C49.5499,52.5031 49.3936,52.4511 49.3025,52.3469 C49.1983,52.2688 49.1462,52.1646 49.1462,52.0344 C49.1462,51.9953 49.2439,51.8586 49.4392,51.6242 C49.6605,51.3638 49.8949,51.0448 50.1423,50.6672 C50.4288,50.2245 50.7022,49.7688 50.9626,49.3 C51.2491,48.7662 51.4769,48.1542 51.6462,47.4641 C51.8415,46.761 51.9392,46.0448 51.9392,45.3156 C51.9392,45.1073 52.0303,45.0031 52.2126,45.0031 C52.2517,45.0031 52.3363,45.0227 52.4665,45.0617 C52.5056,45.0748 52.587,45.0943 52.7107,45.1203 C52.8344,45.1464 52.9353,45.1724 53.0134,45.1985 C53.2478,45.2375 53.4691,45.2571 53.6775,45.2571"/>
<path class="Beam" fill-rule="evenodd" d="M419.713,43.7528 L531.377,43.7528 L531.377,46.2529 L419.713,46.2529 L419.713,43.7528 "/>
<path class="Beam" fill-rule="evenodd" d="M419.713,47.503 L531.377,47.503 L531.377,50.0031 L419.713,50.0031 L419.713,47.503 "/>
<path class="Beam" fill-rule="evenodd" d="M271.695,43.7528 L383.359,43.7528 L383.359,46.2529 L271.695,46.2529 L271.695,43.7528 "/>
<path class="Beam" fill-rule="evenodd" d="M271.695,47.503 L383.359,47.503 L383.359,50.0031 L271.695,50.0031 L271.695,47.503 "/>
<path class="Beam" fill-rule="evenodd" d="M153.28,43.7528 L213.137,43.7528 L213.137,46.2529 L153.28,46.2529 L153.28,43.7528 "/>
</svg>
