<?xml version="1.0" encoding="UTF-8" standalone="no"?>
<svg width="595.446px" height="90.7087px" viewBox="0 0 595.446 90.7087"
 xmlns="http://www.w3.org/2000/svg" xmlns:xlink="http://www.w3.org/1999/xlink" version="1.2" baseProfile="tiny">
<title>polyblog</title>
<desc>Generated by MuseScore 2.3.2</desc>
<polyline class="StaffLines" fill="none" stroke="#000000" stroke-width="0.40" stroke-linejoin="bevel" points="28.3465,35.0022 567.099,35.0022"/>
<polyline class="StaffLines" fill="none" stroke="#000000" stroke-width="0.40" stroke-linejoin="bevel" points="28.3465,40.0025 567.099,40.0025"/>
<polyline class="StaffLines" fill="none" stroke="#000000" stroke-width="0.40" stroke-linejoin="bevel" points="28.3465,45.0028 567.099,45.0028"/>
<polyline class="StaffLines" fill="none" stroke="#000000" stroke-width="0.40" stroke-linejoin="bevel" points="28.3465,50.0031 567.099,50.0031"/>
<polyline class="StaffLines" fill="none" stroke="#000000" stroke-width="0.40" stroke-linejoin="bevel" points="28.3465,55.0035 567.099,55.0035"/>
<polyline class="BarLine" fill="none" stroke="#000000" stroke-width="0.80" stroke-linejoin="bevel" points="562.199,35.0022 562.199,55.0035"/>
<polyline class="BarLine" fill="none" stroke="#000000" stroke-width="2.50" stroke-linejoin="bevel" points="565.849,35.0022 565.849,55.0035"/>
<polyline class="LedgerLine" fill="none" stroke="#000000" stroke-width="0.80" stroke-linecap="square" stroke-linejoin="bevel" points="518.977,60.0038 528.56,60.0038"/>
<polyline class="LedgerLine" fill="none" stroke="#000000" stroke-width="0.80" stroke-linecap="square" stroke-linejoin="bevel" points="477.655,60.0038 487.238,60.0038"/>
<polyline class="LedgerLine" fill="none" stroke="#000000" stroke-width="0.80" stroke-linecap="square" stroke-linejoin="bevel" points="436.333,60.0038 445.917,60.0038"/>
<polyline class="LedgerLine" fill="none" stroke="#000000" stroke-width="0.80" stroke-linecap="square" stroke-linejoin="bevel" points="395.011,60.0038 404.595,60.0038"/>
<polyline class="LedgerLine" fill="none" stroke="#000000" stroke-width="0.80" stroke-linecap="square" stroke-linejoin="bevel" points="353.689,60.0038 363.273,60.0038"/>
<polyline class="LedgerLine" fill="none" stroke="#000000" stroke-width="0.80" stroke-linecap="square" stroke-linejoin="bevel" points="312.368,60.0038 321.951,60.0038"/>
<polyline class="LedgerLine" fill="none" stroke="#000000" stroke-width="0.80" stroke-linecap="square" stroke-linejoin="bevel" points="271.046,60.0038 280.629,60.0038"/>
<polyline class="LedgerLine" fill="none" stroke="#000000" stroke-width="0.80" stroke-linecap="square" stroke-linejoin="bevel" points="229.724,60.0038 239.307,60.0038"/>
<polyline class="LedgerLine" fill="none" stroke="#000000" stroke-width="0.80" stroke-linecap="square" stroke-linejoin="bevel" points="188.402,60.0038 197.985,60.0038"/>
<polyline class="LedgerLine" fill="none" stroke="#000000" stroke-width="0.80" stroke-linecap="square" stroke-linejoin="bevel" points="147.08,60.0038 156.663,60.0038"/>
<polyline class="LedgerLine" fill="none" stroke="#000000" stroke-width="0.80" stroke-linecap="square" stroke-linejoin="bevel" points="105.758,60.0038 115.342,60.0038"/>
<polyline class="LedgerLine" fill="none" stroke="#000000" stroke-width="0.80" stroke-linecap="square" stroke-linejoin="bevel" points="64.4362,60.0038 74.0196,60.0038"/>
<polyline class="Stem" fill="none" stroke="#000000" stroke-width="0.65" stroke-linecap="round" stroke-linejoin="bevel" points="526.735,59.0647 526.735,45.0028"/>
<polyline class="Stem" fill="none" stroke="#000000" stroke-width="0.65" stroke-linecap="round" stroke-linejoin="bevel" points="485.413,59.0647 485.413,45.0028"/>
<polyline class="Stem" fill="none" stroke="#000000" stroke-width="0.65" stroke-linecap="round" stroke-linejoin="bevel" points="444.091,59.0647 444.091,45.0028"/>
<polyline class="Stem" fill="none" stroke="#000000" stroke-width="0.65" stroke-linecap="round" stroke-linejoin="bevel" points="402.77,59.0647 402.77,45.0028"/>
<polyline class="Stem" fill="none" stroke="#000000" stroke-width="0.65" stroke-linecap="round" stroke-linejoin="bevel" points="361.448,59.0647 361.448,45.0028"/>
<polyline class="Stem" fill="none" stroke="#000000" stroke-width="0.65" stroke-linecap="round" stroke-linejoin="bevel" points="320.126,59.0647 320.126,45.0028"/>
<polyline class="Stem" fill="none" stroke="#000000" stroke-width="0.65" stroke-linecap="round" stroke-linejoin="bevel" points="278.804,59.0647 278.804,45.0028"/>
<polyline class="Stem" fill="none" stroke="#000000" stroke-width="0.65" stroke-linecap="round" stroke-linejoin="bevel" points="237.482,59.0647 237.482,45.0028"/>
<polyline class="Stem" fill="none" stroke="#000000" stroke-width="0.65" stroke-linecap="round" stroke-linejoin="bevel" points="196.16,59.0647 196.16,45.0028"/>
<polyline class="Stem" fill="none" stroke="#000000" stroke-width="0.65" stroke-linecap="round" stroke-linejoin="bevel" points="154.838,59.0647 154.838,45.0028"/>
<polyline class="Stem" fill="none" stroke="#000000" stroke-width="0.65" stroke-linecap="round" stroke-linejoin="bevel" points="113.516,59.0647 113.516,45.0028"/>
<polyline class="Stem" fill="none" stroke="#000000" stroke-width="0.65" stroke-linecap="round" stroke-linejoin="bevel" points="72.1945,59.0647 72.1945,45.0028"/>
<path class="Note" d="M524.872,57.2499 C525.497,57.2499 526.024,57.4126 526.454,57.7382 C526.857,58.0897 527.059,58.5324 527.059,59.0663 C527.059,59.9647 526.597,60.8046 525.672,61.5858 C524.735,62.3671 523.732,62.7577 522.664,62.7577 C522.039,62.7577 521.512,62.5949 521.082,62.2694 C520.679,61.9178 520.477,61.4751 520.477,60.9413 C520.477,60.0428 520.946,59.203 521.883,58.4217 C522.795,57.6405 523.791,57.2499 524.872,57.2499"/>
<path class="Note" d="M483.55,57.2499 C484.175,57.2499 484.702,57.4126 485.132,57.7382 C485.535,58.0897 485.737,58.5324 485.737,59.0663 C485.737,59.9647 485.275,60.8046 484.35,61.5858 C483.413,62.3671 482.41,62.7577 481.343,62.7577 C480.718,62.7577 480.19,62.5949 479.761,62.2694 C479.357,61.9178 479.155,61.4751 479.155,60.9413 C479.155,60.0428 479.624,59.203 480.561,58.4217 C481.473,57.6405 482.469,57.2499 483.55,57.2499"/>
<path class="Note" d="M442.228,57.2499 C442.853,57.2499 443.38,57.4126 443.81,57.7382 C444.213,58.0897 444.415,58.5324 444.415,59.0663 C444.415,59.9647 443.953,60.8046 443.029,61.5858 C442.091,62.3671 441.088,62.7577 440.021,62.7577 C439.396,62.7577 438.868,62.5949 438.439,62.2694 C438.035,61.9178 437.833,61.4751 437.833,60.9413 C437.833,60.0428 438.302,59.203 439.239,58.4217 C440.151,57.6405 441.147,57.2499 442.228,57.2499"/>
<path class="Note" d="M400.906,57.2499 C401.531,57.2499 402.058,57.4126 402.488,57.7382 C402.892,58.0897 403.093,58.5324 403.093,59.0663 C403.093,59.9647 402.631,60.8046 401.707,61.5858 C400.769,62.3671 399.767,62.7577 398.699,62.7577 C398.074,62.7577 397.547,62.5949 397.117,62.2694 C396.713,61.9178 396.511,61.4751 396.511,60.9413 C396.511,60.0428 396.98,59.203 397.918,58.4217 C398.829,57.6405 399.825,57.2499 400.906,57.2499"/>
<path class="Note" d="M359.584,57.2499 C360.209,57.2499 360.736,57.4126 361.166,57.7382 C361.57,58.0897 361.772,58.5324 361.772,59.0663 C361.772,59.9647 361.309,60.8046 360.385,61.5858 C359.447,62.3671 358.445,62.7577 357.377,62.7577 C356.752,62.7577 356.225,62.5949 355.795,62.2694 C355.391,61.9178 355.189,61.4751 355.189,60.9413 C355.189,60.0428 355.658,59.203 356.596,58.4217 C357.507,57.6405 358.503,57.2499 359.584,57.2499"/>
<path class="Note" d="M318.262,57.2499 C318.887,57.2499 319.414,57.4126 319.844,57.7382 C320.248,58.0897 320.45,58.5324 320.45,59.0663 C320.45,59.9647 319.987,60.8046 319.063,61.5858 C318.125,62.3671 317.123,62.7577 316.055,62.7577 C315.43,62.7577 314.903,62.5949 314.473,62.2694 C314.069,61.9178 313.868,61.4751 313.868,60.9413 C313.868,60.0428 314.336,59.203 315.274,58.4217 C316.185,57.6405 317.181,57.2499 318.262,57.2499"/>
<path class="Note" d="M276.94,57.2499 C277.565,57.2499 278.093,57.4126 278.522,57.7382 C278.926,58.0897 279.128,58.5324 279.128,59.0663 C279.128,59.9647 278.666,60.8046 277.741,61.5858 C276.804,62.3671 275.801,62.7577 274.733,62.7577 C274.108,62.7577 273.581,62.5949 273.151,62.2694 C272.748,61.9178 272.546,61.4751 272.546,60.9413 C272.546,60.0428 273.014,59.203 273.952,58.4217 C274.863,57.6405 275.86,57.2499 276.94,57.2499"/>
<path class="Note" d="M235.618,57.2499 C236.243,57.2499 236.771,57.4126 237.2,57.7382 C237.604,58.0897 237.806,58.5324 237.806,59.0663 C237.806,59.9647 237.344,60.8046 236.419,61.5858 C235.482,62.3671 234.479,62.7577 233.411,62.7577 C232.786,62.7577 232.259,62.5949 231.829,62.2694 C231.426,61.9178 231.224,61.4751 231.224,60.9413 C231.224,60.0428 231.693,59.203 232.63,58.4217 C233.542,57.6405 234.538,57.2499 235.618,57.2499"/>
<path class="Note" d="M194.296,57.2499 C194.921,57.2499 195.449,57.4126 195.879,57.7382 C196.282,58.0897 196.484,58.5324 196.484,59.0663 C196.484,59.9647 196.022,60.8046 195.097,61.5858 C194.16,62.3671 193.157,62.7577 192.089,62.7577 C191.464,62.7577 190.937,62.5949 190.507,62.2694 C190.104,61.9178 189.902,61.4751 189.902,60.9413 C189.902,60.0428 190.371,59.203 191.308,58.4217 C192.22,57.6405 193.216,57.2499 194.296,57.2499"/>
<path class="Note" d="M152.975,57.2499 C153.6,57.2499 154.127,57.4126 154.557,57.7382 C154.96,58.0897 155.162,58.5324 155.162,59.0663 C155.162,59.9647 154.7,60.8046 153.775,61.5858 C152.838,62.3671 151.835,62.7577 150.768,62.7577 C150.143,62.7577 149.615,62.5949 149.186,62.2694 C148.782,61.9178 148.58,61.4751 148.58,60.9413 C148.58,60.0428 149.049,59.203 149.986,58.4217 C150.898,57.6405 151.894,57.2499 152.975,57.2499"/>
<path class="Note" d="M111.653,57.2499 C112.278,57.2499 112.805,57.4126 113.235,57.7382 C113.638,58.0897 113.84,58.5324 113.84,59.0663 C113.84,59.9647 113.378,60.8046 112.454,61.5858 C111.516,62.3671 110.513,62.7577 109.446,62.7577 C108.821,62.7577 108.293,62.5949 107.864,62.2694 C107.46,61.9178 107.258,61.4751 107.258,60.9413 C107.258,60.0428 107.727,59.203 108.664,58.4217 C109.576,57.6405 110.572,57.2499 111.653,57.2499"/>
<path class="Note" d="M70.3309,57.2499 C70.9559,57.2499 71.4832,57.4126 71.9129,57.7382 C72.3165,58.0897 72.5184,58.5324 72.5184,59.0663 C72.5184,59.9647 72.0561,60.8046 71.1316,61.5858 C70.1941,62.3671 69.1915,62.7577 68.1238,62.7577 C67.4988,62.7577 66.9715,62.5949 66.5418,62.2694 C66.1381,61.9178 65.9363,61.4751 65.9363,60.9413 C65.9363,60.0428 66.4051,59.203 67.3426,58.4217 C68.254,57.6405 69.2501,57.2499 70.3309,57.2499"/>
<path class="Clef" d="M38.8904,44.886 C38.8904,44.886 38.9295,44.886 39.0076,44.886 C39.0597,44.8729 39.1053,44.8664 39.1443,44.8664 C40.6026,44.8664 41.8006,45.3808 42.7381,46.4094 C43.6756,47.425 44.1443,48.6099 44.1443,49.9641 C44.1443,51.6438 43.4477,53.011 42.0545,54.0656 C41.6899,54.3521 41.2146,54.5865 40.6287,54.7688 C40.6938,55.6151 40.7263,56.2987 40.7263,56.8196 C40.7263,56.9237 40.7133,57.3013 40.6873,57.9524 C40.6352,59.1633 40.2185,60.2115 39.4373,61.0969 C38.6821,61.9693 37.7446,62.4055 36.6248,62.4055 C35.5701,62.4055 34.6717,62.0344 33.9295,61.2922 C33.1873,60.537 32.8162,59.6255 32.8162,58.5578 C32.8162,57.9979 33.031,57.5227 33.4607,57.1321 C33.9034,56.7414 34.4178,56.5461 35.0037,56.5461 C35.5245,56.5461 35.9607,56.7479 36.3123,57.1516 C36.6769,57.5292 36.8592,57.9979 36.8592,58.5578 C36.8592,59.0656 36.6769,59.5018 36.3123,59.8664 C35.9477,60.231 35.5115,60.4133 35.0037,60.4133 C34.7954,60.4133 34.5935,60.3742 34.3982,60.2961 C34.9711,61.1425 35.7329,61.5656 36.6834,61.5656 C37.5818,61.5656 38.3175,61.2011 38.8904,60.4719 C39.4894,59.7167 39.8149,58.8378 39.867,57.8352 C39.893,57.2102 39.906,56.8521 39.906,56.761 C39.906,56.0318 39.88,55.4328 39.8279,54.9641 C39.1769,55.0683 38.5974,55.1203 38.0896,55.1203 C36.2797,55.1203 34.7368,54.4042 33.4607,52.9719 C32.2107,51.5266 31.5857,49.8078 31.5857,47.8156 C31.5857,47.399 31.6248,46.9758 31.7029,46.5461 C31.781,46.1946 31.8787,45.8104 31.9959,45.3938 C32.061,45.1594 32.2368,44.7818 32.5232,44.261 C32.6274,44.1047 32.7446,43.9094 32.8748,43.675 C33.005,43.4406 33.0961,43.2844 33.1482,43.2063 C33.2784,42.9459 33.5323,42.5943 33.9099,42.1516 C34.0141,42.0344 34.1215,41.9042 34.2322,41.761 C34.3429,41.6177 34.4373,41.5005 34.5154,41.4094 C34.5935,41.3183 34.6521,41.2466 34.6912,41.1946 C34.7303,41.1425 35.0232,40.7974 35.5701,40.1594 C35.7003,40.0292 35.8273,39.8892 35.951,39.7395 C36.0747,39.5897 36.1756,39.4726 36.2537,39.3879 C36.3318,39.3033 36.3904,39.2414 36.4295,39.2024 C35.9607,37.6529 35.6678,36.4159 35.5506,35.4914 C35.4594,34.7492 35.4138,33.7336 35.4138,32.4446 C35.4138,31.3117 35.6743,30.2505 36.1951,29.261 C36.7029,28.2323 37.4125,27.3925 38.324,26.7414 C38.3891,26.7024 38.4542,26.6828 38.5193,26.6828 C38.6105,26.6828 38.6756,26.7024 38.7146,26.7414 C39.4178,27.5878 40.0232,28.688 40.531,30.0422 C41.0519,31.3964 41.3123,32.6268 41.3123,33.7336 C41.3123,34.9836 41.0128,36.1555 40.4138,37.2492 C39.7368,38.4081 38.8644,39.606 37.7967,40.843 C38.0701,41.7024 38.4347,43.05 38.8904,44.886 M40.5506,53.968 C41.2276,53.7206 41.755,53.2974 42.1326,52.6985 C42.5493,52.1255 42.7576,51.481 42.7576,50.7649 C42.7576,49.8404 42.4451,49.0201 41.8201,48.3039 C41.1821,47.5617 40.3683,47.1451 39.3787,47.0539 C39.9386,49.8013 40.3292,52.106 40.5506,53.968 M32.992,49.4563 C32.992,50.7453 33.5128,51.8781 34.5545,52.8547 C35.6222,53.8052 36.8201,54.2805 38.1482,54.2805 C38.6951,54.2805 39.2289,54.2414 39.7498,54.1633 C39.5414,52.1841 39.1313,49.8143 38.5193,47.0539 C37.7771,47.1321 37.1847,47.3925 36.742,47.8352 C36.3123,48.2909 36.0974,48.8052 36.0974,49.3781 C36.0974,50.3677 36.6248,51.1685 37.6795,51.7805 C37.7706,51.8716 37.8162,51.9693 37.8162,52.0735 C37.8162,52.1776 37.7706,52.2753 37.6795,52.3664 C37.6013,52.4576 37.5037,52.5031 37.3865,52.5031 C37.3735,52.5031 37.3149,52.4901 37.2107,52.4641 C36.4685,52.0604 35.8956,51.5396 35.492,50.9016 C35.1144,50.2245 34.9256,49.5409 34.9256,48.8508 C34.9256,47.9524 35.2055,47.1386 35.7654,46.4094 C36.3513,45.6802 37.1131,45.2115 38.0506,45.0031 C37.686,43.5448 37.3865,42.4055 37.1521,41.5852 C36.9438,41.8196 36.6931,42.1028 36.4002,42.4348 C36.1072,42.7668 35.9347,42.9654 35.8826,43.0305 C35.4138,43.6425 35.0558,44.1177 34.8084,44.4563 C34.3657,45.0683 34.0401,45.5956 33.8318,46.0383 C33.6105,46.5331 33.4151,47.0735 33.2459,47.6594 C33.0766,48.2193 32.992,48.8183 32.992,49.4563 M39.5154,29.593 C38.5388,30.0748 37.7706,30.7649 37.2107,31.6633 C36.6378,32.5878 36.3513,33.5839 36.3513,34.6516 C36.3513,35.5891 36.5857,36.8521 37.0545,38.4406 C37.992,37.3078 38.6951,36.2597 39.1638,35.2961 C39.6586,34.2805 39.906,33.2193 39.906,32.1125 C39.906,31.2792 39.7758,30.4393 39.5154,29.593"/>
<path class="TimeSig" d="M53.6775,35.2564 C54.0681,35.2564 54.4001,35.2109 54.6736,35.1197 C54.947,35.0286 55.1228,34.983 55.2009,34.983 C55.292,34.983 55.3637,35.009 55.4157,35.0611 C55.4548,35.1002 55.4808,35.1457 55.4939,35.1978 C55.4939,35.2239 55.4808,35.2629 55.4548,35.315 L49.7712,41.9166 L53.1111,41.9166 L53.1111,39.2994 C53.1111,39.1301 53.1566,38.9869 53.2478,38.8697 C53.404,38.7395 53.5342,38.6614 53.6384,38.6353 C53.8077,38.5572 54.016,38.3749 54.2634,38.0885 C54.4717,37.8541 54.7191,37.4439 55.0056,36.858 C55.0446,36.7799 55.1032,36.7408 55.1814,36.7408 C55.3376,36.7408 55.4288,36.8319 55.4548,37.0142 L55.4548,41.9166 L56.8806,41.9166 C57.0629,41.9166 57.167,42.0142 57.1931,42.2096 C57.1931,42.4049 57.0889,42.5025 56.8806,42.5025 L55.4548,42.5025 L55.4548,42.6588 C55.4548,43.1796 55.585,43.6223 55.8454,43.9869 C56.1449,44.3515 56.4965,44.5338 56.9001,44.5338 C57.0564,44.5338 57.1345,44.6119 57.1345,44.7681 C57.1345,44.9244 57.0564,45.0025 56.9001,45.0025 C56.6267,45.0025 56.184,44.9635 55.572,44.8853 C55.0121,44.7942 54.5759,44.7486 54.2634,44.7486 C53.9379,44.7486 53.5017,44.7942 52.9548,44.8853 C52.3689,44.9635 51.9327,45.0025 51.6462,45.0025 C51.49,45.0025 51.4118,44.9244 51.4118,44.7681 C51.4118,44.6119 51.49,44.5338 51.6462,44.5338 C52.0499,44.5338 52.4014,44.3515 52.7009,43.9869 C52.9743,43.6223 53.1111,43.1796 53.1111,42.6588 L53.1111,42.5025 L49.7712,42.5025 C49.5499,42.5025 49.3936,42.4504 49.3025,42.3463 C49.1983,42.2681 49.1462,42.164 49.1462,42.0338 C49.1462,41.9947 49.2439,41.858 49.4392,41.6236 C49.6605,41.3632 49.8949,41.0442 50.1423,40.6666 C50.4288,40.2239 50.7022,39.7681 50.9626,39.2994 C51.2491,38.7655 51.4769,38.1536 51.6462,37.4635 C51.8415,36.7603 51.9392,36.0442 51.9392,35.315 C51.9392,35.1067 52.0303,35.0025 52.2126,35.0025 C52.2517,35.0025 52.3363,35.0221 52.4665,35.0611 C52.5056,35.0741 52.587,35.0937 52.7107,35.1197 C52.8344,35.1457 52.9353,35.1718 53.0134,35.1978 C53.2478,35.2369 53.4691,35.2564 53.6775,35.2564"/>
<path class="TimeSig" d="M53.6775,45.2571 C54.0681,45.2571 54.4001,45.2115 54.6736,45.1203 C54.947,45.0292 55.1228,44.9836 55.2009,44.9836 C55.292,44.9836 55.3637,45.0097 55.4157,45.0617 C55.4548,45.1008 55.4808,45.1464 55.4939,45.1985 C55.4939,45.2245 55.4808,45.2636 55.4548,45.3156 L49.7712,51.9172 L53.1111,51.9172 L53.1111,49.3 C53.1111,49.1308 53.1566,48.9875 53.2478,48.8703 C53.404,48.7401 53.5342,48.662 53.6384,48.636 C53.8077,48.5578 54.016,48.3755 54.2634,48.0891 C54.4717,47.8547 54.7191,47.4446 55.0056,46.8586 C55.0446,46.7805 55.1032,46.7414 55.1814,46.7414 C55.3376,46.7414 55.4288,46.8326 55.4548,47.0149 L55.4548,51.9172 L56.8806,51.9172 C57.0629,51.9172 57.167,52.0149 57.1931,52.2102 C57.1931,52.4055 57.0889,52.5031 56.8806,52.5031 L55.4548,52.5031 L55.4548,52.6594 C55.4548,53.1802 55.585,53.6229 55.8454,53.9875 C56.1449,54.3521 56.4965,54.5344 56.9001,54.5344 C57.0564,54.5344 57.1345,54.6125 57.1345,54.7688 C57.1345,54.925 57.0564,55.0031 56.9001,55.0031 C56.6267,55.0031 56.184,54.9641 55.572,54.886 C55.0121,54.7948 54.5759,54.7492 54.2634,54.7492 C53.9379,54.7492 53.5017,54.7948 52.9548,54.886 C52.3689,54.9641 51.9327,55.0031 51.6462,55.0031 C51.49,55.0031 51.4118,54.925 51.4118,54.7688 C51.4118,54.6125 51.49,54.5344 51.6462,54.5344 C52.0499,54.5344 52.4014,54.3521 52.7009,53.9875 C52.9743,53.6229 53.1111,53.1802 53.1111,52.6594 L53.1111,52.5031 L49.7712,52.5031 C49.5499,52.5031 49.3936,52.4511 49.3025,52.3469 C49.1983,52.2688 49.1462,52.1646 49.1462,52.0344 C49.1462,51.9953 49.2439,51.8586 49.4392,51.6242 C49.6605,51.3638 49.8949,51.0448 50.1423,50.6672 C50.4288,50.2245 50.7022,49.7688 50.9626,49.3 C51.2491,48.7662 51.4769,48.1542 51.6462,47.4641 C51.8415,46.761 51.9392,46.0448 51.9392,45.3156 C51.9392,45.1073 52.0303,45.0031 52.2126,45.0031 C52.2517,45.0031 52.3363,45.0227 52.4665,45.0617 C52.5056,45.0748 52.587,45.0943 52.7107,45.1203 C52.8344,45.1464 52.9353,45.1724 53.0134,45.1985 C53.2478,45.2375 53.4691,45.2571 53.6775,45.2571"/>
<path class="Beam" fill-rule="evenodd" d="M443.766,43.7528 L527.06,43.7528 L527.06,46.2529 L443.766,46.2529 L443.766,43.7528 "/>
<path class="Beam" fill-rule="evenodd" d="M319.801,43.7528 L403.095,43.7528 L403.095,46.2529 L319.801,46.2529 L319.801,43.7528 "/>
<path class="Beam" fill-rule="evenodd" d="M195.835,43.7528 L279.129,43.7528 L279.129,46.2529 L195.835,46.2529 L195.835,43.7528 "/>
<path class="Beam" fill-rule="evenodd" d="M71.8695,43.7528 L155.163,43.7528 L155.163,46.2529 L71.8695,46.2529 L71.8695,43.7528 "/>
<path class="Tuplet" transform="matrix(0.01,0,0,0.01,482.588,31.7518)" d="M140,-377 C299.333,-403 379,-458.333 379,-543 C379,-570.333 370.833,-592.333 354.5,-609 C338.167,-625.667 316.667,-634 290,-634 C249.333,-634 212,-611.667 178,-567 L162,-572 C178.667,-604.615 201.5,-630.435 230.5,-649.461 C259.5,-668.487 291.333,-678 326,-678 C366,-678 399.333,-665.81 426,-641.43 C452.667,-617.049 466,-586.24 466,-549 C466,-515 455.167,-487.667 433.5,-467 C411.833,-446.333 370.667,-424.333 310,-401 L310,-398 C374,-368.667 406,-319 406,-249 C406,-179.667 380.333,-119.667 329,-69 C277.667,-18.3333 210.333,7 127,7 C52.3333,7 15,-12.6667 15,-52 C15,-78 29.6667,-91 59,-91 C75.6667,-91 98,-81 126,-61 C154,-41 177,-31 195,-31 C231,-31 261.833,-46.1667 287.5,-76.5 C313.167,-106.833 326,-146.333 326,-195 C326,-257.667 310.333,-301 279,-325 C247.667,-349 201.333,-361 140,-361 L140,-377 "/>
<path class="Tuplet" transform="matrix(0.01,0,0,0.01,358.623,31.7518)" d="M140,-377 C299.333,-403 379,-458.333 379,-543 C379,-570.333 370.833,-592.333 354.5,-609 C338.167,-625.667 316.667,-634 290,-634 C249.333,-634 212,-611.667 178,-567 L162,-572 C178.667,-604.615 201.5,-630.435 230.5,-649.461 C259.5,-668.487 291.333,-678 326,-678 C366,-678 399.333,-665.81 426,-641.43 C452.667,-617.049 466,-586.24 466,-549 C466,-515 455.167,-487.667 433.5,-467 C411.833,-446.333 370.667,-424.333 310,-401 L310,-398 C374,-368.667 406,-319 406,-249 C406,-179.667 380.333,-119.667 329,-69 C277.667,-18.3333 210.333,7 127,7 C52.3333,7 15,-12.6667 15,-52 C15,-78 29.6667,-91 59,-91 C75.6667,-91 98,-81 126,-61 C154,-41 177,-31 195,-31 C231,-31 261.833,-46.1667 287.5,-76.5 C313.167,-106.833 326,-146.333 326,-195 C326,-257.667 310.333,-301 279,-325 C247.667,-349 201.333,-361 140,-361 L140,-377 "/>
<path class="Tuplet" transform="matrix(0.01,0,0,0.01,234.657,31.7518)" d="M140,-377 C299.333,-403 379,-458.333 379,-543 C379,-570.333 370.833,-592.333 354.5,-609 C338.167,-625.667 316.667,-634 290,-634 C249.333,-634 212,-611.667 178,-567 L162,-572 C178.667,-604.615 201.5,-630.435 230.5,-649.461 C259.5,-668.487 291.333,-678 326,-678 C366,-678 399.333,-665.81 426,-641.43 C452.667,-617.049 466,-586.24 466,-549 C466,-515 455.167,-487.667 433.5,-467 C411.833,-446.333 370.667,-424.333 310,-401 L310,-398 C374,-368.667 406,-319 406,-249 C406,-179.667 380.333,-119.667 329,-69 C277.667,-18.3333 210.333,7 127,7 C52.3333,7 15,-12.6667 15,-52 C15,-78 29.6667,-91 59,-91 C75.6667,-91 98,-81 126,-61 C154,-41 177,-31 195,-31 C231,-31 261.833,-46.1667 287.5,-76.5 C313.167,-106.833 326,-146.333 326,-195 C326,-257.667 310.333,-301 279,-325 C247.667,-349 201.333,-361 140,-361 L140,-377 "/>
<path class="Tuplet" transform="matrix(0.01,0,0,0.01,110.691,31.7518)" d="M140,-377 C299.333,-403 379,-458.333 379,-543 C379,-570.333 370.833,-592.333 354.5,-609 C338.167,-625.667 316.667,-634 290,-634 C249.333,-634 212,-611.667 178,-567 L162,-572 C178.667,-604.615 201.5,-630.435 230.5,-649.461 C259.5,-668.487 291.333,-678 326,-678 C366,-678 399.333,-665.81 426,-641.43 C452.667,-617.049 466,-586.24 466,-549 C466,-515 455.167,-487.667 433.5,-467 C411.833,-446.333 370.667,-424.333 310,-401 L310,-398 C374,-368.667 406,-319 406,-249 C406,-179.667 380.333,-119.667 329,-69 C277.667,-18.3333 210.333,7 127,7 C52.3333,7 15,-12.6667 15,-52 C15,-78 29.6667,-91 59,-91 C75.6667,-91 98,-81 126,-61 C154,-41 177,-31 195,-31 C231,-31 261.833,-46.1667 287.5,-76.5 C313.167,-106.833 326,-146.333 326,-195 C326,-257.667 310.333,-301 279,-325 C247.667,-349 201.333,-361 140,-361 L140,-377 "/>
</svg>
