<?xml version="1.0" encoding="utf-8" standalone="no"?>
<!DOCTYPE svg PUBLIC "-//W3C//DTD SVG 1.1//EN"
  "http://www.w3.org/Graphics/SVG/1.1/DTD/svg11.dtd">
<!-- Created with matplotlib (http://matplotlib.org/) -->
<svg height="72pt" version="1.1" viewBox="0 0 576 72" width="576pt" xmlns="http://www.w3.org/2000/svg" xmlns:xlink="http://www.w3.org/1999/xlink">
 <defs>
  <style type="text/css">
*{stroke-linecap:butt;stroke-linejoin:round;}
  </style>
 </defs>
 <g id="figure_1">
  <g id="patch_1">
   <path d="M 0 72 
L 576 72 
L 576 0 
L 0 0 
z
" style="fill:#ffffff;"/>
  </g>
  <g id="axes_1">
   <g id="PathCollection_1">
    <defs>
     <path d="M 0 3 
C 0.795609 3 1.55874 2.683901 2.12132 2.12132 
C 2.683901 1.55874 3 0.795609 3 0 
C 3 -0.795609 2.683901 -1.55874 2.12132 -2.12132 
C 1.55874 -2.683901 0.795609 -3 0 -3 
C -0.795609 -3 -1.55874 -2.683901 -2.12132 -2.12132 
C -2.683901 -1.55874 -3 -0.795609 -3 0 
C -3 0.795609 -2.683901 1.55874 -2.12132 2.12132 
C -1.55874 2.683901 -0.795609 3 0 3 
z
" id="me5296e743d" style="stroke:#ffffff;"/>
    </defs>
    <g clip-path="url(#p26a2dd39c5)">
     <use style="fill:#ffffff;stroke:#ffffff;" x="93.730876" xlink:href="#me5296e743d" y="11.365237"/>
     <use style="fill:#ffffff;stroke:#ffffff;" x="228.043625" xlink:href="#me5296e743d" y="49.768726"/>
     <use style="fill:#ffffff;stroke:#ffffff;" x="362.356375" xlink:href="#me5296e743d" y="49.768726"/>
     <use style="fill:#ffffff;stroke:#ffffff;" x="496.669124" xlink:href="#me5296e743d" y="49.768726"/>
    </g>
   </g>
   <g id="PathCollection_2">
    <defs>
     <path d="M 0 3 
C 0.795609 3 1.55874 2.683901 2.12132 2.12132 
C 2.683901 1.55874 3 0.795609 3 0 
C 3 -0.795609 2.683901 -1.55874 2.12132 -2.12132 
C 1.55874 -2.683901 0.795609 -3 0 -3 
C -0.795609 -3 -1.55874 -2.683901 -2.12132 -2.12132 
C -2.683901 -1.55874 -3 -0.795609 -3 0 
C -3 0.795609 -2.683901 1.55874 -2.12132 2.12132 
C -1.55874 2.683901 -0.795609 3 0 3 
z
" id="m44e3e761d3" style="stroke:#ff0000;"/>
    </defs>
    <g clip-path="url(#p26a2dd39c5)">
     <use style="fill:#ff0000;stroke:#ff0000;" x="93.730876" xlink:href="#m44e3e761d3" y="49.768726"/>
     <use style="fill:#ff0000;stroke:#ff0000;" x="228.043625" xlink:href="#m44e3e761d3" y="49.768726"/>
     <use style="fill:#ff0000;stroke:#ff0000;" x="362.356375" xlink:href="#m44e3e761d3" y="49.768726"/>
     <use style="fill:#ff0000;stroke:#ff0000;" x="496.669124" xlink:href="#m44e3e761d3" y="49.768726"/>
    </g>
   </g>
   <g id="PathCollection_3">
    <g clip-path="url(#p26a2dd39c5)">
     <use style="fill:#ffffff;stroke:#ffffff;" x="93.730876" xlink:href="#me5296e743d" y="59.369598"/>
    </g>
   </g>
   <g id="PathCollection_4">
    <defs>
     <path d="M 0 3 
C 0.795609 3 1.55874 2.683901 2.12132 2.12132 
C 2.683901 1.55874 3 0.795609 3 0 
C 3 -0.795609 2.683901 -1.55874 2.12132 -2.12132 
C 1.55874 -2.683901 0.795609 -3 0 -3 
C -0.795609 -3 -1.55874 -2.683901 -2.12132 -2.12132 
C -2.683901 -1.55874 -3 -0.795609 -3 0 
C -3 0.795609 -2.683901 1.55874 -2.12132 2.12132 
C -1.55874 2.683901 -0.795609 3 0 3 
z
" id="mb1d15699f7" style="stroke:#0000ff;"/>
    </defs>
    <g clip-path="url(#p26a2dd39c5)">
     <use style="fill:#0000ff;stroke:#0000ff;" x="93.730876" xlink:href="#mb1d15699f7" y="30.566981"/>
     <use style="fill:#0000ff;stroke:#0000ff;" x="194.465438" xlink:href="#mb1d15699f7" y="30.566981"/>
     <use style="fill:#0000ff;stroke:#0000ff;" x="295.2" xlink:href="#mb1d15699f7" y="30.566981"/>
     <use style="fill:#0000ff;stroke:#0000ff;" x="395.934562" xlink:href="#mb1d15699f7" y="30.566981"/>
     <use style="fill:#0000ff;stroke:#0000ff;" x="496.669124" xlink:href="#mb1d15699f7" y="30.566981"/>
    </g>
   </g>
  </g>
 </g>
 <defs>
  <clipPath id="p26a2dd39c5">
   <rect height="54.36" width="446.4" x="72" y="8.64"/>
  </clipPath>
 </defs>
</svg>
