<?xml version="1.0" standalone="no"?><!-- Generator: Gravit.io --><svg xmlns="http://www.w3.org/2000/svg" xmlns:xlink="http://www.w3.org/1999/xlink" style="isolation:isolate" viewBox="0 0 426 386" width="426" height="386"><defs><clipPath id="_clipPath_Bzxz7vgpWPN1xHBsCxP34M0bM6hLC7mX"><rect width="426" height="386"/></clipPath></defs><g clip-path="url(#_clipPath_Bzxz7vgpWPN1xHBsCxP34M0bM6hLC7mX)"><path d="M 9.849 3 L 56.151 3 C 59.931 3 63 6.069 63 9.849 L 63 376.151 C 63 379.931 59.931 383 56.151 383 L 9.849 383 C 6.069 383 3 379.931 3 376.151 L 3 9.849 C 3 6.069 6.069 3 9.849 3 Z" style="stroke:none;fill:#D6ECDB;stroke-miterlimit:10;"/><path d="M 9.849 3 L 56.151 3 C 59.931 3 63 6.069 63 9.849 L 63 376.151 C 63 379.931 59.931 383 56.151 383 L 9.849 383 C 6.069 383 3 379.931 3 376.151 L 3 9.849 C 3 6.069 6.069 3 9.849 3 Z" style="fill:none;stroke:#2B7D3E;stroke-width:2;stroke-linecap:square;stroke-miterlimit:3;"/><path d="M 369.849 3 L 416.151 3 C 419.931 3 423 6.069 423 9.849 L 423 376.151 C 423 379.931 419.931 383 416.151 383 L 369.849 383 C 366.069 383 363 379.931 363 376.151 L 363 9.849 C 363 6.069 366.069 3 369.849 3 Z" style="stroke:none;fill:#ECD7D6;stroke-linecap:square;stroke-miterlimit:3;"/><path d="M 369.849 3 L 416.151 3 C 419.931 3 423 6.069 423 9.849 L 423 376.151 C 423 379.931 419.931 383 416.151 383 L 369.849 383 C 366.069 383 363 379.931 363 376.151 L 363 9.849 C 363 6.069 366.069 3 369.849 3 Z" style="fill:none;stroke:#DD5C55;stroke-width:2;stroke-linecap:square;stroke-miterlimit:3;"/><path d="M 187.714 103 L 238.286 103 C 240.888 103 243 105.112 243 107.714 L 243 278.286 C 243 280.888 240.888 283 238.286 283 L 187.714 283 C 185.112 283 183 280.888 183 278.286 L 183 107.714 C 183 105.112 185.112 103 187.714 103 Z" style="stroke:none;fill:#E3E3E3;stroke-linecap:square;stroke-miterlimit:3;"/><path d="M 187.714 103 L 238.286 103 C 240.888 103 243 105.112 243 107.714 L 243 278.286 C 243 280.888 240.888 283 238.286 283 L 187.714 283 C 185.112 283 183 280.888 183 278.286 L 183 107.714 C 183 105.112 185.112 103 187.714 103 Z" style="fill:none;stroke:#000000;stroke-width:1;stroke-linecap:square;stroke-miterlimit:3;"/><path d=" M 13 53 C 13 41.962 21.962 33 33 33 C 44.038 33 53 41.962 53 53 C 53 64.038 44.038 73 33 73 C 21.962 73 13 64.038 13 53 Z " fill="rgb(255,255,255)" vector-effect="non-scaling-stroke" stroke-width="2" stroke="rgb(0,0,0)" stroke-linejoin="miter" stroke-linecap="square" stroke-miterlimit="3"/><path d=" M 13 103 C 13 91.962 21.962 83 33 83 C 44.038 83 53 91.962 53 103 C 53 114.038 44.038 123 33 123 C 21.962 123 13 114.038 13 103 Z " fill="rgb(255,255,255)" vector-effect="non-scaling-stroke" stroke-width="2" stroke="rgb(0,0,0)" stroke-linejoin="miter" stroke-linecap="square" stroke-miterlimit="3"/><path d=" M 13 153 C 13 141.962 21.962 133 33 133 C 44.038 133 53 141.962 53 153 C 53 164.038 44.038 173 33 173 C 21.962 173 13 164.038 13 153 Z " fill="rgb(255,255,255)" vector-effect="non-scaling-stroke" stroke-width="2" stroke="rgb(0,0,0)" stroke-linejoin="miter" stroke-linecap="square" stroke-miterlimit="3"/><path d=" M 13 253 C 13 241.962 21.962 233 33 233 C 44.038 233 53 241.962 53 253 C 53 264.038 44.038 273 33 273 C 21.962 273 13 264.038 13 253 Z " fill="rgb(255,255,255)" vector-effect="non-scaling-stroke" stroke-width="2" stroke="rgb(0,0,0)" stroke-linejoin="miter" stroke-linecap="square" stroke-miterlimit="3"/><path d=" M 13 303 C 13 291.962 21.962 283 33 283 C 44.038 283 53 291.962 53 303 C 53 314.038 44.038 323 33 323 C 21.962 323 13 314.038 13 303 Z " fill="rgb(255,255,255)" vector-effect="non-scaling-stroke" stroke-width="2" stroke="rgb(0,0,0)" stroke-linejoin="miter" stroke-linecap="square" stroke-miterlimit="3"/><path d=" M 13 353 C 13 341.962 21.962 333 33 333 C 44.038 333 53 341.962 53 353 C 53 364.038 44.038 373 33 373 C 21.962 373 13 364.038 13 353 Z " fill="rgb(255,255,255)" vector-effect="non-scaling-stroke" stroke-width="2" stroke="rgb(0,0,0)" stroke-linejoin="miter" stroke-linecap="square" stroke-miterlimit="3"/><path d=" M 373 53 C 373 41.962 381.962 33 393 33 C 404.038 33 413 41.962 413 53 C 413 64.038 404.038 73 393 73 C 381.962 73 373 64.038 373 53 Z " fill="rgb(255,255,255)" vector-effect="non-scaling-stroke" stroke-width="2" stroke="rgb(0,0,0)" stroke-linejoin="miter" stroke-linecap="square" stroke-miterlimit="3"/><path d=" M 373 103 C 373 91.962 381.962 83 393 83 C 404.038 83 413 91.962 413 103 C 413 114.038 404.038 123 393 123 C 381.962 123 373 114.038 373 103 Z " fill="rgb(255,255,255)" vector-effect="non-scaling-stroke" stroke-width="2" stroke="rgb(0,0,0)" stroke-linejoin="miter" stroke-linecap="square" stroke-miterlimit="3"/><path d=" M 373 153 C 373 141.962 381.962 133 393 133 C 404.038 133 413 141.962 413 153 C 413 164.038 404.038 173 393 173 C 381.962 173 373 164.038 373 153 Z " fill="rgb(255,255,255)" vector-effect="non-scaling-stroke" stroke-width="2" stroke="rgb(0,0,0)" stroke-linejoin="miter" stroke-linecap="square" stroke-miterlimit="3"/><path d=" M 373 253 C 373 241.962 381.962 233 393 233 C 404.038 233 413 241.962 413 253 C 413 264.038 404.038 273 393 273 C 381.962 273 373 264.038 373 253 Z " fill="rgb(255,255,255)" vector-effect="non-scaling-stroke" stroke-width="2" stroke="rgb(0,0,0)" stroke-linejoin="miter" stroke-linecap="square" stroke-miterlimit="3"/><path d=" M 373 303 C 373 291.962 381.962 283 393 283 C 404.038 283 413 291.962 413 303 C 413 314.038 404.038 323 393 323 C 381.962 323 373 314.038 373 303 Z " fill="rgb(255,255,255)" vector-effect="non-scaling-stroke" stroke-width="2" stroke="rgb(0,0,0)" stroke-linejoin="miter" stroke-linecap="square" stroke-miterlimit="3"/><path d=" M 373 353 C 373 341.962 381.962 333 393 333 C 404.038 333 413 341.962 413 353 C 413 364.038 404.038 373 393 373 C 381.962 373 373 364.038 373 353 Z " fill="rgb(255,255,255)" vector-effect="non-scaling-stroke" stroke-width="2" stroke="rgb(0,0,0)" stroke-linejoin="miter" stroke-linecap="square" stroke-miterlimit="3"/><path d=" M 193 153 C 193 141.962 201.962 133 213 133 C 224.038 133 233 141.962 233 153 C 233 164.038 224.038 173 213 173 C 201.962 173 193 164.038 193 153 Z " fill="rgb(255,255,255)" vector-effect="non-scaling-stroke" stroke-width="2" stroke="rgb(0,0,0)" stroke-linejoin="miter" stroke-linecap="square" stroke-miterlimit="3"/><path d=" M 193 203 C 193 191.962 201.962 183 213 183 C 224.038 183 233 191.962 233 203 C 233 214.038 224.038 223 213 223 C 201.962 223 193 214.038 193 203 Z " fill="rgb(255,255,255)" vector-effect="non-scaling-stroke" stroke-width="2" stroke="rgb(0,0,0)" stroke-linejoin="miter" stroke-linecap="square" stroke-miterlimit="3"/><path d=" M 193 253 C 193 241.962 201.962 233 213 233 C 224.038 233 233 241.962 233 253 C 233 264.038 224.038 273 213 273 C 201.962 273 193 264.038 193 253 Z " fill="rgb(255,255,255)" vector-effect="non-scaling-stroke" stroke-width="2" stroke="rgb(0,0,0)" stroke-linejoin="miter" stroke-linecap="square" stroke-miterlimit="3"/><line x1="33" y1="183.667" x2="33" y2="223.667" vector-effect="non-scaling-stroke" stroke-width="2" stroke-dasharray="0,9" stroke="rgb(0,0,0)" stroke-linejoin="miter" stroke-linecap="square" stroke-miterlimit="3"/><line x1="393.667" y1="183.667" x2="393.667" y2="223.667" vector-effect="non-scaling-stroke" stroke-width="2" stroke-dasharray="0,9" stroke="rgb(0,0,0)" stroke-linejoin="miter" stroke-linecap="square" stroke-miterlimit="3"/><path d=" M 53 303 L 193 253 L 53 353" fill="none" vector-effect="non-scaling-stroke" stroke-width="2" stroke="rgb(43,125,62)" stroke-linejoin="miter" stroke-linecap="square" stroke-miterlimit="3"/><path d=" M 53 303 L 193 203 L 53 353" fill="none" vector-effect="non-scaling-stroke" stroke-width="2" stroke="rgb(43,125,62)" stroke-linejoin="miter" stroke-linecap="square" stroke-miterlimit="3"/><path d=" M 53 303 L 193 153 L 53 353" fill="none" vector-effect="non-scaling-stroke" stroke-width="2" stroke="rgb(43,125,62)" stroke-linejoin="miter" stroke-linecap="square" stroke-miterlimit="3"/><path d=" M 53 53 L 193 153 L 53 253" fill="none" vector-effect="non-scaling-stroke" stroke-width="2" stroke="rgb(43,125,62)" stroke-linejoin="miter" stroke-linecap="square" stroke-miterlimit="3"/><path d=" M 53 53 L 193 203 L 53 253" fill="none" vector-effect="non-scaling-stroke" stroke-width="2" stroke="rgb(43,125,62)" stroke-linejoin="miter" stroke-linecap="square" stroke-miterlimit="3"/><path d=" M 53 53 L 193 253 L 53 253" fill="none" vector-effect="non-scaling-stroke" stroke-width="2" stroke="rgb(43,125,62)" stroke-linejoin="miter" stroke-linecap="square" stroke-miterlimit="3"/><path d=" M 53 153 L 193 153 L 53 103" fill="none" vector-effect="non-scaling-stroke" stroke-width="2" stroke="rgb(43,125,62)" stroke-linejoin="miter" stroke-linecap="square" stroke-miterlimit="3"/><path d=" M 53 153 L 193 203 L 53 103" fill="none" vector-effect="non-scaling-stroke" stroke-width="2" stroke="rgb(43,125,62)" stroke-linejoin="miter" stroke-linecap="square" stroke-miterlimit="3"/><path d=" M 53 153 L 193 253 L 53 103" fill="none" vector-effect="non-scaling-stroke" stroke-width="2" stroke="rgb(43,125,62)" stroke-linejoin="miter" stroke-linecap="square" stroke-miterlimit="3"/><path d=" M 373 303 L 233 253 L 373 353" fill="none" vector-effect="non-scaling-stroke" stroke-width="2" stroke="rgb(221,92,85)" stroke-linejoin="miter" stroke-linecap="square" stroke-miterlimit="3"/><path d=" M 373 303 L 233 203 L 373 353" fill="none" vector-effect="non-scaling-stroke" stroke-width="2" stroke="rgb(221,92,85)" stroke-linejoin="miter" stroke-linecap="square" stroke-miterlimit="3"/><path d=" M 373 303 L 233 153 L 373 353" fill="none" vector-effect="non-scaling-stroke" stroke-width="2" stroke="rgb(221,92,85)" stroke-linejoin="miter" stroke-linecap="square" stroke-miterlimit="3"/><path d=" M 373 53 L 233 153 L 373 253" fill="none" vector-effect="non-scaling-stroke" stroke-width="2" stroke="rgb(221,92,85)" stroke-linejoin="miter" stroke-linecap="square" stroke-miterlimit="3"/><path d=" M 373 53 L 233 203 L 373 253" fill="none" vector-effect="non-scaling-stroke" stroke-width="2" stroke="rgb(221,92,85)" stroke-linejoin="miter" stroke-linecap="square" stroke-miterlimit="3"/><path d=" M 373 53 L 233 253 L 373 253" fill="none" vector-effect="non-scaling-stroke" stroke-width="2" stroke="rgb(221,92,85)" stroke-linejoin="miter" stroke-linecap="square" stroke-miterlimit="3"/><path d=" M 373 153 L 233 153 L 373 103" fill="none" vector-effect="non-scaling-stroke" stroke-width="2" stroke="rgb(221,92,85)" stroke-linejoin="miter" stroke-linecap="square" stroke-miterlimit="3"/><path d=" M 373 153 L 233 203 L 373 103" fill="none" vector-effect="non-scaling-stroke" stroke-width="2" stroke="rgb(221,92,85)" stroke-linejoin="miter" stroke-linecap="square" stroke-miterlimit="3"/><path d=" M 373 153 L 233 253 L 373 103" fill="none" vector-effect="non-scaling-stroke" stroke-width="2" stroke="rgb(221,92,85)" stroke-linejoin="miter" stroke-linecap="square" stroke-miterlimit="3"/><g transform="matrix(1,0,0,1,12,4)"><text transform="matrix(1,0,0,1,0,17.102)" style="font-family:&quot;Open Sans&quot;;font-weight:400;font-size:16px;font-style:normal;fill:#569865;stroke:none;">Input</text></g><g transform="matrix(1,0,0,1,365,5)"><text transform="matrix(1,0,0,1,0,17.102)" style="font-family:&quot;Open Sans&quot;;font-weight:400;font-size:16px;font-style:normal;fill:#e5847e;stroke:none;">Output</text></g><g transform="matrix(1,0,0,1,208,106.211)"><text transform="matrix(1,0,0,1,0,17.102)" style="font-family:&quot;Open Sans&quot;;font-weight:400;font-size:16px;font-style:normal;fill:#000000;stroke:none;">z</text></g></g></svg>