<?xml version="1.0" encoding="utf-8" standalone="no"?>
<!DOCTYPE svg PUBLIC "-//W3C//DTD SVG 1.1//EN"
  "http://www.w3.org/Graphics/SVG/1.1/DTD/svg11.dtd">
<!-- Created with matplotlib (http://matplotlib.org/) -->
<svg height="288pt" version="1.1" viewBox="0 0 432 288" width="432pt" xmlns="http://www.w3.org/2000/svg" xmlns:xlink="http://www.w3.org/1999/xlink">
 <defs>
  <style type="text/css">
*{stroke-linecap:butt;stroke-linejoin:round;}
  </style>
 </defs>
 <g id="figure_1">
  <g id="patch_1">
   <path d="M 0 288 
L 432 288 
L 432 0 
L 0 0 
z
" style="fill:#ffffff;"/>
  </g>
  <g id="axes_1">
   <g id="line2d_1">
    <path clip-path="url(#pc92a6dbc93)" d="M 116.760839 94.4 
L 116.652217 87.973686 
L 116.32687 81.670459 
L 115.78636 75.611048 
L 115.110434 70.411851 
L 114.261495 65.592479 
L 113.352288 61.643005 
L 112.308575 58.113758 
L 111.270609 55.366164 
L 110.13164 53.014313 
L 109.054451 51.299923 
L 107.904232 49.920153 
L 106.861892 49.012015 
L 105.769023 48.362815 
L 104.627183 47.976257 
L 103.639416 47.85639 
L 102.412077 47.955979 
L 101.140558 48.32053 
L 99.826672 48.947964 
L 98.472294 49.834702 
L 96.84359 51.190129 
L 95.165566 52.881028 
L 93.191619 55.207311 
L 90.90526 58.298007 
L 88.556443 61.851841 
L 85.882569 66.288095 
L 82.599361 72.192465 
L 78.689868 79.710371 
L 73.014942 91.179122 
L 63.358914 110.747143 
L 59.190541 118.638799 
L 55.932726 124.343925 
L 53.284713 128.582031 
L 50.962736 131.935313 
L 48.706505 134.807071 
L 46.76202 136.925571 
L 45.111786 138.426215 
L 43.51269 139.585048 
L 42.185096 140.299388 
L 40.89925 140.751872 
L 39.656986 140.93992 
L 38.460078 140.862458 
L 37.498536 140.59536 
L 36.389166 140.033369 
L 35.329814 139.211041 
L 34.321992 138.133066 
L 33.367136 136.805595 
L 32.321896 134.951723 
L 31.352631 132.783017 
L 30.340337 129.940689 
L 29.432297 126.738034 
L 28.538224 122.744904 
L 27.781873 118.388149 
L 27.105948 113.188952 
L 26.605715 107.692256 
L 26.260728 101.406259 
L 26.132367 94.986067 
L 26.131469 94.4 
L 26.131469 94.4 
" style="fill:none;stroke:#000000;stroke-linecap:square;stroke-width:1.5;"/>
   </g>
   <g id="text_1">
    <!-- (1,2) -->
    <defs>
     <path d="M 31 75.875 
Q 24.46875 64.65625 21.28125 53.65625 
Q 18.109375 42.671875 18.109375 31.390625 
Q 18.109375 20.125 21.3125 9.0625 
Q 24.515625 -2 31 -13.1875 
L 23.1875 -13.1875 
Q 15.875 -1.703125 12.234375 9.375 
Q 8.59375 20.453125 8.59375 31.390625 
Q 8.59375 42.28125 12.203125 53.3125 
Q 15.828125 64.359375 23.1875 75.875 
z
" id="DejaVuSans-28"/>
     <path d="M 12.40625 8.296875 
L 28.515625 8.296875 
L 28.515625 63.921875 
L 10.984375 60.40625 
L 10.984375 69.390625 
L 28.421875 72.90625 
L 38.28125 72.90625 
L 38.28125 8.296875 
L 54.390625 8.296875 
L 54.390625 0 
L 12.40625 0 
z
" id="DejaVuSans-31"/>
     <path d="M 11.71875 12.40625 
L 22.015625 12.40625 
L 22.015625 4 
L 14.015625 -11.625 
L 7.71875 -11.625 
L 11.71875 4 
z
" id="DejaVuSans-2c"/>
     <path d="M 19.1875 8.296875 
L 53.609375 8.296875 
L 53.609375 0 
L 7.328125 0 
L 7.328125 8.296875 
Q 12.9375 14.109375 22.625 23.890625 
Q 32.328125 33.6875 34.8125 36.53125 
Q 39.546875 41.84375 41.421875 45.53125 
Q 43.3125 49.21875 43.3125 52.78125 
Q 43.3125 58.59375 39.234375 62.25 
Q 35.15625 65.921875 28.609375 65.921875 
Q 23.96875 65.921875 18.8125 64.3125 
Q 13.671875 62.703125 7.8125 59.421875 
L 7.8125 69.390625 
Q 13.765625 71.78125 18.9375 73 
Q 24.125 74.21875 28.421875 74.21875 
Q 39.75 74.21875 46.484375 68.546875 
Q 53.21875 62.890625 53.21875 53.421875 
Q 53.21875 48.921875 51.53125 44.890625 
Q 49.859375 40.875 45.40625 35.40625 
Q 44.1875 33.984375 37.640625 27.21875 
Q 31.109375 20.453125 19.1875 8.296875 
" id="DejaVuSans-32"/>
     <path d="M 8.015625 75.875 
L 15.828125 75.875 
Q 23.140625 64.359375 26.78125 53.3125 
Q 30.421875 42.28125 30.421875 31.390625 
Q 30.421875 20.453125 26.78125 9.375 
Q 23.140625 -1.703125 15.828125 -13.1875 
L 8.015625 -13.1875 
Q 14.5 -2 17.703125 9.0625 
Q 20.90625 20.125 20.90625 31.390625 
Q 20.90625 42.671875 17.703125 53.65625 
Q 14.5 64.65625 8.015625 75.875 
" id="DejaVuSans-29"/>
    </defs>
    <g transform="translate(57.222404 37.2)scale(0.12 -0.12)">
     <use xlink:href="#DejaVuSans-28"/>
     <use x="39.013672" xlink:href="#DejaVuSans-31"/>
     <use x="102.636719" xlink:href="#DejaVuSans-2c"/>
     <use x="134.423828" xlink:href="#DejaVuSans-32"/>
     <use x="198.046875" xlink:href="#DejaVuSans-29"/>
    </g>
   </g>
  </g>
  <g id="axes_2">
   <g id="line2d_2">
    <path clip-path="url(#p57eb132545)" d="M 261.314685 95.289424 
L 261.185425 95.1936 
L 261.162997 95.207424 
L 260.99087 95.516975 
L 260.219 97.393208 
L 260.024053 97.35268 
L 259.813402 96.99163 
L 259.508236 95.951774 
L 258.90793 92.824907 
L 258.119914 89.012464 
L 257.796751 88.215232 
L 257.573019 88.031114 
L 257.342695 88.176532 
L 257.105817 88.681225 
L 256.738292 90.136801 
L 256.225676 93.305665 
L 254.079017 108.783873 
L 253.766703 109.770883 
L 253.448401 110.190322 
L 253.287021 110.166875 
L 252.959832 109.626631 
L 252.626783 108.413196 
L 252.116339 105.357786 
L 251.415739 99.272785 
L 248.986075 75.468691 
L 248.393399 72.424801 
L 247.991849 71.474433 
L 247.789168 71.358841 
L 247.585226 71.493478 
L 247.380033 71.882981 
L 246.965923 73.431397 
L 246.546904 75.985314 
L 245.909316 81.547749 
L 245.042641 91.512816 
L 242.796608 118.936274 
L 242.101678 124.562738 
L 241.633202 126.974018 
L 241.160663 128.141712 
L 240.922892 128.228241 
L 240.684134 127.973449 
L 240.444397 127.374468 
L 239.962027 125.150937 
L 239.475858 121.608942 
L 238.739649 114.080173 
L 237.745465 100.906068 
L 235.459107 68.818208 
L 234.682739 61.004957 
L 234.161441 57.381956 
L 233.637263 55.247458 
L 233.374121 54.779075 
L 233.11029 54.723511 
L 232.84578 55.085592 
L 232.580603 55.865734 
L 232.048288 58.659583 
L 231.513428 63.019648 
L 230.706553 72.142358 
L 229.62261 87.846797 
L 227.153207 125.158841 
L 226.321722 134.025251 
L 225.765335 138.081312 
L 225.2074 140.426741 
L 224.92788 140.918764 
L 224.648005 140.945455 
L 224.367788 140.50424 
L 224.087239 139.597484 
L 223.525191 136.42142 
L 222.96195 131.53346 
L 222.115046 121.424422 
L 220.982501 104.244055 
L 218.70865 68.029281 
L 217.853875 57.679289 
L 217.283638 52.624754 
L 216.713198 49.303356 
L 216.42793 48.339183 
L 216.142645 47.854545 
L 215.857355 47.854545 
L 215.57207 48.339183 
L 215.286802 49.303356 
L 214.716362 52.624754 
L 214.146125 57.679289 
L 213.29135 68.029281 
L 212.153205 85.417956 
L 209.884954 121.424422 
L 209.03805 131.53346 
L 208.474809 136.42142 
L 207.912761 139.597484 
L 207.632212 140.50424 
L 207.351995 140.945455 
L 207.07212 140.918764 
L 206.7926 140.426741 
L 206.513444 139.476843 
L 205.956272 136.257017 
L 205.400692 131.41148 
L 204.570501 121.588915 
L 203.469973 105.280742 
L 201.293447 72.142358 
L 200.486572 63.019648 
L 199.951712 58.659583 
L 199.419397 55.865734 
L 199.15422 55.085592 
L 198.88971 54.723511 
L 198.625879 54.779075 
L 198.362737 55.247458 
L 198.100293 56.119523 
L 197.577545 59.017456 
L 197.057718 63.319899 
L 196.283633 71.937831 
L 195.009257 89.790346 
L 193.507569 111.065902 
L 192.768628 119.375713 
L 192.037973 125.150937 
L 191.555603 127.374468 
L 191.315866 127.973449 
L 191.077108 128.228241 
L 190.839337 128.141712 
L 190.602564 127.720325 
L 190.132048 125.916036 
L 189.665632 122.933371 
L 188.97386 116.619033 
L 188.066537 105.891579 
L 186.090684 81.547749 
L 185.453096 75.985314 
L 184.826404 72.529256 
L 184.414774 71.493478 
L 184.210832 71.358841 
L 184.008151 71.474433 
L 183.806738 71.832999 
L 183.407748 73.23779 
L 182.81897 76.852707 
L 182.052382 83.718356 
L 179.883661 105.357786 
L 179.373217 108.413196 
L 179.040168 109.626631 
L 178.712979 110.166875 
L 178.551599 110.190322 
L 178.391702 110.055978 
L 178.076388 109.343562 
L 177.614706 107.312537 
L 177.020456 103.324558 
L 175.261708 90.136801 
L 174.774927 88.38271 
L 174.541321 88.060426 
L 174.314289 88.084394 
L 174.093865 88.417866 
L 173.775698 89.390238 
L 173.278945 91.778656 
L 172.33572 96.552139 
L 171.975947 97.35268 
L 171.781 97.393208 
L 171.601827 97.184872 
L 171.291052 96.382398 
L 170.814575 95.1936 
L 170.693397 95.273251 
L 170.685315 95.289424 
L 170.685315 95.289424 
" style="fill:none;stroke:#000000;stroke-linecap:square;stroke-width:1.5;"/>
   </g>
   <g id="text_2">
    <!-- (1,3) -->
    <defs>
     <path d="M 40.578125 39.3125 
Q 47.65625 37.796875 51.625 33 
Q 55.609375 28.21875 55.609375 21.1875 
Q 55.609375 10.40625 48.1875 4.484375 
Q 40.765625 -1.421875 27.09375 -1.421875 
Q 22.515625 -1.421875 17.65625 -0.515625 
Q 12.796875 0.390625 7.625 2.203125 
L 7.625 11.71875 
Q 11.71875 9.328125 16.59375 8.109375 
Q 21.484375 6.890625 26.8125 6.890625 
Q 36.078125 6.890625 40.9375 10.546875 
Q 45.796875 14.203125 45.796875 21.1875 
Q 45.796875 27.640625 41.28125 31.265625 
Q 36.765625 34.90625 28.71875 34.90625 
L 20.21875 34.90625 
L 20.21875 43.015625 
L 29.109375 43.015625 
Q 36.375 43.015625 40.234375 45.921875 
Q 44.09375 48.828125 44.09375 54.296875 
Q 44.09375 59.90625 40.109375 62.90625 
Q 36.140625 65.921875 28.71875 65.921875 
Q 24.65625 65.921875 20.015625 65.03125 
Q 15.375 64.15625 9.8125 62.3125 
L 9.8125 71.09375 
Q 15.4375 72.65625 20.34375 73.4375 
Q 25.25 74.21875 29.59375 74.21875 
Q 40.828125 74.21875 47.359375 69.109375 
Q 53.90625 64.015625 53.90625 55.328125 
Q 53.90625 49.265625 50.4375 45.09375 
Q 46.96875 40.921875 40.578125 39.3125 
" id="DejaVuSans-33"/>
    </defs>
    <g transform="translate(201.77625 37.2)scale(0.12 -0.12)">
     <use xlink:href="#DejaVuSans-28"/>
     <use x="39.013672" xlink:href="#DejaVuSans-31"/>
     <use x="102.636719" xlink:href="#DejaVuSans-2c"/>
     <use x="134.423828" xlink:href="#DejaVuSans-33"/>
     <use x="198.046875" xlink:href="#DejaVuSans-29"/>
    </g>
   </g>
  </g>
  <g id="axes_3">
   <g id="line2d_3">
    <path clip-path="url(#p742911f51a)" d="M 405.868531 94.4 
L 405.795808 94.281326 
L 405.434563 93.684349 
L 405.262794 93.777153 
L 405.008227 94.36662 
L 404.509424 96.366478 
L 403.981471 98.220597 
L 403.729324 98.624451 
L 403.552664 98.664277 
L 403.369187 98.48379 
L 403.081253 97.756008 
L 402.67376 95.914838 
L 401.896541 90.861414 
L 401.039039 85.664706 
L 400.647369 84.243206 
L 400.378301 83.760205 
L 400.10292 83.720274 
L 399.821267 84.165714 
L 399.53339 85.118152 
L 399.09 87.486862 
L 398.477458 92.193081 
L 396.322721 110.583681 
L 395.790908 112.851923 
L 395.42937 113.488745 
L 395.246525 113.514536 
L 395.062304 113.33634 
L 394.689766 112.354134 
L 394.311817 110.537416 
L 393.734876 106.330948 
L 392.947245 98.429848 
L 390.676888 73.34784 
L 390.032161 68.816398 
L 389.596487 66.963037 
L 389.156208 66.19067 
L 388.934364 66.236184 
L 388.711395 66.577673 
L 388.262117 68.154282 
L 387.808446 70.899416 
L 387.119861 77.033675 
L 386.187048 88.202613 
L 383.785219 119.542449 
L 383.046277 126.189962 
L 382.549175 129.160327 
L 382.048586 130.767823 
L 381.797009 131.025155 
L 381.544589 130.906764 
L 381.291338 130.408957 
L 380.782379 128.280509 
L 380.270213 124.691346 
L 379.496129 116.83851 
L 378.453553 102.825029 
L 375.798917 64.700512 
L 374.990261 56.856861 
L 374.448279 53.411235 
L 373.904093 51.597677 
L 373.631201 51.337488 
L 373.357791 51.517904 
L 373.083873 52.140319 
L 372.534559 54.693302 
L 371.983345 58.914346 
L 371.153154 68.018322 
L 370.040402 84.027302 
L 367.515796 123.024577 
L 366.668892 132.610255 
L 366.103059 137.151402 
L 365.536347 139.972203 
L 365.252688 140.694753 
L 364.968844 140.945455 
L 364.684825 140.720512 
L 364.400641 140.021142 
L 363.831829 137.228952 
L 363.262496 132.67736 
L 362.407721 122.969784 
L 361.267045 106.106861 
L 358.699971 65.830216 
L 357.845196 56.12264 
L 357.275864 51.571048 
L 356.707051 48.778858 
L 356.422868 48.079488 
L 356.138848 47.854545 
L 355.855004 48.105247 
L 355.571346 48.827797 
L 355.004633 51.648598 
L 354.4388 56.189745 
L 353.591896 65.775423 
L 352.466607 82.233068 
L 349.954538 120.781678 
L 349.124347 129.885654 
L 348.573133 134.106698 
L 348.023819 136.659681 
L 347.749901 137.282096 
L 347.476491 137.462512 
L 347.203599 137.202323 
L 346.931237 136.507553 
L 346.388142 133.86091 
L 345.847293 129.658558 
L 345.040418 120.888319 
L 343.973243 106.023453 
L 341.871107 75.145866 
L 341.09474 66.417284 
L 340.581001 62.137238 
L 340.070428 59.267932 
L 339.563103 57.893236 
L 339.310684 57.774845 
L 339.059106 58.032177 
L 338.808381 58.6576 
L 338.309526 60.96332 
L 337.814197 64.558143 
L 337.077988 71.952203 
L 336.109449 84.283621 
L 334.219478 109.248953 
L 333.527706 116.110721 
L 332.845575 120.645718 
L 332.396297 122.222327 
L 332.173328 122.563816 
L 331.951484 122.60933 
L 331.730773 122.364246 
L 331.292788 121.038757 
L 330.859442 118.687964 
L 330.218272 113.555216 
L 329.38025 104.676581 
L 327.372817 82.469052 
L 326.795876 78.262584 
L 326.230977 75.84987 
L 325.861168 75.285464 
L 325.678322 75.311255 
L 325.496858 75.534859 
L 325.138108 76.540837 
L 324.610527 79.271079 
L 323.927063 84.560105 
L 321.86836 102.22413 
L 321.429588 104.221906 
L 321.144818 104.919549 
L 320.866295 105.118235 
L 320.594065 104.850318 
L 320.32817 104.167162 
L 319.941299 102.512469 
L 319.328773 98.747682 
L 318.22683 91.843761 
L 317.832791 90.496216 
L 317.555028 90.135723 
L 317.378368 90.175549 
L 317.126221 90.579403 
L 316.740444 91.842524 
L 315.892275 94.950612 
L 315.67313 95.115651 
L 315.498454 94.93089 
L 315.239161 94.4 
L 315.239161 94.4 
" style="fill:none;stroke:#000000;stroke-linecap:square;stroke-width:1.5;"/>
   </g>
   <g id="text_3">
    <!-- (1,4) -->
    <defs>
     <path d="M 37.796875 64.3125 
L 12.890625 25.390625 
L 37.796875 25.390625 
z
M 35.203125 72.90625 
L 47.609375 72.90625 
L 47.609375 25.390625 
L 58.015625 25.390625 
L 58.015625 17.1875 
L 47.609375 17.1875 
L 47.609375 0 
L 37.796875 0 
L 37.796875 17.1875 
L 4.890625 17.1875 
L 4.890625 26.703125 
z
" id="DejaVuSans-34"/>
    </defs>
    <g transform="translate(346.330096 37.2)scale(0.12 -0.12)">
     <use xlink:href="#DejaVuSans-28"/>
     <use x="39.013672" xlink:href="#DejaVuSans-31"/>
     <use x="102.636719" xlink:href="#DejaVuSans-2c"/>
     <use x="134.423828" xlink:href="#DejaVuSans-34"/>
     <use x="198.046875" xlink:href="#DejaVuSans-29"/>
    </g>
   </g>
  </g>
  <g id="axes_4">
   <g id="line2d_4">
    <path clip-path="url(#p42bb589aaa)" d="M 71.446154 223.289424 
L 81.072195 223.365943 
L 83.289296 223.717028 
L 86.017782 224.382398 
L 89.214815 225.184872 
L 90.776436 225.393208 
L 92.310478 225.35268 
L 93.316768 225.150802 
L 94.309188 224.792199 
L 95.28711 224.271699 
L 96.725454 223.200439 
L 98.12773 221.838918 
L 100.816132 218.75438 
L 102.098421 217.390238 
L 103.336978 216.417866 
L 104.137511 216.084394 
L 104.917312 216.060426 
L 105.675888 216.38271 
L 106.412756 217.073256 
L 107.127451 218.136801 
L 107.819517 219.559023 
L 108.814235 222.2845 
L 110.057356 226.691659 
L 112.491935 236.10285 
L 113.187799 237.770883 
L 113.61868 238.190322 
L 113.824108 238.166875 
L 114.022817 237.980209 
L 114.399954 237.104277 
L 114.749851 235.555403 
L 115.223143 232.032047 
L 115.756936 225.471386 
L 116.266009 215.644363 
L 116.710557 202.257787 
L 116.755451 199.358841 
L 116.662088 201.431397 
L 116.662088 201.431397 
L 115.295969 236.731584 
L 114.664943 246.936274 
L 114.119642 252.562738 
L 113.722231 254.974018 
L 113.298012 256.141712 
L 113.075931 256.228241 
L 112.847251 255.973449 
L 112.612007 255.374468 
L 112.121976 253.150937 
L 111.606151 249.608942 
L 110.784769 242.080173 
L 109.291686 225.258284 
L 107.648646 206.742206 
L 106.593527 196.818208 
L 105.862158 191.319899 
L 105.108965 187.017456 
L 104.334424 184.119523 
L 103.939302 183.247458 
L 103.539027 182.779075 
L 103.133665 182.723511 
L 102.723278 183.085592 
L 102.307933 183.865734 
L 101.887695 185.059895 
L 101.032807 188.6519 
L 100.159156 193.74147 
L 99.267297 200.142358 
L 97.896607 211.65166 
L 94.062418 245.774094 
L 92.563316 256.445048 
L 91.547042 262.025251 
L 90.518022 266.081312 
L 89.998935 267.476843 
L 89.476906 268.426741 
L 88.952019 268.918764 
L 88.424357 268.945455 
L 87.894003 268.50424 
L 87.361041 267.597484 
L 86.825555 266.232486 
L 86.287632 264.42142 
L 85.204811 259.53346 
L 84.113265 253.123076 
L 83.013687 245.445459 
L 81.350784 232.244055 
L 77.419859 200.076272 
L 76.286873 192.254941 
L 75.150818 185.679289 
L 74.012413 180.624754 
L 73.442555 178.73691 
L 72.872381 177.303356 
L 72.301981 176.339183 
L 71.731445 175.854545 
L 71.160863 175.854545 
L 70.590327 176.339183 
L 70.019927 177.303356 
L 69.449752 178.73691 
L 68.879895 180.624754 
L 67.74149 185.679289 
L 66.605434 192.254941 
L 65.472449 200.076272 
L 63.780297 213.417956 
L 59.878621 245.445459 
L 58.779042 253.123076 
L 57.687497 259.53346 
L 56.604676 264.42142 
L 56.066752 266.232486 
L 55.531267 267.597484 
L 54.998305 268.50424 
L 54.467951 268.945455 
L 53.940288 268.918764 
L 53.415401 268.426741 
L 52.893373 267.476843 
L 52.374286 266.081312 
L 51.858223 264.257017 
L 50.835495 259.41148 
L 49.825837 253.158841 
L 48.337255 241.755534 
L 46.404128 224.52279 
L 44.077592 203.759913 
L 42.733152 193.74147 
L 41.859501 188.6519 
L 41.004613 185.059895 
L 40.584375 183.865734 
L 40.169029 183.085592 
L 39.758643 182.723511 
L 39.35328 182.779075 
L 38.953006 183.247458 
L 38.557883 184.119523 
L 38.167975 185.381956 
L 37.404047 189.004957 
L 36.661708 193.934523 
L 35.589702 203.25815 
L 34.240194 217.790346 
L 31.827449 244.85864 
L 31.02504 251.539218 
L 30.522072 254.432115 
L 30.045057 255.973449 
L 29.816376 256.228241 
L 29.594296 256.141712 
L 29.378851 255.720325 
L 28.968004 253.916036 
L 28.584094 250.933371 
L 28.059265 244.619033 
L 27.455902 233.891579 
L 26.760452 216.812266 
L 26.136857 199.358841 
L 26.626299 215.644363 
L 26.626299 215.644363 
L 27.135372 225.471386 
L 27.669165 232.032047 
L 28.142457 235.555403 
L 28.492354 237.104277 
L 28.869491 237.980209 
L 29.0682 238.166875 
L 29.273628 238.190322 
L 29.485742 238.055978 
L 29.929894 237.343562 
L 30.400373 236.10285 
L 31.154799 233.45619 
L 34.078073 222.2845 
L 35.07279 219.559023 
L 35.764857 218.136801 
L 36.479551 217.073256 
L 37.21642 216.38271 
L 37.974995 216.060426 
L 38.754797 216.084394 
L 39.55533 216.417866 
L 40.376086 217.012464 
L 41.643999 218.268968 
L 46.166854 223.200439 
L 47.605198 224.271699 
L 49.077557 224.99163 
L 50.076991 225.270661 
L 51.601351 225.411412 
L 53.154025 225.276631 
L 55.264465 224.817296 
L 60.154689 223.611086 
L 62.378424 223.309074 
L 65.189766 223.187901 
L 71.446154 223.289424 
L 71.446154 223.289424 
" style="fill:none;stroke:#000000;stroke-linecap:square;stroke-width:1.5;"/>
   </g>
   <g id="text_4">
    <!-- (2,3) -->
    <g transform="translate(57.222404 165.2)scale(0.12 -0.12)">
     <use xlink:href="#DejaVuSans-28"/>
     <use x="39.013672" xlink:href="#DejaVuSans-32"/>
     <use x="102.636719" xlink:href="#DejaVuSans-2c"/>
     <use x="134.423828" xlink:href="#DejaVuSans-33"/>
     <use x="198.046875" xlink:href="#DejaVuSans-29"/>
    </g>
   </g>
  </g>
  <g id="axes_5">
   <g id="line2d_5">
    <path clip-path="url(#p5312ed3327)" d="M 216 222.4 
L 220.556965 222.314071 
L 224.507981 221.982889 
L 228.392943 221.684349 
L 230.571628 221.777153 
L 232.181688 222.06139 
L 233.768661 222.553837 
L 235.330282 223.24117 
L 237.870614 224.663127 
L 240.324286 226.013125 
L 241.750832 226.531218 
L 242.681576 226.670171 
L 243.595399 226.603161 
L 244.491722 226.303784 
L 245.369978 225.756008 
L 246.229608 224.956239 
L 247.070068 223.914838 
L 248.293651 221.958748 
L 249.85313 218.861414 
L 252.373364 213.664706 
L 253.042364 212.632838 
L 253.687874 211.949682 
L 254.309484 211.681765 
L 254.611202 211.720274 
L 254.906799 211.880451 
L 255.479442 212.578094 
L 256.027049 213.784922 
L 256.549272 215.486862 
L 257.284293 218.874892 
L 258.172526 224.549937 
L 259.468361 235.064035 
L 260.187822 240.259163 
L 260.535609 241.488745 
L 260.63744 241.514536 
L 260.819855 240.95013 
L 261.040154 238.537416 
L 261.233883 232.571951 
L 261.314685 221.806477 
L 261.174659 207.477344 
L 260.861022 198.112036 
L 260.587408 194.963037 
L 260.369629 194.19067 
L 260.250179 194.236184 
L 259.990251 195.217369 
L 259.54811 198.899416 
L 258.86206 207.551047 
L 256.421114 241.964381 
L 255.618705 250.016956 
L 255.052288 254.189962 
L 254.461105 257.160327 
L 254.156344 258.1424 
L 253.845533 258.767823 
L 253.528721 259.025155 
L 253.20596 258.906764 
L 252.8773 258.408957 
L 252.542793 257.532068 
L 251.856452 254.662762 
L 251.147373 250.382716 
L 250.042107 241.654134 
L 248.493148 226.909077 
L 246.016476 203.018695 
L 244.713002 192.700512 
L 243.821143 187.141442 
L 242.911641 182.93909 
L 242.450453 181.411235 
L 241.985072 180.292447 
L 241.515572 179.597677 
L 241.042026 179.337488 
L 240.564509 179.517904 
L 240.083098 180.140319 
L 239.597869 181.201441 
L 239.108898 182.693302 
L 238.120044 186.914346 
L 237.117162 192.649446 
L 236.100888 199.678402 
L 234.552781 212.027302 
L 230.301201 247.223557 
L 229.213932 254.547304 
L 228.118283 260.610255 
L 227.014949 265.151402 
L 226.460619 266.786552 
L 225.90463 267.972203 
L 225.347071 268.694753 
L 224.78803 268.945455 
L 224.227595 268.720512 
L 223.665857 268.021142 
L 223.102902 266.853564 
L 222.538822 265.228952 
L 221.407641 260.67736 
L 220.27303 254.549285 
L 219.13571 247.094522 
L 217.426227 234.106861 
L 212.86429 197.705478 
L 211.72697 190.250715 
L 210.592359 184.12264 
L 209.461178 179.571048 
L 208.897098 177.946436 
L 208.334143 176.778858 
L 207.772405 176.079488 
L 207.21197 175.854545 
L 206.652929 176.105247 
L 206.09537 176.827797 
L 205.539381 178.013448 
L 204.985051 179.648598 
L 203.881717 184.189745 
L 202.786068 190.252696 
L 201.698799 197.576443 
L 200.085113 210.233068 
L 195.899112 245.121598 
L 194.882838 252.150554 
L 193.879956 257.885654 
L 192.891102 262.106698 
L 192.402131 263.598559 
L 191.916902 264.659681 
L 191.435491 265.282096 
L 190.957974 265.462512 
L 190.484428 265.202323 
L 190.014928 264.507553 
L 189.549547 263.388765 
L 189.088359 261.86091 
L 188.178857 257.658558 
L 187.286998 252.099488 
L 185.983524 241.781305 
L 184.312489 225.946917 
L 181.957893 203.145866 
L 180.852627 194.417284 
L 180.143548 190.137238 
L 179.457207 187.267932 
L 179.1227 186.391043 
L 178.79404 185.893236 
L 178.471279 185.774845 
L 178.154467 186.032177 
L 177.843656 186.6576 
L 177.240231 188.96332 
L 176.661385 192.558143 
L 175.840003 199.952203 
L 174.834147 212.283621 
L 172.150185 248.645718 
L 171.876287 250.222327 
L 171.630371 250.60933 
L 171.517955 250.364246 
L 171.314298 249.038757 
L 171.06198 245.17057 
L 170.825341 237.322656 
L 170.690703 225.397244 
L 170.766117 212.228049 
L 171.026152 205.251087 
L 171.267806 203.46366 
L 171.464391 203.311255 
L 171.689218 203.948077 
L 172.079096 206.216319 
L 173.0462 214.062141 
L 174.258355 223.212746 
L 174.954219 227.155534 
L 175.708646 230.22413 
L 176.243603 231.681848 
L 176.803772 232.634286 
L 177.388798 233.079726 
L 177.690516 233.118235 
L 178.312126 232.850318 
L 178.957636 232.167162 
L 179.626636 231.135294 
L 180.67325 229.104713 
L 183.706349 222.841252 
L 184.929932 220.885162 
L 185.770392 219.843761 
L 186.630022 219.043992 
L 187.508278 218.496216 
L 188.404601 218.196839 
L 189.318424 218.129829 
L 190.249168 218.268782 
L 191.675714 218.786875 
L 193.631403 219.842524 
L 196.669718 221.55883 
L 198.231339 222.246163 
L 199.818312 222.73861 
L 201.428372 223.022847 
L 203.059222 223.118578 
L 205.262003 223.030216 
L 213.718624 222.411684 
L 216 222.4 
L 216 222.4 
" style="fill:none;stroke:#000000;stroke-linecap:square;stroke-width:1.5;"/>
   </g>
   <g id="text_5">
    <!-- (2,4) -->
    <g transform="translate(201.77625 165.2)scale(0.12 -0.12)">
     <use xlink:href="#DejaVuSans-28"/>
     <use x="39.013672" xlink:href="#DejaVuSans-32"/>
     <use x="102.636719" xlink:href="#DejaVuSans-2c"/>
     <use x="134.423828" xlink:href="#DejaVuSans-34"/>
     <use x="198.046875" xlink:href="#DejaVuSans-29"/>
    </g>
   </g>
  </g>
  <g id="axes_6">
   <g id="line2d_6">
    <path clip-path="url(#p83dda9a823)" d="M 359.68794 222.4 
L 359.779356 222.281326 
L 359.745215 222.040542 
L 359.466407 221.769784 
L 359.034453 221.681422 
L 358.623868 221.777153 
L 358.200469 222.06139 
L 357.842612 222.553837 
L 357.639786 223.24117 
L 357.679242 224.072017 
L 358.030745 224.957476 
L 358.458614 225.519912 
L 359.043104 226.013125 
L 359.774572 226.394987 
L 360.632742 226.624451 
L 361.58674 226.664277 
L 362.595806 226.48379 
L 363.61068 226.061483 
L 364.575644 225.387315 
L 365.431139 224.464522 
L 366.116844 223.310799 
L 366.575074 221.958748 
L 366.754324 220.45549 
L 366.612751 218.861414 
L 366.121404 217.248075 
L 365.266997 215.695287 
L 364.054032 214.287531 
L 362.506107 213.109817 
L 360.666292 212.243206 
L 359.655571 211.949682 
L 358.596478 211.760205 
L 357.49941 211.681765 
L 356.375669 211.720274 
L 355.237355 211.880451 
L 354.097244 212.165714 
L 352.968649 212.578094 
L 351.865274 213.118152 
L 350.801057 213.784922 
L 349.790007 214.57587 
L 348.846028 215.486862 
L 347.982746 216.512167 
L 347.213331 217.644466 
L 346.550316 218.874892 
L 346.005426 220.193081 
L 345.589405 221.587254 
L 345.311849 223.044308 
L 345.181057 224.549937 
L 345.203884 226.088761 
L 345.385614 227.644485 
L 345.729842 229.200057 
L 346.238384 230.737859 
L 346.911192 232.239895 
L 347.746303 233.687996 
L 348.739802 235.064035 
L 349.885809 236.350141 
L 351.176493 237.528921 
L 352.602104 238.583681 
L 354.151036 239.498644 
L 355.809908 240.259163 
L 357.563675 240.851923 
L 359.395753 241.265141 
L 361.288176 241.488745 
L 363.221766 241.514536 
L 365.176327 241.33634 
L 367.130849 240.95013 
L 369.063737 240.354134 
L 370.953043 239.548913 
L 372.776714 238.537416 
L 374.512845 237.325007 
L 376.139935 235.919463 
L 377.637148 234.330948 
L 378.984568 232.571951 
L 380.163453 230.657201 
L 381.156478 228.603554 
L 381.94797 226.429848 
L 382.524124 224.156732 
L 382.873208 221.806477 
L 382.985743 219.402756 
L 382.854667 216.970405 
L 382.475464 214.535167 
L 381.846278 212.123419 
L 380.967991 209.761885 
L 379.844274 207.477344 
L 378.481605 205.296321 
L 376.889255 203.244784 
L 375.079241 201.34784 
L 373.066254 199.62943 
L 370.86754 198.112036 
L 368.502762 196.816398 
L 365.993828 195.761243 
L 363.364686 194.963037 
L 360.641098 194.435754 
L 357.850384 194.19067 
L 355.021147 194.236184 
L 352.182975 194.577673 
L 349.366131 195.217369 
L 346.601223 196.154282 
L 343.918872 197.384148 
L 341.349371 198.899416 
L 338.922335 200.689279 
L 336.666368 202.739732 
L 334.60872 205.033675 
L 332.774963 207.551047 
L 331.18868 210.269002 
L 329.871167 213.162113 
L 328.841161 216.202613 
L 328.114587 219.360662 
L 327.704343 222.604647 
L 327.620102 225.901504 
L 327.868157 229.217057 
L 328.451299 232.516379 
L 329.368734 235.76417 
L 330.616035 238.925136 
L 332.185136 241.964381 
L 334.064372 244.847797 
L 336.238549 247.542449 
L 338.689064 250.016956 
L 341.394062 252.241857 
L 344.328629 254.189962 
L 347.465022 255.83668 
L 350.772939 257.160327 
L 354.219813 258.1424 
L 357.771142 258.767823 
L 361.39084 259.025155 
L 365.04161 258.906764 
L 368.685343 258.408957 
L 372.283515 257.532068 
L 375.797612 256.280509 
L 379.189542 254.662762 
L 382.422064 252.691346 
L 385.459196 250.382716 
L 388.266631 247.757139 
L 390.812118 244.83851 
L 393.065847 241.654134 
L 395.000794 238.234469 
L 396.593048 234.612823 
L 397.822099 230.825029 
L 398.671104 226.909077 
L 399.127103 222.904724 
L 399.181197 218.853083 
L 398.82869 214.796188 
L 398.069178 210.776547 
L 396.906593 206.836688 
L 395.349204 203.018695 
L 393.409568 199.363751 
L 391.104429 195.911681 
L 388.454578 192.700512 
L 385.48466 189.766043 
L 382.222945 187.141442 
L 378.701046 184.856861 
L 374.953613 182.93909 
L 371.017976 181.411235 
L 366.933768 180.292447 
L 362.742511 179.597677 
L 358.487188 179.337488 
L 354.211782 179.517904 
L 349.960816 180.140319 
L 345.778873 181.201441 
L 341.710118 182.693302 
L 337.797817 184.603308 
L 334.083868 186.914346 
L 330.60834 189.604938 
L 327.409028 192.649446 
L 324.521035 196.018322 
L 321.976379 199.678402 
L 319.803626 203.593242 
L 318.027569 207.723492 
L 316.668939 212.027302 
L 315.744159 216.46076 
L 315.265146 220.97835 
L 315.239161 225.533437 
L 315.668709 230.078759 
L 316.551487 234.566932 
L 317.880392 238.95096 
L 319.643569 243.18474 
L 321.824524 247.223557 
L 324.40228 251.024577 
L 327.351584 254.547304 
L 330.64316 257.754033 
L 334.244012 260.610255 
L 338.117762 263.085045 
L 342.225031 265.151402 
L 346.523847 266.786552 
L 350.970091 267.972203 
L 355.517961 268.694753 
L 360.120461 268.945455 
L 364.729895 268.720512 
L 369.298384 268.021142 
L 373.77837 266.853564 
L 378.123132 265.228952 
L 382.287284 263.16332 
L 386.227263 260.67736 
L 389.9018 257.796229 
L 393.272364 254.549285 
L 396.303577 250.969784 
L 398.963596 247.094522 
L 401.224458 242.963448 
L 403.062384 238.619243 
L 404.458031 234.106861 
L 405.396708 229.473053 
L 405.868531 224.765867 
L 405.868531 220.034133 
L 405.396708 215.326947 
L 404.458031 210.693139 
L 403.062384 206.180757 
L 401.224458 201.836552 
L 398.963596 197.705478 
L 396.303577 193.830216 
L 393.272364 190.250715 
L 389.9018 187.003771 
L 386.227263 184.12264 
L 382.287284 181.63668 
L 378.123132 179.571048 
L 373.77837 177.946436 
L 369.298384 176.778858 
L 364.729895 176.079488 
L 360.120461 175.854545 
L 355.517961 176.105247 
L 350.970091 176.827797 
L 346.523847 178.013448 
L 342.225031 179.648598 
L 338.117762 181.714955 
L 334.244012 184.189745 
L 330.64316 187.045967 
L 327.351584 190.252696 
L 324.40228 193.775423 
L 321.824524 197.576443 
L 319.643569 201.61526 
L 317.880392 205.84904 
L 316.551487 210.233068 
L 315.668709 214.721241 
L 315.239161 219.266563 
L 315.265146 223.82165 
L 315.744159 228.33924 
L 316.668939 232.772698 
L 318.027569 237.076508 
L 319.803626 241.206758 
L 321.976379 245.121598 
L 324.521035 248.781678 
L 327.409028 252.150554 
L 330.60834 255.195062 
L 334.083868 257.885654 
L 337.797817 260.196692 
L 341.710118 262.106698 
L 345.778873 263.598559 
L 349.960816 264.659681 
L 354.211782 265.282096 
L 358.487188 265.462512 
L 362.742511 265.202323 
L 366.933768 264.507553 
L 371.017976 263.388765 
L 374.953613 261.86091 
L 378.701046 259.943139 
L 382.222945 257.658558 
L 385.48466 255.033957 
L 388.454578 252.099488 
L 391.104429 248.888319 
L 393.409568 245.436249 
L 395.349204 241.781305 
L 396.906593 237.963312 
L 398.069178 234.023453 
L 398.82869 230.003812 
L 399.181197 225.946917 
L 399.127103 221.895276 
L 398.671104 217.890923 
L 397.822099 213.974971 
L 396.593048 210.187177 
L 395.000794 206.565531 
L 393.065847 203.145866 
L 390.812118 199.96149 
L 388.266631 197.042861 
L 385.459196 194.417284 
L 382.422064 192.108654 
L 379.189542 190.137238 
L 375.797612 188.519491 
L 372.283515 187.267932 
L 368.685343 186.391043 
L 365.04161 185.893236 
L 361.39084 185.774845 
L 357.771142 186.032177 
L 354.219813 186.6576 
L 350.772939 187.639673 
L 347.465022 188.96332 
L 344.328629 190.610038 
L 341.394062 192.558143 
L 338.689064 194.783044 
L 336.238549 197.257551 
L 334.064372 199.952203 
L 332.185136 202.835619 
L 330.616035 205.874864 
L 329.368734 209.03583 
L 328.451299 212.283621 
L 327.868157 215.582943 
L 327.620102 218.898496 
L 327.704343 222.195353 
L 328.114587 225.439338 
L 328.841161 228.597387 
L 329.871167 231.637887 
L 331.18868 234.530998 
L 332.774963 237.248953 
L 334.60872 239.766325 
L 336.666368 242.060268 
L 338.922335 244.110721 
L 341.349371 245.900584 
L 343.918872 247.415852 
L 346.601223 248.645718 
L 349.366131 249.582631 
L 352.182975 250.222327 
L 355.021147 250.563816 
L 357.850384 250.60933 
L 360.641098 250.364246 
L 363.364686 249.836963 
L 365.993828 249.038757 
L 368.502762 247.983602 
L 370.86754 246.687964 
L 373.066254 245.17057 
L 375.079241 243.45216 
L 376.889255 241.555216 
L 378.481605 239.503679 
L 379.844274 237.322656 
L 380.967991 235.038115 
L 381.846278 232.676581 
L 382.475464 230.264833 
L 382.854667 227.829595 
L 382.985743 225.397244 
L 382.873208 222.993523 
L 382.524124 220.643268 
L 381.94797 218.370152 
L 381.156478 216.196446 
L 380.163453 214.142799 
L 378.984568 212.228049 
L 377.637148 210.469052 
L 376.139935 208.880537 
L 374.512845 207.474993 
L 372.776714 206.262584 
L 370.953043 205.251087 
L 369.063737 204.445866 
L 367.130849 203.84987 
L 365.176327 203.46366 
L 363.221766 203.285464 
L 361.288176 203.311255 
L 359.395753 203.534859 
L 357.563675 203.948077 
L 355.809908 204.540837 
L 354.151036 205.301356 
L 352.602104 206.216319 
L 351.176493 207.271079 
L 349.885809 208.449859 
L 348.739802 209.735965 
L 347.746303 211.112004 
L 346.911192 212.560105 
L 346.238384 214.062141 
L 345.729842 215.599943 
L 345.385614 217.155515 
L 345.203884 218.711239 
L 345.181057 220.250063 
L 345.311849 221.755692 
L 345.589405 223.212746 
L 346.005426 224.606919 
L 346.550316 225.925108 
L 347.213331 227.155534 
L 347.982746 228.287833 
L 348.846028 229.313138 
L 349.790007 230.22413 
L 350.801057 231.015078 
L 351.865274 231.681848 
L 352.968649 232.221906 
L 354.097244 232.634286 
L 355.237355 232.919549 
L 356.375669 233.079726 
L 357.49941 233.118235 
L 358.596478 233.039795 
L 360.666292 232.556794 
L 362.506107 231.690183 
L 364.054032 230.512469 
L 365.266997 229.104713 
L 366.121404 227.551925 
L 366.612751 225.938586 
L 366.754324 224.34451 
L 366.575074 222.841252 
L 366.116844 221.489201 
L 365.431139 220.335478 
L 364.575644 219.412685 
L 363.61068 218.738517 
L 362.595806 218.31621 
L 361.58674 218.135723 
L 360.632742 218.175549 
L 359.774572 218.405013 
L 359.043104 218.786875 
L 358.458614 219.280088 
L 357.875782 220.136873 
L 357.634332 221.016116 
L 357.684573 221.807227 
L 357.949186 222.43338 
L 358.33853 222.856123 
L 358.903068 223.105295 
L 359.374784 223.069328 
L 359.712517 222.817111 
L 359.779356 222.518674 
L 359.68794 222.4 
L 359.68794 222.4 
" style="fill:none;stroke:#000000;stroke-linecap:square;stroke-width:1.5;"/>
   </g>
   <g id="text_6">
    <!-- (3,4) -->
    <g transform="translate(346.330096 165.2)scale(0.12 -0.12)">
     <use xlink:href="#DejaVuSans-28"/>
     <use x="39.013672" xlink:href="#DejaVuSans-33"/>
     <use x="102.636719" xlink:href="#DejaVuSans-2c"/>
     <use x="134.423828" xlink:href="#DejaVuSans-34"/>
     <use x="198.046875" xlink:href="#DejaVuSans-29"/>
    </g>
   </g>
  </g>
 </g>
 <defs>
  <clipPath id="pc92a6dbc93">
   <rect height="102.4" width="99.692308" x="21.6" y="43.2"/>
  </clipPath>
  <clipPath id="p57eb132545">
   <rect height="102.4" width="99.692308" x="166.153846" y="43.2"/>
  </clipPath>
  <clipPath id="p742911f51a">
   <rect height="102.4" width="99.692308" x="310.707692" y="43.2"/>
  </clipPath>
  <clipPath id="p42bb589aaa">
   <rect height="102.4" width="99.692308" x="21.6" y="171.2"/>
  </clipPath>
  <clipPath id="p5312ed3327">
   <rect height="102.4" width="99.692308" x="166.153846" y="171.2"/>
  </clipPath>
  <clipPath id="p83dda9a823">
   <rect height="102.4" width="99.692308" x="310.707692" y="171.2"/>
  </clipPath>
 </defs>
</svg>
