<?xml version="1.0" encoding="utf-8" standalone="no"?>
<!DOCTYPE svg PUBLIC "-//W3C//DTD SVG 1.1//EN"
  "http://www.w3.org/Graphics/SVG/1.1/DTD/svg11.dtd">
<!-- Created with matplotlib (http://matplotlib.org/) -->
<svg height="288pt" version="1.1" viewBox="0 0 288 288" width="288pt" xmlns="http://www.w3.org/2000/svg" xmlns:xlink="http://www.w3.org/1999/xlink">
 <defs>
  <style type="text/css">
*{stroke-linecap:butt;stroke-linejoin:round;}
  </style>
 </defs>
 <g id="figure_1">
  <g id="patch_1">
   <path d="M 0 288 
L 288 288 
L 288 0 
L 0 0 
z
" style="fill:#ffffff;"/>
  </g>
  <g id="patch_2">
   <path d="M 14.4 273.6 
L 273.6 273.6 
L 273.6 14.4 
L 14.4 14.4 
z
" style="fill:#ffffff;"/>
  </g>
  <g id="pane3d_1">
   <g id="patch_3">
    <path d="M 55.787113 185.15462 
L 182.10378 158.286557 
L 183.736886 34.756696 
L 51.298363 58.375446 
" style="fill:#ffffff;stroke:#ffffff;stroke-linejoin:miter;"/>
   </g>
  </g>
  <g id="pane3d_2">
   <g id="patch_4">
    <path d="M 182.10378 158.286557 
L 243.554724 222.489127 
L 248.489396 91.325773 
L 183.736886 34.756696 
" style="fill:#ffffff;stroke:#ffffff;stroke-linejoin:miter;"/>
   </g>
  </g>
  <g id="pane3d_3">
   <g id="patch_5">
    <path d="M 55.787113 185.15462 
L 108.552299 254.164524 
L 243.554724 222.489127 
L 182.10378 158.286557 
" style="fill:#ffffff;stroke:#ffffff;stroke-linejoin:miter;"/>
   </g>
  </g>
  <g id="axis3d_1">
   <g id="line2d_1">
    <path d="M 55.787113 185.15462 
L 108.552299 254.164524 
" style="fill:none;stroke:#000000;stroke-linecap:square;stroke-width:0.8;"/>
   </g>
   <g id="Line3DCollection_1">
    <path d="M 56.759163 186.425933 
L 183.239144 159.472761 
L 184.928585 35.797788 
" style="fill:none;stroke:#b0b0b0;stroke-width:0.8;"/>
    <path d="M 81.065111 218.214908 
L 211.588368 189.091394 
L 214.741259 61.842731 
" style="fill:none;stroke:#b0b0b0;stroke-width:0.8;"/>
   </g>
   <g id="xtick_1">
    <g id="line2d_2">
     <path d="M 57.806406 186.202763 
L 54.662901 186.872651 
" style="fill:none;stroke:#000000;stroke-linecap:square;stroke-width:0.8;"/>
    </g>
    <g id="text_1">
     <!-- −0.5 -->
     <defs>
      <path d="M 10.59375 35.5 
L 73.1875 35.5 
L 73.1875 27.203125 
L 10.59375 27.203125 
z
" id="DejaVuSans-2212"/>
      <path d="M 31.78125 66.40625 
Q 24.171875 66.40625 20.328125 58.90625 
Q 16.5 51.421875 16.5 36.375 
Q 16.5 21.390625 20.328125 13.890625 
Q 24.171875 6.390625 31.78125 6.390625 
Q 39.453125 6.390625 43.28125 13.890625 
Q 47.125 21.390625 47.125 36.375 
Q 47.125 51.421875 43.28125 58.90625 
Q 39.453125 66.40625 31.78125 66.40625 
M 31.78125 74.21875 
Q 44.046875 74.21875 50.515625 64.515625 
Q 56.984375 54.828125 56.984375 36.375 
Q 56.984375 17.96875 50.515625 8.265625 
Q 44.046875 -1.421875 31.78125 -1.421875 
Q 19.53125 -1.421875 13.0625 8.265625 
Q 6.59375 17.96875 6.59375 36.375 
Q 6.59375 54.828125 13.0625 64.515625 
Q 19.53125 74.21875 31.78125 74.21875 
" id="DejaVuSans-30"/>
      <path d="M 10.6875 12.40625 
L 21 12.40625 
L 21 0 
L 10.6875 0 
z
" id="DejaVuSans-2e"/>
      <path d="M 10.796875 72.90625 
L 49.515625 72.90625 
L 49.515625 64.59375 
L 19.828125 64.59375 
L 19.828125 46.734375 
Q 21.96875 47.46875 24.109375 47.828125 
Q 26.265625 48.1875 28.421875 48.1875 
Q 40.625 48.1875 47.75 41.5 
Q 54.890625 34.8125 54.890625 23.390625 
Q 54.890625 11.625 47.5625 5.09375 
Q 40.234375 -1.421875 26.90625 -1.421875 
Q 22.3125 -1.421875 17.546875 -0.640625 
Q 12.796875 0.140625 7.71875 1.703125 
L 7.71875 11.625 
Q 12.109375 9.234375 16.796875 8.0625 
Q 21.484375 6.890625 26.703125 6.890625 
Q 35.15625 6.890625 40.078125 11.328125 
Q 45.015625 15.765625 45.015625 23.390625 
Q 45.015625 31 40.078125 35.4375 
Q 35.15625 39.890625 26.703125 39.890625 
Q 22.75 39.890625 18.8125 39.015625 
Q 14.890625 38.140625 10.796875 36.28125 
z
" id="DejaVuSans-35"/>
     </defs>
     <g transform="translate(33.835174 206.696352)scale(0.1 -0.1)">
      <use xlink:href="#DejaVuSans-2212"/>
      <use x="83.789062" xlink:href="#DejaVuSans-30"/>
      <use x="147.412109" xlink:href="#DejaVuSans-2e"/>
      <use x="179.199219" xlink:href="#DejaVuSans-35"/>
     </g>
    </g>
   </g>
   <g id="xtick_2">
    <g id="line2d_3">
     <path d="M 82.147301 217.97344 
L 78.898824 218.698269 
" style="fill:none;stroke:#000000;stroke-linecap:square;stroke-width:0.8;"/>
    </g>
    <g id="text_2">
     <!-- 0.0 -->
     <g transform="translate(61.873375 238.961917)scale(0.1 -0.1)">
      <use xlink:href="#DejaVuSans-30"/>
      <use x="63.623047" xlink:href="#DejaVuSans-2e"/>
      <use x="95.410156" xlink:href="#DejaVuSans-30"/>
     </g>
    </g>
   </g>
  </g>
  <g id="axis3d_2">
   <g id="line2d_4">
    <path d="M 243.554724 222.489127 
L 108.552299 254.164524 
" style="fill:none;stroke:#000000;stroke-linecap:square;stroke-width:0.8;"/>
   </g>
   <g id="Line3DCollection_2">
    <path d="M 54.042974 57.885979 
L 58.400595 184.598722 
L 111.353622 253.507254 
" style="fill:none;stroke:#b0b0b0;stroke-width:0.8;"/>
    <path d="M 118.718798 46.351857 
L 120.038567 171.488077 
L 177.321982 238.029206 
" style="fill:none;stroke:#b0b0b0;stroke-width:0.8;"/>
   </g>
   <g id="xtick_3">
    <g id="line2d_5">
     <path d="M 110.893325 252.908262 
L 112.276149 254.707751 
" style="fill:none;stroke:#000000;stroke-linecap:square;stroke-width:0.8;"/>
    </g>
    <g id="text_3">
     <!-- −1.0 -->
     <defs>
      <path d="M 12.40625 8.296875 
L 28.515625 8.296875 
L 28.515625 63.921875 
L 10.984375 60.40625 
L 10.984375 69.390625 
L 28.421875 72.90625 
L 38.28125 72.90625 
L 38.28125 8.296875 
L 54.390625 8.296875 
L 54.390625 0 
L 12.40625 0 
z
" id="DejaVuSans-31"/>
     </defs>
     <g transform="translate(104.288911 278.434226)scale(0.1 -0.1)">
      <use xlink:href="#DejaVuSans-2212"/>
      <use x="83.789062" xlink:href="#DejaVuSans-31"/>
      <use x="147.412109" xlink:href="#DejaVuSans-2e"/>
      <use x="179.199219" xlink:href="#DejaVuSans-30"/>
     </g>
    </g>
   </g>
   <g id="xtick_4">
    <g id="line2d_6">
     <path d="M 176.824758 237.451624 
L 178.31848 239.18675 
" style="fill:none;stroke:#000000;stroke-linecap:square;stroke-width:0.8;"/>
    </g>
    <g id="text_4">
     <!-- −0.5 -->
     <g transform="translate(170.368164 262.595035)scale(0.1 -0.1)">
      <use xlink:href="#DejaVuSans-2212"/>
      <use x="83.789062" xlink:href="#DejaVuSans-30"/>
      <use x="147.412109" xlink:href="#DejaVuSans-2e"/>
      <use x="179.199219" xlink:href="#DejaVuSans-35"/>
     </g>
    </g>
   </g>
  </g>
  <g id="axis3d_3">
   <g id="line2d_7">
    <path d="M 243.554724 222.489127 
L 248.489396 91.325773 
" style="fill:none;stroke:#000000;stroke-linecap:square;stroke-width:0.8;"/>
   </g>
   <g id="Line3DCollection_3">
    <path d="M 243.648687 219.991604 
L 182.134998 155.925183 
L 55.701447 182.735086 
" style="fill:none;stroke:#b0b0b0;stroke-width:0.8;"/>
    <path d="M 245.960268 158.549889 
L 182.901507 97.945617 
L 53.596348 123.279189 
" style="fill:none;stroke:#b0b0b0;stroke-width:0.8;"/>
   </g>
   <g id="xtick_5">
    <g id="line2d_8">
     <path d="M 243.115474 219.436264 
L 244.717271 221.104533 
" style="fill:none;stroke:#000000;stroke-linecap:square;stroke-width:0.8;"/>
    </g>
    <g id="text_5">
     <!-- 0.0 -->
     <g transform="translate(252.53305 230.927403)scale(0.1 -0.1)">
      <use xlink:href="#DejaVuSans-30"/>
      <use x="63.623047" xlink:href="#DejaVuSans-2e"/>
      <use x="95.410156" xlink:href="#DejaVuSans-30"/>
     </g>
    </g>
   </g>
   <g id="xtick_6">
    <g id="line2d_9">
     <path d="M 245.41265 158.023586 
L 247.057774 159.604676 
" style="fill:none;stroke:#000000;stroke-linecap:square;stroke-width:0.8;"/>
    </g>
    <g id="text_6">
     <!-- 0.5 -->
     <g transform="translate(255.260668 169.311543)scale(0.1 -0.1)">
      <use xlink:href="#DejaVuSans-30"/>
      <use x="63.623047" xlink:href="#DejaVuSans-2e"/>
      <use x="95.410156" xlink:href="#DejaVuSans-35"/>
     </g>
    </g>
   </g>
  </g>
  <g id="axes_1">
   <g id="line2d_10">
    <path clip-path="url(#pe73a14e465)" d="M 83.707416 215.123983 
L 83.676489 213.222693 
L 83.678259 211.311832 
L 83.712797 209.391912 
L 83.780164 207.463452 
L 83.880412 205.526975 
L 84.01358 203.583008 
L 84.1797 201.632084 
L 84.378793 199.674738 
L 84.610868 197.711512 
L 84.875926 195.742951 
L 85.173957 193.769601 
L 85.504938 191.792016 
L 85.868839 189.81075 
L 86.265616 187.826362 
L 86.695217 185.839413 
L 87.157578 183.850468 
L 87.652623 181.860093 
L 88.180268 179.868857 
L 88.740416 177.877333 
L 89.33296 175.886093 
L 89.957781 173.895711 
L 90.614751 171.906765 
L 91.303728 169.919833 
L 92.024563 167.935492 
L 92.777093 165.954323 
L 93.561145 163.976906 
L 94.376536 162.003821 
L 95.22307 160.035649 
L 96.100542 158.07297 
L 97.008737 156.116364 
L 97.947426 154.166411 
L 98.916373 152.22369 
L 99.915327 150.288777 
L 100.944032 148.36225 
L 102.002216 146.444681 
L 103.0896 144.536645 
L 104.205894 142.638712 
L 105.350796 140.75145 
L 106.523996 138.875424 
L 107.725172 137.011198 
L 108.953994 135.159331 
L 110.210121 133.32038 
L 111.493202 131.494897 
L 112.802877 129.683432 
L 114.138776 127.88653 
L 115.50052 126.104731 
L 116.88772 124.338571 
L 118.299979 122.588582 
L 119.736891 120.855291 
L 121.19804 119.139218 
L 122.683003 117.440879 
L 124.191347 115.760784 
L 125.722632 114.099438 
L 127.27641 112.457337 
L 128.852223 110.834975 
L 130.449609 109.232835 
L 132.068095 107.651397 
L 133.707202 106.091131 
L 135.366444 104.552501 
L 137.045329 103.035964 
L 138.743356 101.541969 
L 140.46002 100.070958 
L 142.194808 98.623363 
L 143.947201 97.19961 
L 145.716676 95.800116 
L 147.502703 94.425289 
L 149.304746 93.075529 
L 151.122265 91.751227 
L 152.954716 90.452764 
L 154.801548 89.180513 
L 156.662207 87.934839 
L 158.536136 86.716094 
L 160.42277 85.524624 
L 162.321546 84.360762 
L 164.231893 83.224836 
L 166.153239 82.117159 
L 168.085009 81.038036 
L 170.026624 79.987763 
L 171.977505 78.966624 
L 173.937068 77.974895 
L 175.904729 77.012838 
L 177.879902 76.080708 
L 179.861999 75.178747 
L 181.850431 74.307188 
L 183.84461 73.466254 
L 185.843943 72.656154 
L 187.847842 71.877089 
L 189.855714 71.129249 
L 191.86697 70.412811 
L 193.881018 69.727945 
L 195.897269 69.074807 
L 197.915133 68.453542 
L 199.934023 67.864286 
L 201.953352 67.307162 
L 203.972534 66.782285 
L 205.990986 66.289755 
L 208.008126 65.829666 
L 210.023375 65.402096 
L 212.036157 65.007116 
" style="fill:none;stroke:#ff0000;stroke-linecap:square;stroke-width:1.5;"/>
   </g>
   <g id="line2d_11">
    <path clip-path="url(#pe73a14e465)" d="M 83.707416 215.123983 
L 84.988986 213.624822 
L 86.270853 212.125315 
L 87.553017 210.625461 
L 88.835477 209.125261 
L 90.118233 207.624713 
L 91.401286 206.123819 
L 92.684635 204.622578 
L 93.968282 203.120989 
L 95.252225 201.619053 
L 96.536466 200.116769 
L 97.821003 198.614138 
L 99.105838 197.111159 
L 100.39097 195.607833 
L 101.6764 194.104158 
L 102.962127 192.600136 
L 104.248152 191.095765 
L 105.534475 189.591045 
L 106.821095 188.085978 
L 108.108013 186.580562 
L 109.39523 185.074797 
L 110.682745 183.568683 
L 111.970558 182.062221 
L 113.258669 180.555409 
L 114.547079 179.048248 
L 115.835787 177.540738 
L 117.124794 176.032879 
L 118.4141 174.52467 
L 119.703705 173.016111 
L 120.993609 171.507203 
L 122.283812 169.997944 
L 123.574314 168.488336 
L 124.865115 166.978377 
L 126.156216 165.468069 
L 127.447617 163.95741 
L 128.739317 162.4464 
L 130.031316 160.93504 
L 131.323616 159.423329 
L 132.616216 157.911267 
L 133.909115 156.398854 
L 135.202315 154.88609 
L 136.495815 153.372975 
L 137.789615 151.859508 
L 139.083716 150.34569 
L 140.378118 148.831521 
L 141.67282 147.316999 
L 142.967823 145.802126 
L 144.263126 144.286901 
L 145.558731 142.771324 
L 146.854637 141.255394 
L 148.150844 139.739112 
L 149.447352 138.222478 
L 150.744162 136.705491 
L 152.041273 135.188152 
L 153.338686 133.670459 
L 154.636401 132.152414 
L 155.934417 130.634015 
L 157.232735 129.115264 
L 158.531356 127.596159 
L 159.830278 126.0767 
L 161.129503 124.556888 
L 162.42903 123.036723 
L 163.72886 121.516203 
L 165.028992 119.99533 
L 166.329427 118.474102 
L 167.630165 116.952521 
L 168.931205 115.430585 
L 170.232549 113.908294 
L 171.534195 112.385649 
L 172.836145 110.86265 
L 174.138398 109.339295 
L 175.440955 107.815586 
L 176.743815 106.291521 
L 178.046979 104.767102 
L 179.350446 103.242327 
L 180.654217 101.717197 
L 181.958293 100.191711 
L 183.262672 98.665869 
L 184.567355 97.139672 
L 185.872343 95.613118 
L 187.177635 94.086209 
L 188.483232 92.558943 
L 189.789133 91.031322 
L 191.095339 89.503343 
L 192.401849 87.975009 
L 193.708665 86.446317 
L 195.015785 84.917269 
L 196.323211 83.387864 
L 197.630942 81.858101 
L 198.938978 80.327982 
L 200.24732 78.797505 
L 201.555967 77.266671 
L 202.86492 75.73548 
L 204.174178 74.20393 
L 205.483743 72.672023 
L 206.793613 71.139758 
L 208.10379 69.607135 
L 209.414273 68.074154 
L 210.725062 66.540814 
L 212.036157 65.007116 
" style="fill:none;stroke:#008000;stroke-linecap:square;stroke-width:1.5;"/>
   </g>
   <g id="legend_1">
    <g id="patch_6">
     <path d="M 210 51.75625 
L 266.6 51.75625 
Q 268.6 51.75625 268.6 49.75625 
L 268.6 21.4 
Q 268.6 19.4 266.6 19.4 
L 210 19.4 
Q 208 19.4 208 21.4 
L 208 49.75625 
Q 208 51.75625 210 51.75625 
z
" style="fill:#ffffff;opacity:0.8;stroke:#cccccc;stroke-linejoin:miter;"/>
    </g>
    <g id="line2d_12">
     <path d="M 212 27.498438 
L 232 27.498438 
" style="fill:none;stroke:#ff0000;stroke-linecap:square;stroke-width:1.5;"/>
    </g>
    <g id="line2d_13"/>
    <g id="text_7">
     <!-- slerp -->
     <defs>
      <path d="M 44.28125 53.078125 
L 44.28125 44.578125 
Q 40.484375 46.53125 36.375 47.5 
Q 32.28125 48.484375 27.875 48.484375 
Q 21.1875 48.484375 17.84375 46.4375 
Q 14.5 44.390625 14.5 40.28125 
Q 14.5 37.15625 16.890625 35.375 
Q 19.28125 33.59375 26.515625 31.984375 
L 29.59375 31.296875 
Q 39.15625 29.25 43.1875 25.515625 
Q 47.21875 21.78125 47.21875 15.09375 
Q 47.21875 7.46875 41.1875 3.015625 
Q 35.15625 -1.421875 24.609375 -1.421875 
Q 20.21875 -1.421875 15.453125 -0.5625 
Q 10.6875 0.296875 5.421875 2 
L 5.421875 11.28125 
Q 10.40625 8.6875 15.234375 7.390625 
Q 20.0625 6.109375 24.8125 6.109375 
Q 31.15625 6.109375 34.5625 8.28125 
Q 37.984375 10.453125 37.984375 14.40625 
Q 37.984375 18.0625 35.515625 20.015625 
Q 33.0625 21.96875 24.703125 23.78125 
L 21.578125 24.515625 
Q 13.234375 26.265625 9.515625 29.90625 
Q 5.8125 33.546875 5.8125 39.890625 
Q 5.8125 47.609375 11.28125 51.796875 
Q 16.75 56 26.8125 56 
Q 31.78125 56 36.171875 55.265625 
Q 40.578125 54.546875 44.28125 53.078125 
" id="DejaVuSans-73"/>
      <path d="M 9.421875 75.984375 
L 18.40625 75.984375 
L 18.40625 0 
L 9.421875 0 
z
" id="DejaVuSans-6c"/>
      <path d="M 56.203125 29.59375 
L 56.203125 25.203125 
L 14.890625 25.203125 
Q 15.484375 15.921875 20.484375 11.0625 
Q 25.484375 6.203125 34.421875 6.203125 
Q 39.59375 6.203125 44.453125 7.46875 
Q 49.3125 8.734375 54.109375 11.28125 
L 54.109375 2.78125 
Q 49.265625 0.734375 44.1875 -0.34375 
Q 39.109375 -1.421875 33.890625 -1.421875 
Q 20.796875 -1.421875 13.15625 6.1875 
Q 5.515625 13.8125 5.515625 26.8125 
Q 5.515625 40.234375 12.765625 48.109375 
Q 20.015625 56 32.328125 56 
Q 43.359375 56 49.78125 48.890625 
Q 56.203125 41.796875 56.203125 29.59375 
M 47.21875 32.234375 
Q 47.125 39.59375 43.09375 43.984375 
Q 39.0625 48.390625 32.421875 48.390625 
Q 24.90625 48.390625 20.390625 44.140625 
Q 15.875 39.890625 15.1875 32.171875 
z
" id="DejaVuSans-65"/>
      <path d="M 41.109375 46.296875 
Q 39.59375 47.171875 37.8125 47.578125 
Q 36.03125 48 33.890625 48 
Q 26.265625 48 22.1875 43.046875 
Q 18.109375 38.09375 18.109375 28.8125 
L 18.109375 0 
L 9.078125 0 
L 9.078125 54.6875 
L 18.109375 54.6875 
L 18.109375 46.1875 
Q 20.953125 51.171875 25.484375 53.578125 
Q 30.03125 56 36.53125 56 
Q 37.453125 56 38.578125 55.875 
Q 39.703125 55.765625 41.0625 55.515625 
z
" id="DejaVuSans-72"/>
      <path d="M 18.109375 8.203125 
L 18.109375 -20.796875 
L 9.078125 -20.796875 
L 9.078125 54.6875 
L 18.109375 54.6875 
L 18.109375 46.390625 
Q 20.953125 51.265625 25.265625 53.625 
Q 29.59375 56 35.59375 56 
Q 45.5625 56 51.78125 48.09375 
Q 58.015625 40.1875 58.015625 27.296875 
Q 58.015625 14.40625 51.78125 6.484375 
Q 45.5625 -1.421875 35.59375 -1.421875 
Q 29.59375 -1.421875 25.265625 0.953125 
Q 20.953125 3.328125 18.109375 8.203125 
M 48.6875 27.296875 
Q 48.6875 37.203125 44.609375 42.84375 
Q 40.53125 48.484375 33.40625 48.484375 
Q 26.265625 48.484375 22.1875 42.84375 
Q 18.109375 37.203125 18.109375 27.296875 
Q 18.109375 17.390625 22.1875 11.75 
Q 26.265625 6.109375 33.40625 6.109375 
Q 40.53125 6.109375 44.609375 11.75 
Q 48.6875 17.390625 48.6875 27.296875 
" id="DejaVuSans-70"/>
     </defs>
     <g transform="translate(240 30.998438)scale(0.1 -0.1)">
      <use xlink:href="#DejaVuSans-73"/>
      <use x="52.099609" xlink:href="#DejaVuSans-6c"/>
      <use x="79.882812" xlink:href="#DejaVuSans-65"/>
      <use x="141.40625" xlink:href="#DejaVuSans-72"/>
      <use x="182.519531" xlink:href="#DejaVuSans-70"/>
     </g>
    </g>
    <g id="line2d_14">
     <path d="M 212 42.176563 
L 232 42.176563 
" style="fill:none;stroke:#008000;stroke-linecap:square;stroke-width:1.5;"/>
    </g>
    <g id="line2d_15"/>
    <g id="text_8">
     <!-- lerp -->
     <g transform="translate(240 45.676563)scale(0.1 -0.1)">
      <use xlink:href="#DejaVuSans-6c"/>
      <use x="27.783203" xlink:href="#DejaVuSans-65"/>
      <use x="89.306641" xlink:href="#DejaVuSans-72"/>
      <use x="130.419922" xlink:href="#DejaVuSans-70"/>
     </g>
    </g>
   </g>
  </g>
 </g>
 <defs>
  <clipPath id="pe73a14e465">
   <rect height="259.2" width="259.2" x="14.4" y="14.4"/>
  </clipPath>
 </defs>
</svg>
