<?xml version="1.0" encoding="utf-8" standalone="no"?>
<!DOCTYPE svg PUBLIC "-//W3C//DTD SVG 1.1//EN"
  "http://www.w3.org/Graphics/SVG/1.1/DTD/svg11.dtd">
<!-- Created with matplotlib (http://matplotlib.org/) -->
<svg height="216pt" version="1.1" viewBox="0 0 648 216" width="648pt" xmlns="http://www.w3.org/2000/svg" xmlns:xlink="http://www.w3.org/1999/xlink">
 <defs>
  <style type="text/css">
*{stroke-linecap:butt;stroke-linejoin:round;}
  </style>
 </defs>
 <g id="figure_1">
  <g id="patch_1">
   <path d="M 0 216 
L 648 216 
L 648 0 
L 0 0 
z
" style="fill:#ffffff;"/>
  </g>
  <g id="axes_1">
   <g id="patch_2">
    <path d="M 32.4 194.4 
L 199.028571 194.4 
L 199.028571 21.6 
L 32.4 21.6 
z
" style="fill:#ffffff;"/>
   </g>
   <g id="matplotlib.axis_1">
    <g id="xtick_1">
     <g id="line2d_1">
      <defs>
       <path d="M 0 0 
L 0 3.5 
" id="m0223857868" style="stroke:#000000;stroke-width:0.8;"/>
      </defs>
      <g>
       <use style="stroke:#000000;stroke-width:0.8;" x="39.974026" xlink:href="#m0223857868" y="194.4"/>
      </g>
     </g>
     <g id="text_1">
      <!-- −1.0 -->
      <defs>
       <path d="M 10.59375 35.5 
L 73.1875 35.5 
L 73.1875 27.203125 
L 10.59375 27.203125 
z
" id="DejaVuSans-2212"/>
       <path d="M 12.40625 8.296875 
L 28.515625 8.296875 
L 28.515625 63.921875 
L 10.984375 60.40625 
L 10.984375 69.390625 
L 28.421875 72.90625 
L 38.28125 72.90625 
L 38.28125 8.296875 
L 54.390625 8.296875 
L 54.390625 0 
L 12.40625 0 
z
" id="DejaVuSans-31"/>
       <path d="M 10.6875 12.40625 
L 21 12.40625 
L 21 0 
L 10.6875 0 
z
" id="DejaVuSans-2e"/>
       <path d="M 31.78125 66.40625 
Q 24.171875 66.40625 20.328125 58.90625 
Q 16.5 51.421875 16.5 36.375 
Q 16.5 21.390625 20.328125 13.890625 
Q 24.171875 6.390625 31.78125 6.390625 
Q 39.453125 6.390625 43.28125 13.890625 
Q 47.125 21.390625 47.125 36.375 
Q 47.125 51.421875 43.28125 58.90625 
Q 39.453125 66.40625 31.78125 66.40625 
M 31.78125 74.21875 
Q 44.046875 74.21875 50.515625 64.515625 
Q 56.984375 54.828125 56.984375 36.375 
Q 56.984375 17.96875 50.515625 8.265625 
Q 44.046875 -1.421875 31.78125 -1.421875 
Q 19.53125 -1.421875 13.0625 8.265625 
Q 6.59375 17.96875 6.59375 36.375 
Q 6.59375 54.828125 13.0625 64.515625 
Q 19.53125 74.21875 31.78125 74.21875 
" id="DejaVuSans-30"/>
      </defs>
      <g transform="translate(27.83262 208.998437)scale(0.1 -0.1)">
       <use xlink:href="#DejaVuSans-2212"/>
       <use x="83.789062" xlink:href="#DejaVuSans-31"/>
       <use x="147.412109" xlink:href="#DejaVuSans-2e"/>
       <use x="179.199219" xlink:href="#DejaVuSans-30"/>
      </g>
     </g>
    </g>
    <g id="xtick_2">
     <g id="line2d_2">
      <g>
       <use style="stroke:#000000;stroke-width:0.8;" x="77.844156" xlink:href="#m0223857868" y="194.4"/>
      </g>
     </g>
     <g id="text_2">
      <!-- −0.5 -->
      <defs>
       <path d="M 10.796875 72.90625 
L 49.515625 72.90625 
L 49.515625 64.59375 
L 19.828125 64.59375 
L 19.828125 46.734375 
Q 21.96875 47.46875 24.109375 47.828125 
Q 26.265625 48.1875 28.421875 48.1875 
Q 40.625 48.1875 47.75 41.5 
Q 54.890625 34.8125 54.890625 23.390625 
Q 54.890625 11.625 47.5625 5.09375 
Q 40.234375 -1.421875 26.90625 -1.421875 
Q 22.3125 -1.421875 17.546875 -0.640625 
Q 12.796875 0.140625 7.71875 1.703125 
L 7.71875 11.625 
Q 12.109375 9.234375 16.796875 8.0625 
Q 21.484375 6.890625 26.703125 6.890625 
Q 35.15625 6.890625 40.078125 11.328125 
Q 45.015625 15.765625 45.015625 23.390625 
Q 45.015625 31 40.078125 35.4375 
Q 35.15625 39.890625 26.703125 39.890625 
Q 22.75 39.890625 18.8125 39.015625 
Q 14.890625 38.140625 10.796875 36.28125 
z
" id="DejaVuSans-35"/>
      </defs>
      <g transform="translate(65.70275 208.998437)scale(0.1 -0.1)">
       <use xlink:href="#DejaVuSans-2212"/>
       <use x="83.789062" xlink:href="#DejaVuSans-30"/>
       <use x="147.412109" xlink:href="#DejaVuSans-2e"/>
       <use x="179.199219" xlink:href="#DejaVuSans-35"/>
      </g>
     </g>
    </g>
    <g id="xtick_3">
     <g id="line2d_3">
      <g>
       <use style="stroke:#000000;stroke-width:0.8;" x="115.714286" xlink:href="#m0223857868" y="194.4"/>
      </g>
     </g>
     <g id="text_3">
      <!-- 0.0 -->
      <g transform="translate(107.762723 208.998437)scale(0.1 -0.1)">
       <use xlink:href="#DejaVuSans-30"/>
       <use x="63.623047" xlink:href="#DejaVuSans-2e"/>
       <use x="95.410156" xlink:href="#DejaVuSans-30"/>
      </g>
     </g>
    </g>
    <g id="xtick_4">
     <g id="line2d_4">
      <g>
       <use style="stroke:#000000;stroke-width:0.8;" x="153.584416" xlink:href="#m0223857868" y="194.4"/>
      </g>
     </g>
     <g id="text_4">
      <!-- 0.5 -->
      <g transform="translate(145.632853 208.998437)scale(0.1 -0.1)">
       <use xlink:href="#DejaVuSans-30"/>
       <use x="63.623047" xlink:href="#DejaVuSans-2e"/>
       <use x="95.410156" xlink:href="#DejaVuSans-35"/>
      </g>
     </g>
    </g>
    <g id="xtick_5">
     <g id="line2d_5">
      <g>
       <use style="stroke:#000000;stroke-width:0.8;" x="191.454545" xlink:href="#m0223857868" y="194.4"/>
      </g>
     </g>
     <g id="text_5">
      <!-- 1.0 -->
      <g transform="translate(183.502983 208.998437)scale(0.1 -0.1)">
       <use xlink:href="#DejaVuSans-31"/>
       <use x="63.623047" xlink:href="#DejaVuSans-2e"/>
       <use x="95.410156" xlink:href="#DejaVuSans-30"/>
      </g>
     </g>
    </g>
   </g>
   <g id="matplotlib.axis_2">
    <g id="ytick_1">
     <g id="line2d_6">
      <defs>
       <path d="M 0 0 
L -3.5 0 
" id="mc2c9480fef" style="stroke:#000000;stroke-width:0.8;"/>
      </defs>
      <g>
       <use style="stroke:#000000;stroke-width:0.8;" x="32.4" xlink:href="#mc2c9480fef" y="188.140161"/>
      </g>
     </g>
     <g id="text_6">
      <!-- −1.0 -->
      <g transform="translate(1.117187 191.93938)scale(0.1 -0.1)">
       <use xlink:href="#DejaVuSans-2212"/>
       <use x="83.789062" xlink:href="#DejaVuSans-31"/>
       <use x="147.412109" xlink:href="#DejaVuSans-2e"/>
       <use x="179.199219" xlink:href="#DejaVuSans-30"/>
      </g>
     </g>
    </g>
    <g id="ytick_2">
     <g id="line2d_7">
      <g>
       <use style="stroke:#000000;stroke-width:0.8;" x="32.4" xlink:href="#mc2c9480fef" y="148.443489"/>
      </g>
     </g>
     <g id="text_7">
      <!-- −0.5 -->
      <g transform="translate(1.117187 152.242708)scale(0.1 -0.1)">
       <use xlink:href="#DejaVuSans-2212"/>
       <use x="83.789062" xlink:href="#DejaVuSans-30"/>
       <use x="147.412109" xlink:href="#DejaVuSans-2e"/>
       <use x="179.199219" xlink:href="#DejaVuSans-35"/>
      </g>
     </g>
    </g>
    <g id="ytick_3">
     <g id="line2d_8">
      <g>
       <use style="stroke:#000000;stroke-width:0.8;" x="32.4" xlink:href="#mc2c9480fef" y="108.746817"/>
      </g>
     </g>
     <g id="text_8">
      <!-- 0.0 -->
      <g transform="translate(9.496875 112.546036)scale(0.1 -0.1)">
       <use xlink:href="#DejaVuSans-30"/>
       <use x="63.623047" xlink:href="#DejaVuSans-2e"/>
       <use x="95.410156" xlink:href="#DejaVuSans-30"/>
      </g>
     </g>
    </g>
    <g id="ytick_4">
     <g id="line2d_9">
      <g>
       <use style="stroke:#000000;stroke-width:0.8;" x="32.4" xlink:href="#mc2c9480fef" y="69.050145"/>
      </g>
     </g>
     <g id="text_9">
      <!-- 0.5 -->
      <g transform="translate(9.496875 72.849364)scale(0.1 -0.1)">
       <use xlink:href="#DejaVuSans-30"/>
       <use x="63.623047" xlink:href="#DejaVuSans-2e"/>
       <use x="95.410156" xlink:href="#DejaVuSans-35"/>
      </g>
     </g>
    </g>
    <g id="ytick_5">
     <g id="line2d_10">
      <g>
       <use style="stroke:#000000;stroke-width:0.8;" x="32.4" xlink:href="#mc2c9480fef" y="29.353473"/>
      </g>
     </g>
     <g id="text_10">
      <!-- 1.0 -->
      <g transform="translate(9.496875 33.152692)scale(0.1 -0.1)">
       <use xlink:href="#DejaVuSans-31"/>
       <use x="63.623047" xlink:href="#DejaVuSans-2e"/>
       <use x="95.410156" xlink:href="#DejaVuSans-30"/>
      </g>
     </g>
    </g>
   </g>
   <g id="line2d_11">
    <path clip-path="url(#p7523f3289e)" d="M 191.454545 108.746817 
L 191.358498 105.978893 
L 191.30449 106.078797 
L 191.16053 107.629642 
L 190.016609 124.141014 
L 189.825772 124.851027 
L 189.725946 124.939663 
L 189.623186 124.836031 
L 189.408882 124.021439 
L 189.06553 121.233762 
L 188.567047 114.750676 
L 186.460869 83.104808 
L 185.937447 79.285273 
L 185.57457 78.136679 
L 185.388974 78.03163 
L 185.200617 78.254268 
L 184.815648 79.705973 
L 184.419722 82.500887 
L 183.80543 89.079114 
L 182.94863 101.544759 
L 180.621346 138.354293 
L 179.872564 146.562905 
L 179.360643 150.358864 
L 178.838633 152.55093 
L 178.573869 152.994052 
L 178.306613 152.983155 
L 178.036877 152.510038 
L 177.764671 151.571396 
L 177.21289 148.30945 
L 176.651359 143.271845 
L 175.790977 132.744929 
L 174.610517 114.547784 
L 172.138322 75.058695 
L 171.174007 63.495142 
L 170.520117 57.811584 
L 169.857539 54.089545 
L 169.523024 53.032332 
L 169.186376 52.536783 
L 168.847609 52.61512 
L 168.506735 53.273616 
L 168.163769 54.512457 
L 167.471615 58.701141 
L 166.771254 65.059932 
L 166.062799 73.372599 
L 164.985184 88.81883 
L 160.886548 153.166092 
L 160.117482 161.90019 
L 159.341375 168.607991 
L 158.558352 172.974074 
L 158.164285 174.205502 
L 157.768536 174.776013 
L 157.37112 174.674134 
L 156.972053 173.895349 
L 156.57135 172.442195 
L 156.169028 170.324291 
L 155.35959 164.167771 
L 154.543865 155.640724 
L 153.308777 139.125086 
L 151.641208 112.4853 
L 149.097471 71.443773 
L 147.807511 54.573661 
L 146.941149 45.841901 
L 146.069837 39.583058 
L 145.632367 37.474575 
L 145.193712 36.083057 
L 144.753888 35.426677 
L 144.312913 35.516056 
L 143.870804 36.35411 
L 143.427579 37.935985 
L 142.983256 40.249069 
L 142.091385 46.980277 
L 141.195332 56.297323 
L 140.295239 67.84007 
L 138.937837 88.308726 
L 134.817877 154.177745 
L 133.893533 165.838492 
L 132.966307 175.245464 
L 132.036346 181.998641 
L 131.570386 184.28408 
L 131.103798 185.805569 
L 130.636599 186.545455 
L 130.168809 186.494139 
L 129.700446 185.650192 
L 129.231529 184.020392 
L 128.762076 181.619668 
L 127.821636 174.605029 
L 126.879278 164.881462 
L 125.935149 152.837233 
L 124.515964 131.503691 
L 120.241601 63.097288 
L 119.289285 51.018161 
L 118.336402 41.270235 
L 117.383104 34.254998 
L 116.906346 31.867239 
L 116.429541 30.261557 
L 115.952707 29.454545 
L 115.475864 29.454545 
L 114.999031 30.261557 
L 114.522225 31.867239 
L 114.045468 34.254998 
L 113.092169 41.270235 
L 112.139286 51.018161 
L 111.18697 63.097288 
L 109.759889 84.478498 
L 105.493423 152.837233 
L 104.549294 164.881462 
L 103.606935 174.605029 
L 102.666496 181.619668 
L 102.197043 184.020392 
L 101.728125 185.650192 
L 101.259762 186.494139 
L 100.791972 186.545455 
L 100.324774 185.805569 
L 99.858185 184.28408 
L 99.392225 181.998641 
L 98.462264 175.245464 
L 97.535038 165.838492 
L 96.610695 154.177745 
L 95.229904 133.553096 
L 91.133333 67.84007 
L 90.23324 56.297323 
L 89.337186 46.980277 
L 88.445315 40.249069 
L 88.000992 37.935985 
L 87.557768 36.35411 
L 87.115659 35.516056 
L 86.674684 35.426677 
L 86.23486 36.083057 
L 85.796204 37.474575 
L 85.358735 39.583058 
L 84.487422 45.841901 
L 83.62106 54.573661 
L 82.759787 65.393704 
L 81.477716 84.501936 
L 77.294885 150.583757 
L 76.476066 160.183005 
L 75.663469 167.558293 
L 74.857221 172.442195 
L 74.456519 173.895349 
L 74.057451 174.674134 
L 73.660035 174.776013 
L 73.264286 174.205502 
L 72.870219 172.974074 
L 72.477851 171.099977 
L 71.698271 165.529115 
L 70.925669 157.763462 
L 69.780119 142.799384 
L 68.278277 119.02521 
L 66.08221 83.335155 
L 65.01054 68.989086 
L 64.306118 61.620626 
L 63.609847 56.325676 
L 62.921836 53.273616 
L 62.580963 52.61512 
L 62.242196 52.536783 
L 61.905548 53.032332 
L 61.571033 54.089545 
L 60.908454 57.811584 
L 60.254565 63.495142 
L 59.290249 75.058695 
L 58.035863 94.207252 
L 55.637595 132.744929 
L 54.777212 143.271845 
L 54.215681 148.30945 
L 53.663901 151.571396 
L 53.391694 152.510038 
L 53.121958 152.983155 
L 52.854703 152.994052 
L 52.589939 152.55093 
L 52.327677 151.66672 
L 51.810701 148.64905 
L 51.303857 144.129646 
L 50.562763 135.085006 
L 49.379379 116.532595 
L 47.833314 91.846768 
L 47.210901 84.387979 
L 46.612924 79.705973 
L 46.227954 78.254268 
L 46.039597 78.03163 
L 45.854002 78.136679 
L 45.671175 78.559108 
L 45.313858 80.298425 
L 44.798827 84.851562 
L 44.151502 93.502514 
L 42.245677 122.371482 
L 41.911075 124.531889 
L 41.702625 124.939663 
L 41.602799 124.851027 
L 41.411963 124.141014 
L 41.147806 121.958477 
L 40.766695 116.522666 
L 40.095579 105.975225 
L 40.070073 105.978893 
L 40.011549 106.558315 
L 39.974026 108.746817 
L 39.974026 108.746817 
" style="fill:none;stroke:#0000ff;stroke-linecap:square;stroke-width:1.5;"/>
   </g>
   <g id="patch_3">
    <path d="M 32.4 194.4 
L 32.4 21.6 
" style="fill:none;stroke:#000000;stroke-linecap:square;stroke-linejoin:miter;stroke-width:0.8;"/>
   </g>
   <g id="patch_4">
    <path d="M 199.028571 194.4 
L 199.028571 21.6 
" style="fill:none;stroke:#000000;stroke-linecap:square;stroke-linejoin:miter;stroke-width:0.8;"/>
   </g>
   <g id="patch_5">
    <path d="M 32.4 194.4 
L 199.028571 194.4 
" style="fill:none;stroke:#000000;stroke-linecap:square;stroke-linejoin:miter;stroke-width:0.8;"/>
   </g>
   <g id="patch_6">
    <path d="M 32.4 21.6 
L 199.028571 21.6 
" style="fill:none;stroke:#000000;stroke-linecap:square;stroke-linejoin:miter;stroke-width:0.8;"/>
   </g>
  </g>
  <g id="axes_2">
   <g id="patch_7">
    <path d="M 240.685714 194.4 
L 407.314286 194.4 
L 407.314286 21.6 
L 240.685714 21.6 
z
" style="fill:#ffffff;"/>
   </g>
   <g id="matplotlib.axis_3">
    <g id="xtick_6">
     <g id="line2d_12">
      <g>
       <use style="stroke:#000000;stroke-width:0.8;" x="246.721987" xlink:href="#m0223857868" y="194.4"/>
      </g>
     </g>
     <g id="text_11">
      <!-- −1.0 -->
      <g transform="translate(234.580581 208.998437)scale(0.1 -0.1)">
       <use xlink:href="#DejaVuSans-2212"/>
       <use x="83.789062" xlink:href="#DejaVuSans-31"/>
       <use x="147.412109" xlink:href="#DejaVuSans-2e"/>
       <use x="179.199219" xlink:href="#DejaVuSans-30"/>
      </g>
     </g>
    </g>
    <g id="xtick_7">
     <g id="line2d_13">
      <g>
       <use style="stroke:#000000;stroke-width:0.8;" x="285.000921" xlink:href="#m0223857868" y="194.4"/>
      </g>
     </g>
     <g id="text_12">
      <!-- −0.5 -->
      <g transform="translate(272.859515 208.998437)scale(0.1 -0.1)">
       <use xlink:href="#DejaVuSans-2212"/>
       <use x="83.789062" xlink:href="#DejaVuSans-30"/>
       <use x="147.412109" xlink:href="#DejaVuSans-2e"/>
       <use x="179.199219" xlink:href="#DejaVuSans-35"/>
      </g>
     </g>
    </g>
    <g id="xtick_8">
     <g id="line2d_14">
      <g>
       <use style="stroke:#000000;stroke-width:0.8;" x="323.279855" xlink:href="#m0223857868" y="194.4"/>
      </g>
     </g>
     <g id="text_13">
      <!-- 0.0 -->
      <g transform="translate(315.328292 208.998437)scale(0.1 -0.1)">
       <use xlink:href="#DejaVuSans-30"/>
       <use x="63.623047" xlink:href="#DejaVuSans-2e"/>
       <use x="95.410156" xlink:href="#DejaVuSans-30"/>
      </g>
     </g>
    </g>
    <g id="xtick_9">
     <g id="line2d_15">
      <g>
       <use style="stroke:#000000;stroke-width:0.8;" x="361.558789" xlink:href="#m0223857868" y="194.4"/>
      </g>
     </g>
     <g id="text_14">
      <!-- 0.5 -->
      <g transform="translate(353.607226 208.998437)scale(0.1 -0.1)">
       <use xlink:href="#DejaVuSans-30"/>
       <use x="63.623047" xlink:href="#DejaVuSans-2e"/>
       <use x="95.410156" xlink:href="#DejaVuSans-35"/>
      </g>
     </g>
    </g>
    <g id="xtick_10">
     <g id="line2d_16">
      <g>
       <use style="stroke:#000000;stroke-width:0.8;" x="399.837722" xlink:href="#m0223857868" y="194.4"/>
      </g>
     </g>
     <g id="text_15">
      <!-- 1.0 -->
      <g transform="translate(391.88616 208.998437)scale(0.1 -0.1)">
       <use xlink:href="#DejaVuSans-31"/>
       <use x="63.623047" xlink:href="#DejaVuSans-2e"/>
       <use x="95.410156" xlink:href="#DejaVuSans-30"/>
      </g>
     </g>
    </g>
   </g>
   <g id="matplotlib.axis_4">
    <g id="ytick_6">
     <g id="line2d_17">
      <g>
       <use style="stroke:#000000;stroke-width:0.8;" x="240.685714" xlink:href="#mc2c9480fef" y="186.924448"/>
      </g>
     </g>
     <g id="text_16">
      <!-- −1.0 -->
      <g transform="translate(209.402902 190.723666)scale(0.1 -0.1)">
       <use xlink:href="#DejaVuSans-2212"/>
       <use x="83.789062" xlink:href="#DejaVuSans-31"/>
       <use x="147.412109" xlink:href="#DejaVuSans-2e"/>
       <use x="179.199219" xlink:href="#DejaVuSans-30"/>
      </g>
     </g>
    </g>
    <g id="ytick_7">
     <g id="line2d_18">
      <g>
       <use style="stroke:#000000;stroke-width:0.8;" x="240.685714" xlink:href="#mc2c9480fef" y="147.462224"/>
      </g>
     </g>
     <g id="text_17">
      <!-- −0.5 -->
      <g transform="translate(209.402902 151.261443)scale(0.1 -0.1)">
       <use xlink:href="#DejaVuSans-2212"/>
       <use x="83.789062" xlink:href="#DejaVuSans-30"/>
       <use x="147.412109" xlink:href="#DejaVuSans-2e"/>
       <use x="179.199219" xlink:href="#DejaVuSans-35"/>
      </g>
     </g>
    </g>
    <g id="ytick_8">
     <g id="line2d_19">
      <g>
       <use style="stroke:#000000;stroke-width:0.8;" x="240.685714" xlink:href="#mc2c9480fef" y="108"/>
      </g>
     </g>
     <g id="text_18">
      <!-- 0.0 -->
      <g transform="translate(217.782589 111.799219)scale(0.1 -0.1)">
       <use xlink:href="#DejaVuSans-30"/>
       <use x="63.623047" xlink:href="#DejaVuSans-2e"/>
       <use x="95.410156" xlink:href="#DejaVuSans-30"/>
      </g>
     </g>
    </g>
    <g id="ytick_9">
     <g id="line2d_20">
      <g>
       <use style="stroke:#000000;stroke-width:0.8;" x="240.685714" xlink:href="#mc2c9480fef" y="68.537776"/>
      </g>
     </g>
     <g id="text_19">
      <!-- 0.5 -->
      <g transform="translate(217.782589 72.336995)scale(0.1 -0.1)">
       <use xlink:href="#DejaVuSans-30"/>
       <use x="63.623047" xlink:href="#DejaVuSans-2e"/>
       <use x="95.410156" xlink:href="#DejaVuSans-35"/>
      </g>
     </g>
    </g>
    <g id="ytick_10">
     <g id="line2d_21">
      <g>
       <use style="stroke:#000000;stroke-width:0.8;" x="240.685714" xlink:href="#mc2c9480fef" y="29.075552"/>
      </g>
     </g>
     <g id="text_20">
      <!-- 1.0 -->
      <g transform="translate(217.782589 32.874771)scale(0.1 -0.1)">
       <use xlink:href="#DejaVuSans-31"/>
       <use x="63.623047" xlink:href="#DejaVuSans-2e"/>
       <use x="95.410156" xlink:href="#DejaVuSans-30"/>
      </g>
     </g>
    </g>
   </g>
   <g id="line2d_22">
    <path clip-path="url(#p2c7481776f)" d="M 323.279855 108 
L 323.7594 107.950032 
L 324.224315 107.801145 
L 325.053233 107.220729 
L 325.658917 106.306212 
L 325.948925 105.133453 
L 325.852589 103.802032 
L 325.326285 102.429069 
L 324.896603 101.766614 
L 324.357131 101.141873 
L 323.711373 100.57102 
L 322.964887 100.069832 
L 322.12524 99.653423 
L 321.201925 99.335994 
L 320.206257 99.130578 
L 319.151235 99.048816 
L 318.05138 99.100732 
L 316.922548 99.294546 
L 315.781715 99.636494 
L 314.646752 100.130686 
L 313.536175 100.778985 
L 312.468883 101.58092 
L 311.463889 102.53363 
L 310.54004 103.631839 
L 309.715736 104.867865 
L 309.00865 106.231669 
L 308.435451 107.710928 
L 308.011541 109.29115 
L 307.750795 110.955819 
L 307.665325 112.686565 
L 307.765256 114.463374 
L 308.058536 116.264816 
L 308.550756 118.0683 
L 309.24501 119.85035 
L 310.141785 121.586901 
L 311.238872 123.253604 
L 312.531328 124.826147 
L 314.01146 126.280579 
L 315.668851 127.593637 
L 317.49042 128.743072 
L 319.460521 129.707966 
L 321.561076 130.469044 
L 323.771739 131.008963 
L 326.0701 131.312594 
L 328.431913 131.367269 
L 330.831354 131.16301 
L 333.24131 130.692727 
L 335.633684 129.952383 
L 337.979718 128.941125 
L 340.250341 127.661373 
L 342.416515 126.11888 
L 344.449599 124.32274 
L 346.321708 122.285363 
L 348.006078 120.022405 
L 349.477413 117.552656 
L 350.712233 114.89789 
L 351.689201 112.082674 
L 352.389432 109.134135 
L 352.796774 106.081701 
L 352.898071 102.956795 
L 352.683385 99.792515 
L 352.14619 96.623271 
L 351.283526 93.484415 
L 350.096114 90.411837 
L 348.588431 87.441562 
L 346.768735 84.609322 
L 344.649058 81.950139 
L 342.245141 79.497897 
L 339.576331 77.284925 
L 336.665434 75.341586 
L 333.538521 73.695889 
L 330.224697 72.373115 
L 326.755823 71.395468 
L 323.166209 70.781764 
L 319.492267 70.547139 
L 315.77214 70.702813 
L 312.045296 71.255877 
L 308.352103 72.209139 
L 304.733393 73.561007 
L 301.230004 75.305425 
L 297.882315 77.431861 
L 294.729789 79.925337 
L 291.810503 82.766525 
L 289.160698 85.93188 
L 286.814342 89.393833 
L 284.802702 93.121027 
L 283.153953 97.078604 
L 281.892806 101.228535 
L 281.040175 105.529987 
L 280.612879 109.939734 
L 280.623386 114.4126 
L 281.079607 118.901922 
L 281.984725 123.360052 
L 283.337094 127.738862 
L 285.130173 131.990275 
L 287.352525 136.066791 
L 289.987863 139.922026 
L 293.015161 143.511237 
L 296.408806 146.791841 
L 300.138818 149.723915 
L 304.171108 152.270673 
L 308.467794 154.39892 
L 312.987561 156.079462 
L 317.686065 157.28749 
L 322.516373 158.002905 
L 327.429437 158.210614 
L 332.374606 157.900756 
L 337.30015 157.068885 
L 342.153811 155.716094 
L 346.883364 153.849072 
L 351.437188 151.480112 
L 355.764829 148.627047 
L 359.817567 145.31313 
L 363.548965 141.566853 
L 366.915399 137.421701 
L 369.876568 132.915857 
L 372.395973 128.091845 
L 374.441351 122.996125 
L 375.985082 117.678639 
L 377.004537 112.192311 
L 377.482388 106.592519 
L 377.406848 100.936521 
L 376.77187 95.282861 
L 375.577273 89.690759 
L 373.828813 84.219477 
L 371.538185 78.927685 
L 368.722968 73.872825 
L 365.406494 69.110481 
L 361.617667 64.693764 
L 357.390708 60.672714 
L 352.764848 57.093734 
L 347.783958 53.999056 
L 342.496128 51.426244 
L 336.9532 49.407747 
L 331.210245 47.970501 
L 325.325015 47.135585 
L 319.357347 46.917939 
L 313.368547 47.326146 
L 307.420753 48.362278 
L 301.576279 50.021813 
L 295.896952 52.293624 
L 290.443451 55.160029 
L 285.274652 58.596927 
L 280.446983 62.573993 
L 276.013805 67.054944 
L 272.024817 71.997873 
L 268.525496 77.355645 
L 265.55658 83.076353 
L 263.153594 89.103825 
L 261.346429 95.37819 
L 260.15898 101.836476 
L 259.608845 108.413255 
L 259.707085 115.041316 
L 260.458056 121.652361 
L 261.859312 128.177721 
L 263.901577 134.549079 
L 266.568788 140.699195 
L 269.838221 146.562623 
L 273.680674 152.076421 
L 278.06073 157.18083 
L 282.937091 161.819927 
L 288.262965 165.942249 
L 293.986525 169.50136 
L 300.051419 172.45638 
L 306.397338 174.772456 
L 312.960616 176.421165 
L 319.67489 177.38086 
L 326.471771 177.63694 
L 333.281559 177.182052 
L 340.033965 176.016213 
L 346.658847 174.146857 
L 353.086953 171.588801 
L 359.250648 168.364135 
L 365.084643 164.502034 
L 370.52669 160.038491 
L 375.518256 155.015981 
L 380.00516 149.483049 
L 383.938167 143.493834 
L 387.273529 137.107535 
L 389.97348 130.387811 
L 392.00666 123.402142 
L 393.348481 116.221137 
L 393.981418 108.91781 
L 393.895232 101.566829 
L 393.087108 94.243736 
L 391.561729 87.024162 
L 389.331255 79.983034 
L 386.415238 73.193785 
L 382.840447 66.727579 
L 378.640623 60.652554 
L 373.856153 55.033095 
L 368.533682 49.929141 
L 362.725647 45.395539 
L 356.489753 41.481451 
L 349.888394 38.229811 
L 342.988014 35.676852 
L 335.85843 33.851703 
L 328.572117 32.77605 
L 321.203455 32.463888 
L 313.827962 32.921341 
L 306.521506 34.146569 
L 299.359514 36.129763 
L 292.416182 38.853216 
L 285.763694 42.291481 
L 279.47146 46.411615 
L 273.605386 51.173493 
L 268.227168 56.530211 
L 263.39364 62.428551 
L 259.15616 68.809518 
L 255.560063 75.608942 
L 252.644167 82.758132 
L 250.440351 90.184579 
L 248.973202 97.812705 
L 248.25974 105.564645 
L 248.309223 113.361052 
L 249.123029 121.12192 
L 250.694622 128.767424 
L 253.009606 136.218745 
L 256.045853 143.398901 
L 259.773722 150.233551 
L 264.156349 156.651777 
L 269.150019 162.586831 
L 274.704609 167.976838 
L 280.764097 172.765451 
L 287.26714 176.902447 
L 294.147699 180.344263 
L 301.335726 183.05446 
L 308.757884 185.004113 
L 316.338307 186.172125 
L 323.999391 186.545455 
L 331.662596 186.119266 
L 339.249266 184.896987 
L 346.681448 182.890284 
L 353.882706 180.118947 
L 360.778915 176.610695 
L 367.299043 172.400891 
L 373.375886 167.532182 
L 378.946773 162.054058 
L 383.954227 156.022345 
L 388.346559 149.498623 
L 392.078416 142.549591 
L 395.111252 135.246372 
L 397.413734 127.663776 
L 398.96207 119.879521 
L 399.74026 111.973426 
L 399.74026 104.026574 
L 398.96207 96.120479 
L 397.413734 88.336224 
L 395.111252 80.753628 
L 392.078416 73.450409 
L 388.346559 66.501377 
L 383.954227 59.977655 
L 378.946773 53.945942 
L 373.375886 48.467818 
L 367.299043 43.599109 
L 360.778915 39.389305 
L 353.882706 35.881053 
L 346.681448 33.109716 
L 339.249266 31.103013 
L 331.662596 29.880734 
L 323.999391 29.454545 
L 316.338307 29.827875 
L 308.757884 30.995887 
L 301.335726 32.94554 
L 294.147699 35.655737 
L 287.26714 39.097553 
L 280.764097 43.234549 
L 274.704609 48.023162 
L 269.150019 53.413169 
L 264.156349 59.348223 
L 259.773722 65.766449 
L 256.045853 72.601099 
L 253.009606 79.781255 
L 250.694622 87.232576 
L 249.123029 94.87808 
L 248.309223 102.638948 
L 248.25974 110.435355 
L 248.973202 118.187295 
L 250.440351 125.815421 
L 252.644167 133.241868 
L 255.560063 140.391058 
L 259.15616 147.190482 
L 263.39364 153.571449 
L 268.227168 159.469789 
L 273.605386 164.826507 
L 279.47146 169.588385 
L 285.763694 173.708519 
L 292.416182 177.146784 
L 299.359514 179.870237 
L 306.521506 181.853431 
L 313.827962 183.078659 
L 321.203455 183.536112 
L 328.572117 183.22395 
L 335.85843 182.148297 
L 342.988014 180.323148 
L 349.888394 177.770189 
L 356.489753 174.518549 
L 362.725647 170.604461 
L 368.533682 166.070859 
L 373.856153 160.966905 
L 378.640623 155.347446 
L 382.840447 149.272421 
L 386.415238 142.806215 
L 389.331255 136.016966 
L 391.561729 128.975838 
L 393.087108 121.756264 
L 393.895232 114.433171 
L 393.981418 107.08219 
L 393.348481 99.778863 
L 392.00666 92.597858 
L 389.97348 85.612189 
L 387.273529 78.892465 
L 383.938167 72.506166 
L 380.00516 66.516951 
L 375.518256 60.984019 
L 370.52669 55.961509 
L 365.084643 51.497966 
L 359.250648 47.635865 
L 353.086953 44.411199 
L 346.658847 41.853143 
L 340.033965 39.983787 
L 333.281559 38.817948 
L 326.471771 38.36306 
L 319.67489 38.61914 
L 312.960616 39.578835 
L 306.397338 41.227544 
L 300.051419 43.54362 
L 293.986525 46.49864 
L 288.262965 50.057751 
L 282.937091 54.180073 
L 278.06073 58.81917 
L 273.680674 63.923579 
L 269.838221 69.437377 
L 266.568788 75.300805 
L 263.901577 81.450921 
L 261.859312 87.822279 
L 260.458056 94.347639 
L 259.707085 100.958684 
L 259.608845 107.586745 
L 260.15898 114.163524 
L 261.346429 120.62181 
L 263.153594 126.896175 
L 265.55658 132.923647 
L 268.525496 138.644355 
L 272.024817 144.002127 
L 276.013805 148.945056 
L 280.446983 153.426007 
L 285.274652 157.403073 
L 290.443451 160.839971 
L 295.896952 163.706376 
L 301.576279 165.978187 
L 307.420753 167.637722 
L 313.368547 168.673854 
L 319.357347 169.082061 
L 325.325015 168.864415 
L 331.210245 168.029499 
L 336.9532 166.592253 
L 342.496128 164.573756 
L 347.783958 162.000944 
L 352.764848 158.906266 
L 357.390708 155.327286 
L 361.617667 151.306236 
L 365.406494 146.889519 
L 368.722968 142.127175 
L 371.538185 137.072315 
L 373.828813 131.780523 
L 375.577273 126.309241 
L 376.77187 120.717139 
L 377.406848 115.063479 
L 377.482388 109.407481 
L 377.004537 103.807689 
L 375.985082 98.321361 
L 374.441351 93.003875 
L 372.395973 87.908155 
L 369.876568 83.084143 
L 366.915399 78.578299 
L 363.548965 74.433147 
L 359.817567 70.68687 
L 355.764829 67.372953 
L 351.437188 64.519888 
L 346.883364 62.150928 
L 342.153811 60.283906 
L 337.30015 58.931115 
L 332.374606 58.099244 
L 327.429437 57.789386 
L 322.516373 57.997095 
L 317.686065 58.71251 
L 312.987561 59.920538 
L 308.467794 61.60108 
L 304.171108 63.729327 
L 300.138818 66.276085 
L 296.408806 69.208159 
L 293.015161 72.488763 
L 289.987863 76.077974 
L 287.352525 79.933209 
L 285.130173 84.009725 
L 283.337094 88.261138 
L 281.984725 92.639948 
L 281.079607 97.098078 
L 280.623386 101.5874 
L 280.612879 106.060266 
L 281.040175 110.470013 
L 281.892806 114.771465 
L 283.153953 118.921396 
L 284.802702 122.878973 
L 286.814342 126.606167 
L 289.160698 130.06812 
L 291.810503 133.233475 
L 294.729789 136.074663 
L 297.882315 138.568139 
L 301.230004 140.694575 
L 304.733393 142.438993 
L 308.352103 143.790861 
L 312.045296 144.744123 
L 315.77214 145.297187 
L 319.492267 145.452861 
L 323.166209 145.218236 
L 326.755823 144.604532 
L 330.224697 143.626885 
L 333.538521 142.304111 
L 336.665434 140.658414 
L 339.576331 138.715075 
L 342.245141 136.502103 
L 344.649058 134.049861 
L 346.768735 131.390678 
L 348.588431 128.558438 
L 350.096114 125.588163 
L 351.283526 122.515585 
L 352.14619 119.376729 
L 352.683385 116.207485 
L 352.898071 113.043205 
L 352.796774 109.918299 
L 352.389432 106.865865 
L 351.689201 103.917326 
L 350.712233 101.10211 
L 349.477413 98.447344 
L 348.006078 95.977595 
L 346.321708 93.714637 
L 344.449599 91.67726 
L 342.416515 89.88112 
L 340.250341 88.338627 
L 337.979718 87.058875 
L 335.633684 86.047617 
L 333.24131 85.307273 
L 330.831354 84.83699 
L 328.431913 84.632731 
L 326.0701 84.687406 
L 323.771739 84.991037 
L 321.561076 85.530956 
L 319.460521 86.292034 
L 317.49042 87.256928 
L 315.668851 88.406363 
L 314.01146 89.719421 
L 312.531328 91.173853 
L 311.238872 92.746396 
L 310.141785 94.413099 
L 309.24501 96.14965 
L 308.550756 97.9317 
L 308.058536 99.735184 
L 307.765256 101.536626 
L 307.665325 103.313435 
L 307.750795 105.044181 
L 308.011541 106.70885 
L 308.435451 108.289072 
L 309.00865 109.768331 
L 309.715736 111.132135 
L 310.54004 112.368161 
L 311.463889 113.46637 
L 312.468883 114.41908 
L 313.536175 115.221015 
L 314.646752 115.869314 
L 315.781715 116.363506 
L 316.922548 116.705454 
L 318.05138 116.899268 
L 319.151235 116.951184 
L 320.206257 116.869422 
L 321.201925 116.664006 
L 322.12524 116.346577 
L 322.964887 115.930168 
L 323.711373 115.42898 
L 324.896603 114.233386 
L 325.64474 112.887067 
L 325.952462 111.519415 
L 325.848376 110.253621 
L 325.390196 109.198889 
L 324.660222 108.443625 
L 323.7594 108.049968 
L 323.279855 108 
L 323.279855 108 
" style="fill:none;stroke:#0000ff;stroke-linecap:square;stroke-width:1.5;"/>
   </g>
   <g id="patch_8">
    <path d="M 240.685714 194.4 
L 240.685714 21.6 
" style="fill:none;stroke:#000000;stroke-linecap:square;stroke-linejoin:miter;stroke-width:0.8;"/>
   </g>
   <g id="patch_9">
    <path d="M 407.314286 194.4 
L 407.314286 21.6 
" style="fill:none;stroke:#000000;stroke-linecap:square;stroke-linejoin:miter;stroke-width:0.8;"/>
   </g>
   <g id="patch_10">
    <path d="M 240.685714 194.4 
L 407.314286 194.4 
" style="fill:none;stroke:#000000;stroke-linecap:square;stroke-linejoin:miter;stroke-width:0.8;"/>
   </g>
   <g id="patch_11">
    <path d="M 240.685714 21.6 
L 407.314286 21.6 
" style="fill:none;stroke:#000000;stroke-linecap:square;stroke-linejoin:miter;stroke-width:0.8;"/>
   </g>
  </g>
  <g id="axes_3">
   <g id="patch_12">
    <path d="M 448.971429 194.4 
L 615.6 194.4 
L 615.6 21.6 
L 448.971429 21.6 
z
" style="fill:#ffffff;"/>
   </g>
   <g id="matplotlib.axis_5">
    <g id="xtick_11">
     <g id="line2d_23">
      <g>
       <use style="stroke:#000000;stroke-width:0.8;" x="456.179997" xlink:href="#m0223857868" y="194.4"/>
      </g>
     </g>
     <g id="text_21">
      <!-- −1.0 -->
      <g transform="translate(444.038591 208.998437)scale(0.1 -0.1)">
       <use xlink:href="#DejaVuSans-2212"/>
       <use x="83.789062" xlink:href="#DejaVuSans-31"/>
       <use x="147.412109" xlink:href="#DejaVuSans-2e"/>
       <use x="179.199219" xlink:href="#DejaVuSans-30"/>
      </g>
     </g>
    </g>
    <g id="xtick_12">
     <g id="line2d_24">
      <g>
       <use style="stroke:#000000;stroke-width:0.8;" x="494.232856" xlink:href="#m0223857868" y="194.4"/>
      </g>
     </g>
     <g id="text_22">
      <!-- −0.5 -->
      <g transform="translate(482.091449 208.998437)scale(0.1 -0.1)">
       <use xlink:href="#DejaVuSans-2212"/>
       <use x="83.789062" xlink:href="#DejaVuSans-30"/>
       <use x="147.412109" xlink:href="#DejaVuSans-2e"/>
       <use x="179.199219" xlink:href="#DejaVuSans-35"/>
      </g>
     </g>
    </g>
    <g id="xtick_13">
     <g id="line2d_25">
      <g>
       <use style="stroke:#000000;stroke-width:0.8;" x="532.285714" xlink:href="#m0223857868" y="194.4"/>
      </g>
     </g>
     <g id="text_23">
      <!-- 0.0 -->
      <g transform="translate(524.334152 208.998437)scale(0.1 -0.1)">
       <use xlink:href="#DejaVuSans-30"/>
       <use x="63.623047" xlink:href="#DejaVuSans-2e"/>
       <use x="95.410156" xlink:href="#DejaVuSans-30"/>
      </g>
     </g>
    </g>
    <g id="xtick_14">
     <g id="line2d_26">
      <g>
       <use style="stroke:#000000;stroke-width:0.8;" x="570.338573" xlink:href="#m0223857868" y="194.4"/>
      </g>
     </g>
     <g id="text_24">
      <!-- 0.5 -->
      <g transform="translate(562.38701 208.998437)scale(0.1 -0.1)">
       <use xlink:href="#DejaVuSans-30"/>
       <use x="63.623047" xlink:href="#DejaVuSans-2e"/>
       <use x="95.410156" xlink:href="#DejaVuSans-35"/>
      </g>
     </g>
    </g>
    <g id="xtick_15">
     <g id="line2d_27">
      <g>
       <use style="stroke:#000000;stroke-width:0.8;" x="608.391432" xlink:href="#m0223857868" y="194.4"/>
      </g>
     </g>
     <g id="text_25">
      <!-- 1.0 -->
      <g transform="translate(600.439869 208.998437)scale(0.1 -0.1)">
       <use xlink:href="#DejaVuSans-31"/>
       <use x="63.623047" xlink:href="#DejaVuSans-2e"/>
       <use x="95.410156" xlink:href="#DejaVuSans-30"/>
      </g>
     </g>
    </g>
   </g>
   <g id="matplotlib.axis_6">
    <g id="ytick_11">
     <g id="line2d_28">
      <g>
       <use style="stroke:#000000;stroke-width:0.8;" x="448.971429" xlink:href="#mc2c9480fef" y="186.545455"/>
      </g>
     </g>
     <g id="text_26">
      <!-- −1.0 -->
      <g transform="translate(417.688616 190.344673)scale(0.1 -0.1)">
       <use xlink:href="#DejaVuSans-2212"/>
       <use x="83.789062" xlink:href="#DejaVuSans-31"/>
       <use x="147.412109" xlink:href="#DejaVuSans-2e"/>
       <use x="179.199219" xlink:href="#DejaVuSans-30"/>
      </g>
     </g>
    </g>
    <g id="ytick_12">
     <g id="line2d_29">
      <g>
       <use style="stroke:#000000;stroke-width:0.8;" x="448.971429" xlink:href="#mc2c9480fef" y="147.272727"/>
      </g>
     </g>
     <g id="text_27">
      <!-- −0.5 -->
      <g transform="translate(417.688616 151.071946)scale(0.1 -0.1)">
       <use xlink:href="#DejaVuSans-2212"/>
       <use x="83.789062" xlink:href="#DejaVuSans-30"/>
       <use x="147.412109" xlink:href="#DejaVuSans-2e"/>
       <use x="179.199219" xlink:href="#DejaVuSans-35"/>
      </g>
     </g>
    </g>
    <g id="ytick_13">
     <g id="line2d_30">
      <g>
       <use style="stroke:#000000;stroke-width:0.8;" x="448.971429" xlink:href="#mc2c9480fef" y="108"/>
      </g>
     </g>
     <g id="text_28">
      <!-- 0.0 -->
      <g transform="translate(426.068304 111.799219)scale(0.1 -0.1)">
       <use xlink:href="#DejaVuSans-30"/>
       <use x="63.623047" xlink:href="#DejaVuSans-2e"/>
       <use x="95.410156" xlink:href="#DejaVuSans-30"/>
      </g>
     </g>
    </g>
    <g id="ytick_14">
     <g id="line2d_31">
      <g>
       <use style="stroke:#000000;stroke-width:0.8;" x="448.971429" xlink:href="#mc2c9480fef" y="68.727273"/>
      </g>
     </g>
     <g id="text_29">
      <!-- 0.5 -->
      <g transform="translate(426.068304 72.526491)scale(0.1 -0.1)">
       <use xlink:href="#DejaVuSans-30"/>
       <use x="63.623047" xlink:href="#DejaVuSans-2e"/>
       <use x="95.410156" xlink:href="#DejaVuSans-35"/>
      </g>
     </g>
    </g>
    <g id="ytick_15">
     <g id="line2d_32">
      <g>
       <use style="stroke:#000000;stroke-width:0.8;" x="448.971429" xlink:href="#mc2c9480fef" y="29.454545"/>
      </g>
     </g>
     <g id="text_30">
      <!-- 1.0 -->
      <g transform="translate(426.068304 33.253764)scale(0.1 -0.1)">
       <use xlink:href="#DejaVuSans-31"/>
       <use x="63.623047" xlink:href="#DejaVuSans-2e"/>
       <use x="95.410156" xlink:href="#DejaVuSans-30"/>
      </g>
     </g>
    </g>
   </g>
   <g id="line2d_33">
    <path clip-path="url(#p6439f93c3e)" d="M 532.285714 29.454545 
L 538.898908 29.75945 
L 540.838371 30.015825 
L 540.917213 30.076381 
L 540.867151 30.140027 
L 540.350524 30.276573 
L 538.475541 30.50449 
L 532.564463 30.945739 
L 514.658013 32.184506 
L 511.353033 32.585725 
L 510.0985 32.868159 
L 509.752991 33.162504 
L 509.949955 33.314129 
L 511.117345 33.626255 
L 513.326533 33.950172 
L 518.510543 34.458043 
L 528.34885 35.175981 
L 557.405223 37.171803 
L 563.777756 37.825665 
L 566.640211 38.275495 
L 568.174728 38.736379 
L 568.400973 38.970944 
L 568.250859 39.208245 
L 567.717547 39.448273 
L 565.494744 39.93647 
L 561.762134 40.435458 
L 553.565687 41.204 
L 538.815342 42.265739 
L 501.503761 44.805998 
L 492.051939 45.698247 
L 487.543899 46.305446 
L 484.758492 46.922427 
L 484.068627 47.234555 
L 483.868336 47.549091 
L 484.167128 47.866024 
L 484.969289 48.18534 
L 486.273766 48.507027 
L 490.358463 49.157462 
L 496.305196 49.817226 
L 508.25971 50.824136 
L 528.243128 52.198346 
L 565.194062 54.687826 
L 577.92274 55.786727 
L 584.358054 56.5297 
L 588.785387 57.280833 
L 590.171303 57.659422 
L 590.9764 58.040007 
L 591.186273 58.422572 
L 590.792645 58.807102 
L 589.793518 59.193582 
L 588.193251 59.581997 
L 583.238544 60.364568 
L 576.089364 61.154691 
L 567.002051 61.952241 
L 550.507025 63.162216 
L 489.783451 67.308513 
L 480.387927 68.157658 
L 472.980832 69.01312 
L 467.897988 69.874763 
L 466.308162 70.30786 
L 465.382742 70.742451 
L 465.135808 71.178518 
L 465.57445 71.616046 
L 466.698652 72.055015 
L 468.501245 72.495409 
L 470.967942 72.93721 
L 477.80161 73.824964 
L 486.948875 74.718137 
L 504.217735 76.067745 
L 531.400683 77.884857 
L 565.848851 80.182968 
L 583.360944 81.575211 
L 592.654301 82.508641 
L 599.564111 83.446112 
L 602.025892 83.916317 
L 603.785858 84.387477 
L 604.823095 84.859572 
L 605.124108 85.332584 
L 604.682993 85.806495 
L 603.501523 86.281286 
L 601.589157 86.756938 
L 598.96297 87.233431 
L 591.674514 88.188869 
L 581.917297 89.147447 
L 563.519948 90.590871 
L 534.634092 92.525008 
L 498.15106 94.956335 
L 479.648413 96.42149 
L 469.833315 97.400587 
L 462.525175 98.381364 
L 459.911771 98.872334 
L 458.031748 99.363666 
L 456.905451 99.85534 
L 456.545455 100.347337 
L 456.956422 100.839637 
L 458.135048 101.332222 
L 460.070083 101.82507 
L 462.742443 102.318164 
L 470.184855 103.305006 
L 480.162158 104.292593 
L 492.269185 105.280768 
L 513.324216 106.763789 
L 572.302243 110.719232 
L 584.40927 111.707407 
L 594.386574 112.694994 
L 601.828985 113.681836 
L 604.501345 114.17493 
L 606.436381 114.667778 
L 607.615007 115.160363 
L 608.025974 115.652663 
L 607.665977 116.14466 
L 606.539681 116.636334 
L 604.659658 117.127666 
L 602.046253 117.618636 
L 594.738113 118.599413 
L 584.923016 119.57851 
L 573.010924 120.555771 
L 552.311444 122.017882 
L 494.494892 125.890985 
L 477.488725 127.332225 
L 468.923928 128.289252 
L 462.982272 129.243062 
L 461.069906 129.718714 
L 459.888436 130.193505 
L 459.447321 130.667416 
L 459.748334 131.140428 
L 460.785571 131.612523 
L 462.545536 132.083683 
L 465.007318 132.553888 
L 471.917127 133.491359 
L 481.210485 134.424789 
L 498.722578 135.817032 
L 526.0823 137.657835 
L 560.353694 139.932255 
L 577.622553 141.281863 
L 586.769818 142.175036 
L 593.603486 143.06279 
L 596.070183 143.504591 
L 597.872777 143.944985 
L 598.996978 144.383954 
L 599.43562 144.821482 
L 599.188686 145.257549 
L 598.263267 145.69214 
L 596.67344 146.125237 
L 594.440081 146.556822 
L 588.158597 147.415392 
L 579.710086 148.267712 
L 563.817081 149.53418 
L 539.075555 151.19968 
L 502.735801 153.646238 
L 488.482065 154.845309 
L 481.332885 155.635432 
L 476.378177 156.418003 
L 474.777911 156.806418 
L 473.778783 157.192898 
L 473.385155 157.577428 
L 473.595028 157.959993 
L 474.400126 158.340578 
L 475.786042 158.719167 
L 480.213375 159.4703 
L 486.648688 160.213273 
L 499.377367 161.312174 
L 520.022759 162.747725 
L 556.311719 165.175864 
L 568.266233 166.182774 
L 574.212965 166.842538 
L 578.297662 167.492973 
L 579.60214 167.81466 
L 580.4043 168.133976 
L 580.703092 168.450909 
L 580.502801 168.765445 
L 579.812936 169.077573 
L 578.648053 169.38728 
L 574.975292 169.999382 
L 569.692133 170.601655 
L 559.35012 171.486425 
L 542.798282 172.630836 
L 511.005742 174.796 
L 502.809294 175.564542 
L 499.076685 176.06353 
L 496.853881 176.551727 
L 496.320569 176.791755 
L 496.170456 177.029056 
L 496.396701 177.263621 
L 496.988487 177.49544 
L 499.20675 177.950806 
L 502.667606 178.395082 
L 509.730418 179.040548 
L 524.371353 180.059899 
L 546.060886 181.541957 
L 552.478942 182.213258 
L 554.167987 182.531285 
L 554.818438 182.837496 
L 554.765716 182.986155 
L 553.952292 183.27455 
L 552.287962 183.551011 
L 548.510927 183.94323 
L 540.255358 184.536663 
L 525.322592 185.574558 
L 523.704278 185.859973 
L 523.654215 185.923619 
L 523.733058 185.984175 
L 524.638766 186.14729 
L 527.573185 186.357176 
L 532.285714 186.545455 
L 532.285714 186.545455 
" style="fill:none;stroke:#0000ff;stroke-linecap:square;stroke-width:1.5;"/>
   </g>
   <g id="patch_13">
    <path d="M 448.971429 194.4 
L 448.971429 21.6 
" style="fill:none;stroke:#000000;stroke-linecap:square;stroke-linejoin:miter;stroke-width:0.8;"/>
   </g>
   <g id="patch_14">
    <path d="M 615.6 194.4 
L 615.6 21.6 
" style="fill:none;stroke:#000000;stroke-linecap:square;stroke-linejoin:miter;stroke-width:0.8;"/>
   </g>
   <g id="patch_15">
    <path d="M 448.971429 194.4 
L 615.6 194.4 
" style="fill:none;stroke:#000000;stroke-linecap:square;stroke-linejoin:miter;stroke-width:0.8;"/>
   </g>
   <g id="patch_16">
    <path d="M 448.971429 21.6 
L 615.6 21.6 
" style="fill:none;stroke:#000000;stroke-linecap:square;stroke-linejoin:miter;stroke-width:0.8;"/>
   </g>
  </g>
 </g>
 <defs>
  <clipPath id="p7523f3289e">
   <rect height="172.8" width="166.628571" x="32.4" y="21.6"/>
  </clipPath>
  <clipPath id="p2c7481776f">
   <rect height="172.8" width="166.628571" x="240.685714" y="21.6"/>
  </clipPath>
  <clipPath id="p6439f93c3e">
   <rect height="172.8" width="166.628571" x="448.971429" y="21.6"/>
  </clipPath>
 </defs>
</svg>
