<?xml version="1.0" encoding="utf-8" standalone="no"?>
<!DOCTYPE svg PUBLIC "-//W3C//DTD SVG 1.1//EN"
  "http://www.w3.org/Graphics/SVG/1.1/DTD/svg11.dtd">
<!-- Created with matplotlib (http://matplotlib.org/) -->
<svg height="288pt" version="1.1" viewBox="0 0 432 288" width="432pt" xmlns="http://www.w3.org/2000/svg" xmlns:xlink="http://www.w3.org/1999/xlink">
 <defs>
  <style type="text/css">
*{stroke-linecap:butt;stroke-linejoin:round;}
  </style>
 </defs>
 <g id="figure_1">
  <g id="patch_1">
   <path d="M 0 288 
L 432 288 
L 432 0 
L 0 0 
z
" style="fill:#ffffff;"/>
  </g>
  <g id="axes_1">
   <g id="patch_2">
    <path d="M 54 256.32 
L 388.8 256.32 
L 388.8 34.56 
L 54 34.56 
z
" style="fill:#ffffff;"/>
   </g>
   <g id="patch_3">
    <path clip-path="url(#p178c1ca1e9)" d="M 64.7136 256.32 
L 70.0704 256.32 
L 70.0704 130.269285 
L 64.7136 130.269285 
z
"/>
   </g>
   <g id="patch_4">
    <path clip-path="url(#p178c1ca1e9)" d="M 71.4096 256.32 
L 76.7664 256.32 
L 76.7664 88.25238 
L 71.4096 88.25238 
z
"/>
   </g>
   <g id="patch_5">
    <path clip-path="url(#p178c1ca1e9)" d="M 78.1056 256.32 
L 83.4624 256.32 
L 83.4624 58.32 
L 78.1056 58.32 
z
"/>
   </g>
   <g id="patch_6">
    <path clip-path="url(#p178c1ca1e9)" d="M 84.8016 256.32 
L 90.1584 256.32 
L 90.1584 45.12 
L 84.8016 45.12 
z
"/>
   </g>
   <g id="patch_7">
    <path clip-path="url(#p178c1ca1e9)" d="M 91.4976 256.32 
L 96.8544 256.32 
L 96.8544 48.974885 
L 91.4976 48.974885 
z
"/>
   </g>
   <g id="patch_8">
    <path clip-path="url(#p178c1ca1e9)" d="M 98.1936 256.32 
L 103.5504 256.32 
L 103.5504 66.747323 
L 98.1936 66.747323 
z
"/>
   </g>
   <g id="patch_9">
    <path clip-path="url(#p178c1ca1e9)" d="M 104.8896 256.32 
L 110.2464 256.32 
L 110.2464 93.471527 
L 104.8896 93.471527 
z
"/>
   </g>
   <g id="patch_10">
    <path clip-path="url(#p178c1ca1e9)" d="M 111.5856 256.32 
L 116.9424 256.32 
L 116.9424 123.973305 
L 111.5856 123.973305 
z
"/>
   </g>
   <g id="patch_11">
    <path clip-path="url(#p178c1ca1e9)" d="M 118.2816 256.32 
L 123.6384 256.32 
L 123.6384 153.999287 
L 118.2816 153.999287 
z
"/>
   </g>
   <g id="patch_12">
    <path clip-path="url(#p178c1ca1e9)" d="M 124.9776 256.32 
L 130.3344 256.32 
L 130.3344 180.723744 
L 124.9776 180.723744 
z
"/>
   </g>
   <g id="patch_13">
    <path clip-path="url(#p178c1ca1e9)" d="M 131.6736 256.32 
L 137.0304 256.32 
L 137.0304 202.745 
L 131.6736 202.745 
z
"/>
   </g>
   <g id="patch_14">
    <path clip-path="url(#p178c1ca1e9)" d="M 138.3696 256.32 
L 143.7264 256.32 
L 143.7264 219.782671 
L 138.3696 219.782671 
z
"/>
   </g>
   <g id="patch_15">
    <path clip-path="url(#p178c1ca1e9)" d="M 145.0656 256.32 
L 150.4224 256.32 
L 150.4224 232.275596 
L 145.0656 232.275596 
z
"/>
   </g>
   <g id="patch_16">
    <path clip-path="url(#p178c1ca1e9)" d="M 151.7616 256.32 
L 157.1184 256.32 
L 157.1184 241.015279 
L 151.7616 241.015279 
z
"/>
   </g>
   <g id="patch_17">
    <path clip-path="url(#p178c1ca1e9)" d="M 158.4576 256.32 
L 163.8144 256.32 
L 163.8144 246.877785 
L 158.4576 246.877785 
z
"/>
   </g>
   <g id="patch_18">
    <path clip-path="url(#p178c1ca1e9)" d="M 165.1536 256.32 
L 170.5104 256.32 
L 170.5104 250.663388 
L 165.1536 250.663388 
z
"/>
   </g>
   <g id="patch_19">
    <path clip-path="url(#p178c1ca1e9)" d="M 171.8496 256.32 
L 177.2064 256.32 
L 177.2064 253.024045 
L 171.8496 253.024045 
z
"/>
   </g>
   <g id="patch_20">
    <path clip-path="url(#p178c1ca1e9)" d="M 178.5456 256.32 
L 183.9024 256.32 
L 183.9024 254.449393 
L 178.5456 254.449393 
z
"/>
   </g>
   <g id="patch_21">
    <path clip-path="url(#p178c1ca1e9)" d="M 185.2416 256.32 
L 190.5984 256.32 
L 190.5984 255.284545 
L 185.2416 255.284545 
z
"/>
   </g>
   <g id="patch_22">
    <path clip-path="url(#p178c1ca1e9)" d="M 191.9376 256.32 
L 197.2944 256.32 
L 197.2944 255.760316 
L 191.9376 255.760316 
z
"/>
   </g>
   <g id="patch_23">
    <path clip-path="url(#p178c1ca1e9)" d="M 198.6336 256.32 
L 203.9904 256.32 
L 203.9904 256.024275 
L 198.6336 256.024275 
z
"/>
   </g>
   <g id="patch_24">
    <path clip-path="url(#p178c1ca1e9)" d="M 205.3296 256.32 
L 210.6864 256.32 
L 210.6864 256.167104 
L 205.3296 256.167104 
z
"/>
   </g>
   <g id="patch_25">
    <path clip-path="url(#p178c1ca1e9)" d="M 212.0256 256.32 
L 217.3824 256.32 
L 217.3824 256.242579 
L 212.0256 256.242579 
z
"/>
   </g>
   <g id="patch_26">
    <path clip-path="url(#p178c1ca1e9)" d="M 218.7216 256.32 
L 224.0784 256.32 
L 224.0784 256.281573 
L 218.7216 256.281573 
z
"/>
   </g>
   <g id="patch_27">
    <path clip-path="url(#p178c1ca1e9)" d="M 225.4176 256.32 
L 230.7744 256.32 
L 230.7744 256.30129 
L 225.4176 256.30129 
z
"/>
   </g>
   <g id="patch_28">
    <path clip-path="url(#p178c1ca1e9)" d="M 232.1136 256.32 
L 237.4704 256.32 
L 237.4704 256.311058 
L 232.1136 256.311058 
z
"/>
   </g>
   <g id="patch_29">
    <path clip-path="url(#p178c1ca1e9)" d="M 238.8096 256.32 
L 244.1664 256.32 
L 244.1664 256.315802 
L 238.8096 256.315802 
z
"/>
   </g>
   <g id="patch_30">
    <path clip-path="url(#p178c1ca1e9)" d="M 245.5056 256.32 
L 250.8624 256.32 
L 250.8624 256.318063 
L 245.5056 256.318063 
z
"/>
   </g>
   <g id="patch_31">
    <path clip-path="url(#p178c1ca1e9)" d="M 252.2016 256.32 
L 257.5584 256.32 
L 257.5584 256.319121 
L 252.2016 256.319121 
z
"/>
   </g>
   <g id="patch_32">
    <path clip-path="url(#p178c1ca1e9)" d="M 258.8976 256.32 
L 264.2544 256.32 
L 264.2544 256.319607 
L 258.8976 256.319607 
z
"/>
   </g>
   <g id="patch_33">
    <path clip-path="url(#p178c1ca1e9)" d="M 265.5936 256.32 
L 270.9504 256.32 
L 270.9504 256.319827 
L 265.5936 256.319827 
z
"/>
   </g>
   <g id="patch_34">
    <path clip-path="url(#p178c1ca1e9)" d="M 272.2896 256.32 
L 277.6464 256.32 
L 277.6464 256.319925 
L 272.2896 256.319925 
z
"/>
   </g>
   <g id="patch_35">
    <path clip-path="url(#p178c1ca1e9)" d="M 278.9856 256.32 
L 284.3424 256.32 
L 284.3424 256.319968 
L 278.9856 256.319968 
z
"/>
   </g>
   <g id="patch_36">
    <path clip-path="url(#p178c1ca1e9)" d="M 285.6816 256.32 
L 291.0384 256.32 
L 291.0384 256.319987 
L 285.6816 256.319987 
z
"/>
   </g>
   <g id="patch_37">
    <path clip-path="url(#p178c1ca1e9)" d="M 292.3776 256.32 
L 297.7344 256.32 
L 297.7344 256.319994 
L 292.3776 256.319994 
z
"/>
   </g>
   <g id="patch_38">
    <path clip-path="url(#p178c1ca1e9)" d="M 299.0736 256.32 
L 304.4304 256.32 
L 304.4304 256.319998 
L 299.0736 256.319998 
z
"/>
   </g>
   <g id="patch_39">
    <path clip-path="url(#p178c1ca1e9)" d="M 305.7696 256.32 
L 311.1264 256.32 
L 311.1264 256.319999 
L 305.7696 256.319999 
z
"/>
   </g>
   <g id="patch_40">
    <path clip-path="url(#p178c1ca1e9)" d="M 312.4656 256.32 
L 317.8224 256.32 
L 317.8224 256.32 
L 312.4656 256.32 
z
"/>
   </g>
   <g id="patch_41">
    <path clip-path="url(#p178c1ca1e9)" d="M 319.1616 256.32 
L 324.5184 256.32 
L 324.5184 256.32 
L 319.1616 256.32 
z
"/>
   </g>
   <g id="patch_42">
    <path clip-path="url(#p178c1ca1e9)" d="M 325.8576 256.32 
L 331.2144 256.32 
L 331.2144 256.32 
L 325.8576 256.32 
z
"/>
   </g>
   <g id="patch_43">
    <path clip-path="url(#p178c1ca1e9)" d="M 332.5536 256.32 
L 337.9104 256.32 
L 337.9104 256.32 
L 332.5536 256.32 
z
"/>
   </g>
   <g id="patch_44">
    <path clip-path="url(#p178c1ca1e9)" d="M 339.2496 256.32 
L 344.6064 256.32 
L 344.6064 256.32 
L 339.2496 256.32 
z
"/>
   </g>
   <g id="patch_45">
    <path clip-path="url(#p178c1ca1e9)" d="M 345.9456 256.32 
L 351.3024 256.32 
L 351.3024 256.32 
L 345.9456 256.32 
z
"/>
   </g>
   <g id="patch_46">
    <path clip-path="url(#p178c1ca1e9)" d="M 352.6416 256.32 
L 357.9984 256.32 
L 357.9984 256.32 
L 352.6416 256.32 
z
"/>
   </g>
   <g id="patch_47">
    <path clip-path="url(#p178c1ca1e9)" d="M 359.3376 256.32 
L 364.6944 256.32 
L 364.6944 256.32 
L 359.3376 256.32 
z
"/>
   </g>
   <g id="patch_48">
    <path clip-path="url(#p178c1ca1e9)" d="M 366.0336 256.32 
L 371.3904 256.32 
L 371.3904 256.32 
L 366.0336 256.32 
z
"/>
   </g>
   <g id="patch_49">
    <path clip-path="url(#p178c1ca1e9)" d="M 372.7296 256.32 
L 378.0864 256.32 
L 378.0864 256.32 
L 372.7296 256.32 
z
"/>
   </g>
   <g id="patch_50">
    <path clip-path="url(#p178c1ca1e9)" d="M 379.4256 256.32 
L 384.7824 256.32 
L 384.7824 256.32 
L 379.4256 256.32 
z
"/>
   </g>
   <g id="patch_51">
    <path clip-path="url(#p178c1ca1e9)" d="M 386.1216 256.32 
L 391.4784 256.32 
L 391.4784 256.32 
L 386.1216 256.32 
z
"/>
   </g>
   <g id="matplotlib.axis_1">
    <g id="xtick_1">
     <g id="line2d_1">
      <defs>
       <path d="M 0 0 
L 0 3.5 
" id="maf1a2f1280" style="stroke:#000000;stroke-width:0.8;"/>
      </defs>
      <g>
       <use style="stroke:#000000;stroke-width:0.8;" x="54" xlink:href="#maf1a2f1280" y="256.32"/>
      </g>
     </g>
     <g id="text_1">
      <!-- 0 -->
      <defs>
       <path d="M 31.78125 66.40625 
Q 24.171875 66.40625 20.328125 58.90625 
Q 16.5 51.421875 16.5 36.375 
Q 16.5 21.390625 20.328125 13.890625 
Q 24.171875 6.390625 31.78125 6.390625 
Q 39.453125 6.390625 43.28125 13.890625 
Q 47.125 21.390625 47.125 36.375 
Q 47.125 51.421875 43.28125 58.90625 
Q 39.453125 66.40625 31.78125 66.40625 
M 31.78125 74.21875 
Q 44.046875 74.21875 50.515625 64.515625 
Q 56.984375 54.828125 56.984375 36.375 
Q 56.984375 17.96875 50.515625 8.265625 
Q 44.046875 -1.421875 31.78125 -1.421875 
Q 19.53125 -1.421875 13.0625 8.265625 
Q 6.59375 17.96875 6.59375 36.375 
Q 6.59375 54.828125 13.0625 64.515625 
Q 19.53125 74.21875 31.78125 74.21875 
" id="DejaVuSans-30"/>
      </defs>
      <g transform="translate(50.81875 270.918437)scale(0.1 -0.1)">
       <use xlink:href="#DejaVuSans-30"/>
      </g>
     </g>
    </g>
    <g id="xtick_2">
     <g id="line2d_2">
      <g>
       <use style="stroke:#000000;stroke-width:0.8;" x="120.96" xlink:href="#maf1a2f1280" y="256.32"/>
      </g>
     </g>
     <g id="text_2">
      <!-- 10 -->
      <defs>
       <path d="M 12.40625 8.296875 
L 28.515625 8.296875 
L 28.515625 63.921875 
L 10.984375 60.40625 
L 10.984375 69.390625 
L 28.421875 72.90625 
L 38.28125 72.90625 
L 38.28125 8.296875 
L 54.390625 8.296875 
L 54.390625 0 
L 12.40625 0 
z
" id="DejaVuSans-31"/>
      </defs>
      <g transform="translate(114.5975 270.918437)scale(0.1 -0.1)">
       <use xlink:href="#DejaVuSans-31"/>
       <use x="63.623047" xlink:href="#DejaVuSans-30"/>
      </g>
     </g>
    </g>
    <g id="xtick_3">
     <g id="line2d_3">
      <g>
       <use style="stroke:#000000;stroke-width:0.8;" x="187.92" xlink:href="#maf1a2f1280" y="256.32"/>
      </g>
     </g>
     <g id="text_3">
      <!-- 20 -->
      <defs>
       <path d="M 19.1875 8.296875 
L 53.609375 8.296875 
L 53.609375 0 
L 7.328125 0 
L 7.328125 8.296875 
Q 12.9375 14.109375 22.625 23.890625 
Q 32.328125 33.6875 34.8125 36.53125 
Q 39.546875 41.84375 41.421875 45.53125 
Q 43.3125 49.21875 43.3125 52.78125 
Q 43.3125 58.59375 39.234375 62.25 
Q 35.15625 65.921875 28.609375 65.921875 
Q 23.96875 65.921875 18.8125 64.3125 
Q 13.671875 62.703125 7.8125 59.421875 
L 7.8125 69.390625 
Q 13.765625 71.78125 18.9375 73 
Q 24.125 74.21875 28.421875 74.21875 
Q 39.75 74.21875 46.484375 68.546875 
Q 53.21875 62.890625 53.21875 53.421875 
Q 53.21875 48.921875 51.53125 44.890625 
Q 49.859375 40.875 45.40625 35.40625 
Q 44.1875 33.984375 37.640625 27.21875 
Q 31.109375 20.453125 19.1875 8.296875 
" id="DejaVuSans-32"/>
      </defs>
      <g transform="translate(181.5575 270.918437)scale(0.1 -0.1)">
       <use xlink:href="#DejaVuSans-32"/>
       <use x="63.623047" xlink:href="#DejaVuSans-30"/>
      </g>
     </g>
    </g>
    <g id="xtick_4">
     <g id="line2d_4">
      <g>
       <use style="stroke:#000000;stroke-width:0.8;" x="254.88" xlink:href="#maf1a2f1280" y="256.32"/>
      </g>
     </g>
     <g id="text_4">
      <!-- 30 -->
      <defs>
       <path d="M 40.578125 39.3125 
Q 47.65625 37.796875 51.625 33 
Q 55.609375 28.21875 55.609375 21.1875 
Q 55.609375 10.40625 48.1875 4.484375 
Q 40.765625 -1.421875 27.09375 -1.421875 
Q 22.515625 -1.421875 17.65625 -0.515625 
Q 12.796875 0.390625 7.625 2.203125 
L 7.625 11.71875 
Q 11.71875 9.328125 16.59375 8.109375 
Q 21.484375 6.890625 26.8125 6.890625 
Q 36.078125 6.890625 40.9375 10.546875 
Q 45.796875 14.203125 45.796875 21.1875 
Q 45.796875 27.640625 41.28125 31.265625 
Q 36.765625 34.90625 28.71875 34.90625 
L 20.21875 34.90625 
L 20.21875 43.015625 
L 29.109375 43.015625 
Q 36.375 43.015625 40.234375 45.921875 
Q 44.09375 48.828125 44.09375 54.296875 
Q 44.09375 59.90625 40.109375 62.90625 
Q 36.140625 65.921875 28.71875 65.921875 
Q 24.65625 65.921875 20.015625 65.03125 
Q 15.375 64.15625 9.8125 62.3125 
L 9.8125 71.09375 
Q 15.4375 72.65625 20.34375 73.4375 
Q 25.25 74.21875 29.59375 74.21875 
Q 40.828125 74.21875 47.359375 69.109375 
Q 53.90625 64.015625 53.90625 55.328125 
Q 53.90625 49.265625 50.4375 45.09375 
Q 46.96875 40.921875 40.578125 39.3125 
" id="DejaVuSans-33"/>
      </defs>
      <g transform="translate(248.5175 270.918437)scale(0.1 -0.1)">
       <use xlink:href="#DejaVuSans-33"/>
       <use x="63.623047" xlink:href="#DejaVuSans-30"/>
      </g>
     </g>
    </g>
    <g id="xtick_5">
     <g id="line2d_5">
      <g>
       <use style="stroke:#000000;stroke-width:0.8;" x="321.84" xlink:href="#maf1a2f1280" y="256.32"/>
      </g>
     </g>
     <g id="text_5">
      <!-- 40 -->
      <defs>
       <path d="M 37.796875 64.3125 
L 12.890625 25.390625 
L 37.796875 25.390625 
z
M 35.203125 72.90625 
L 47.609375 72.90625 
L 47.609375 25.390625 
L 58.015625 25.390625 
L 58.015625 17.1875 
L 47.609375 17.1875 
L 47.609375 0 
L 37.796875 0 
L 37.796875 17.1875 
L 4.890625 17.1875 
L 4.890625 26.703125 
z
" id="DejaVuSans-34"/>
      </defs>
      <g transform="translate(315.4775 270.918437)scale(0.1 -0.1)">
       <use xlink:href="#DejaVuSans-34"/>
       <use x="63.623047" xlink:href="#DejaVuSans-30"/>
      </g>
     </g>
    </g>
    <g id="xtick_6">
     <g id="line2d_6">
      <g>
       <use style="stroke:#000000;stroke-width:0.8;" x="388.8" xlink:href="#maf1a2f1280" y="256.32"/>
      </g>
     </g>
     <g id="text_6">
      <!-- 50 -->
      <defs>
       <path d="M 10.796875 72.90625 
L 49.515625 72.90625 
L 49.515625 64.59375 
L 19.828125 64.59375 
L 19.828125 46.734375 
Q 21.96875 47.46875 24.109375 47.828125 
Q 26.265625 48.1875 28.421875 48.1875 
Q 40.625 48.1875 47.75 41.5 
Q 54.890625 34.8125 54.890625 23.390625 
Q 54.890625 11.625 47.5625 5.09375 
Q 40.234375 -1.421875 26.90625 -1.421875 
Q 22.3125 -1.421875 17.546875 -0.640625 
Q 12.796875 0.140625 7.71875 1.703125 
L 7.71875 11.625 
Q 12.109375 9.234375 16.796875 8.0625 
Q 21.484375 6.890625 26.703125 6.890625 
Q 35.15625 6.890625 40.078125 11.328125 
Q 45.015625 15.765625 45.015625 23.390625 
Q 45.015625 31 40.078125 35.4375 
Q 35.15625 39.890625 26.703125 39.890625 
Q 22.75 39.890625 18.8125 39.015625 
Q 14.890625 38.140625 10.796875 36.28125 
z
" id="DejaVuSans-35"/>
      </defs>
      <g transform="translate(382.4375 270.918437)scale(0.1 -0.1)">
       <use xlink:href="#DejaVuSans-35"/>
       <use x="63.623047" xlink:href="#DejaVuSans-30"/>
      </g>
     </g>
    </g>
    <g id="text_7">
     <!-- Dimensions -->
     <defs>
      <path d="M 19.671875 64.796875 
L 19.671875 8.109375 
L 31.59375 8.109375 
Q 46.6875 8.109375 53.6875 14.9375 
Q 60.6875 21.78125 60.6875 36.53125 
Q 60.6875 51.171875 53.6875 57.984375 
Q 46.6875 64.796875 31.59375 64.796875 
z
M 9.8125 72.90625 
L 30.078125 72.90625 
Q 51.265625 72.90625 61.171875 64.09375 
Q 71.09375 55.28125 71.09375 36.53125 
Q 71.09375 17.671875 61.125 8.828125 
Q 51.171875 0 30.078125 0 
L 9.8125 0 
z
" id="DejaVuSans-44"/>
      <path d="M 9.421875 54.6875 
L 18.40625 54.6875 
L 18.40625 0 
L 9.421875 0 
z
M 9.421875 75.984375 
L 18.40625 75.984375 
L 18.40625 64.59375 
L 9.421875 64.59375 
z
" id="DejaVuSans-69"/>
      <path d="M 52 44.1875 
Q 55.375 50.25 60.0625 53.125 
Q 64.75 56 71.09375 56 
Q 79.640625 56 84.28125 50.015625 
Q 88.921875 44.046875 88.921875 33.015625 
L 88.921875 0 
L 79.890625 0 
L 79.890625 32.71875 
Q 79.890625 40.578125 77.09375 44.375 
Q 74.3125 48.1875 68.609375 48.1875 
Q 61.625 48.1875 57.5625 43.546875 
Q 53.515625 38.921875 53.515625 30.90625 
L 53.515625 0 
L 44.484375 0 
L 44.484375 32.71875 
Q 44.484375 40.625 41.703125 44.40625 
Q 38.921875 48.1875 33.109375 48.1875 
Q 26.21875 48.1875 22.15625 43.53125 
Q 18.109375 38.875 18.109375 30.90625 
L 18.109375 0 
L 9.078125 0 
L 9.078125 54.6875 
L 18.109375 54.6875 
L 18.109375 46.1875 
Q 21.1875 51.21875 25.484375 53.609375 
Q 29.78125 56 35.6875 56 
Q 41.65625 56 45.828125 52.96875 
Q 50 49.953125 52 44.1875 
" id="DejaVuSans-6d"/>
      <path d="M 56.203125 29.59375 
L 56.203125 25.203125 
L 14.890625 25.203125 
Q 15.484375 15.921875 20.484375 11.0625 
Q 25.484375 6.203125 34.421875 6.203125 
Q 39.59375 6.203125 44.453125 7.46875 
Q 49.3125 8.734375 54.109375 11.28125 
L 54.109375 2.78125 
Q 49.265625 0.734375 44.1875 -0.34375 
Q 39.109375 -1.421875 33.890625 -1.421875 
Q 20.796875 -1.421875 13.15625 6.1875 
Q 5.515625 13.8125 5.515625 26.8125 
Q 5.515625 40.234375 12.765625 48.109375 
Q 20.015625 56 32.328125 56 
Q 43.359375 56 49.78125 48.890625 
Q 56.203125 41.796875 56.203125 29.59375 
M 47.21875 32.234375 
Q 47.125 39.59375 43.09375 43.984375 
Q 39.0625 48.390625 32.421875 48.390625 
Q 24.90625 48.390625 20.390625 44.140625 
Q 15.875 39.890625 15.1875 32.171875 
z
" id="DejaVuSans-65"/>
      <path d="M 54.890625 33.015625 
L 54.890625 0 
L 45.90625 0 
L 45.90625 32.71875 
Q 45.90625 40.484375 42.875 44.328125 
Q 39.84375 48.1875 33.796875 48.1875 
Q 26.515625 48.1875 22.3125 43.546875 
Q 18.109375 38.921875 18.109375 30.90625 
L 18.109375 0 
L 9.078125 0 
L 9.078125 54.6875 
L 18.109375 54.6875 
L 18.109375 46.1875 
Q 21.34375 51.125 25.703125 53.5625 
Q 30.078125 56 35.796875 56 
Q 45.21875 56 50.046875 50.171875 
Q 54.890625 44.34375 54.890625 33.015625 
" id="DejaVuSans-6e"/>
      <path d="M 44.28125 53.078125 
L 44.28125 44.578125 
Q 40.484375 46.53125 36.375 47.5 
Q 32.28125 48.484375 27.875 48.484375 
Q 21.1875 48.484375 17.84375 46.4375 
Q 14.5 44.390625 14.5 40.28125 
Q 14.5 37.15625 16.890625 35.375 
Q 19.28125 33.59375 26.515625 31.984375 
L 29.59375 31.296875 
Q 39.15625 29.25 43.1875 25.515625 
Q 47.21875 21.78125 47.21875 15.09375 
Q 47.21875 7.46875 41.1875 3.015625 
Q 35.15625 -1.421875 24.609375 -1.421875 
Q 20.21875 -1.421875 15.453125 -0.5625 
Q 10.6875 0.296875 5.421875 2 
L 5.421875 11.28125 
Q 10.40625 8.6875 15.234375 7.390625 
Q 20.0625 6.109375 24.8125 6.109375 
Q 31.15625 6.109375 34.5625 8.28125 
Q 37.984375 10.453125 37.984375 14.40625 
Q 37.984375 18.0625 35.515625 20.015625 
Q 33.0625 21.96875 24.703125 23.78125 
L 21.578125 24.515625 
Q 13.234375 26.265625 9.515625 29.90625 
Q 5.8125 33.546875 5.8125 39.890625 
Q 5.8125 47.609375 11.28125 51.796875 
Q 16.75 56 26.8125 56 
Q 31.78125 56 36.171875 55.265625 
Q 40.578125 54.546875 44.28125 53.078125 
" id="DejaVuSans-73"/>
      <path d="M 30.609375 48.390625 
Q 23.390625 48.390625 19.1875 42.75 
Q 14.984375 37.109375 14.984375 27.296875 
Q 14.984375 17.484375 19.15625 11.84375 
Q 23.34375 6.203125 30.609375 6.203125 
Q 37.796875 6.203125 41.984375 11.859375 
Q 46.1875 17.53125 46.1875 27.296875 
Q 46.1875 37.015625 41.984375 42.703125 
Q 37.796875 48.390625 30.609375 48.390625 
M 30.609375 56 
Q 42.328125 56 49.015625 48.375 
Q 55.71875 40.765625 55.71875 27.296875 
Q 55.71875 13.875 49.015625 6.21875 
Q 42.328125 -1.421875 30.609375 -1.421875 
Q 18.84375 -1.421875 12.171875 6.21875 
Q 5.515625 13.875 5.515625 27.296875 
Q 5.515625 40.765625 12.171875 48.375 
Q 18.84375 56 30.609375 56 
" id="DejaVuSans-6f"/>
     </defs>
     <g transform="translate(192.21875 284.596563)scale(0.1 -0.1)">
      <use xlink:href="#DejaVuSans-44"/>
      <use x="77.001953" xlink:href="#DejaVuSans-69"/>
      <use x="104.785156" xlink:href="#DejaVuSans-6d"/>
      <use x="202.197266" xlink:href="#DejaVuSans-65"/>
      <use x="263.720703" xlink:href="#DejaVuSans-6e"/>
      <use x="327.099609" xlink:href="#DejaVuSans-73"/>
      <use x="379.199219" xlink:href="#DejaVuSans-69"/>
      <use x="406.982422" xlink:href="#DejaVuSans-6f"/>
      <use x="468.164062" xlink:href="#DejaVuSans-6e"/>
      <use x="531.542969" xlink:href="#DejaVuSans-73"/>
     </g>
    </g>
   </g>
   <g id="matplotlib.axis_2">
    <g id="ytick_1">
     <g id="line2d_7">
      <defs>
       <path d="M 0 0 
L -3.5 0 
" id="m829c42120b" style="stroke:#000000;stroke-width:0.8;"/>
      </defs>
      <g>
       <use style="stroke:#000000;stroke-width:0.8;" x="54" xlink:href="#m829c42120b" y="256.32"/>
      </g>
     </g>
     <g id="text_8">
      <!-- 0 -->
      <g transform="translate(40.6375 260.119219)scale(0.1 -0.1)">
       <use xlink:href="#DejaVuSans-30"/>
      </g>
     </g>
    </g>
    <g id="ytick_2">
     <g id="line2d_8">
      <g>
       <use style="stroke:#000000;stroke-width:0.8;" x="54" xlink:href="#m829c42120b" y="216.196811"/>
      </g>
     </g>
     <g id="text_9">
      <!-- 1 -->
      <g transform="translate(40.6375 219.99603)scale(0.1 -0.1)">
       <use xlink:href="#DejaVuSans-31"/>
      </g>
     </g>
    </g>
    <g id="ytick_3">
     <g id="line2d_9">
      <g>
       <use style="stroke:#000000;stroke-width:0.8;" x="54" xlink:href="#m829c42120b" y="176.073623"/>
      </g>
     </g>
     <g id="text_10">
      <!-- 2 -->
      <g transform="translate(40.6375 179.872841)scale(0.1 -0.1)">
       <use xlink:href="#DejaVuSans-32"/>
      </g>
     </g>
    </g>
    <g id="ytick_4">
     <g id="line2d_10">
      <g>
       <use style="stroke:#000000;stroke-width:0.8;" x="54" xlink:href="#m829c42120b" y="135.950434"/>
      </g>
     </g>
     <g id="text_11">
      <!-- 3 -->
      <g transform="translate(40.6375 139.749653)scale(0.1 -0.1)">
       <use xlink:href="#DejaVuSans-33"/>
      </g>
     </g>
    </g>
    <g id="ytick_5">
     <g id="line2d_11">
      <g>
       <use style="stroke:#000000;stroke-width:0.8;" x="54" xlink:href="#m829c42120b" y="95.827245"/>
      </g>
     </g>
     <g id="text_12">
      <!-- 4 -->
      <g transform="translate(40.6375 99.626464)scale(0.1 -0.1)">
       <use xlink:href="#DejaVuSans-34"/>
      </g>
     </g>
    </g>
    <g id="ytick_6">
     <g id="line2d_12">
      <g>
       <use style="stroke:#000000;stroke-width:0.8;" x="54" xlink:href="#m829c42120b" y="55.704056"/>
      </g>
     </g>
     <g id="text_13">
      <!-- 5 -->
      <g transform="translate(40.6375 59.503275)scale(0.1 -0.1)">
       <use xlink:href="#DejaVuSans-35"/>
      </g>
     </g>
    </g>
    <g id="text_14">
     <!-- Volume of n-sphere -->
     <defs>
      <path d="M 28.609375 0 
L 0.78125 72.90625 
L 11.078125 72.90625 
L 34.1875 11.53125 
L 57.328125 72.90625 
L 67.578125 72.90625 
L 39.796875 0 
z
" id="DejaVuSans-56"/>
      <path d="M 9.421875 75.984375 
L 18.40625 75.984375 
L 18.40625 0 
L 9.421875 0 
z
" id="DejaVuSans-6c"/>
      <path d="M 8.5 21.578125 
L 8.5 54.6875 
L 17.484375 54.6875 
L 17.484375 21.921875 
Q 17.484375 14.15625 20.5 10.265625 
Q 23.53125 6.390625 29.59375 6.390625 
Q 36.859375 6.390625 41.078125 11.03125 
Q 45.3125 15.671875 45.3125 23.6875 
L 45.3125 54.6875 
L 54.296875 54.6875 
L 54.296875 0 
L 45.3125 0 
L 45.3125 8.40625 
Q 42.046875 3.421875 37.71875 1 
Q 33.40625 -1.421875 27.6875 -1.421875 
Q 18.265625 -1.421875 13.375 4.4375 
Q 8.5 10.296875 8.5 21.578125 
M 31.109375 56 
z
" id="DejaVuSans-75"/>
      <path id="DejaVuSans-20"/>
      <path d="M 37.109375 75.984375 
L 37.109375 68.5 
L 28.515625 68.5 
Q 23.6875 68.5 21.796875 66.546875 
Q 19.921875 64.59375 19.921875 59.515625 
L 19.921875 54.6875 
L 34.71875 54.6875 
L 34.71875 47.703125 
L 19.921875 47.703125 
L 19.921875 0 
L 10.890625 0 
L 10.890625 47.703125 
L 2.296875 47.703125 
L 2.296875 54.6875 
L 10.890625 54.6875 
L 10.890625 58.5 
Q 10.890625 67.625 15.140625 71.796875 
Q 19.390625 75.984375 28.609375 75.984375 
z
" id="DejaVuSans-66"/>
      <path d="M 4.890625 31.390625 
L 31.203125 31.390625 
L 31.203125 23.390625 
L 4.890625 23.390625 
z
" id="DejaVuSans-2d"/>
      <path d="M 18.109375 8.203125 
L 18.109375 -20.796875 
L 9.078125 -20.796875 
L 9.078125 54.6875 
L 18.109375 54.6875 
L 18.109375 46.390625 
Q 20.953125 51.265625 25.265625 53.625 
Q 29.59375 56 35.59375 56 
Q 45.5625 56 51.78125 48.09375 
Q 58.015625 40.1875 58.015625 27.296875 
Q 58.015625 14.40625 51.78125 6.484375 
Q 45.5625 -1.421875 35.59375 -1.421875 
Q 29.59375 -1.421875 25.265625 0.953125 
Q 20.953125 3.328125 18.109375 8.203125 
M 48.6875 27.296875 
Q 48.6875 37.203125 44.609375 42.84375 
Q 40.53125 48.484375 33.40625 48.484375 
Q 26.265625 48.484375 22.1875 42.84375 
Q 18.109375 37.203125 18.109375 27.296875 
Q 18.109375 17.390625 22.1875 11.75 
Q 26.265625 6.109375 33.40625 6.109375 
Q 40.53125 6.109375 44.609375 11.75 
Q 48.6875 17.390625 48.6875 27.296875 
" id="DejaVuSans-70"/>
      <path d="M 54.890625 33.015625 
L 54.890625 0 
L 45.90625 0 
L 45.90625 32.71875 
Q 45.90625 40.484375 42.875 44.328125 
Q 39.84375 48.1875 33.796875 48.1875 
Q 26.515625 48.1875 22.3125 43.546875 
Q 18.109375 38.921875 18.109375 30.90625 
L 18.109375 0 
L 9.078125 0 
L 9.078125 75.984375 
L 18.109375 75.984375 
L 18.109375 46.1875 
Q 21.34375 51.125 25.703125 53.5625 
Q 30.078125 56 35.796875 56 
Q 45.21875 56 50.046875 50.171875 
Q 54.890625 44.34375 54.890625 33.015625 
" id="DejaVuSans-68"/>
      <path d="M 41.109375 46.296875 
Q 39.59375 47.171875 37.8125 47.578125 
Q 36.03125 48 33.890625 48 
Q 26.265625 48 22.1875 43.046875 
Q 18.109375 38.09375 18.109375 28.8125 
L 18.109375 0 
L 9.078125 0 
L 9.078125 54.6875 
L 18.109375 54.6875 
L 18.109375 46.1875 
Q 20.953125 51.171875 25.484375 53.578125 
Q 30.03125 56 36.53125 56 
Q 37.453125 56 38.578125 55.875 
Q 39.703125 55.765625 41.0625 55.515625 
z
" id="DejaVuSans-72"/>
     </defs>
     <g transform="translate(34.557812 194.543906)rotate(-90)scale(0.1 -0.1)">
      <use xlink:href="#DejaVuSans-56"/>
      <use x="68.298828" xlink:href="#DejaVuSans-6f"/>
      <use x="129.480469" xlink:href="#DejaVuSans-6c"/>
      <use x="157.263672" xlink:href="#DejaVuSans-75"/>
      <use x="220.642578" xlink:href="#DejaVuSans-6d"/>
      <use x="318.054688" xlink:href="#DejaVuSans-65"/>
      <use x="379.578125" xlink:href="#DejaVuSans-20"/>
      <use x="411.365234" xlink:href="#DejaVuSans-6f"/>
      <use x="472.546875" xlink:href="#DejaVuSans-66"/>
      <use x="507.751953" xlink:href="#DejaVuSans-20"/>
      <use x="539.539062" xlink:href="#DejaVuSans-6e"/>
      <use x="602.917969" xlink:href="#DejaVuSans-2d"/>
      <use x="639.001953" xlink:href="#DejaVuSans-73"/>
      <use x="691.101562" xlink:href="#DejaVuSans-70"/>
      <use x="754.578125" xlink:href="#DejaVuSans-68"/>
      <use x="817.957031" xlink:href="#DejaVuSans-65"/>
      <use x="879.480469" xlink:href="#DejaVuSans-72"/>
      <use x="920.5625" xlink:href="#DejaVuSans-65"/>
     </g>
    </g>
   </g>
   <g id="patch_52">
    <path d="M 54 256.32 
L 54 34.56 
" style="fill:none;stroke:#000000;stroke-linecap:square;stroke-linejoin:miter;stroke-width:0.8;"/>
   </g>
   <g id="patch_53">
    <path d="M 388.8 256.32 
L 388.8 34.56 
" style="fill:none;stroke:#000000;stroke-linecap:square;stroke-linejoin:miter;stroke-width:0.8;"/>
   </g>
   <g id="patch_54">
    <path d="M 54 256.32 
L 388.8 256.32 
" style="fill:none;stroke:#000000;stroke-linecap:square;stroke-linejoin:miter;stroke-width:0.8;"/>
   </g>
   <g id="patch_55">
    <path d="M 54 34.56 
L 388.8 34.56 
" style="fill:none;stroke:#000000;stroke-linecap:square;stroke-linejoin:miter;stroke-width:0.8;"/>
   </g>
   <g id="text_15">
    <!-- Weird spheres -->
    <defs>
     <path d="M 3.328125 72.90625 
L 13.28125 72.90625 
L 28.609375 11.28125 
L 43.890625 72.90625 
L 54.984375 72.90625 
L 70.3125 11.28125 
L 85.59375 72.90625 
L 95.609375 72.90625 
L 77.296875 0 
L 64.890625 0 
L 49.515625 63.28125 
L 33.984375 0 
L 21.578125 0 
z
" id="DejaVuSans-57"/>
     <path d="M 45.40625 46.390625 
L 45.40625 75.984375 
L 54.390625 75.984375 
L 54.390625 0 
L 45.40625 0 
L 45.40625 8.203125 
Q 42.578125 3.328125 38.25 0.953125 
Q 33.9375 -1.421875 27.875 -1.421875 
Q 17.96875 -1.421875 11.734375 6.484375 
Q 5.515625 14.40625 5.515625 27.296875 
Q 5.515625 40.1875 11.734375 48.09375 
Q 17.96875 56 27.875 56 
Q 33.9375 56 38.25 53.625 
Q 42.578125 51.265625 45.40625 46.390625 
M 14.796875 27.296875 
Q 14.796875 17.390625 18.875 11.75 
Q 22.953125 6.109375 30.078125 6.109375 
Q 37.203125 6.109375 41.296875 11.75 
Q 45.40625 17.390625 45.40625 27.296875 
Q 45.40625 37.203125 41.296875 42.84375 
Q 37.203125 48.484375 30.078125 48.484375 
Q 22.953125 48.484375 18.875 42.84375 
Q 14.796875 37.203125 14.796875 27.296875 
" id="DejaVuSans-64"/>
    </defs>
    <g transform="translate(178.220625 28.56)scale(0.12 -0.12)">
     <use xlink:href="#DejaVuSans-57"/>
     <use x="98.798828" xlink:href="#DejaVuSans-65"/>
     <use x="160.322266" xlink:href="#DejaVuSans-69"/>
     <use x="188.105469" xlink:href="#DejaVuSans-72"/>
     <use x="229.203125" xlink:href="#DejaVuSans-64"/>
     <use x="292.679688" xlink:href="#DejaVuSans-20"/>
     <use x="324.466797" xlink:href="#DejaVuSans-73"/>
     <use x="376.566406" xlink:href="#DejaVuSans-70"/>
     <use x="440.042969" xlink:href="#DejaVuSans-68"/>
     <use x="503.421875" xlink:href="#DejaVuSans-65"/>
     <use x="564.945312" xlink:href="#DejaVuSans-72"/>
     <use x="606.027344" xlink:href="#DejaVuSans-65"/>
     <use x="667.550781" xlink:href="#DejaVuSans-73"/>
    </g>
   </g>
  </g>
 </g>
 <defs>
  <clipPath id="p178c1ca1e9">
   <rect height="221.76" width="334.8" x="54" y="34.56"/>
  </clipPath>
 </defs>
</svg>
