<?xml version="1.0" encoding="utf-8"?>
<!-- Generator: Adobe Illustrator 21.0.0, SVG Export Plug-In . SVG Version: 6.00 Build 0)  -->
<svg version="1.1" id="Calque_1" xmlns="http://www.w3.org/2000/svg" xmlns:xlink="http://www.w3.org/1999/xlink" x="0px" y="0px"
	 viewBox="0 0 409 394" style="enable-background:new 0 0 409 394;" xml:space="preserve">
<style type="text/css">
	.st0{fill:none;stroke:#FF0000;stroke-miterlimit:10;}
	.st1{fill:none;stroke:#000000;stroke-miterlimit:10;}
	.st2{fill:none;stroke:#000000;stroke-miterlimit:10;stroke-dasharray:6.0454,6.0454;}
	.st3{fill:none;stroke:#000000;stroke-miterlimit:10;stroke-dasharray:6.0205,6.0205;}
	.st4{fill:none;stroke:#ED1C24;stroke-width:2;stroke-miterlimit:10;}
	.st5{fill:#ED1C24;}
	.st6{fill:none;stroke:#0000FF;stroke-width:2;stroke-miterlimit:10;}
	.st7{fill:#0000FF;}
	.st8{font-family:'Y14.5M-2009';}
	.st9{font-size:23px;}
	.st10{fill:#FF1D25;}
	.st11{fill:#FFFFFF;stroke:#FFFFFF;stroke-width:2;stroke-miterlimit:10;}
	.st12{fill:none;stroke:#4D4D4D;stroke-width:0.5;stroke-miterlimit:10;}
	.st13{fill:none;stroke:#0000FF;stroke-miterlimit:10;}
</style>
<path class="st0" d="M253.3,210.2c0,0,5.2,19.3-13.1,30.4"/>
<ellipse transform="matrix(0.7071 -0.7071 0.7071 0.7071 -88.1502 234.8653)" class="st1" cx="239.4" cy="223.8" rx="215" ry="61"/>
<g>
	<g>
		<path class="st1" d="M87.4,375.9c-0.7-0.7-1.4-1.4-2.1-2.1"/>
		<path class="st2" d="M81.1,369.3C3.1,284.6,4.9,152.9,86.7,71.1c82.5-82.5,215.8-83.6,300.4-3.5"/>
		<path class="st1" d="M389.3,69.7c0.7,0.7,1.4,1.4,2.1,2.1"/>
	</g>
</g>
<g>
	<g>
		<path class="st1" d="M239.5,306.8c-0.8-0.6-1.5-1.3-2.3-1.9"/>
		<path class="st3" d="M232.6,300.9c-12.3-10.7-24.7-22.3-37-34.6c-84-84-132.7-171.3-108.9-195.2c19.3-19.3,80.6,9.2,147.9,65.5"/>
		<path class="st1" d="M236.9,138.6c0.8,0.6,1.5,1.3,2.3,1.9"/>
	</g>
</g>
<g>
	<g>
		<path class="st4" d="M391.5,71.8C415.3,95.6,366.5,183,282.6,267c-12.9,12.9-25.9,25-38.7,36.1"/>
		<g>
			<polygon class="st5" points="242,299.2 239.5,306.8 247.3,305.2 			"/>
		</g>
	</g>
</g>
<g>
	<g>
		<path class="st6" d="M126.7,186.3c18.5,25.5,41.9,52.9,68.9,80c14.6,14.6,29.4,28.2,43.9,40.5"/>
		<g>
			<polygon class="st7" points="124.2,189.6 123.3,181.6 130.6,184.8 			"/>
		</g>
	</g>
</g>
<text transform="matrix(1 0 0 1 123.9801 304.2843)" class="st7 st8 st9">ALTITUDE</text>
<text transform="matrix(1 6.670116e-03 -6.670116e-03 1 281.9433 302.0736)" class="st10 st8 st9">AZIMUTH</text>
<polyline class="st1" points="239.8,305.1 239.8,224.2 392.2,71.9 "/>
<text transform="matrix(1 0 0 1 245.9804 109.284)" class="st11 st8 st9">HORIZON</text>
<path class="st12" d="M125.6,184.5"/>
<polyline class="st1" points="125.6,183.5 240.1,224.5 239.9,304.7 "/>
<path class="st13" d="M239.5,240.5c0,0-16-1-18-22.2"/>
<text transform="matrix(1 0 0 1 10.98 63.2842)" class="st8 st9">ZENITH</text>
<text transform="matrix(1 0 0 1 216.9803 205.2838)" class="st8 st9">YOU</text>
<ellipse transform="matrix(0.7071 -0.7071 0.7071 0.7071 -25.0924 81.6302)" cx="86" cy="71.1" rx="3" ry="3"/>
<ellipse transform="matrix(0.7071 -0.7071 0.7071 0.7071 64.0848 298.3373)" cx="392.2" cy="71.8" rx="3" ry="3"/>
<ellipse transform="matrix(0.7071 -0.7071 0.7071 0.7071 -88.6502 235.0724)" cx="239.4" cy="224.5" rx="3" ry="3"/>
<text transform="matrix(1 0 0 1 245.9804 109.284)" class="st8 st9">HORIZON</text>
</svg>
