<?xml version="1.0" encoding="utf-8"?>
<!-- Generator: Adobe Illustrator 21.0.0, SVG Export Plug-In . SVG Version: 6.00 Build 0)  -->
<svg version="1.1" id="Calque_1" xmlns="http://www.w3.org/2000/svg" xmlns:xlink="http://www.w3.org/1999/xlink" x="0px" y="0px"
	 viewBox="0 0 445 448" style="enable-background:new 0 0 445 448;" xml:space="preserve">
<style type="text/css">
	.st0{fill:none;stroke:#000000;stroke-miterlimit:10;}
	.st1{fill:none;stroke:#000000;stroke-miterlimit:10;stroke-dasharray:6.0205,6.0205;}
	.st2{fill:none;stroke:#39B54A;stroke-width:2;stroke-miterlimit:10;}
	.st3{fill:#39B54A;}
	.st4{fill:none;stroke:#4D4D4D;stroke-width:0.5;stroke-miterlimit:10;}
	.st5{fill:#FFFFFF;stroke:#FFFFFF;stroke-width:2;stroke-miterlimit:10;}
	.st6{font-family:'Y14.5M-2009';}
	.st7{font-size:23px;}
	.st8{fill:#F15A24;}
	.st9{fill:none;stroke:#F15A24;stroke-width:2;stroke-miterlimit:10;}
</style>
<ellipse class="st0" cx="220.8" cy="223.3" rx="215" ry="61"/>
<path class="st0" d="M5.8,223.3c0-119.3,96.3-216,215-216s215,96.7,215,216"/>
<g>
	<g>
		<path class="st0" d="M162.2,282c-0.1-1-0.2-2-0.2-3"/>
		<path class="st1" d="M161.5,273c-1.1-16.2-1.7-33.2-1.7-50.7c0-118.7,27.3-215,61-215c27.4,0,50.5,63.5,58.2,150.9"/>
		<path class="st0" d="M279.3,161.2c0.1,1,0.2,2,0.2,3"/>
	</g>
</g>
<g>
	<g>
		<path class="st2" d="M435.8,223.3c0,33.7-96.3,61-215,61c-18.3,0-36-0.6-52.9-1.9"/>
		<g>
			<polygon class="st3" points="169.3,278.4 162.2,282 168.9,286.4 			"/>
		</g>
	</g>
</g>
<polyline class="st0" points="163.6,281.1 220.8,223.9 436.3,223.9 "/>
<path class="st4" d="M168.2,115"/>
<polyline class="st0" points="168.8,114.3 220.8,224.3 164,280.9 "/>
<circle cx="169.2" cy="108.5" r="3"/>
<circle cx="436.3" cy="223.8" r="3"/>
<circle cx="220.3" cy="223.8" r="3"/>
<path class="st0" d="M435.8,224c0,119.3-96.3,216-215,216s-215-96.7-215-216"/>
<g>
	<g>
		<path class="st0" d="M279.4,165.3c0.1,1,0.2,2,0.2,3"/>
		<path class="st1" d="M280.1,174.3c1.1,16.2,1.7,33.2,1.7,50.7c0,118.7-27.3,215-61,215c-27.4,0-50.5-63.5-58.2-150.9"/>
		<path class="st0" d="M162.3,286.1c-0.1-1-0.2-2-0.2-3"/>
	</g>
</g>
<path class="st0" d="M187.4,223.6c0-18.6,15-33.6,33.4-33.6s33.4,15,33.4,33.6"/>
<path class="st0" d="M254.3,223.7c0,18.6-15,33.6-33.4,33.6s-33.4-15-33.4-33.6"/>
<ellipse class="st0" cx="220.8" cy="223.3" rx="33.7" ry="9.6"/>
<text transform="matrix(1 0 0 1 36.6679 170.284)"><tspan x="0" y="0" class="st5 st6 st7">CELESTIAL</tspan><tspan x="7.2" y="23.6" class="st5 st6 st7">EQUATOR</tspan></text>
<text transform="matrix(1 0 0 1 36.6679 170.284)"><tspan x="0" y="0" class="st6 st7">CELESTIAL</tspan><tspan x="7.2" y="23.6" class="st6 st7">EQUATOR</tspan></text>
<text transform="matrix(1 0 0 1 220.2304 207.284)" class="st5 st6 st7">EARTH</text>
<text transform="matrix(1 0 0 1 220.2304 207.284)" class="st6 st7">EARTH</text>
<text transform="matrix(1 6.670000e-03 -6.670000e-03 1 216.9627 306.0905)" class="st3 st6 st7">RIGHT ASCENSION</text>
<text transform="matrix(1 6.670000e-03 -6.670000e-03 1 30.9627 238.0905)" class="st8 st6 st7">DECLINATION</text>
<text transform="matrix(1 0 0 1 326.6679 68.284)"><tspan x="0" y="0" class="st5 st6 st7">CELESTIAL</tspan><tspan x="15.8" y="23.6" class="st5 st6 st7">SPHERE</tspan></text>
<text transform="matrix(1 0 0 1 326.6679 68.284)"><tspan x="0" y="0" class="st6 st7">CELESTIAL</tspan><tspan x="15.8" y="23.6" class="st6 st7">SPHERE</tspan></text>
<g>
	<g>
		<path class="st9" d="M167.6,117c-5,31.1-7.8,67-7.8,105.3c0,20.7,0.8,40.7,2.4,59.7"/>
		<g>
			<polygon class="st8" points="163.6,117.6 168.6,111.4 171.5,118.8 			"/>
		</g>
	</g>
</g>
<text transform="matrix(1 0 0 1 178.9804 114.284)" class="st6 st7">STAR</text>
</svg>
