<?xml version="1.0" encoding="utf-8" standalone="no"?>
<!DOCTYPE svg PUBLIC "-//W3C//DTD SVG 1.1//EN"
  "http://www.w3.org/Graphics/SVG/1.1/DTD/svg11.dtd">
<!-- Created with matplotlib (http://matplotlib.org/) -->
<svg height="324pt" version="1.1" viewBox="0 0 576 324" width="576pt" xmlns="http://www.w3.org/2000/svg" xmlns:xlink="http://www.w3.org/1999/xlink">
 <defs>
  <style type="text/css">
*{stroke-linecap:butt;stroke-linejoin:round;}
  </style>
 </defs>
 <g id="figure_1">
  <g id="patch_1">
   <path d="M 0 324 
L 576 324 
L 576 0 
L 0 0 
z
" style="fill:#ffffff;"/>
  </g>
  <g id="axes_1">
   <g id="patch_2">
    <path d="M 72 283.5 
L 518.4 283.5 
L 518.4 38.88 
L 72 38.88 
z
" style="fill:#ffffff;"/>
   </g>
   <g id="matplotlib.axis_1">
    <g id="xtick_1">
     <g id="line2d_1">
      <defs>
       <path d="M 0 0 
L 0 3.5 
" id="m9a2b82637b" style="stroke:#000000;stroke-width:0.8;"/>
      </defs>
      <g>
       <use style="stroke:#000000;stroke-width:0.8;" x="72" xlink:href="#m9a2b82637b" y="283.5"/>
      </g>
     </g>
     <g id="text_1">
      <!-- 0 -->
      <defs>
       <path d="M 31.78125 66.40625 
Q 24.171875 66.40625 20.328125 58.90625 
Q 16.5 51.421875 16.5 36.375 
Q 16.5 21.390625 20.328125 13.890625 
Q 24.171875 6.390625 31.78125 6.390625 
Q 39.453125 6.390625 43.28125 13.890625 
Q 47.125 21.390625 47.125 36.375 
Q 47.125 51.421875 43.28125 58.90625 
Q 39.453125 66.40625 31.78125 66.40625 
M 31.78125 74.21875 
Q 44.046875 74.21875 50.515625 64.515625 
Q 56.984375 54.828125 56.984375 36.375 
Q 56.984375 17.96875 50.515625 8.265625 
Q 44.046875 -1.421875 31.78125 -1.421875 
Q 19.53125 -1.421875 13.0625 8.265625 
Q 6.59375 17.96875 6.59375 36.375 
Q 6.59375 54.828125 13.0625 64.515625 
Q 19.53125 74.21875 31.78125 74.21875 
" id="DejaVuSans-30"/>
      </defs>
      <g transform="translate(68.81875 298.098437)scale(0.1 -0.1)">
       <use xlink:href="#DejaVuSans-30"/>
      </g>
     </g>
    </g>
    <g id="xtick_2">
     <g id="line2d_2">
      <g>
       <use style="stroke:#000000;stroke-width:0.8;" x="161.28" xlink:href="#m9a2b82637b" y="283.5"/>
      </g>
     </g>
     <g id="text_2">
      <!-- 100 -->
      <defs>
       <path d="M 12.40625 8.296875 
L 28.515625 8.296875 
L 28.515625 63.921875 
L 10.984375 60.40625 
L 10.984375 69.390625 
L 28.421875 72.90625 
L 38.28125 72.90625 
L 38.28125 8.296875 
L 54.390625 8.296875 
L 54.390625 0 
L 12.40625 0 
z
" id="DejaVuSans-31"/>
      </defs>
      <g transform="translate(151.73625 298.098437)scale(0.1 -0.1)">
       <use xlink:href="#DejaVuSans-31"/>
       <use x="63.623047" xlink:href="#DejaVuSans-30"/>
       <use x="127.246094" xlink:href="#DejaVuSans-30"/>
      </g>
     </g>
    </g>
    <g id="xtick_3">
     <g id="line2d_3">
      <g>
       <use style="stroke:#000000;stroke-width:0.8;" x="250.56" xlink:href="#m9a2b82637b" y="283.5"/>
      </g>
     </g>
     <g id="text_3">
      <!-- 200 -->
      <defs>
       <path d="M 19.1875 8.296875 
L 53.609375 8.296875 
L 53.609375 0 
L 7.328125 0 
L 7.328125 8.296875 
Q 12.9375 14.109375 22.625 23.890625 
Q 32.328125 33.6875 34.8125 36.53125 
Q 39.546875 41.84375 41.421875 45.53125 
Q 43.3125 49.21875 43.3125 52.78125 
Q 43.3125 58.59375 39.234375 62.25 
Q 35.15625 65.921875 28.609375 65.921875 
Q 23.96875 65.921875 18.8125 64.3125 
Q 13.671875 62.703125 7.8125 59.421875 
L 7.8125 69.390625 
Q 13.765625 71.78125 18.9375 73 
Q 24.125 74.21875 28.421875 74.21875 
Q 39.75 74.21875 46.484375 68.546875 
Q 53.21875 62.890625 53.21875 53.421875 
Q 53.21875 48.921875 51.53125 44.890625 
Q 49.859375 40.875 45.40625 35.40625 
Q 44.1875 33.984375 37.640625 27.21875 
Q 31.109375 20.453125 19.1875 8.296875 
" id="DejaVuSans-32"/>
      </defs>
      <g transform="translate(241.01625 298.098437)scale(0.1 -0.1)">
       <use xlink:href="#DejaVuSans-32"/>
       <use x="63.623047" xlink:href="#DejaVuSans-30"/>
       <use x="127.246094" xlink:href="#DejaVuSans-30"/>
      </g>
     </g>
    </g>
    <g id="xtick_4">
     <g id="line2d_4">
      <g>
       <use style="stroke:#000000;stroke-width:0.8;" x="339.84" xlink:href="#m9a2b82637b" y="283.5"/>
      </g>
     </g>
     <g id="text_4">
      <!-- 300 -->
      <defs>
       <path d="M 40.578125 39.3125 
Q 47.65625 37.796875 51.625 33 
Q 55.609375 28.21875 55.609375 21.1875 
Q 55.609375 10.40625 48.1875 4.484375 
Q 40.765625 -1.421875 27.09375 -1.421875 
Q 22.515625 -1.421875 17.65625 -0.515625 
Q 12.796875 0.390625 7.625 2.203125 
L 7.625 11.71875 
Q 11.71875 9.328125 16.59375 8.109375 
Q 21.484375 6.890625 26.8125 6.890625 
Q 36.078125 6.890625 40.9375 10.546875 
Q 45.796875 14.203125 45.796875 21.1875 
Q 45.796875 27.640625 41.28125 31.265625 
Q 36.765625 34.90625 28.71875 34.90625 
L 20.21875 34.90625 
L 20.21875 43.015625 
L 29.109375 43.015625 
Q 36.375 43.015625 40.234375 45.921875 
Q 44.09375 48.828125 44.09375 54.296875 
Q 44.09375 59.90625 40.109375 62.90625 
Q 36.140625 65.921875 28.71875 65.921875 
Q 24.65625 65.921875 20.015625 65.03125 
Q 15.375 64.15625 9.8125 62.3125 
L 9.8125 71.09375 
Q 15.4375 72.65625 20.34375 73.4375 
Q 25.25 74.21875 29.59375 74.21875 
Q 40.828125 74.21875 47.359375 69.109375 
Q 53.90625 64.015625 53.90625 55.328125 
Q 53.90625 49.265625 50.4375 45.09375 
Q 46.96875 40.921875 40.578125 39.3125 
" id="DejaVuSans-33"/>
      </defs>
      <g transform="translate(330.29625 298.098437)scale(0.1 -0.1)">
       <use xlink:href="#DejaVuSans-33"/>
       <use x="63.623047" xlink:href="#DejaVuSans-30"/>
       <use x="127.246094" xlink:href="#DejaVuSans-30"/>
      </g>
     </g>
    </g>
    <g id="xtick_5">
     <g id="line2d_5">
      <g>
       <use style="stroke:#000000;stroke-width:0.8;" x="429.12" xlink:href="#m9a2b82637b" y="283.5"/>
      </g>
     </g>
     <g id="text_5">
      <!-- 400 -->
      <defs>
       <path d="M 37.796875 64.3125 
L 12.890625 25.390625 
L 37.796875 25.390625 
z
M 35.203125 72.90625 
L 47.609375 72.90625 
L 47.609375 25.390625 
L 58.015625 25.390625 
L 58.015625 17.1875 
L 47.609375 17.1875 
L 47.609375 0 
L 37.796875 0 
L 37.796875 17.1875 
L 4.890625 17.1875 
L 4.890625 26.703125 
z
" id="DejaVuSans-34"/>
      </defs>
      <g transform="translate(419.57625 298.098437)scale(0.1 -0.1)">
       <use xlink:href="#DejaVuSans-34"/>
       <use x="63.623047" xlink:href="#DejaVuSans-30"/>
       <use x="127.246094" xlink:href="#DejaVuSans-30"/>
      </g>
     </g>
    </g>
    <g id="xtick_6">
     <g id="line2d_6">
      <g>
       <use style="stroke:#000000;stroke-width:0.8;" x="518.4" xlink:href="#m9a2b82637b" y="283.5"/>
      </g>
     </g>
     <g id="text_6">
      <!-- 500 -->
      <defs>
       <path d="M 10.796875 72.90625 
L 49.515625 72.90625 
L 49.515625 64.59375 
L 19.828125 64.59375 
L 19.828125 46.734375 
Q 21.96875 47.46875 24.109375 47.828125 
Q 26.265625 48.1875 28.421875 48.1875 
Q 40.625 48.1875 47.75 41.5 
Q 54.890625 34.8125 54.890625 23.390625 
Q 54.890625 11.625 47.5625 5.09375 
Q 40.234375 -1.421875 26.90625 -1.421875 
Q 22.3125 -1.421875 17.546875 -0.640625 
Q 12.796875 0.140625 7.71875 1.703125 
L 7.71875 11.625 
Q 12.109375 9.234375 16.796875 8.0625 
Q 21.484375 6.890625 26.703125 6.890625 
Q 35.15625 6.890625 40.078125 11.328125 
Q 45.015625 15.765625 45.015625 23.390625 
Q 45.015625 31 40.078125 35.4375 
Q 35.15625 39.890625 26.703125 39.890625 
Q 22.75 39.890625 18.8125 39.015625 
Q 14.890625 38.140625 10.796875 36.28125 
z
" id="DejaVuSans-35"/>
      </defs>
      <g transform="translate(508.85625 298.098437)scale(0.1 -0.1)">
       <use xlink:href="#DejaVuSans-35"/>
       <use x="63.623047" xlink:href="#DejaVuSans-30"/>
       <use x="127.246094" xlink:href="#DejaVuSans-30"/>
      </g>
     </g>
    </g>
    <g id="text_7">
     <!-- Iteration -->
     <defs>
      <path d="M 9.8125 72.90625 
L 19.671875 72.90625 
L 19.671875 0 
L 9.8125 0 
z
" id="DejaVuSans-49"/>
      <path d="M 18.3125 70.21875 
L 18.3125 54.6875 
L 36.8125 54.6875 
L 36.8125 47.703125 
L 18.3125 47.703125 
L 18.3125 18.015625 
Q 18.3125 11.328125 20.140625 9.421875 
Q 21.96875 7.515625 27.59375 7.515625 
L 36.8125 7.515625 
L 36.8125 0 
L 27.59375 0 
Q 17.1875 0 13.234375 3.875 
Q 9.28125 7.765625 9.28125 18.015625 
L 9.28125 47.703125 
L 2.6875 47.703125 
L 2.6875 54.6875 
L 9.28125 54.6875 
L 9.28125 70.21875 
z
" id="DejaVuSans-74"/>
      <path d="M 56.203125 29.59375 
L 56.203125 25.203125 
L 14.890625 25.203125 
Q 15.484375 15.921875 20.484375 11.0625 
Q 25.484375 6.203125 34.421875 6.203125 
Q 39.59375 6.203125 44.453125 7.46875 
Q 49.3125 8.734375 54.109375 11.28125 
L 54.109375 2.78125 
Q 49.265625 0.734375 44.1875 -0.34375 
Q 39.109375 -1.421875 33.890625 -1.421875 
Q 20.796875 -1.421875 13.15625 6.1875 
Q 5.515625 13.8125 5.515625 26.8125 
Q 5.515625 40.234375 12.765625 48.109375 
Q 20.015625 56 32.328125 56 
Q 43.359375 56 49.78125 48.890625 
Q 56.203125 41.796875 56.203125 29.59375 
M 47.21875 32.234375 
Q 47.125 39.59375 43.09375 43.984375 
Q 39.0625 48.390625 32.421875 48.390625 
Q 24.90625 48.390625 20.390625 44.140625 
Q 15.875 39.890625 15.1875 32.171875 
z
" id="DejaVuSans-65"/>
      <path d="M 41.109375 46.296875 
Q 39.59375 47.171875 37.8125 47.578125 
Q 36.03125 48 33.890625 48 
Q 26.265625 48 22.1875 43.046875 
Q 18.109375 38.09375 18.109375 28.8125 
L 18.109375 0 
L 9.078125 0 
L 9.078125 54.6875 
L 18.109375 54.6875 
L 18.109375 46.1875 
Q 20.953125 51.171875 25.484375 53.578125 
Q 30.03125 56 36.53125 56 
Q 37.453125 56 38.578125 55.875 
Q 39.703125 55.765625 41.0625 55.515625 
z
" id="DejaVuSans-72"/>
      <path d="M 34.28125 27.484375 
Q 23.390625 27.484375 19.1875 25 
Q 14.984375 22.515625 14.984375 16.5 
Q 14.984375 11.71875 18.140625 8.90625 
Q 21.296875 6.109375 26.703125 6.109375 
Q 34.1875 6.109375 38.703125 11.40625 
Q 43.21875 16.703125 43.21875 25.484375 
L 43.21875 27.484375 
z
M 52.203125 31.203125 
L 52.203125 0 
L 43.21875 0 
L 43.21875 8.296875 
Q 40.140625 3.328125 35.546875 0.953125 
Q 30.953125 -1.421875 24.3125 -1.421875 
Q 15.921875 -1.421875 10.953125 3.296875 
Q 6 8.015625 6 15.921875 
Q 6 25.140625 12.171875 29.828125 
Q 18.359375 34.515625 30.609375 34.515625 
L 43.21875 34.515625 
L 43.21875 35.40625 
Q 43.21875 41.609375 39.140625 45 
Q 35.0625 48.390625 27.6875 48.390625 
Q 23 48.390625 18.546875 47.265625 
Q 14.109375 46.140625 10.015625 43.890625 
L 10.015625 52.203125 
Q 14.9375 54.109375 19.578125 55.046875 
Q 24.21875 56 28.609375 56 
Q 40.484375 56 46.34375 49.84375 
Q 52.203125 43.703125 52.203125 31.203125 
" id="DejaVuSans-61"/>
      <path d="M 9.421875 54.6875 
L 18.40625 54.6875 
L 18.40625 0 
L 9.421875 0 
z
M 9.421875 75.984375 
L 18.40625 75.984375 
L 18.40625 64.59375 
L 9.421875 64.59375 
z
" id="DejaVuSans-69"/>
      <path d="M 30.609375 48.390625 
Q 23.390625 48.390625 19.1875 42.75 
Q 14.984375 37.109375 14.984375 27.296875 
Q 14.984375 17.484375 19.15625 11.84375 
Q 23.34375 6.203125 30.609375 6.203125 
Q 37.796875 6.203125 41.984375 11.859375 
Q 46.1875 17.53125 46.1875 27.296875 
Q 46.1875 37.015625 41.984375 42.703125 
Q 37.796875 48.390625 30.609375 48.390625 
M 30.609375 56 
Q 42.328125 56 49.015625 48.375 
Q 55.71875 40.765625 55.71875 27.296875 
Q 55.71875 13.875 49.015625 6.21875 
Q 42.328125 -1.421875 30.609375 -1.421875 
Q 18.84375 -1.421875 12.171875 6.21875 
Q 5.515625 13.875 5.515625 27.296875 
Q 5.515625 40.765625 12.171875 48.375 
Q 18.84375 56 30.609375 56 
" id="DejaVuSans-6f"/>
      <path d="M 54.890625 33.015625 
L 54.890625 0 
L 45.90625 0 
L 45.90625 32.71875 
Q 45.90625 40.484375 42.875 44.328125 
Q 39.84375 48.1875 33.796875 48.1875 
Q 26.515625 48.1875 22.3125 43.546875 
Q 18.109375 38.921875 18.109375 30.90625 
L 18.109375 0 
L 9.078125 0 
L 9.078125 54.6875 
L 18.109375 54.6875 
L 18.109375 46.1875 
Q 21.34375 51.125 25.703125 53.5625 
Q 30.078125 56 35.796875 56 
Q 45.21875 56 50.046875 50.171875 
Q 54.890625 44.34375 54.890625 33.015625 
" id="DejaVuSans-6e"/>
     </defs>
     <g transform="translate(273.991406 311.776563)scale(0.1 -0.1)">
      <use xlink:href="#DejaVuSans-49"/>
      <use x="29.492188" xlink:href="#DejaVuSans-74"/>
      <use x="68.701172" xlink:href="#DejaVuSans-65"/>
      <use x="130.224609" xlink:href="#DejaVuSans-72"/>
      <use x="171.337891" xlink:href="#DejaVuSans-61"/>
      <use x="232.617188" xlink:href="#DejaVuSans-74"/>
      <use x="271.826172" xlink:href="#DejaVuSans-69"/>
      <use x="299.609375" xlink:href="#DejaVuSans-6f"/>
      <use x="360.791016" xlink:href="#DejaVuSans-6e"/>
     </g>
    </g>
   </g>
   <g id="matplotlib.axis_2">
    <g id="ytick_1">
     <g id="line2d_7">
      <defs>
       <path d="M 0 0 
L -3.5 0 
" id="m1afd7d7bff" style="stroke:#000000;stroke-width:0.8;"/>
      </defs>
      <g>
       <use style="stroke:#000000;stroke-width:0.8;" x="72" xlink:href="#m1afd7d7bff" y="273.991325"/>
      </g>
     </g>
     <g id="text_8">
      <!-- 0.00 -->
      <defs>
       <path d="M 10.6875 12.40625 
L 21 12.40625 
L 21 0 
L 10.6875 0 
z
" id="DejaVuSans-2e"/>
      </defs>
      <g transform="translate(42.734375 277.790544)scale(0.1 -0.1)">
       <use xlink:href="#DejaVuSans-30"/>
       <use x="63.623047" xlink:href="#DejaVuSans-2e"/>
       <use x="95.410156" xlink:href="#DejaVuSans-30"/>
       <use x="159.033203" xlink:href="#DejaVuSans-30"/>
      </g>
     </g>
    </g>
    <g id="ytick_2">
     <g id="line2d_8">
      <g>
       <use style="stroke:#000000;stroke-width:0.8;" x="72" xlink:href="#m1afd7d7bff" y="243.705502"/>
      </g>
     </g>
     <g id="text_9">
      <!-- 0.05 -->
      <g transform="translate(42.734375 247.504721)scale(0.1 -0.1)">
       <use xlink:href="#DejaVuSans-30"/>
       <use x="63.623047" xlink:href="#DejaVuSans-2e"/>
       <use x="95.410156" xlink:href="#DejaVuSans-30"/>
       <use x="159.033203" xlink:href="#DejaVuSans-35"/>
      </g>
     </g>
    </g>
    <g id="ytick_3">
     <g id="line2d_9">
      <g>
       <use style="stroke:#000000;stroke-width:0.8;" x="72" xlink:href="#m1afd7d7bff" y="213.419679"/>
      </g>
     </g>
     <g id="text_10">
      <!-- 0.10 -->
      <g transform="translate(42.734375 217.218898)scale(0.1 -0.1)">
       <use xlink:href="#DejaVuSans-30"/>
       <use x="63.623047" xlink:href="#DejaVuSans-2e"/>
       <use x="95.410156" xlink:href="#DejaVuSans-31"/>
       <use x="159.033203" xlink:href="#DejaVuSans-30"/>
      </g>
     </g>
    </g>
    <g id="ytick_4">
     <g id="line2d_10">
      <g>
       <use style="stroke:#000000;stroke-width:0.8;" x="72" xlink:href="#m1afd7d7bff" y="183.133856"/>
      </g>
     </g>
     <g id="text_11">
      <!-- 0.15 -->
      <g transform="translate(42.734375 186.933075)scale(0.1 -0.1)">
       <use xlink:href="#DejaVuSans-30"/>
       <use x="63.623047" xlink:href="#DejaVuSans-2e"/>
       <use x="95.410156" xlink:href="#DejaVuSans-31"/>
       <use x="159.033203" xlink:href="#DejaVuSans-35"/>
      </g>
     </g>
    </g>
    <g id="ytick_5">
     <g id="line2d_11">
      <g>
       <use style="stroke:#000000;stroke-width:0.8;" x="72" xlink:href="#m1afd7d7bff" y="152.848033"/>
      </g>
     </g>
     <g id="text_12">
      <!-- 0.20 -->
      <g transform="translate(42.734375 156.647252)scale(0.1 -0.1)">
       <use xlink:href="#DejaVuSans-30"/>
       <use x="63.623047" xlink:href="#DejaVuSans-2e"/>
       <use x="95.410156" xlink:href="#DejaVuSans-32"/>
       <use x="159.033203" xlink:href="#DejaVuSans-30"/>
      </g>
     </g>
    </g>
    <g id="ytick_6">
     <g id="line2d_12">
      <g>
       <use style="stroke:#000000;stroke-width:0.8;" x="72" xlink:href="#m1afd7d7bff" y="122.56221"/>
      </g>
     </g>
     <g id="text_13">
      <!-- 0.25 -->
      <g transform="translate(42.734375 126.361429)scale(0.1 -0.1)">
       <use xlink:href="#DejaVuSans-30"/>
       <use x="63.623047" xlink:href="#DejaVuSans-2e"/>
       <use x="95.410156" xlink:href="#DejaVuSans-32"/>
       <use x="159.033203" xlink:href="#DejaVuSans-35"/>
      </g>
     </g>
    </g>
    <g id="ytick_7">
     <g id="line2d_13">
      <g>
       <use style="stroke:#000000;stroke-width:0.8;" x="72" xlink:href="#m1afd7d7bff" y="92.276387"/>
      </g>
     </g>
     <g id="text_14">
      <!-- 0.30 -->
      <g transform="translate(42.734375 96.075606)scale(0.1 -0.1)">
       <use xlink:href="#DejaVuSans-30"/>
       <use x="63.623047" xlink:href="#DejaVuSans-2e"/>
       <use x="95.410156" xlink:href="#DejaVuSans-33"/>
       <use x="159.033203" xlink:href="#DejaVuSans-30"/>
      </g>
     </g>
    </g>
    <g id="ytick_8">
     <g id="line2d_14">
      <g>
       <use style="stroke:#000000;stroke-width:0.8;" x="72" xlink:href="#m1afd7d7bff" y="61.990564"/>
      </g>
     </g>
     <g id="text_15">
      <!-- 0.35 -->
      <g transform="translate(42.734375 65.789782)scale(0.1 -0.1)">
       <use xlink:href="#DejaVuSans-30"/>
       <use x="63.623047" xlink:href="#DejaVuSans-2e"/>
       <use x="95.410156" xlink:href="#DejaVuSans-33"/>
       <use x="159.033203" xlink:href="#DejaVuSans-35"/>
      </g>
     </g>
    </g>
    <g id="text_16">
     <!-- Distance -->
     <defs>
      <path d="M 19.671875 64.796875 
L 19.671875 8.109375 
L 31.59375 8.109375 
Q 46.6875 8.109375 53.6875 14.9375 
Q 60.6875 21.78125 60.6875 36.53125 
Q 60.6875 51.171875 53.6875 57.984375 
Q 46.6875 64.796875 31.59375 64.796875 
z
M 9.8125 72.90625 
L 30.078125 72.90625 
Q 51.265625 72.90625 61.171875 64.09375 
Q 71.09375 55.28125 71.09375 36.53125 
Q 71.09375 17.671875 61.125 8.828125 
Q 51.171875 0 30.078125 0 
L 9.8125 0 
z
" id="DejaVuSans-44"/>
      <path d="M 44.28125 53.078125 
L 44.28125 44.578125 
Q 40.484375 46.53125 36.375 47.5 
Q 32.28125 48.484375 27.875 48.484375 
Q 21.1875 48.484375 17.84375 46.4375 
Q 14.5 44.390625 14.5 40.28125 
Q 14.5 37.15625 16.890625 35.375 
Q 19.28125 33.59375 26.515625 31.984375 
L 29.59375 31.296875 
Q 39.15625 29.25 43.1875 25.515625 
Q 47.21875 21.78125 47.21875 15.09375 
Q 47.21875 7.46875 41.1875 3.015625 
Q 35.15625 -1.421875 24.609375 -1.421875 
Q 20.21875 -1.421875 15.453125 -0.5625 
Q 10.6875 0.296875 5.421875 2 
L 5.421875 11.28125 
Q 10.40625 8.6875 15.234375 7.390625 
Q 20.0625 6.109375 24.8125 6.109375 
Q 31.15625 6.109375 34.5625 8.28125 
Q 37.984375 10.453125 37.984375 14.40625 
Q 37.984375 18.0625 35.515625 20.015625 
Q 33.0625 21.96875 24.703125 23.78125 
L 21.578125 24.515625 
Q 13.234375 26.265625 9.515625 29.90625 
Q 5.8125 33.546875 5.8125 39.890625 
Q 5.8125 47.609375 11.28125 51.796875 
Q 16.75 56 26.8125 56 
Q 31.78125 56 36.171875 55.265625 
Q 40.578125 54.546875 44.28125 53.078125 
" id="DejaVuSans-73"/>
      <path d="M 48.78125 52.59375 
L 48.78125 44.1875 
Q 44.96875 46.296875 41.140625 47.34375 
Q 37.3125 48.390625 33.40625 48.390625 
Q 24.65625 48.390625 19.8125 42.84375 
Q 14.984375 37.3125 14.984375 27.296875 
Q 14.984375 17.28125 19.8125 11.734375 
Q 24.65625 6.203125 33.40625 6.203125 
Q 37.3125 6.203125 41.140625 7.25 
Q 44.96875 8.296875 48.78125 10.40625 
L 48.78125 2.09375 
Q 45.015625 0.34375 40.984375 -0.53125 
Q 36.96875 -1.421875 32.421875 -1.421875 
Q 20.0625 -1.421875 12.78125 6.34375 
Q 5.515625 14.109375 5.515625 27.296875 
Q 5.515625 40.671875 12.859375 48.328125 
Q 20.21875 56 33.015625 56 
Q 37.15625 56 41.109375 55.140625 
Q 45.0625 54.296875 48.78125 52.59375 
" id="DejaVuSans-63"/>
     </defs>
     <g transform="translate(36.654687 183.0525)rotate(-90)scale(0.1 -0.1)">
      <use xlink:href="#DejaVuSans-44"/>
      <use x="77.001953" xlink:href="#DejaVuSans-69"/>
      <use x="104.785156" xlink:href="#DejaVuSans-73"/>
      <use x="156.884766" xlink:href="#DejaVuSans-74"/>
      <use x="196.09375" xlink:href="#DejaVuSans-61"/>
      <use x="257.373047" xlink:href="#DejaVuSans-6e"/>
      <use x="320.751953" xlink:href="#DejaVuSans-63"/>
      <use x="375.732422" xlink:href="#DejaVuSans-65"/>
     </g>
    </g>
   </g>
   <g id="line2d_15">
    <path clip-path="url(#pa0741c835b)" d="M 72 92.095165 
L 72.8928 83.630067 
L 73.7856 76.267665 
L 74.6784 69.925243 
L 75.5712 64.53683 
L 76.464 60.049967 
L 77.3568 56.423357 
L 78.2496 53.625136 
L 79.1424 51.631593 
L 80.0352 50.426231 
L 80.928 49.999091 
L 81.8208 50.346298 
L 82.7136 51.469803 
L 83.6064 53.377305 
L 84.4992 56.082349 
L 85.392 59.604642 
L 86.2848 63.970579 
L 87.1776 69.214082 
L 88.0704 75.377803 
L 88.9632 82.514846 
L 89.856 90.691228 
L 90.7488 99.989407 
L 91.6416 110.513451 
L 92.5344 122.396797 
L 93.4272 135.81427 
L 94.32 151.00142 
L 95.2128 168.28694 
L 96.1056 188.14854 
L 96.9984 211.301235 
L 97.8912 238.629042 
L 98.784 260.683861 
L 100.5696 208.491556 
L 101.4624 188.06599 
L 102.3552 174.721591 
L 103.248 166.68527 
L 104.1408 161.512157 
L 105.0336 158.11166 
L 105.9264 156.320061 
L 106.8192 156.264941 
L 107.712 158.147379 
L 108.6048 162.200595 
L 109.4976 168.701032 
L 110.3904 178.001941 
L 111.2832 190.593519 
L 112.176 207.219713 
L 113.0688 229.142806 
L 113.9616 258.698579 
L 114.8544 251.012471 
L 115.7472 223.547932 
L 116.64 203.121331 
L 117.5328 187.77044 
L 118.4256 176.494174 
L 119.3184 168.739674 
L 120.2112 164.194066 
L 121.104 162.696535 
L 121.9968 164.201113 
L 122.8896 168.767042 
L 123.7824 176.571222 
L 124.6752 187.949383 
L 125.568 203.49244 
L 126.4608 224.283758 
L 127.3536 252.619119 
L 128.2464 256.852293 
L 129.1392 227.317291 
L 130.032 205.77507 
L 130.9248 189.672857 
L 131.8176 177.837934 
L 132.7104 169.638837 
L 133.6032 164.718473 
L 134.496 162.88806 
L 135.3888 164.08222 
L 136.2816 168.344997 
L 137.1744 175.838922 
L 138.0672 186.882198 
L 138.96 202.03798 
L 139.8528 222.334001 
L 140.7456 249.927158 
L 141.6384 259.626826 
L 142.5312 228.892978 
L 143.424 206.525764 
L 144.3168 189.717905 
L 145.2096 177.229065 
L 146.1024 168.400326 
L 146.9952 162.859233 
L 147.888 160.403961 
L 148.7808 160.953233 
L 149.6736 164.528148 
L 150.5664 171.255859 
L 151.4592 181.397106 
L 152.352 195.413862 
L 153.2448 214.128811 
L 154.1376 239.161229 
L 155.0304 272.380909 
L 155.9232 238.372574 
L 156.816 213.624412 
L 157.7088 195.102039 
L 158.6016 181.228608 
L 159.4944 171.197131 
L 160.3872 164.552558 
L 161.28 161.037452 
L 162.1728 160.526188 
L 163.0656 162.998115 
L 163.9584 168.534048 
L 164.8512 177.334236 
L 165.744 189.767566 
L 166.6368 206.484875 
L 167.5296 228.704026 
L 168.4224 259.111722 
L 169.3152 250.334772 
L 170.208 222.324563 
L 171.1008 201.604298 
L 171.9936 186.004546 
L 172.8864 174.494082 
L 173.7792 166.517713 
L 174.672 161.775018 
L 175.5648 160.131042 
L 176.4576 161.579856 
L 177.3504 166.236482 
L 178.2432 174.351267 
L 179.136 186.351505 
L 180.0288 202.926563 
L 180.9216 225.170277 
L 181.8144 254.013539 
L 182.7072 250.999298 
L 183.6 226.052211 
L 184.4928 217.646564 
L 185.3856 216.721634 
L 186.2784 219.089401 
L 188.064 225.635017 
L 188.9568 227.352977 
L 189.8496 227.475174 
L 190.7424 226.356116 
L 192.528 222.824014 
L 193.4208 221.396067 
L 194.3136 220.57227 
L 195.2064 220.458597 
L 196.0992 221.044449 
L 196.992 222.203621 
L 198.7776 225.128088 
L 199.6704 226.112784 
L 200.5632 226.314077 
L 201.456 225.654731 
L 202.3488 224.358837 
L 203.2416 222.847498 
L 204.1344 221.570877 
L 205.0272 220.880359 
L 205.92 220.963049 
L 206.8128 221.814045 
L 209.4912 226.030756 
L 210.384 226.458095 
L 211.2768 225.91445 
L 212.1696 224.610666 
L 213.9552 221.604739 
L 214.848 220.759064 
L 215.7408 220.658942 
L 216.6336 221.311498 
L 217.5264 222.559139 
L 219.312 225.516052 
L 220.2048 226.39234 
L 221.0976 226.443417 
L 221.9904 225.657364 
L 224.6688 221.482491 
L 225.5616 220.737418 
L 226.4544 220.704313 
L 227.3472 221.404181 
L 228.24 222.699104 
L 230.0256 225.70827 
L 230.9184 226.488854 
L 231.8112 226.313007 
L 232.704 225.225378 
L 234.4896 222.019937 
L 235.3824 220.914846 
L 236.2752 220.602897 
L 237.168 221.174827 
L 238.0608 222.499009 
L 239.8464 225.811844 
L 240.7392 226.696277 
L 241.632 226.523125 
L 242.5248 225.366173 
L 244.3104 222.026727 
L 245.2032 220.883169 
L 246.096 220.504028 
L 246.9888 220.931051 
L 247.8816 222.016812 
L 249.6672 224.888544 
L 250.56 225.898425 
L 251.4528 226.22163 
L 252.3456 225.798976 
L 253.2384 224.796581 
L 255.024 222.306969 
L 255.9168 221.430769 
L 256.8096 221.077367 
L 257.7024 221.324771 
L 258.5952 222.135651 
L 261.2736 225.691616 
L 262.1664 226.067369 
L 263.0592 225.608487 
L 263.952 224.443351 
L 265.7376 221.622356 
L 266.6304 220.833292 
L 267.5232 220.822813 
L 268.416 221.623386 
L 269.3088 223.052617 
L 270.2016 224.719244 
L 271.0944 226.089356 
L 271.9872 226.663987 
L 272.88 226.228684 
L 273.7728 224.980799 
L 275.5584 221.952192 
L 276.4512 220.948907 
L 277.344 220.438646 
L 278.2368 220.313353 
L 279.1296 220.49374 
L 280.0224 221.13891 
L 280.9152 222.683085 
L 281.808 225.568442 
L 282.7008 229.637222 
L 283.5936 232.885447 
L 284.4864 231.717852 
L 285.3792 232.065678 
L 287.1648 223.265735 
L 288.0576 221.482188 
L 288.9504 222.299955 
L 289.8432 225.323079 
L 291.6288 233.606582 
L 292.5216 235.197673 
L 293.4144 233.448731 
L 295.2 225.552439 
L 296.0928 222.686281 
L 296.9856 221.580308 
L 297.8784 222.363883 
L 298.7712 224.837791 
L 300.5568 232.175647 
L 301.4496 234.483574 
L 302.3424 234.114156 
L 303.2352 231.266466 
L 305.0208 223.968791 
L 305.9136 221.893306 
L 306.8064 221.603946 
L 307.6992 223.182796 
L 308.592 226.367951 
L 309.4848 230.412893 
L 310.3776 233.89817 
L 311.2704 235.03992 
L 312.1632 233.103572 
L 313.9488 225.302849 
L 314.8416 222.517963 
L 315.7344 221.528327 
L 316.6272 222.505431 
L 317.52 225.252686 
L 319.3056 232.903695 
L 320.1984 234.826368 
L 321.0912 233.776842 
L 321.984 230.430175 
L 322.8768 226.492475 
L 323.7696 223.353917 
L 324.6624 221.763372 
L 325.5552 221.998777 
L 326.448 224.004582 
L 327.3408 227.384395 
L 328.2336 231.26013 
L 329.1264 234.168498 
L 330.0192 234.580159 
L 330.912 232.229086 
L 332.6976 224.750887 
L 333.5904 222.302041 
L 334.4832 221.6041 
L 335.376 222.801255 
L 336.2688 225.693583 
L 338.0544 233.30924 
L 338.9472 234.95151 
L 339.84 233.529364 
L 342.5184 222.899007 
L 343.4112 221.608593 
L 344.304 222.279404 
L 345.1968 224.778269 
L 346.9824 232.449112 
L 347.8752 234.765629 
L 348.768 234.165791 
L 349.6608 231.048395 
L 350.5536 227.079771 
L 351.4464 223.748573 
L 352.3392 221.882827 
L 353.232 221.79466 
L 354.1248 223.445661 
L 355.0176 226.48704 
L 355.9104 230.180506 
L 356.8032 233.303841 
L 357.696 234.432638 
L 358.5888 232.944858 
L 361.2672 223.138728 
L 362.16 221.720967 
L 363.0528 222.050786 
L 363.9456 224.151252 
L 364.8384 227.723997 
L 365.7312 231.940729 
L 366.624 235.172218 
L 367.5168 235.394092 
L 368.4096 231.992956 
L 370.1952 221.069897 
L 371.088 217.237278 
L 371.9808 216.086573 
L 372.8736 217.960167 
L 373.7664 221.785352 
L 374.6592 227.452288 
L 375.552 236.429004 
L 376.4448 247.072392 
L 377.3376 250.813512 
L 378.2304 243.047588 
L 379.1232 234.109529 
L 380.016 228.631066 
L 380.9088 227.356866 
L 381.8016 230.203176 
L 382.6944 236.62176 
L 383.5872 244.640313 
L 384.48 248.379743 
L 385.3728 243.328997 
L 386.2656 235.562597 
L 387.1584 229.978145 
L 388.0512 227.961076 
L 388.944 229.753586 
L 389.8368 235.094574 
L 390.7296 242.674747 
L 391.6224 248.00489 
L 392.5152 245.024021 
L 393.408 237.377371 
L 394.3008 230.995648 
L 395.1936 227.98565 
L 396.0864 228.848609 
L 396.9792 233.490668 
L 398.7648 247.667077 
L 399.6576 246.622561 
L 401.4432 232.115023 
L 402.336 228.246914 
L 403.2288 228.248528 
L 404.1216 232.118179 
L 405.9072 246.619637 
L 406.8 247.642112 
L 408.5856 233.464496 
L 409.4784 228.858512 
L 410.3712 228.07723 
L 411.264 231.242913 
L 412.1568 237.862635 
L 413.0496 245.664385 
L 413.9424 248.125452 
L 414.8352 242.026725 
L 415.728 234.293336 
L 416.6208 229.32051 
L 417.5136 228.254028 
L 418.4064 231.13187 
L 420.192 243.996739 
L 421.0848 246.145086 
L 421.9776 242.204094 
L 422.8704 238.829397 
L 423.7632 237.100116 
L 424.656 236.767407 
L 426.4416 236.567326 
L 427.3344 236.868242 
L 428.2272 237.791544 
L 429.12 239.148188 
L 430.0128 240.211287 
L 430.9056 240.152618 
L 431.7984 238.889235 
L 432.6912 237.248264 
L 433.584 236.212225 
L 434.4768 236.324302 
L 435.3696 237.547282 
L 436.2624 239.265622 
L 437.1552 240.439202 
L 438.048 240.226917 
L 438.9408 238.774922 
L 439.8336 237.074173 
L 440.7264 236.119626 
L 441.6192 236.413497 
L 442.512 237.844803 
L 443.4048 239.639335 
L 444.2976 240.541138 
L 445.1904 239.757308 
L 446.0832 237.949824 
L 446.976 236.594906 
L 447.8688 236.672905 
L 449.6544 239.24528 
L 450.5472 237.858572 
L 451.44 232.072761 
L 454.1184 211.935115 
L 455.904 200.482399 
L 456.7968 195.96983 
L 457.6896 192.452894 
L 458.5824 190.013006 
L 459.4752 188.701695 
L 460.368 188.547318 
L 461.2608 189.555471 
L 462.1536 191.70233 
L 463.0464 194.918496 
L 463.9392 199.058759 
L 466.6176 213.251195 
L 467.5104 216.168207 
L 468.4032 216.72446 
L 469.296 214.690203 
L 470.1888 210.642186 
L 472.8672 195.77959 
L 473.76 192.169121 
L 474.6528 189.817768 
L 475.5456 188.870466 
L 476.4384 189.392144 
L 477.3312 191.380934 
L 478.224 194.760613 
L 479.1168 199.348487 
L 481.7952 215.354278 
L 482.688 218.209003 
L 483.5808 218.044482 
L 484.4736 214.916038 
L 485.3664 209.863856 
L 487.152 198.734272 
L 488.0448 194.218209 
L 488.9376 190.9354 
L 489.8304 189.056262 
L 490.7232 188.649594 
L 491.616 189.713906 
L 492.5088 192.185516 
L 493.4016 195.92605 
L 495.1872 206.041153 
L 496.08 211.303537 
L 496.9728 215.486502 
L 497.8656 217.49997 
L 498.7584 216.709013 
L 499.6512 213.410568 
L 503.2224 194.284277 
L 504.1152 191.290228 
L 505.008 189.55681 
L 505.9008 189.150897 
L 506.7936 190.082471 
L 507.6864 192.310637 
L 508.5792 195.731896 
L 509.472 200.147776 
L 511.2576 210.320512 
L 512.1504 214.610265 
L 513.0432 217.020985 
L 513.936 216.784649 
L 514.8288 213.956551 
L 515.7216 209.366338 
L 517.5072 198.800212 
L 517.5072 198.800212 
" style="fill:none;stroke:#000000;stroke-linecap:square;stroke-width:1.5;"/>
    <defs>
     <path d="M 0 1 
C 0.265203 1 0.51958 0.894634 0.707107 0.707107 
C 0.894634 0.51958 1 0.265203 1 0 
C 1 -0.265203 0.894634 -0.51958 0.707107 -0.707107 
C 0.51958 -0.894634 0.265203 -1 0 -1 
C -0.265203 -1 -0.51958 -0.894634 -0.707107 -0.707107 
C -0.894634 -0.51958 -1 -0.265203 -1 0 
C -1 0.265203 -0.894634 0.51958 -0.707107 0.707107 
C -0.51958 0.894634 -0.265203 1 0 1 
z
" id="mf3d81dcb08" style="stroke:#000000;"/>
    </defs>
    <g clip-path="url(#pa0741c835b)">
     <use style="stroke:#000000;" x="72" xlink:href="#mf3d81dcb08" y="92.095165"/>
     <use style="stroke:#000000;" x="72.8928" xlink:href="#mf3d81dcb08" y="83.630067"/>
     <use style="stroke:#000000;" x="73.7856" xlink:href="#mf3d81dcb08" y="76.267665"/>
     <use style="stroke:#000000;" x="74.6784" xlink:href="#mf3d81dcb08" y="69.925243"/>
     <use style="stroke:#000000;" x="75.5712" xlink:href="#mf3d81dcb08" y="64.53683"/>
     <use style="stroke:#000000;" x="76.464" xlink:href="#mf3d81dcb08" y="60.049967"/>
     <use style="stroke:#000000;" x="77.3568" xlink:href="#mf3d81dcb08" y="56.423357"/>
     <use style="stroke:#000000;" x="78.2496" xlink:href="#mf3d81dcb08" y="53.625136"/>
     <use style="stroke:#000000;" x="79.1424" xlink:href="#mf3d81dcb08" y="51.631593"/>
     <use style="stroke:#000000;" x="80.0352" xlink:href="#mf3d81dcb08" y="50.426231"/>
     <use style="stroke:#000000;" x="80.928" xlink:href="#mf3d81dcb08" y="49.999091"/>
     <use style="stroke:#000000;" x="81.8208" xlink:href="#mf3d81dcb08" y="50.346298"/>
     <use style="stroke:#000000;" x="82.7136" xlink:href="#mf3d81dcb08" y="51.469803"/>
     <use style="stroke:#000000;" x="83.6064" xlink:href="#mf3d81dcb08" y="53.377305"/>
     <use style="stroke:#000000;" x="84.4992" xlink:href="#mf3d81dcb08" y="56.082349"/>
     <use style="stroke:#000000;" x="85.392" xlink:href="#mf3d81dcb08" y="59.604642"/>
     <use style="stroke:#000000;" x="86.2848" xlink:href="#mf3d81dcb08" y="63.970579"/>
     <use style="stroke:#000000;" x="87.1776" xlink:href="#mf3d81dcb08" y="69.214082"/>
     <use style="stroke:#000000;" x="88.0704" xlink:href="#mf3d81dcb08" y="75.377803"/>
     <use style="stroke:#000000;" x="88.9632" xlink:href="#mf3d81dcb08" y="82.514846"/>
     <use style="stroke:#000000;" x="89.856" xlink:href="#mf3d81dcb08" y="90.691228"/>
     <use style="stroke:#000000;" x="90.7488" xlink:href="#mf3d81dcb08" y="99.989407"/>
     <use style="stroke:#000000;" x="91.6416" xlink:href="#mf3d81dcb08" y="110.513451"/>
     <use style="stroke:#000000;" x="92.5344" xlink:href="#mf3d81dcb08" y="122.396797"/>
     <use style="stroke:#000000;" x="93.4272" xlink:href="#mf3d81dcb08" y="135.81427"/>
     <use style="stroke:#000000;" x="94.32" xlink:href="#mf3d81dcb08" y="151.00142"/>
     <use style="stroke:#000000;" x="95.2128" xlink:href="#mf3d81dcb08" y="168.28694"/>
     <use style="stroke:#000000;" x="96.1056" xlink:href="#mf3d81dcb08" y="188.14854"/>
     <use style="stroke:#000000;" x="96.9984" xlink:href="#mf3d81dcb08" y="211.301235"/>
     <use style="stroke:#000000;" x="97.8912" xlink:href="#mf3d81dcb08" y="238.629042"/>
     <use style="stroke:#000000;" x="98.784" xlink:href="#mf3d81dcb08" y="260.683861"/>
     <use style="stroke:#000000;" x="99.6768" xlink:href="#mf3d81dcb08" y="234.887356"/>
     <use style="stroke:#000000;" x="100.5696" xlink:href="#mf3d81dcb08" y="208.491556"/>
     <use style="stroke:#000000;" x="101.4624" xlink:href="#mf3d81dcb08" y="188.06599"/>
     <use style="stroke:#000000;" x="102.3552" xlink:href="#mf3d81dcb08" y="174.721591"/>
     <use style="stroke:#000000;" x="103.248" xlink:href="#mf3d81dcb08" y="166.68527"/>
     <use style="stroke:#000000;" x="104.1408" xlink:href="#mf3d81dcb08" y="161.512157"/>
     <use style="stroke:#000000;" x="105.0336" xlink:href="#mf3d81dcb08" y="158.11166"/>
     <use style="stroke:#000000;" x="105.9264" xlink:href="#mf3d81dcb08" y="156.320061"/>
     <use style="stroke:#000000;" x="106.8192" xlink:href="#mf3d81dcb08" y="156.264941"/>
     <use style="stroke:#000000;" x="107.712" xlink:href="#mf3d81dcb08" y="158.147379"/>
     <use style="stroke:#000000;" x="108.6048" xlink:href="#mf3d81dcb08" y="162.200595"/>
     <use style="stroke:#000000;" x="109.4976" xlink:href="#mf3d81dcb08" y="168.701032"/>
     <use style="stroke:#000000;" x="110.3904" xlink:href="#mf3d81dcb08" y="178.001941"/>
     <use style="stroke:#000000;" x="111.2832" xlink:href="#mf3d81dcb08" y="190.593519"/>
     <use style="stroke:#000000;" x="112.176" xlink:href="#mf3d81dcb08" y="207.219713"/>
     <use style="stroke:#000000;" x="113.0688" xlink:href="#mf3d81dcb08" y="229.142806"/>
     <use style="stroke:#000000;" x="113.9616" xlink:href="#mf3d81dcb08" y="258.698579"/>
     <use style="stroke:#000000;" x="114.8544" xlink:href="#mf3d81dcb08" y="251.012471"/>
     <use style="stroke:#000000;" x="115.7472" xlink:href="#mf3d81dcb08" y="223.547932"/>
     <use style="stroke:#000000;" x="116.64" xlink:href="#mf3d81dcb08" y="203.121331"/>
     <use style="stroke:#000000;" x="117.5328" xlink:href="#mf3d81dcb08" y="187.77044"/>
     <use style="stroke:#000000;" x="118.4256" xlink:href="#mf3d81dcb08" y="176.494174"/>
     <use style="stroke:#000000;" x="119.3184" xlink:href="#mf3d81dcb08" y="168.739674"/>
     <use style="stroke:#000000;" x="120.2112" xlink:href="#mf3d81dcb08" y="164.194066"/>
     <use style="stroke:#000000;" x="121.104" xlink:href="#mf3d81dcb08" y="162.696535"/>
     <use style="stroke:#000000;" x="121.9968" xlink:href="#mf3d81dcb08" y="164.201113"/>
     <use style="stroke:#000000;" x="122.8896" xlink:href="#mf3d81dcb08" y="168.767042"/>
     <use style="stroke:#000000;" x="123.7824" xlink:href="#mf3d81dcb08" y="176.571222"/>
     <use style="stroke:#000000;" x="124.6752" xlink:href="#mf3d81dcb08" y="187.949383"/>
     <use style="stroke:#000000;" x="125.568" xlink:href="#mf3d81dcb08" y="203.49244"/>
     <use style="stroke:#000000;" x="126.4608" xlink:href="#mf3d81dcb08" y="224.283758"/>
     <use style="stroke:#000000;" x="127.3536" xlink:href="#mf3d81dcb08" y="252.619119"/>
     <use style="stroke:#000000;" x="128.2464" xlink:href="#mf3d81dcb08" y="256.852293"/>
     <use style="stroke:#000000;" x="129.1392" xlink:href="#mf3d81dcb08" y="227.317291"/>
     <use style="stroke:#000000;" x="130.032" xlink:href="#mf3d81dcb08" y="205.77507"/>
     <use style="stroke:#000000;" x="130.9248" xlink:href="#mf3d81dcb08" y="189.672857"/>
     <use style="stroke:#000000;" x="131.8176" xlink:href="#mf3d81dcb08" y="177.837934"/>
     <use style="stroke:#000000;" x="132.7104" xlink:href="#mf3d81dcb08" y="169.638837"/>
     <use style="stroke:#000000;" x="133.6032" xlink:href="#mf3d81dcb08" y="164.718473"/>
     <use style="stroke:#000000;" x="134.496" xlink:href="#mf3d81dcb08" y="162.88806"/>
     <use style="stroke:#000000;" x="135.3888" xlink:href="#mf3d81dcb08" y="164.08222"/>
     <use style="stroke:#000000;" x="136.2816" xlink:href="#mf3d81dcb08" y="168.344997"/>
     <use style="stroke:#000000;" x="137.1744" xlink:href="#mf3d81dcb08" y="175.838922"/>
     <use style="stroke:#000000;" x="138.0672" xlink:href="#mf3d81dcb08" y="186.882198"/>
     <use style="stroke:#000000;" x="138.96" xlink:href="#mf3d81dcb08" y="202.03798"/>
     <use style="stroke:#000000;" x="139.8528" xlink:href="#mf3d81dcb08" y="222.334001"/>
     <use style="stroke:#000000;" x="140.7456" xlink:href="#mf3d81dcb08" y="249.927158"/>
     <use style="stroke:#000000;" x="141.6384" xlink:href="#mf3d81dcb08" y="259.626826"/>
     <use style="stroke:#000000;" x="142.5312" xlink:href="#mf3d81dcb08" y="228.892978"/>
     <use style="stroke:#000000;" x="143.424" xlink:href="#mf3d81dcb08" y="206.525764"/>
     <use style="stroke:#000000;" x="144.3168" xlink:href="#mf3d81dcb08" y="189.717905"/>
     <use style="stroke:#000000;" x="145.2096" xlink:href="#mf3d81dcb08" y="177.229065"/>
     <use style="stroke:#000000;" x="146.1024" xlink:href="#mf3d81dcb08" y="168.400326"/>
     <use style="stroke:#000000;" x="146.9952" xlink:href="#mf3d81dcb08" y="162.859233"/>
     <use style="stroke:#000000;" x="147.888" xlink:href="#mf3d81dcb08" y="160.403961"/>
     <use style="stroke:#000000;" x="148.7808" xlink:href="#mf3d81dcb08" y="160.953233"/>
     <use style="stroke:#000000;" x="149.6736" xlink:href="#mf3d81dcb08" y="164.528148"/>
     <use style="stroke:#000000;" x="150.5664" xlink:href="#mf3d81dcb08" y="171.255859"/>
     <use style="stroke:#000000;" x="151.4592" xlink:href="#mf3d81dcb08" y="181.397106"/>
     <use style="stroke:#000000;" x="152.352" xlink:href="#mf3d81dcb08" y="195.413862"/>
     <use style="stroke:#000000;" x="153.2448" xlink:href="#mf3d81dcb08" y="214.128811"/>
     <use style="stroke:#000000;" x="154.1376" xlink:href="#mf3d81dcb08" y="239.161229"/>
     <use style="stroke:#000000;" x="155.0304" xlink:href="#mf3d81dcb08" y="272.380909"/>
     <use style="stroke:#000000;" x="155.9232" xlink:href="#mf3d81dcb08" y="238.372574"/>
     <use style="stroke:#000000;" x="156.816" xlink:href="#mf3d81dcb08" y="213.624412"/>
     <use style="stroke:#000000;" x="157.7088" xlink:href="#mf3d81dcb08" y="195.102039"/>
     <use style="stroke:#000000;" x="158.6016" xlink:href="#mf3d81dcb08" y="181.228608"/>
     <use style="stroke:#000000;" x="159.4944" xlink:href="#mf3d81dcb08" y="171.197131"/>
     <use style="stroke:#000000;" x="160.3872" xlink:href="#mf3d81dcb08" y="164.552558"/>
     <use style="stroke:#000000;" x="161.28" xlink:href="#mf3d81dcb08" y="161.037452"/>
     <use style="stroke:#000000;" x="162.1728" xlink:href="#mf3d81dcb08" y="160.526188"/>
     <use style="stroke:#000000;" x="163.0656" xlink:href="#mf3d81dcb08" y="162.998115"/>
     <use style="stroke:#000000;" x="163.9584" xlink:href="#mf3d81dcb08" y="168.534048"/>
     <use style="stroke:#000000;" x="164.8512" xlink:href="#mf3d81dcb08" y="177.334236"/>
     <use style="stroke:#000000;" x="165.744" xlink:href="#mf3d81dcb08" y="189.767566"/>
     <use style="stroke:#000000;" x="166.6368" xlink:href="#mf3d81dcb08" y="206.484875"/>
     <use style="stroke:#000000;" x="167.5296" xlink:href="#mf3d81dcb08" y="228.704026"/>
     <use style="stroke:#000000;" x="168.4224" xlink:href="#mf3d81dcb08" y="259.111722"/>
     <use style="stroke:#000000;" x="169.3152" xlink:href="#mf3d81dcb08" y="250.334772"/>
     <use style="stroke:#000000;" x="170.208" xlink:href="#mf3d81dcb08" y="222.324563"/>
     <use style="stroke:#000000;" x="171.1008" xlink:href="#mf3d81dcb08" y="201.604298"/>
     <use style="stroke:#000000;" x="171.9936" xlink:href="#mf3d81dcb08" y="186.004546"/>
     <use style="stroke:#000000;" x="172.8864" xlink:href="#mf3d81dcb08" y="174.494082"/>
     <use style="stroke:#000000;" x="173.7792" xlink:href="#mf3d81dcb08" y="166.517713"/>
     <use style="stroke:#000000;" x="174.672" xlink:href="#mf3d81dcb08" y="161.775018"/>
     <use style="stroke:#000000;" x="175.5648" xlink:href="#mf3d81dcb08" y="160.131042"/>
     <use style="stroke:#000000;" x="176.4576" xlink:href="#mf3d81dcb08" y="161.579856"/>
     <use style="stroke:#000000;" x="177.3504" xlink:href="#mf3d81dcb08" y="166.236482"/>
     <use style="stroke:#000000;" x="178.2432" xlink:href="#mf3d81dcb08" y="174.351267"/>
     <use style="stroke:#000000;" x="179.136" xlink:href="#mf3d81dcb08" y="186.351505"/>
     <use style="stroke:#000000;" x="180.0288" xlink:href="#mf3d81dcb08" y="202.926563"/>
     <use style="stroke:#000000;" x="180.9216" xlink:href="#mf3d81dcb08" y="225.170277"/>
     <use style="stroke:#000000;" x="181.8144" xlink:href="#mf3d81dcb08" y="254.013539"/>
     <use style="stroke:#000000;" x="182.7072" xlink:href="#mf3d81dcb08" y="250.999298"/>
     <use style="stroke:#000000;" x="183.6" xlink:href="#mf3d81dcb08" y="226.052211"/>
     <use style="stroke:#000000;" x="184.4928" xlink:href="#mf3d81dcb08" y="217.646564"/>
     <use style="stroke:#000000;" x="185.3856" xlink:href="#mf3d81dcb08" y="216.721634"/>
     <use style="stroke:#000000;" x="186.2784" xlink:href="#mf3d81dcb08" y="219.089401"/>
     <use style="stroke:#000000;" x="187.1712" xlink:href="#mf3d81dcb08" y="222.56676"/>
     <use style="stroke:#000000;" x="188.064" xlink:href="#mf3d81dcb08" y="225.635017"/>
     <use style="stroke:#000000;" x="188.9568" xlink:href="#mf3d81dcb08" y="227.352977"/>
     <use style="stroke:#000000;" x="189.8496" xlink:href="#mf3d81dcb08" y="227.475174"/>
     <use style="stroke:#000000;" x="190.7424" xlink:href="#mf3d81dcb08" y="226.356116"/>
     <use style="stroke:#000000;" x="191.6352" xlink:href="#mf3d81dcb08" y="224.613841"/>
     <use style="stroke:#000000;" x="192.528" xlink:href="#mf3d81dcb08" y="222.824014"/>
     <use style="stroke:#000000;" x="193.4208" xlink:href="#mf3d81dcb08" y="221.396067"/>
     <use style="stroke:#000000;" x="194.3136" xlink:href="#mf3d81dcb08" y="220.57227"/>
     <use style="stroke:#000000;" x="195.2064" xlink:href="#mf3d81dcb08" y="220.458597"/>
     <use style="stroke:#000000;" x="196.0992" xlink:href="#mf3d81dcb08" y="221.044449"/>
     <use style="stroke:#000000;" x="196.992" xlink:href="#mf3d81dcb08" y="222.203621"/>
     <use style="stroke:#000000;" x="197.8848" xlink:href="#mf3d81dcb08" y="223.686401"/>
     <use style="stroke:#000000;" x="198.7776" xlink:href="#mf3d81dcb08" y="225.128088"/>
     <use style="stroke:#000000;" x="199.6704" xlink:href="#mf3d81dcb08" y="226.112784"/>
     <use style="stroke:#000000;" x="200.5632" xlink:href="#mf3d81dcb08" y="226.314077"/>
     <use style="stroke:#000000;" x="201.456" xlink:href="#mf3d81dcb08" y="225.654731"/>
     <use style="stroke:#000000;" x="202.3488" xlink:href="#mf3d81dcb08" y="224.358837"/>
     <use style="stroke:#000000;" x="203.2416" xlink:href="#mf3d81dcb08" y="222.847498"/>
     <use style="stroke:#000000;" x="204.1344" xlink:href="#mf3d81dcb08" y="221.570877"/>
     <use style="stroke:#000000;" x="205.0272" xlink:href="#mf3d81dcb08" y="220.880359"/>
     <use style="stroke:#000000;" x="205.92" xlink:href="#mf3d81dcb08" y="220.963049"/>
     <use style="stroke:#000000;" x="206.8128" xlink:href="#mf3d81dcb08" y="221.814045"/>
     <use style="stroke:#000000;" x="207.7056" xlink:href="#mf3d81dcb08" y="223.226074"/>
     <use style="stroke:#000000;" x="208.5984" xlink:href="#mf3d81dcb08" y="224.802389"/>
     <use style="stroke:#000000;" x="209.4912" xlink:href="#mf3d81dcb08" y="226.030756"/>
     <use style="stroke:#000000;" x="210.384" xlink:href="#mf3d81dcb08" y="226.458095"/>
     <use style="stroke:#000000;" x="211.2768" xlink:href="#mf3d81dcb08" y="225.91445"/>
     <use style="stroke:#000000;" x="212.1696" xlink:href="#mf3d81dcb08" y="224.610666"/>
     <use style="stroke:#000000;" x="213.0624" xlink:href="#mf3d81dcb08" y="223.01027"/>
     <use style="stroke:#000000;" x="213.9552" xlink:href="#mf3d81dcb08" y="221.604739"/>
     <use style="stroke:#000000;" x="214.848" xlink:href="#mf3d81dcb08" y="220.759064"/>
     <use style="stroke:#000000;" x="215.7408" xlink:href="#mf3d81dcb08" y="220.658942"/>
     <use style="stroke:#000000;" x="216.6336" xlink:href="#mf3d81dcb08" y="221.311498"/>
     <use style="stroke:#000000;" x="217.5264" xlink:href="#mf3d81dcb08" y="222.559139"/>
     <use style="stroke:#000000;" x="218.4192" xlink:href="#mf3d81dcb08" y="224.097526"/>
     <use style="stroke:#000000;" x="219.312" xlink:href="#mf3d81dcb08" y="225.516052"/>
     <use style="stroke:#000000;" x="220.2048" xlink:href="#mf3d81dcb08" y="226.39234"/>
     <use style="stroke:#000000;" x="221.0976" xlink:href="#mf3d81dcb08" y="226.443417"/>
     <use style="stroke:#000000;" x="221.9904" xlink:href="#mf3d81dcb08" y="225.657364"/>
     <use style="stroke:#000000;" x="222.8832" xlink:href="#mf3d81dcb08" y="224.296735"/>
     <use style="stroke:#000000;" x="223.776" xlink:href="#mf3d81dcb08" y="222.770505"/>
     <use style="stroke:#000000;" x="224.6688" xlink:href="#mf3d81dcb08" y="221.482491"/>
     <use style="stroke:#000000;" x="225.5616" xlink:href="#mf3d81dcb08" y="220.737418"/>
     <use style="stroke:#000000;" x="226.4544" xlink:href="#mf3d81dcb08" y="220.704313"/>
     <use style="stroke:#000000;" x="227.3472" xlink:href="#mf3d81dcb08" y="221.404181"/>
     <use style="stroke:#000000;" x="228.24" xlink:href="#mf3d81dcb08" y="222.699104"/>
     <use style="stroke:#000000;" x="229.1328" xlink:href="#mf3d81dcb08" y="224.283578"/>
     <use style="stroke:#000000;" x="230.0256" xlink:href="#mf3d81dcb08" y="225.70827"/>
     <use style="stroke:#000000;" x="230.9184" xlink:href="#mf3d81dcb08" y="226.488854"/>
     <use style="stroke:#000000;" x="231.8112" xlink:href="#mf3d81dcb08" y="226.313007"/>
     <use style="stroke:#000000;" x="232.704" xlink:href="#mf3d81dcb08" y="225.225378"/>
     <use style="stroke:#000000;" x="233.5968" xlink:href="#mf3d81dcb08" y="223.615516"/>
     <use style="stroke:#000000;" x="234.4896" xlink:href="#mf3d81dcb08" y="222.019937"/>
     <use style="stroke:#000000;" x="235.3824" xlink:href="#mf3d81dcb08" y="220.914846"/>
     <use style="stroke:#000000;" x="236.2752" xlink:href="#mf3d81dcb08" y="220.602897"/>
     <use style="stroke:#000000;" x="237.168" xlink:href="#mf3d81dcb08" y="221.174827"/>
     <use style="stroke:#000000;" x="238.0608" xlink:href="#mf3d81dcb08" y="222.499009"/>
     <use style="stroke:#000000;" x="238.9536" xlink:href="#mf3d81dcb08" y="224.222463"/>
     <use style="stroke:#000000;" x="239.8464" xlink:href="#mf3d81dcb08" y="225.811844"/>
     <use style="stroke:#000000;" x="240.7392" xlink:href="#mf3d81dcb08" y="226.696277"/>
     <use style="stroke:#000000;" x="241.632" xlink:href="#mf3d81dcb08" y="226.523125"/>
     <use style="stroke:#000000;" x="242.5248" xlink:href="#mf3d81dcb08" y="225.366173"/>
     <use style="stroke:#000000;" x="243.4176" xlink:href="#mf3d81dcb08" y="223.676353"/>
     <use style="stroke:#000000;" x="244.3104" xlink:href="#mf3d81dcb08" y="222.026727"/>
     <use style="stroke:#000000;" x="245.2032" xlink:href="#mf3d81dcb08" y="220.883169"/>
     <use style="stroke:#000000;" x="246.096" xlink:href="#mf3d81dcb08" y="220.504028"/>
     <use style="stroke:#000000;" x="246.9888" xlink:href="#mf3d81dcb08" y="220.931051"/>
     <use style="stroke:#000000;" x="247.8816" xlink:href="#mf3d81dcb08" y="222.016812"/>
     <use style="stroke:#000000;" x="248.7744" xlink:href="#mf3d81dcb08" y="223.465053"/>
     <use style="stroke:#000000;" x="249.6672" xlink:href="#mf3d81dcb08" y="224.888544"/>
     <use style="stroke:#000000;" x="250.56" xlink:href="#mf3d81dcb08" y="225.898425"/>
     <use style="stroke:#000000;" x="251.4528" xlink:href="#mf3d81dcb08" y="226.22163"/>
     <use style="stroke:#000000;" x="252.3456" xlink:href="#mf3d81dcb08" y="225.798976"/>
     <use style="stroke:#000000;" x="253.2384" xlink:href="#mf3d81dcb08" y="224.796581"/>
     <use style="stroke:#000000;" x="254.1312" xlink:href="#mf3d81dcb08" y="223.521477"/>
     <use style="stroke:#000000;" x="255.024" xlink:href="#mf3d81dcb08" y="222.306969"/>
     <use style="stroke:#000000;" x="255.9168" xlink:href="#mf3d81dcb08" y="221.430769"/>
     <use style="stroke:#000000;" x="256.8096" xlink:href="#mf3d81dcb08" y="221.077367"/>
     <use style="stroke:#000000;" x="257.7024" xlink:href="#mf3d81dcb08" y="221.324771"/>
     <use style="stroke:#000000;" x="258.5952" xlink:href="#mf3d81dcb08" y="222.135651"/>
     <use style="stroke:#000000;" x="259.488" xlink:href="#mf3d81dcb08" y="223.345852"/>
     <use style="stroke:#000000;" x="260.3808" xlink:href="#mf3d81dcb08" y="224.660842"/>
     <use style="stroke:#000000;" x="261.2736" xlink:href="#mf3d81dcb08" y="225.691616"/>
     <use style="stroke:#000000;" x="262.1664" xlink:href="#mf3d81dcb08" y="226.067369"/>
     <use style="stroke:#000000;" x="263.0592" xlink:href="#mf3d81dcb08" y="225.608487"/>
     <use style="stroke:#000000;" x="263.952" xlink:href="#mf3d81dcb08" y="224.443351"/>
     <use style="stroke:#000000;" x="264.8448" xlink:href="#mf3d81dcb08" y="222.957652"/>
     <use style="stroke:#000000;" x="265.7376" xlink:href="#mf3d81dcb08" y="221.622356"/>
     <use style="stroke:#000000;" x="266.6304" xlink:href="#mf3d81dcb08" y="220.833292"/>
     <use style="stroke:#000000;" x="267.5232" xlink:href="#mf3d81dcb08" y="220.822813"/>
     <use style="stroke:#000000;" x="268.416" xlink:href="#mf3d81dcb08" y="221.623386"/>
     <use style="stroke:#000000;" x="269.3088" xlink:href="#mf3d81dcb08" y="223.052617"/>
     <use style="stroke:#000000;" x="270.2016" xlink:href="#mf3d81dcb08" y="224.719244"/>
     <use style="stroke:#000000;" x="271.0944" xlink:href="#mf3d81dcb08" y="226.089356"/>
     <use style="stroke:#000000;" x="271.9872" xlink:href="#mf3d81dcb08" y="226.663987"/>
     <use style="stroke:#000000;" x="272.88" xlink:href="#mf3d81dcb08" y="226.228684"/>
     <use style="stroke:#000000;" x="273.7728" xlink:href="#mf3d81dcb08" y="224.980799"/>
     <use style="stroke:#000000;" x="274.6656" xlink:href="#mf3d81dcb08" y="223.394483"/>
     <use style="stroke:#000000;" x="275.5584" xlink:href="#mf3d81dcb08" y="221.952192"/>
     <use style="stroke:#000000;" x="276.4512" xlink:href="#mf3d81dcb08" y="220.948907"/>
     <use style="stroke:#000000;" x="277.344" xlink:href="#mf3d81dcb08" y="220.438646"/>
     <use style="stroke:#000000;" x="278.2368" xlink:href="#mf3d81dcb08" y="220.313353"/>
     <use style="stroke:#000000;" x="279.1296" xlink:href="#mf3d81dcb08" y="220.49374"/>
     <use style="stroke:#000000;" x="280.0224" xlink:href="#mf3d81dcb08" y="221.13891"/>
     <use style="stroke:#000000;" x="280.9152" xlink:href="#mf3d81dcb08" y="222.683085"/>
     <use style="stroke:#000000;" x="281.808" xlink:href="#mf3d81dcb08" y="225.568442"/>
     <use style="stroke:#000000;" x="282.7008" xlink:href="#mf3d81dcb08" y="229.637222"/>
     <use style="stroke:#000000;" x="283.5936" xlink:href="#mf3d81dcb08" y="232.885447"/>
     <use style="stroke:#000000;" x="284.4864" xlink:href="#mf3d81dcb08" y="231.717852"/>
     <use style="stroke:#000000;" x="285.3792" xlink:href="#mf3d81dcb08" y="232.065678"/>
     <use style="stroke:#000000;" x="286.272" xlink:href="#mf3d81dcb08" y="227.415826"/>
     <use style="stroke:#000000;" x="287.1648" xlink:href="#mf3d81dcb08" y="223.265735"/>
     <use style="stroke:#000000;" x="288.0576" xlink:href="#mf3d81dcb08" y="221.482188"/>
     <use style="stroke:#000000;" x="288.9504" xlink:href="#mf3d81dcb08" y="222.299955"/>
     <use style="stroke:#000000;" x="289.8432" xlink:href="#mf3d81dcb08" y="225.323079"/>
     <use style="stroke:#000000;" x="290.736" xlink:href="#mf3d81dcb08" y="229.630404"/>
     <use style="stroke:#000000;" x="291.6288" xlink:href="#mf3d81dcb08" y="233.606582"/>
     <use style="stroke:#000000;" x="292.5216" xlink:href="#mf3d81dcb08" y="235.197673"/>
     <use style="stroke:#000000;" x="293.4144" xlink:href="#mf3d81dcb08" y="233.448731"/>
     <use style="stroke:#000000;" x="294.3072" xlink:href="#mf3d81dcb08" y="229.580769"/>
     <use style="stroke:#000000;" x="295.2" xlink:href="#mf3d81dcb08" y="225.552439"/>
     <use style="stroke:#000000;" x="296.0928" xlink:href="#mf3d81dcb08" y="222.686281"/>
     <use style="stroke:#000000;" x="296.9856" xlink:href="#mf3d81dcb08" y="221.580308"/>
     <use style="stroke:#000000;" x="297.8784" xlink:href="#mf3d81dcb08" y="222.363883"/>
     <use style="stroke:#000000;" x="298.7712" xlink:href="#mf3d81dcb08" y="224.837791"/>
     <use style="stroke:#000000;" x="299.664" xlink:href="#mf3d81dcb08" y="228.45338"/>
     <use style="stroke:#000000;" x="300.5568" xlink:href="#mf3d81dcb08" y="232.175647"/>
     <use style="stroke:#000000;" x="301.4496" xlink:href="#mf3d81dcb08" y="234.483574"/>
     <use style="stroke:#000000;" x="302.3424" xlink:href="#mf3d81dcb08" y="234.114156"/>
     <use style="stroke:#000000;" x="303.2352" xlink:href="#mf3d81dcb08" y="231.266466"/>
     <use style="stroke:#000000;" x="304.128" xlink:href="#mf3d81dcb08" y="227.397569"/>
     <use style="stroke:#000000;" x="305.0208" xlink:href="#mf3d81dcb08" y="223.968791"/>
     <use style="stroke:#000000;" x="305.9136" xlink:href="#mf3d81dcb08" y="221.893306"/>
     <use style="stroke:#000000;" x="306.8064" xlink:href="#mf3d81dcb08" y="221.603946"/>
     <use style="stroke:#000000;" x="307.6992" xlink:href="#mf3d81dcb08" y="223.182796"/>
     <use style="stroke:#000000;" x="308.592" xlink:href="#mf3d81dcb08" y="226.367951"/>
     <use style="stroke:#000000;" x="309.4848" xlink:href="#mf3d81dcb08" y="230.412893"/>
     <use style="stroke:#000000;" x="310.3776" xlink:href="#mf3d81dcb08" y="233.89817"/>
     <use style="stroke:#000000;" x="311.2704" xlink:href="#mf3d81dcb08" y="235.03992"/>
     <use style="stroke:#000000;" x="312.1632" xlink:href="#mf3d81dcb08" y="233.103572"/>
     <use style="stroke:#000000;" x="313.056" xlink:href="#mf3d81dcb08" y="229.255663"/>
     <use style="stroke:#000000;" x="313.9488" xlink:href="#mf3d81dcb08" y="225.302849"/>
     <use style="stroke:#000000;" x="314.8416" xlink:href="#mf3d81dcb08" y="222.517963"/>
     <use style="stroke:#000000;" x="315.7344" xlink:href="#mf3d81dcb08" y="221.528327"/>
     <use style="stroke:#000000;" x="316.6272" xlink:href="#mf3d81dcb08" y="222.505431"/>
     <use style="stroke:#000000;" x="317.52" xlink:href="#mf3d81dcb08" y="225.252686"/>
     <use style="stroke:#000000;" x="318.4128" xlink:href="#mf3d81dcb08" y="229.133755"/>
     <use style="stroke:#000000;" x="319.3056" xlink:href="#mf3d81dcb08" y="232.903695"/>
     <use style="stroke:#000000;" x="320.1984" xlink:href="#mf3d81dcb08" y="234.826368"/>
     <use style="stroke:#000000;" x="321.0912" xlink:href="#mf3d81dcb08" y="233.776842"/>
     <use style="stroke:#000000;" x="321.984" xlink:href="#mf3d81dcb08" y="230.430175"/>
     <use style="stroke:#000000;" x="322.8768" xlink:href="#mf3d81dcb08" y="226.492475"/>
     <use style="stroke:#000000;" x="323.7696" xlink:href="#mf3d81dcb08" y="223.353917"/>
     <use style="stroke:#000000;" x="324.6624" xlink:href="#mf3d81dcb08" y="221.763372"/>
     <use style="stroke:#000000;" x="325.5552" xlink:href="#mf3d81dcb08" y="221.998777"/>
     <use style="stroke:#000000;" x="326.448" xlink:href="#mf3d81dcb08" y="224.004582"/>
     <use style="stroke:#000000;" x="327.3408" xlink:href="#mf3d81dcb08" y="227.384395"/>
     <use style="stroke:#000000;" x="328.2336" xlink:href="#mf3d81dcb08" y="231.26013"/>
     <use style="stroke:#000000;" x="329.1264" xlink:href="#mf3d81dcb08" y="234.168498"/>
     <use style="stroke:#000000;" x="330.0192" xlink:href="#mf3d81dcb08" y="234.580159"/>
     <use style="stroke:#000000;" x="330.912" xlink:href="#mf3d81dcb08" y="232.229086"/>
     <use style="stroke:#000000;" x="331.8048" xlink:href="#mf3d81dcb08" y="228.418155"/>
     <use style="stroke:#000000;" x="332.6976" xlink:href="#mf3d81dcb08" y="224.750887"/>
     <use style="stroke:#000000;" x="333.5904" xlink:href="#mf3d81dcb08" y="222.302041"/>
     <use style="stroke:#000000;" x="334.4832" xlink:href="#mf3d81dcb08" y="221.6041"/>
     <use style="stroke:#000000;" x="335.376" xlink:href="#mf3d81dcb08" y="222.801255"/>
     <use style="stroke:#000000;" x="336.2688" xlink:href="#mf3d81dcb08" y="225.693583"/>
     <use style="stroke:#000000;" x="337.1616" xlink:href="#mf3d81dcb08" y="229.628978"/>
     <use style="stroke:#000000;" x="338.0544" xlink:href="#mf3d81dcb08" y="233.30924"/>
     <use style="stroke:#000000;" x="338.9472" xlink:href="#mf3d81dcb08" y="234.95151"/>
     <use style="stroke:#000000;" x="339.84" xlink:href="#mf3d81dcb08" y="233.529364"/>
     <use style="stroke:#000000;" x="340.7328" xlink:href="#mf3d81dcb08" y="229.915888"/>
     <use style="stroke:#000000;" x="341.6256" xlink:href="#mf3d81dcb08" y="225.909839"/>
     <use style="stroke:#000000;" x="342.5184" xlink:href="#mf3d81dcb08" y="222.899007"/>
     <use style="stroke:#000000;" x="343.4112" xlink:href="#mf3d81dcb08" y="221.608593"/>
     <use style="stroke:#000000;" x="344.304" xlink:href="#mf3d81dcb08" y="222.279404"/>
     <use style="stroke:#000000;" x="345.1968" xlink:href="#mf3d81dcb08" y="224.778269"/>
     <use style="stroke:#000000;" x="346.0896" xlink:href="#mf3d81dcb08" y="228.549829"/>
     <use style="stroke:#000000;" x="346.9824" xlink:href="#mf3d81dcb08" y="232.449112"/>
     <use style="stroke:#000000;" x="347.8752" xlink:href="#mf3d81dcb08" y="234.765629"/>
     <use style="stroke:#000000;" x="348.768" xlink:href="#mf3d81dcb08" y="234.165791"/>
     <use style="stroke:#000000;" x="349.6608" xlink:href="#mf3d81dcb08" y="231.048395"/>
     <use style="stroke:#000000;" x="350.5536" xlink:href="#mf3d81dcb08" y="227.079771"/>
     <use style="stroke:#000000;" x="351.4464" xlink:href="#mf3d81dcb08" y="223.748573"/>
     <use style="stroke:#000000;" x="352.3392" xlink:href="#mf3d81dcb08" y="221.882827"/>
     <use style="stroke:#000000;" x="353.232" xlink:href="#mf3d81dcb08" y="221.79466"/>
     <use style="stroke:#000000;" x="354.1248" xlink:href="#mf3d81dcb08" y="223.445661"/>
     <use style="stroke:#000000;" x="355.0176" xlink:href="#mf3d81dcb08" y="226.48704"/>
     <use style="stroke:#000000;" x="355.9104" xlink:href="#mf3d81dcb08" y="230.180506"/>
     <use style="stroke:#000000;" x="356.8032" xlink:href="#mf3d81dcb08" y="233.303841"/>
     <use style="stroke:#000000;" x="357.696" xlink:href="#mf3d81dcb08" y="234.432638"/>
     <use style="stroke:#000000;" x="358.5888" xlink:href="#mf3d81dcb08" y="232.944858"/>
     <use style="stroke:#000000;" x="359.4816" xlink:href="#mf3d81dcb08" y="229.654638"/>
     <use style="stroke:#000000;" x="360.3744" xlink:href="#mf3d81dcb08" y="226.004023"/>
     <use style="stroke:#000000;" x="361.2672" xlink:href="#mf3d81dcb08" y="223.138728"/>
     <use style="stroke:#000000;" x="362.16" xlink:href="#mf3d81dcb08" y="221.720967"/>
     <use style="stroke:#000000;" x="363.0528" xlink:href="#mf3d81dcb08" y="222.050786"/>
     <use style="stroke:#000000;" x="363.9456" xlink:href="#mf3d81dcb08" y="224.151252"/>
     <use style="stroke:#000000;" x="364.8384" xlink:href="#mf3d81dcb08" y="227.723997"/>
     <use style="stroke:#000000;" x="365.7312" xlink:href="#mf3d81dcb08" y="231.940729"/>
     <use style="stroke:#000000;" x="366.624" xlink:href="#mf3d81dcb08" y="235.172218"/>
     <use style="stroke:#000000;" x="367.5168" xlink:href="#mf3d81dcb08" y="235.394092"/>
     <use style="stroke:#000000;" x="368.4096" xlink:href="#mf3d81dcb08" y="231.992956"/>
     <use style="stroke:#000000;" x="369.3024" xlink:href="#mf3d81dcb08" y="226.519756"/>
     <use style="stroke:#000000;" x="370.1952" xlink:href="#mf3d81dcb08" y="221.069897"/>
     <use style="stroke:#000000;" x="371.088" xlink:href="#mf3d81dcb08" y="217.237278"/>
     <use style="stroke:#000000;" x="371.9808" xlink:href="#mf3d81dcb08" y="216.086573"/>
     <use style="stroke:#000000;" x="372.8736" xlink:href="#mf3d81dcb08" y="217.960167"/>
     <use style="stroke:#000000;" x="373.7664" xlink:href="#mf3d81dcb08" y="221.785352"/>
     <use style="stroke:#000000;" x="374.6592" xlink:href="#mf3d81dcb08" y="227.452288"/>
     <use style="stroke:#000000;" x="375.552" xlink:href="#mf3d81dcb08" y="236.429004"/>
     <use style="stroke:#000000;" x="376.4448" xlink:href="#mf3d81dcb08" y="247.072392"/>
     <use style="stroke:#000000;" x="377.3376" xlink:href="#mf3d81dcb08" y="250.813512"/>
     <use style="stroke:#000000;" x="378.2304" xlink:href="#mf3d81dcb08" y="243.047588"/>
     <use style="stroke:#000000;" x="379.1232" xlink:href="#mf3d81dcb08" y="234.109529"/>
     <use style="stroke:#000000;" x="380.016" xlink:href="#mf3d81dcb08" y="228.631066"/>
     <use style="stroke:#000000;" x="380.9088" xlink:href="#mf3d81dcb08" y="227.356866"/>
     <use style="stroke:#000000;" x="381.8016" xlink:href="#mf3d81dcb08" y="230.203176"/>
     <use style="stroke:#000000;" x="382.6944" xlink:href="#mf3d81dcb08" y="236.62176"/>
     <use style="stroke:#000000;" x="383.5872" xlink:href="#mf3d81dcb08" y="244.640313"/>
     <use style="stroke:#000000;" x="384.48" xlink:href="#mf3d81dcb08" y="248.379743"/>
     <use style="stroke:#000000;" x="385.3728" xlink:href="#mf3d81dcb08" y="243.328997"/>
     <use style="stroke:#000000;" x="386.2656" xlink:href="#mf3d81dcb08" y="235.562597"/>
     <use style="stroke:#000000;" x="387.1584" xlink:href="#mf3d81dcb08" y="229.978145"/>
     <use style="stroke:#000000;" x="388.0512" xlink:href="#mf3d81dcb08" y="227.961076"/>
     <use style="stroke:#000000;" x="388.944" xlink:href="#mf3d81dcb08" y="229.753586"/>
     <use style="stroke:#000000;" x="389.8368" xlink:href="#mf3d81dcb08" y="235.094574"/>
     <use style="stroke:#000000;" x="390.7296" xlink:href="#mf3d81dcb08" y="242.674747"/>
     <use style="stroke:#000000;" x="391.6224" xlink:href="#mf3d81dcb08" y="248.00489"/>
     <use style="stroke:#000000;" x="392.5152" xlink:href="#mf3d81dcb08" y="245.024021"/>
     <use style="stroke:#000000;" x="393.408" xlink:href="#mf3d81dcb08" y="237.377371"/>
     <use style="stroke:#000000;" x="394.3008" xlink:href="#mf3d81dcb08" y="230.995648"/>
     <use style="stroke:#000000;" x="395.1936" xlink:href="#mf3d81dcb08" y="227.98565"/>
     <use style="stroke:#000000;" x="396.0864" xlink:href="#mf3d81dcb08" y="228.848609"/>
     <use style="stroke:#000000;" x="396.9792" xlink:href="#mf3d81dcb08" y="233.490668"/>
     <use style="stroke:#000000;" x="397.872" xlink:href="#mf3d81dcb08" y="240.971577"/>
     <use style="stroke:#000000;" x="398.7648" xlink:href="#mf3d81dcb08" y="247.667077"/>
     <use style="stroke:#000000;" x="399.6576" xlink:href="#mf3d81dcb08" y="246.622561"/>
     <use style="stroke:#000000;" x="400.5504" xlink:href="#mf3d81dcb08" y="239.171584"/>
     <use style="stroke:#000000;" x="401.4432" xlink:href="#mf3d81dcb08" y="232.115023"/>
     <use style="stroke:#000000;" x="402.336" xlink:href="#mf3d81dcb08" y="228.246914"/>
     <use style="stroke:#000000;" x="403.2288" xlink:href="#mf3d81dcb08" y="228.248528"/>
     <use style="stroke:#000000;" x="404.1216" xlink:href="#mf3d81dcb08" y="232.118179"/>
     <use style="stroke:#000000;" x="405.0144" xlink:href="#mf3d81dcb08" y="239.173894"/>
     <use style="stroke:#000000;" x="405.9072" xlink:href="#mf3d81dcb08" y="246.619637"/>
     <use style="stroke:#000000;" x="406.8" xlink:href="#mf3d81dcb08" y="247.642112"/>
     <use style="stroke:#000000;" x="407.6928" xlink:href="#mf3d81dcb08" y="240.934667"/>
     <use style="stroke:#000000;" x="408.5856" xlink:href="#mf3d81dcb08" y="233.464496"/>
     <use style="stroke:#000000;" x="409.4784" xlink:href="#mf3d81dcb08" y="228.858512"/>
     <use style="stroke:#000000;" x="410.3712" xlink:href="#mf3d81dcb08" y="228.07723"/>
     <use style="stroke:#000000;" x="411.264" xlink:href="#mf3d81dcb08" y="231.242913"/>
     <use style="stroke:#000000;" x="412.1568" xlink:href="#mf3d81dcb08" y="237.862635"/>
     <use style="stroke:#000000;" x="413.0496" xlink:href="#mf3d81dcb08" y="245.664385"/>
     <use style="stroke:#000000;" x="413.9424" xlink:href="#mf3d81dcb08" y="248.125452"/>
     <use style="stroke:#000000;" x="414.8352" xlink:href="#mf3d81dcb08" y="242.026725"/>
     <use style="stroke:#000000;" x="415.728" xlink:href="#mf3d81dcb08" y="234.293336"/>
     <use style="stroke:#000000;" x="416.6208" xlink:href="#mf3d81dcb08" y="229.32051"/>
     <use style="stroke:#000000;" x="417.5136" xlink:href="#mf3d81dcb08" y="228.254028"/>
     <use style="stroke:#000000;" x="418.4064" xlink:href="#mf3d81dcb08" y="231.13187"/>
     <use style="stroke:#000000;" x="419.2992" xlink:href="#mf3d81dcb08" y="237.209104"/>
     <use style="stroke:#000000;" x="420.192" xlink:href="#mf3d81dcb08" y="243.996739"/>
     <use style="stroke:#000000;" x="421.0848" xlink:href="#mf3d81dcb08" y="246.145086"/>
     <use style="stroke:#000000;" x="421.9776" xlink:href="#mf3d81dcb08" y="242.204094"/>
     <use style="stroke:#000000;" x="422.8704" xlink:href="#mf3d81dcb08" y="238.829397"/>
     <use style="stroke:#000000;" x="423.7632" xlink:href="#mf3d81dcb08" y="237.100116"/>
     <use style="stroke:#000000;" x="424.656" xlink:href="#mf3d81dcb08" y="236.767407"/>
     <use style="stroke:#000000;" x="425.5488" xlink:href="#mf3d81dcb08" y="236.638235"/>
     <use style="stroke:#000000;" x="426.4416" xlink:href="#mf3d81dcb08" y="236.567326"/>
     <use style="stroke:#000000;" x="427.3344" xlink:href="#mf3d81dcb08" y="236.868242"/>
     <use style="stroke:#000000;" x="428.2272" xlink:href="#mf3d81dcb08" y="237.791544"/>
     <use style="stroke:#000000;" x="429.12" xlink:href="#mf3d81dcb08" y="239.148188"/>
     <use style="stroke:#000000;" x="430.0128" xlink:href="#mf3d81dcb08" y="240.211287"/>
     <use style="stroke:#000000;" x="430.9056" xlink:href="#mf3d81dcb08" y="240.152618"/>
     <use style="stroke:#000000;" x="431.7984" xlink:href="#mf3d81dcb08" y="238.889235"/>
     <use style="stroke:#000000;" x="432.6912" xlink:href="#mf3d81dcb08" y="237.248264"/>
     <use style="stroke:#000000;" x="433.584" xlink:href="#mf3d81dcb08" y="236.212225"/>
     <use style="stroke:#000000;" x="434.4768" xlink:href="#mf3d81dcb08" y="236.324302"/>
     <use style="stroke:#000000;" x="435.3696" xlink:href="#mf3d81dcb08" y="237.547282"/>
     <use style="stroke:#000000;" x="436.2624" xlink:href="#mf3d81dcb08" y="239.265622"/>
     <use style="stroke:#000000;" x="437.1552" xlink:href="#mf3d81dcb08" y="240.439202"/>
     <use style="stroke:#000000;" x="438.048" xlink:href="#mf3d81dcb08" y="240.226917"/>
     <use style="stroke:#000000;" x="438.9408" xlink:href="#mf3d81dcb08" y="238.774922"/>
     <use style="stroke:#000000;" x="439.8336" xlink:href="#mf3d81dcb08" y="237.074173"/>
     <use style="stroke:#000000;" x="440.7264" xlink:href="#mf3d81dcb08" y="236.119626"/>
     <use style="stroke:#000000;" x="441.6192" xlink:href="#mf3d81dcb08" y="236.413497"/>
     <use style="stroke:#000000;" x="442.512" xlink:href="#mf3d81dcb08" y="237.844803"/>
     <use style="stroke:#000000;" x="443.4048" xlink:href="#mf3d81dcb08" y="239.639335"/>
     <use style="stroke:#000000;" x="444.2976" xlink:href="#mf3d81dcb08" y="240.541138"/>
     <use style="stroke:#000000;" x="445.1904" xlink:href="#mf3d81dcb08" y="239.757308"/>
     <use style="stroke:#000000;" x="446.0832" xlink:href="#mf3d81dcb08" y="237.949824"/>
     <use style="stroke:#000000;" x="446.976" xlink:href="#mf3d81dcb08" y="236.594906"/>
     <use style="stroke:#000000;" x="447.8688" xlink:href="#mf3d81dcb08" y="236.672905"/>
     <use style="stroke:#000000;" x="448.7616" xlink:href="#mf3d81dcb08" y="238.044061"/>
     <use style="stroke:#000000;" x="449.6544" xlink:href="#mf3d81dcb08" y="239.24528"/>
     <use style="stroke:#000000;" x="450.5472" xlink:href="#mf3d81dcb08" y="237.858572"/>
     <use style="stroke:#000000;" x="451.44" xlink:href="#mf3d81dcb08" y="232.072761"/>
     <use style="stroke:#000000;" x="452.3328" xlink:href="#mf3d81dcb08" y="225.080159"/>
     <use style="stroke:#000000;" x="453.2256" xlink:href="#mf3d81dcb08" y="218.428842"/>
     <use style="stroke:#000000;" x="454.1184" xlink:href="#mf3d81dcb08" y="211.935115"/>
     <use style="stroke:#000000;" x="455.0112" xlink:href="#mf3d81dcb08" y="205.866162"/>
     <use style="stroke:#000000;" x="455.904" xlink:href="#mf3d81dcb08" y="200.482399"/>
     <use style="stroke:#000000;" x="456.7968" xlink:href="#mf3d81dcb08" y="195.96983"/>
     <use style="stroke:#000000;" x="457.6896" xlink:href="#mf3d81dcb08" y="192.452894"/>
     <use style="stroke:#000000;" x="458.5824" xlink:href="#mf3d81dcb08" y="190.013006"/>
     <use style="stroke:#000000;" x="459.4752" xlink:href="#mf3d81dcb08" y="188.701695"/>
     <use style="stroke:#000000;" x="460.368" xlink:href="#mf3d81dcb08" y="188.547318"/>
     <use style="stroke:#000000;" x="461.2608" xlink:href="#mf3d81dcb08" y="189.555471"/>
     <use style="stroke:#000000;" x="462.1536" xlink:href="#mf3d81dcb08" y="191.70233"/>
     <use style="stroke:#000000;" x="463.0464" xlink:href="#mf3d81dcb08" y="194.918496"/>
     <use style="stroke:#000000;" x="463.9392" xlink:href="#mf3d81dcb08" y="199.058759"/>
     <use style="stroke:#000000;" x="464.832" xlink:href="#mf3d81dcb08" y="203.851634"/>
     <use style="stroke:#000000;" x="465.7248" xlink:href="#mf3d81dcb08" y="208.827302"/>
     <use style="stroke:#000000;" x="466.6176" xlink:href="#mf3d81dcb08" y="213.251195"/>
     <use style="stroke:#000000;" x="467.5104" xlink:href="#mf3d81dcb08" y="216.168207"/>
     <use style="stroke:#000000;" x="468.4032" xlink:href="#mf3d81dcb08" y="216.72446"/>
     <use style="stroke:#000000;" x="469.296" xlink:href="#mf3d81dcb08" y="214.690203"/>
     <use style="stroke:#000000;" x="470.1888" xlink:href="#mf3d81dcb08" y="210.642186"/>
     <use style="stroke:#000000;" x="471.0816" xlink:href="#mf3d81dcb08" y="205.5674"/>
     <use style="stroke:#000000;" x="471.9744" xlink:href="#mf3d81dcb08" y="200.389556"/>
     <use style="stroke:#000000;" x="472.8672" xlink:href="#mf3d81dcb08" y="195.77959"/>
     <use style="stroke:#000000;" x="473.76" xlink:href="#mf3d81dcb08" y="192.169121"/>
     <use style="stroke:#000000;" x="474.6528" xlink:href="#mf3d81dcb08" y="189.817768"/>
     <use style="stroke:#000000;" x="475.5456" xlink:href="#mf3d81dcb08" y="188.870466"/>
     <use style="stroke:#000000;" x="476.4384" xlink:href="#mf3d81dcb08" y="189.392144"/>
     <use style="stroke:#000000;" x="477.3312" xlink:href="#mf3d81dcb08" y="191.380934"/>
     <use style="stroke:#000000;" x="478.224" xlink:href="#mf3d81dcb08" y="194.760613"/>
     <use style="stroke:#000000;" x="479.1168" xlink:href="#mf3d81dcb08" y="199.348487"/>
     <use style="stroke:#000000;" x="480.0096" xlink:href="#mf3d81dcb08" y="204.790266"/>
     <use style="stroke:#000000;" x="480.9024" xlink:href="#mf3d81dcb08" y="210.458016"/>
     <use style="stroke:#000000;" x="481.7952" xlink:href="#mf3d81dcb08" y="215.354278"/>
     <use style="stroke:#000000;" x="482.688" xlink:href="#mf3d81dcb08" y="218.209003"/>
     <use style="stroke:#000000;" x="483.5808" xlink:href="#mf3d81dcb08" y="218.044482"/>
     <use style="stroke:#000000;" x="484.4736" xlink:href="#mf3d81dcb08" y="214.916038"/>
     <use style="stroke:#000000;" x="485.3664" xlink:href="#mf3d81dcb08" y="209.863856"/>
     <use style="stroke:#000000;" x="486.2592" xlink:href="#mf3d81dcb08" y="204.148925"/>
     <use style="stroke:#000000;" x="487.152" xlink:href="#mf3d81dcb08" y="198.734272"/>
     <use style="stroke:#000000;" x="488.0448" xlink:href="#mf3d81dcb08" y="194.218209"/>
     <use style="stroke:#000000;" x="488.9376" xlink:href="#mf3d81dcb08" y="190.9354"/>
     <use style="stroke:#000000;" x="489.8304" xlink:href="#mf3d81dcb08" y="189.056262"/>
     <use style="stroke:#000000;" x="490.7232" xlink:href="#mf3d81dcb08" y="188.649594"/>
     <use style="stroke:#000000;" x="491.616" xlink:href="#mf3d81dcb08" y="189.713906"/>
     <use style="stroke:#000000;" x="492.5088" xlink:href="#mf3d81dcb08" y="192.185516"/>
     <use style="stroke:#000000;" x="493.4016" xlink:href="#mf3d81dcb08" y="195.92605"/>
     <use style="stroke:#000000;" x="494.2944" xlink:href="#mf3d81dcb08" y="200.686304"/>
     <use style="stroke:#000000;" x="495.1872" xlink:href="#mf3d81dcb08" y="206.041153"/>
     <use style="stroke:#000000;" x="496.08" xlink:href="#mf3d81dcb08" y="211.303537"/>
     <use style="stroke:#000000;" x="496.9728" xlink:href="#mf3d81dcb08" y="215.486502"/>
     <use style="stroke:#000000;" x="497.8656" xlink:href="#mf3d81dcb08" y="217.49997"/>
     <use style="stroke:#000000;" x="498.7584" xlink:href="#mf3d81dcb08" y="216.709013"/>
     <use style="stroke:#000000;" x="499.6512" xlink:href="#mf3d81dcb08" y="213.410568"/>
     <use style="stroke:#000000;" x="500.544" xlink:href="#mf3d81dcb08" y="208.594974"/>
     <use style="stroke:#000000;" x="501.4368" xlink:href="#mf3d81dcb08" y="203.324654"/>
     <use style="stroke:#000000;" x="502.3296" xlink:href="#mf3d81dcb08" y="198.389756"/>
     <use style="stroke:#000000;" x="503.2224" xlink:href="#mf3d81dcb08" y="194.284277"/>
     <use style="stroke:#000000;" x="504.1152" xlink:href="#mf3d81dcb08" y="191.290228"/>
     <use style="stroke:#000000;" x="505.008" xlink:href="#mf3d81dcb08" y="189.55681"/>
     <use style="stroke:#000000;" x="505.9008" xlink:href="#mf3d81dcb08" y="189.150897"/>
     <use style="stroke:#000000;" x="506.7936" xlink:href="#mf3d81dcb08" y="190.082471"/>
     <use style="stroke:#000000;" x="507.6864" xlink:href="#mf3d81dcb08" y="192.310637"/>
     <use style="stroke:#000000;" x="508.5792" xlink:href="#mf3d81dcb08" y="195.731896"/>
     <use style="stroke:#000000;" x="509.472" xlink:href="#mf3d81dcb08" y="200.147776"/>
     <use style="stroke:#000000;" x="510.3648" xlink:href="#mf3d81dcb08" y="205.206362"/>
     <use style="stroke:#000000;" x="511.2576" xlink:href="#mf3d81dcb08" y="210.320512"/>
     <use style="stroke:#000000;" x="512.1504" xlink:href="#mf3d81dcb08" y="214.610265"/>
     <use style="stroke:#000000;" x="513.0432" xlink:href="#mf3d81dcb08" y="217.020985"/>
     <use style="stroke:#000000;" x="513.936" xlink:href="#mf3d81dcb08" y="216.784649"/>
     <use style="stroke:#000000;" x="514.8288" xlink:href="#mf3d81dcb08" y="213.956551"/>
     <use style="stroke:#000000;" x="515.7216" xlink:href="#mf3d81dcb08" y="209.366338"/>
     <use style="stroke:#000000;" x="516.6144" xlink:href="#mf3d81dcb08" y="204.045676"/>
     <use style="stroke:#000000;" x="517.5072" xlink:href="#mf3d81dcb08" y="198.800212"/>
    </g>
   </g>
   <g id="patch_3">
    <path d="M 72 283.5 
L 72 38.88 
" style="fill:none;stroke:#000000;stroke-linecap:square;stroke-linejoin:miter;stroke-width:0.8;"/>
   </g>
   <g id="patch_4">
    <path d="M 518.4 283.5 
L 518.4 38.88 
" style="fill:none;stroke:#000000;stroke-linecap:square;stroke-linejoin:miter;stroke-width:0.8;"/>
   </g>
   <g id="patch_5">
    <path d="M 72 283.5 
L 518.4 283.5 
" style="fill:none;stroke:#000000;stroke-linecap:square;stroke-linejoin:miter;stroke-width:0.8;"/>
   </g>
   <g id="patch_6">
    <path d="M 72 38.88 
L 518.4 38.88 
" style="fill:none;stroke:#000000;stroke-linecap:square;stroke-linejoin:miter;stroke-width:0.8;"/>
   </g>
   <g id="text_17">
    <!-- Distance between Trisolaris and Sun 3 -->
    <defs>
     <path id="DejaVuSans-20"/>
     <path d="M 48.6875 27.296875 
Q 48.6875 37.203125 44.609375 42.84375 
Q 40.53125 48.484375 33.40625 48.484375 
Q 26.265625 48.484375 22.1875 42.84375 
Q 18.109375 37.203125 18.109375 27.296875 
Q 18.109375 17.390625 22.1875 11.75 
Q 26.265625 6.109375 33.40625 6.109375 
Q 40.53125 6.109375 44.609375 11.75 
Q 48.6875 17.390625 48.6875 27.296875 
M 18.109375 46.390625 
Q 20.953125 51.265625 25.265625 53.625 
Q 29.59375 56 35.59375 56 
Q 45.5625 56 51.78125 48.09375 
Q 58.015625 40.1875 58.015625 27.296875 
Q 58.015625 14.40625 51.78125 6.484375 
Q 45.5625 -1.421875 35.59375 -1.421875 
Q 29.59375 -1.421875 25.265625 0.953125 
Q 20.953125 3.328125 18.109375 8.203125 
L 18.109375 0 
L 9.078125 0 
L 9.078125 75.984375 
L 18.109375 75.984375 
z
" id="DejaVuSans-62"/>
     <path d="M 4.203125 54.6875 
L 13.1875 54.6875 
L 24.421875 12.015625 
L 35.59375 54.6875 
L 46.1875 54.6875 
L 57.421875 12.015625 
L 68.609375 54.6875 
L 77.59375 54.6875 
L 63.28125 0 
L 52.6875 0 
L 40.921875 44.828125 
L 29.109375 0 
L 18.5 0 
z
" id="DejaVuSans-77"/>
     <path d="M -0.296875 72.90625 
L 61.375 72.90625 
L 61.375 64.59375 
L 35.5 64.59375 
L 35.5 0 
L 25.59375 0 
L 25.59375 64.59375 
L -0.296875 64.59375 
z
" id="DejaVuSans-54"/>
     <path d="M 9.421875 75.984375 
L 18.40625 75.984375 
L 18.40625 0 
L 9.421875 0 
z
" id="DejaVuSans-6c"/>
     <path d="M 45.40625 46.390625 
L 45.40625 75.984375 
L 54.390625 75.984375 
L 54.390625 0 
L 45.40625 0 
L 45.40625 8.203125 
Q 42.578125 3.328125 38.25 0.953125 
Q 33.9375 -1.421875 27.875 -1.421875 
Q 17.96875 -1.421875 11.734375 6.484375 
Q 5.515625 14.40625 5.515625 27.296875 
Q 5.515625 40.1875 11.734375 48.09375 
Q 17.96875 56 27.875 56 
Q 33.9375 56 38.25 53.625 
Q 42.578125 51.265625 45.40625 46.390625 
M 14.796875 27.296875 
Q 14.796875 17.390625 18.875 11.75 
Q 22.953125 6.109375 30.078125 6.109375 
Q 37.203125 6.109375 41.296875 11.75 
Q 45.40625 17.390625 45.40625 27.296875 
Q 45.40625 37.203125 41.296875 42.84375 
Q 37.203125 48.484375 30.078125 48.484375 
Q 22.953125 48.484375 18.875 42.84375 
Q 14.796875 37.203125 14.796875 27.296875 
" id="DejaVuSans-64"/>
     <path d="M 53.515625 70.515625 
L 53.515625 60.890625 
Q 47.90625 63.578125 42.921875 64.890625 
Q 37.9375 66.21875 33.296875 66.21875 
Q 25.25 66.21875 20.875 63.09375 
Q 16.5 59.96875 16.5 54.203125 
Q 16.5 49.359375 19.40625 46.890625 
Q 22.3125 44.4375 30.421875 42.921875 
L 36.375 41.703125 
Q 47.40625 39.59375 52.65625 34.296875 
Q 57.90625 29 57.90625 20.125 
Q 57.90625 9.515625 50.796875 4.046875 
Q 43.703125 -1.421875 29.984375 -1.421875 
Q 24.8125 -1.421875 18.96875 -0.25 
Q 13.140625 0.921875 6.890625 3.21875 
L 6.890625 13.375 
Q 12.890625 10.015625 18.65625 8.296875 
Q 24.421875 6.59375 29.984375 6.59375 
Q 38.421875 6.59375 43.015625 9.90625 
Q 47.609375 13.234375 47.609375 19.390625 
Q 47.609375 24.75 44.3125 27.78125 
Q 41.015625 30.8125 33.5 32.328125 
L 27.484375 33.5 
Q 16.453125 35.6875 11.515625 40.375 
Q 6.59375 45.0625 6.59375 53.421875 
Q 6.59375 63.09375 13.40625 68.65625 
Q 20.21875 74.21875 32.171875 74.21875 
Q 37.3125 74.21875 42.625 73.28125 
Q 47.953125 72.359375 53.515625 70.515625 
" id="DejaVuSans-53"/>
     <path d="M 8.5 21.578125 
L 8.5 54.6875 
L 17.484375 54.6875 
L 17.484375 21.921875 
Q 17.484375 14.15625 20.5 10.265625 
Q 23.53125 6.390625 29.59375 6.390625 
Q 36.859375 6.390625 41.078125 11.03125 
Q 45.3125 15.671875 45.3125 23.6875 
L 45.3125 54.6875 
L 54.296875 54.6875 
L 54.296875 0 
L 45.3125 0 
L 45.3125 8.40625 
Q 42.046875 3.421875 37.71875 1 
Q 33.40625 -1.421875 27.6875 -1.421875 
Q 18.265625 -1.421875 13.375 4.4375 
Q 8.5 10.296875 8.5 21.578125 
M 31.109375 56 
z
" id="DejaVuSans-75"/>
    </defs>
    <g transform="translate(179.779687 32.88)scale(0.12 -0.12)">
     <use xlink:href="#DejaVuSans-44"/>
     <use x="77.001953" xlink:href="#DejaVuSans-69"/>
     <use x="104.785156" xlink:href="#DejaVuSans-73"/>
     <use x="156.884766" xlink:href="#DejaVuSans-74"/>
     <use x="196.09375" xlink:href="#DejaVuSans-61"/>
     <use x="257.373047" xlink:href="#DejaVuSans-6e"/>
     <use x="320.751953" xlink:href="#DejaVuSans-63"/>
     <use x="375.732422" xlink:href="#DejaVuSans-65"/>
     <use x="437.255859" xlink:href="#DejaVuSans-20"/>
     <use x="469.042969" xlink:href="#DejaVuSans-62"/>
     <use x="532.519531" xlink:href="#DejaVuSans-65"/>
     <use x="594.042969" xlink:href="#DejaVuSans-74"/>
     <use x="633.251953" xlink:href="#DejaVuSans-77"/>
     <use x="715.039062" xlink:href="#DejaVuSans-65"/>
     <use x="776.5625" xlink:href="#DejaVuSans-65"/>
     <use x="838.085938" xlink:href="#DejaVuSans-6e"/>
     <use x="901.464844" xlink:href="#DejaVuSans-20"/>
     <use x="933.251953" xlink:href="#DejaVuSans-54"/>
     <use x="994.117188" xlink:href="#DejaVuSans-72"/>
     <use x="1035.230469" xlink:href="#DejaVuSans-69"/>
     <use x="1063.013672" xlink:href="#DejaVuSans-73"/>
     <use x="1115.113281" xlink:href="#DejaVuSans-6f"/>
     <use x="1176.294922" xlink:href="#DejaVuSans-6c"/>
     <use x="1204.078125" xlink:href="#DejaVuSans-61"/>
     <use x="1265.357422" xlink:href="#DejaVuSans-72"/>
     <use x="1306.470703" xlink:href="#DejaVuSans-69"/>
     <use x="1334.253906" xlink:href="#DejaVuSans-73"/>
     <use x="1386.353516" xlink:href="#DejaVuSans-20"/>
     <use x="1418.140625" xlink:href="#DejaVuSans-61"/>
     <use x="1479.419922" xlink:href="#DejaVuSans-6e"/>
     <use x="1542.798828" xlink:href="#DejaVuSans-64"/>
     <use x="1606.275391" xlink:href="#DejaVuSans-20"/>
     <use x="1638.0625" xlink:href="#DejaVuSans-53"/>
     <use x="1701.539062" xlink:href="#DejaVuSans-75"/>
     <use x="1764.917969" xlink:href="#DejaVuSans-6e"/>
     <use x="1828.296875" xlink:href="#DejaVuSans-20"/>
     <use x="1860.083984" xlink:href="#DejaVuSans-33"/>
    </g>
   </g>
  </g>
 </g>
 <defs>
  <clipPath id="pa0741c835b">
   <rect height="244.62" width="446.4" x="72" y="38.88"/>
  </clipPath>
 </defs>
</svg>
