<?xml version="1.0" encoding="utf-8" standalone="no"?>
<!DOCTYPE svg PUBLIC "-//W3C//DTD SVG 1.1//EN"
  "http://www.w3.org/Graphics/SVG/1.1/DTD/svg11.dtd">
<!-- Created with matplotlib (http://matplotlib.org/) -->
<svg height="360pt" version="1.1" viewBox="0 0 432 360" width="432pt" xmlns="http://www.w3.org/2000/svg" xmlns:xlink="http://www.w3.org/1999/xlink">
 <defs>
  <style type="text/css">
*{stroke-linecap:butt;stroke-linejoin:round;}
  </style>
 </defs>
 <g id="figure_1">
  <g id="patch_1">
   <path d="M 0 360 
L 432 360 
L 432 0 
L 0 0 
z
" style="fill:#ffffff;"/>
  </g>
  <g id="axes_1">
   <g id="patch_2">
    <path d="M 43.2 153.55102 
L 388.8 153.55102 
L 388.8 36 
L 43.2 36 
z
" style="fill:#ffffff;"/>
   </g>
   <g id="PolyCollection_1">
    <defs>
     <path d="M 43.2 -306.256355 
L 43.2 -206.44898 
L 46.690909 -206.44898 
L 50.181818 -206.44898 
L 53.672727 -206.44898 
L 57.163636 -206.44898 
L 60.654545 -206.44898 
L 64.145455 -206.44898 
L 67.636364 -206.44898 
L 71.127273 -206.44898 
L 74.618182 -206.44898 
L 78.109091 -206.44898 
L 81.6 -206.44898 
L 85.090909 -206.44898 
L 88.581818 -206.44898 
L 92.072727 -206.44898 
L 95.563636 -206.44898 
L 99.054545 -206.44898 
L 102.545455 -206.44898 
L 106.036364 -206.44898 
L 109.527273 -206.44898 
L 113.018182 -206.44898 
L 116.509091 -206.44898 
L 120 -206.44898 
L 123.490909 -206.44898 
L 126.981818 -206.44898 
L 130.472727 -206.44898 
L 133.963636 -206.44898 
L 137.454545 -206.44898 
L 140.945455 -206.44898 
L 144.436364 -206.44898 
L 147.927273 -206.44898 
L 151.418182 -206.44898 
L 154.909091 -206.44898 
L 158.4 -206.44898 
L 161.890909 -206.44898 
L 165.381818 -206.44898 
L 168.872727 -206.44898 
L 172.363636 -206.44898 
L 175.854545 -206.44898 
L 179.345455 -206.44898 
L 182.836364 -206.44898 
L 186.327273 -206.44898 
L 189.818182 -206.44898 
L 193.309091 -206.44898 
L 196.8 -206.44898 
L 200.290909 -206.44898 
L 203.781818 -206.44898 
L 207.272727 -206.44898 
L 210.763636 -206.44898 
L 214.254545 -206.44898 
L 217.745455 -206.44898 
L 221.236364 -206.44898 
L 224.727273 -206.44898 
L 228.218182 -206.44898 
L 231.709091 -206.44898 
L 235.2 -206.44898 
L 238.690909 -206.44898 
L 242.181818 -206.44898 
L 245.672727 -206.44898 
L 249.163636 -206.44898 
L 252.654545 -206.44898 
L 256.145455 -206.44898 
L 259.636364 -206.44898 
L 263.127273 -206.44898 
L 266.618182 -206.44898 
L 270.109091 -206.44898 
L 273.6 -206.44898 
L 277.090909 -206.44898 
L 280.581818 -206.44898 
L 284.072727 -206.44898 
L 287.563636 -206.44898 
L 291.054545 -206.44898 
L 294.545455 -206.44898 
L 298.036364 -206.44898 
L 301.527273 -206.44898 
L 305.018182 -206.44898 
L 308.509091 -206.44898 
L 312 -206.44898 
L 315.490909 -206.44898 
L 318.981818 -206.44898 
L 322.472727 -206.44898 
L 325.963636 -206.44898 
L 329.454545 -206.44898 
L 332.945455 -206.44898 
L 336.436364 -206.44898 
L 339.927273 -206.44898 
L 343.418182 -206.44898 
L 346.909091 -206.44898 
L 350.4 -206.44898 
L 353.890909 -206.44898 
L 357.381818 -206.44898 
L 360.872727 -206.44898 
L 364.363636 -206.44898 
L 367.854545 -206.44898 
L 371.345455 -206.44898 
L 374.836364 -206.44898 
L 378.327273 -206.44898 
L 381.818182 -206.44898 
L 385.309091 -206.44898 
L 388.8 -206.44898 
L 388.8 -318.402332 
L 388.8 -318.402332 
L 385.309091 -316.309828 
L 381.818182 -314.008721 
L 378.327273 -311.507321 
L 374.836364 -308.820983 
L 371.345455 -305.971989 
L 367.854545 -302.988893 
L 364.363636 -299.90537 
L 360.872727 -296.758686 
L 357.381818 -293.587917 
L 353.890909 -290.432138 
L 350.4 -287.328733 
L 346.909091 -284.311991 
L 343.418182 -281.412063 
L 339.927273 -278.654338 
L 336.436364 -276.059193 
L 332.945455 -273.642083 
L 329.454545 -271.413886 
L 325.963636 -269.381412 
L 322.472727 -267.548001 
L 318.981818 -265.914151 
L 315.490909 -264.47811 
L 312 -263.236409 
L 308.509091 -262.184312 
L 305.018182 -261.316167 
L 301.527273 -260.625665 
L 298.036364 -260.105994 
L 294.545455 -259.74991 
L 291.054545 -259.549712 
L 287.563636 -259.497134 
L 284.072727 -259.583156 
L 280.581818 -259.797735 
L 277.090909 -260.129455 
L 273.6 -260.565101 
L 270.109091 -261.089165 
L 266.618182 -261.683286 
L 263.127273 -262.325667 
L 259.636364 -262.990499 
L 256.145455 -263.647488 
L 252.654545 -264.261589 
L 249.163636 -264.793114 
L 245.672727 -265.198429 
L 242.181818 -265.431423 
L 238.690909 -265.445951 
L 235.2 -265.199252 
L 231.709091 -264.656187 
L 228.218182 -263.793782 
L 224.727273 -262.605323 
L 221.236364 -261.103078 
L 217.745455 -259.318836 
L 214.254545 -257.301881 
L 210.763636 -255.114602 
L 207.272727 -252.826561 
L 203.781818 -250.508161 
L 200.290909 -248.225053 
L 196.8 -246.034074 
L 193.309091 -243.981038 
L 189.818182 -242.100246 
L 186.327273 -240.415321 
L 182.836364 -238.940857 
L 179.345455 -237.684428 
L 175.854545 -236.648611 
L 172.363636 -235.832808 
L 168.872727 -235.234757 
L 165.381818 -234.851715 
L 161.890909 -234.68132 
L 158.4 -234.722167 
L 154.909091 -234.97415 
L 151.418182 -235.438592 
L 147.927273 -236.118191 
L 144.436364 -237.016799 
L 140.945455 -238.139028 
L 137.454545 -239.489691 
L 133.963636 -241.073074 
L 130.472727 -242.89205 
L 126.981818 -244.94706 
L 123.490909 -247.235011 
L 120 -249.74818 
L 116.509091 -252.473239 
L 113.018182 -255.390543 
L 109.527273 -258.473842 
L 106.036364 -261.69054 
L 102.545455 -265.002591 
L 99.054545 -268.368006 
L 95.563636 -271.74287 
L 92.072727 -275.083655 
L 88.581818 -278.349542 
L 85.090909 -281.504478 
L 81.6 -284.518718 
L 78.109091 -287.369725 
L 74.618182 -290.042385 
L 71.127273 -292.528622 
L 67.636364 -294.826552 
L 64.145455 -296.939367 
L 60.654545 -298.874108 
L 57.163636 -300.640485 
L 53.672727 -302.24982 
L 50.181818 -303.714192 
L 46.690909 -305.045771 
L 43.2 -306.256355 
z
" id="m4c606ffcc0" style="stroke:#7fff00;stroke-opacity:0.1;"/>
    </defs>
    <g clip-path="url(#p9349a260be)">
     <use style="fill:#7fff00;fill-opacity:0.1;stroke:#7fff00;stroke-opacity:0.1;" x="0" xlink:href="#m4c606ffcc0" y="360"/>
    </g>
   </g>
   <g id="matplotlib.axis_1">
    <g id="xtick_1">
     <g id="line2d_1">
      <defs>
       <path d="M 0 0 
L 0 3.5 
" id="m6aa0f39e59" style="stroke:#000000;stroke-width:0.8;"/>
      </defs>
      <g>
       <use style="stroke:#000000;stroke-width:0.8;" x="43.2" xlink:href="#m6aa0f39e59" y="153.55102"/>
      </g>
     </g>
     <g id="text_1">
      <!-- −10.0 -->
      <defs>
       <path d="M 10.59375 35.5 
L 73.1875 35.5 
L 73.1875 27.203125 
L 10.59375 27.203125 
z
" id="DejaVuSans-2212"/>
       <path d="M 12.40625 8.296875 
L 28.515625 8.296875 
L 28.515625 63.921875 
L 10.984375 60.40625 
L 10.984375 69.390625 
L 28.421875 72.90625 
L 38.28125 72.90625 
L 38.28125 8.296875 
L 54.390625 8.296875 
L 54.390625 0 
L 12.40625 0 
z
" id="DejaVuSans-31"/>
       <path d="M 31.78125 66.40625 
Q 24.171875 66.40625 20.328125 58.90625 
Q 16.5 51.421875 16.5 36.375 
Q 16.5 21.390625 20.328125 13.890625 
Q 24.171875 6.390625 31.78125 6.390625 
Q 39.453125 6.390625 43.28125 13.890625 
Q 47.125 21.390625 47.125 36.375 
Q 47.125 51.421875 43.28125 58.90625 
Q 39.453125 66.40625 31.78125 66.40625 
M 31.78125 74.21875 
Q 44.046875 74.21875 50.515625 64.515625 
Q 56.984375 54.828125 56.984375 36.375 
Q 56.984375 17.96875 50.515625 8.265625 
Q 44.046875 -1.421875 31.78125 -1.421875 
Q 19.53125 -1.421875 13.0625 8.265625 
Q 6.59375 17.96875 6.59375 36.375 
Q 6.59375 54.828125 13.0625 64.515625 
Q 19.53125 74.21875 31.78125 74.21875 
" id="DejaVuSans-30"/>
       <path d="M 10.6875 12.40625 
L 21 12.40625 
L 21 0 
L 10.6875 0 
z
" id="DejaVuSans-2e"/>
      </defs>
      <g transform="translate(27.877344 168.149458)scale(0.1 -0.1)">
       <use xlink:href="#DejaVuSans-2212"/>
       <use x="83.789062" xlink:href="#DejaVuSans-31"/>
       <use x="147.412109" xlink:href="#DejaVuSans-30"/>
       <use x="211.035156" xlink:href="#DejaVuSans-2e"/>
       <use x="242.822266" xlink:href="#DejaVuSans-30"/>
      </g>
     </g>
    </g>
    <g id="xtick_2">
     <g id="line2d_2">
      <g>
       <use style="stroke:#000000;stroke-width:0.8;" x="86.4" xlink:href="#m6aa0f39e59" y="153.55102"/>
      </g>
     </g>
     <g id="text_2">
      <!-- −7.5 -->
      <defs>
       <path d="M 8.203125 72.90625 
L 55.078125 72.90625 
L 55.078125 68.703125 
L 28.609375 0 
L 18.3125 0 
L 43.21875 64.59375 
L 8.203125 64.59375 
z
" id="DejaVuSans-37"/>
       <path d="M 10.796875 72.90625 
L 49.515625 72.90625 
L 49.515625 64.59375 
L 19.828125 64.59375 
L 19.828125 46.734375 
Q 21.96875 47.46875 24.109375 47.828125 
Q 26.265625 48.1875 28.421875 48.1875 
Q 40.625 48.1875 47.75 41.5 
Q 54.890625 34.8125 54.890625 23.390625 
Q 54.890625 11.625 47.5625 5.09375 
Q 40.234375 -1.421875 26.90625 -1.421875 
Q 22.3125 -1.421875 17.546875 -0.640625 
Q 12.796875 0.140625 7.71875 1.703125 
L 7.71875 11.625 
Q 12.109375 9.234375 16.796875 8.0625 
Q 21.484375 6.890625 26.703125 6.890625 
Q 35.15625 6.890625 40.078125 11.328125 
Q 45.015625 15.765625 45.015625 23.390625 
Q 45.015625 31 40.078125 35.4375 
Q 35.15625 39.890625 26.703125 39.890625 
Q 22.75 39.890625 18.8125 39.015625 
Q 14.890625 38.140625 10.796875 36.28125 
z
" id="DejaVuSans-35"/>
      </defs>
      <g transform="translate(74.258594 168.149458)scale(0.1 -0.1)">
       <use xlink:href="#DejaVuSans-2212"/>
       <use x="83.789062" xlink:href="#DejaVuSans-37"/>
       <use x="147.412109" xlink:href="#DejaVuSans-2e"/>
       <use x="179.199219" xlink:href="#DejaVuSans-35"/>
      </g>
     </g>
    </g>
    <g id="xtick_3">
     <g id="line2d_3">
      <g>
       <use style="stroke:#000000;stroke-width:0.8;" x="129.6" xlink:href="#m6aa0f39e59" y="153.55102"/>
      </g>
     </g>
     <g id="text_3">
      <!-- −5.0 -->
      <g transform="translate(117.458594 168.149458)scale(0.1 -0.1)">
       <use xlink:href="#DejaVuSans-2212"/>
       <use x="83.789062" xlink:href="#DejaVuSans-35"/>
       <use x="147.412109" xlink:href="#DejaVuSans-2e"/>
       <use x="179.199219" xlink:href="#DejaVuSans-30"/>
      </g>
     </g>
    </g>
    <g id="xtick_4">
     <g id="line2d_4">
      <g>
       <use style="stroke:#000000;stroke-width:0.8;" x="172.8" xlink:href="#m6aa0f39e59" y="153.55102"/>
      </g>
     </g>
     <g id="text_4">
      <!-- −2.5 -->
      <defs>
       <path d="M 19.1875 8.296875 
L 53.609375 8.296875 
L 53.609375 0 
L 7.328125 0 
L 7.328125 8.296875 
Q 12.9375 14.109375 22.625 23.890625 
Q 32.328125 33.6875 34.8125 36.53125 
Q 39.546875 41.84375 41.421875 45.53125 
Q 43.3125 49.21875 43.3125 52.78125 
Q 43.3125 58.59375 39.234375 62.25 
Q 35.15625 65.921875 28.609375 65.921875 
Q 23.96875 65.921875 18.8125 64.3125 
Q 13.671875 62.703125 7.8125 59.421875 
L 7.8125 69.390625 
Q 13.765625 71.78125 18.9375 73 
Q 24.125 74.21875 28.421875 74.21875 
Q 39.75 74.21875 46.484375 68.546875 
Q 53.21875 62.890625 53.21875 53.421875 
Q 53.21875 48.921875 51.53125 44.890625 
Q 49.859375 40.875 45.40625 35.40625 
Q 44.1875 33.984375 37.640625 27.21875 
Q 31.109375 20.453125 19.1875 8.296875 
" id="DejaVuSans-32"/>
      </defs>
      <g transform="translate(160.658594 168.149458)scale(0.1 -0.1)">
       <use xlink:href="#DejaVuSans-2212"/>
       <use x="83.789062" xlink:href="#DejaVuSans-32"/>
       <use x="147.412109" xlink:href="#DejaVuSans-2e"/>
       <use x="179.199219" xlink:href="#DejaVuSans-35"/>
      </g>
     </g>
    </g>
    <g id="xtick_5">
     <g id="line2d_5">
      <g>
       <use style="stroke:#000000;stroke-width:0.8;" x="216" xlink:href="#m6aa0f39e59" y="153.55102"/>
      </g>
     </g>
     <g id="text_5">
      <!-- 0.0 -->
      <g transform="translate(208.048438 168.149458)scale(0.1 -0.1)">
       <use xlink:href="#DejaVuSans-30"/>
       <use x="63.623047" xlink:href="#DejaVuSans-2e"/>
       <use x="95.410156" xlink:href="#DejaVuSans-30"/>
      </g>
     </g>
    </g>
    <g id="xtick_6">
     <g id="line2d_6">
      <g>
       <use style="stroke:#000000;stroke-width:0.8;" x="259.2" xlink:href="#m6aa0f39e59" y="153.55102"/>
      </g>
     </g>
     <g id="text_6">
      <!-- 2.5 -->
      <g transform="translate(251.248437 168.149458)scale(0.1 -0.1)">
       <use xlink:href="#DejaVuSans-32"/>
       <use x="63.623047" xlink:href="#DejaVuSans-2e"/>
       <use x="95.410156" xlink:href="#DejaVuSans-35"/>
      </g>
     </g>
    </g>
    <g id="xtick_7">
     <g id="line2d_7">
      <g>
       <use style="stroke:#000000;stroke-width:0.8;" x="302.4" xlink:href="#m6aa0f39e59" y="153.55102"/>
      </g>
     </g>
     <g id="text_7">
      <!-- 5.0 -->
      <g transform="translate(294.448437 168.149458)scale(0.1 -0.1)">
       <use xlink:href="#DejaVuSans-35"/>
       <use x="63.623047" xlink:href="#DejaVuSans-2e"/>
       <use x="95.410156" xlink:href="#DejaVuSans-30"/>
      </g>
     </g>
    </g>
    <g id="xtick_8">
     <g id="line2d_8">
      <g>
       <use style="stroke:#000000;stroke-width:0.8;" x="345.6" xlink:href="#m6aa0f39e59" y="153.55102"/>
      </g>
     </g>
     <g id="text_8">
      <!-- 7.5 -->
      <g transform="translate(337.648438 168.149458)scale(0.1 -0.1)">
       <use xlink:href="#DejaVuSans-37"/>
       <use x="63.623047" xlink:href="#DejaVuSans-2e"/>
       <use x="95.410156" xlink:href="#DejaVuSans-35"/>
      </g>
     </g>
    </g>
    <g id="xtick_9">
     <g id="line2d_9">
      <g>
       <use style="stroke:#000000;stroke-width:0.8;" x="388.8" xlink:href="#m6aa0f39e59" y="153.55102"/>
      </g>
     </g>
     <g id="text_9">
      <!-- 10.0 -->
      <g transform="translate(377.667188 168.149458)scale(0.1 -0.1)">
       <use xlink:href="#DejaVuSans-31"/>
       <use x="63.623047" xlink:href="#DejaVuSans-30"/>
       <use x="127.246094" xlink:href="#DejaVuSans-2e"/>
       <use x="159.033203" xlink:href="#DejaVuSans-30"/>
      </g>
     </g>
    </g>
   </g>
   <g id="matplotlib.axis_2">
    <g id="ytick_1">
     <g id="line2d_10">
      <defs>
       <path d="M 0 0 
L -3.5 0 
" id="m371dee0760" style="stroke:#000000;stroke-width:0.8;"/>
      </defs>
      <g>
       <use style="stroke:#000000;stroke-width:0.8;" x="43.2" xlink:href="#m371dee0760" y="153.55102"/>
      </g>
     </g>
     <g id="text_10">
      <!-- 0.00 -->
      <g transform="translate(13.934375 157.350239)scale(0.1 -0.1)">
       <use xlink:href="#DejaVuSans-30"/>
       <use x="63.623047" xlink:href="#DejaVuSans-2e"/>
       <use x="95.410156" xlink:href="#DejaVuSans-30"/>
       <use x="159.033203" xlink:href="#DejaVuSans-30"/>
      </g>
     </g>
    </g>
    <g id="ytick_2">
     <g id="line2d_11">
      <g>
       <use style="stroke:#000000;stroke-width:0.8;" x="43.2" xlink:href="#m371dee0760" y="122.543724"/>
      </g>
     </g>
     <g id="text_11">
      <!-- 0.01 -->
      <g transform="translate(13.934375 126.342943)scale(0.1 -0.1)">
       <use xlink:href="#DejaVuSans-30"/>
       <use x="63.623047" xlink:href="#DejaVuSans-2e"/>
       <use x="95.410156" xlink:href="#DejaVuSans-30"/>
       <use x="159.033203" xlink:href="#DejaVuSans-31"/>
      </g>
     </g>
    </g>
    <g id="ytick_3">
     <g id="line2d_12">
      <g>
       <use style="stroke:#000000;stroke-width:0.8;" x="43.2" xlink:href="#m371dee0760" y="91.536428"/>
      </g>
     </g>
     <g id="text_12">
      <!-- 0.02 -->
      <g transform="translate(13.934375 95.335647)scale(0.1 -0.1)">
       <use xlink:href="#DejaVuSans-30"/>
       <use x="63.623047" xlink:href="#DejaVuSans-2e"/>
       <use x="95.410156" xlink:href="#DejaVuSans-30"/>
       <use x="159.033203" xlink:href="#DejaVuSans-32"/>
      </g>
     </g>
    </g>
    <g id="ytick_4">
     <g id="line2d_13">
      <g>
       <use style="stroke:#000000;stroke-width:0.8;" x="43.2" xlink:href="#m371dee0760" y="60.529132"/>
      </g>
     </g>
     <g id="text_13">
      <!-- 0.03 -->
      <defs>
       <path d="M 40.578125 39.3125 
Q 47.65625 37.796875 51.625 33 
Q 55.609375 28.21875 55.609375 21.1875 
Q 55.609375 10.40625 48.1875 4.484375 
Q 40.765625 -1.421875 27.09375 -1.421875 
Q 22.515625 -1.421875 17.65625 -0.515625 
Q 12.796875 0.390625 7.625 2.203125 
L 7.625 11.71875 
Q 11.71875 9.328125 16.59375 8.109375 
Q 21.484375 6.890625 26.8125 6.890625 
Q 36.078125 6.890625 40.9375 10.546875 
Q 45.796875 14.203125 45.796875 21.1875 
Q 45.796875 27.640625 41.28125 31.265625 
Q 36.765625 34.90625 28.71875 34.90625 
L 20.21875 34.90625 
L 20.21875 43.015625 
L 29.109375 43.015625 
Q 36.375 43.015625 40.234375 45.921875 
Q 44.09375 48.828125 44.09375 54.296875 
Q 44.09375 59.90625 40.109375 62.90625 
Q 36.140625 65.921875 28.71875 65.921875 
Q 24.65625 65.921875 20.015625 65.03125 
Q 15.375 64.15625 9.8125 62.3125 
L 9.8125 71.09375 
Q 15.4375 72.65625 20.34375 73.4375 
Q 25.25 74.21875 29.59375 74.21875 
Q 40.828125 74.21875 47.359375 69.109375 
Q 53.90625 64.015625 53.90625 55.328125 
Q 53.90625 49.265625 50.4375 45.09375 
Q 46.96875 40.921875 40.578125 39.3125 
" id="DejaVuSans-33"/>
      </defs>
      <g transform="translate(13.934375 64.328351)scale(0.1 -0.1)">
       <use xlink:href="#DejaVuSans-30"/>
       <use x="63.623047" xlink:href="#DejaVuSans-2e"/>
       <use x="95.410156" xlink:href="#DejaVuSans-30"/>
       <use x="159.033203" xlink:href="#DejaVuSans-33"/>
      </g>
     </g>
    </g>
   </g>
   <g id="line2d_14">
    <path clip-path="url(#p9349a260be)" d="M 43.2 53.743645 
L 46.690909 54.954229 
L 50.181818 56.285808 
L 53.672727 57.75018 
L 57.163636 59.359515 
L 60.654545 61.125892 
L 64.145455 63.060633 
L 67.636364 65.173448 
L 71.127273 67.471378 
L 74.618182 69.957615 
L 78.109091 72.630275 
L 81.6 75.481282 
L 85.090909 78.495522 
L 88.581818 81.650458 
L 92.072727 84.916345 
L 95.563636 88.25713 
L 99.054545 91.631994 
L 102.545455 94.997409 
L 106.036364 98.30946 
L 109.527273 101.526158 
L 113.018182 104.609457 
L 116.509091 107.526761 
L 120 110.25182 
L 123.490909 112.764989 
L 126.981818 115.05294 
L 130.472727 117.10795 
L 133.963636 118.926926 
L 137.454545 120.510309 
L 140.945455 121.860972 
L 144.436364 122.983201 
L 147.927273 123.881809 
L 151.418182 124.561408 
L 154.909091 125.02585 
L 158.4 125.277833 
L 161.890909 125.31868 
L 165.381818 125.148285 
L 168.872727 124.765243 
L 172.363636 124.167192 
L 175.854545 123.351389 
L 179.345455 122.315572 
L 182.836364 121.059143 
L 186.327273 119.584679 
L 189.818182 117.899754 
L 193.309091 116.018962 
L 196.8 113.965926 
L 200.290909 111.774947 
L 203.781818 109.491839 
L 207.272727 107.173439 
L 210.763636 104.885398 
L 214.254545 102.698119 
L 217.745455 100.681164 
L 221.236364 98.896922 
L 224.727273 97.394677 
L 228.218182 96.206218 
L 231.709091 95.343813 
L 235.2 94.800748 
L 238.690909 94.554049 
L 242.181818 94.568577 
L 245.672727 94.801571 
L 249.163636 95.206886 
L 252.654545 95.738411 
L 256.145455 96.352512 
L 259.636364 97.009501 
L 263.127273 97.674333 
L 266.618182 98.316714 
L 270.109091 98.910835 
L 273.6 99.434899 
L 277.090909 99.870545 
L 280.581818 100.202265 
L 284.072727 100.416844 
L 287.563636 100.502866 
L 291.054545 100.450288 
L 294.545455 100.25009 
L 298.036364 99.894006 
L 301.527273 99.374335 
L 305.018182 98.683833 
L 308.509091 97.815688 
L 312 96.763591 
L 315.490909 95.52189 
L 318.981818 94.085849 
L 322.472727 92.451999 
L 325.963636 90.618588 
L 329.454545 88.586114 
L 332.945455 86.357917 
L 336.436364 83.940807 
L 339.927273 81.345662 
L 343.418182 78.587937 
L 346.909091 75.688009 
L 350.4 72.671267 
L 353.890909 69.567862 
L 357.381818 66.412083 
L 360.872727 63.241314 
L 364.363636 60.09463 
L 367.854545 57.011107 
L 371.345455 54.028011 
L 374.836364 51.179017 
L 378.327273 48.492679 
L 381.818182 45.991279 
L 385.309091 43.690172 
L 388.8 41.597668 
" style="fill:none;stroke:#7fff00;stroke-linecap:square;stroke-width:1.5;"/>
   </g>
   <g id="patch_3">
    <path d="M 43.2 153.55102 
L 43.2 36 
" style="fill:none;stroke:#000000;stroke-linecap:square;stroke-linejoin:miter;stroke-width:0.8;"/>
   </g>
   <g id="patch_4">
    <path d="M 388.8 153.55102 
L 388.8 36 
" style="fill:none;stroke:#000000;stroke-linecap:square;stroke-linejoin:miter;stroke-width:0.8;"/>
   </g>
   <g id="patch_5">
    <path d="M 43.2 153.55102 
L 388.8 153.55102 
" style="fill:none;stroke:#000000;stroke-linecap:square;stroke-linejoin:miter;stroke-width:0.8;"/>
   </g>
   <g id="patch_6">
    <path d="M 43.2 36 
L 388.8 36 
" style="fill:none;stroke:#000000;stroke-linecap:square;stroke-linejoin:miter;stroke-width:0.8;"/>
   </g>
   <g id="text_14">
    <!-- Area = 1.96 -->
    <defs>
     <path d="M 34.1875 63.1875 
L 20.796875 26.90625 
L 47.609375 26.90625 
z
M 28.609375 72.90625 
L 39.796875 72.90625 
L 67.578125 0 
L 57.328125 0 
L 50.6875 18.703125 
L 17.828125 18.703125 
L 11.1875 0 
L 0.78125 0 
z
" id="DejaVuSans-41"/>
     <path d="M 41.109375 46.296875 
Q 39.59375 47.171875 37.8125 47.578125 
Q 36.03125 48 33.890625 48 
Q 26.265625 48 22.1875 43.046875 
Q 18.109375 38.09375 18.109375 28.8125 
L 18.109375 0 
L 9.078125 0 
L 9.078125 54.6875 
L 18.109375 54.6875 
L 18.109375 46.1875 
Q 20.953125 51.171875 25.484375 53.578125 
Q 30.03125 56 36.53125 56 
Q 37.453125 56 38.578125 55.875 
Q 39.703125 55.765625 41.0625 55.515625 
z
" id="DejaVuSans-72"/>
     <path d="M 56.203125 29.59375 
L 56.203125 25.203125 
L 14.890625 25.203125 
Q 15.484375 15.921875 20.484375 11.0625 
Q 25.484375 6.203125 34.421875 6.203125 
Q 39.59375 6.203125 44.453125 7.46875 
Q 49.3125 8.734375 54.109375 11.28125 
L 54.109375 2.78125 
Q 49.265625 0.734375 44.1875 -0.34375 
Q 39.109375 -1.421875 33.890625 -1.421875 
Q 20.796875 -1.421875 13.15625 6.1875 
Q 5.515625 13.8125 5.515625 26.8125 
Q 5.515625 40.234375 12.765625 48.109375 
Q 20.015625 56 32.328125 56 
Q 43.359375 56 49.78125 48.890625 
Q 56.203125 41.796875 56.203125 29.59375 
M 47.21875 32.234375 
Q 47.125 39.59375 43.09375 43.984375 
Q 39.0625 48.390625 32.421875 48.390625 
Q 24.90625 48.390625 20.390625 44.140625 
Q 15.875 39.890625 15.1875 32.171875 
z
" id="DejaVuSans-65"/>
     <path d="M 34.28125 27.484375 
Q 23.390625 27.484375 19.1875 25 
Q 14.984375 22.515625 14.984375 16.5 
Q 14.984375 11.71875 18.140625 8.90625 
Q 21.296875 6.109375 26.703125 6.109375 
Q 34.1875 6.109375 38.703125 11.40625 
Q 43.21875 16.703125 43.21875 25.484375 
L 43.21875 27.484375 
z
M 52.203125 31.203125 
L 52.203125 0 
L 43.21875 0 
L 43.21875 8.296875 
Q 40.140625 3.328125 35.546875 0.953125 
Q 30.953125 -1.421875 24.3125 -1.421875 
Q 15.921875 -1.421875 10.953125 3.296875 
Q 6 8.015625 6 15.921875 
Q 6 25.140625 12.171875 29.828125 
Q 18.359375 34.515625 30.609375 34.515625 
L 43.21875 34.515625 
L 43.21875 35.40625 
Q 43.21875 41.609375 39.140625 45 
Q 35.0625 48.390625 27.6875 48.390625 
Q 23 48.390625 18.546875 47.265625 
Q 14.109375 46.140625 10.015625 43.890625 
L 10.015625 52.203125 
Q 14.9375 54.109375 19.578125 55.046875 
Q 24.21875 56 28.609375 56 
Q 40.484375 56 46.34375 49.84375 
Q 52.203125 43.703125 52.203125 31.203125 
" id="DejaVuSans-61"/>
     <path id="DejaVuSans-20"/>
     <path d="M 10.59375 45.40625 
L 73.1875 45.40625 
L 73.1875 37.203125 
L 10.59375 37.203125 
z
M 10.59375 25.484375 
L 73.1875 25.484375 
L 73.1875 17.1875 
L 10.59375 17.1875 
z
" id="DejaVuSans-3d"/>
     <path d="M 10.984375 1.515625 
L 10.984375 10.5 
Q 14.703125 8.734375 18.5 7.8125 
Q 22.3125 6.890625 25.984375 6.890625 
Q 35.75 6.890625 40.890625 13.453125 
Q 46.046875 20.015625 46.78125 33.40625 
Q 43.953125 29.203125 39.59375 26.953125 
Q 35.25 24.703125 29.984375 24.703125 
Q 19.046875 24.703125 12.671875 31.3125 
Q 6.296875 37.9375 6.296875 49.421875 
Q 6.296875 60.640625 12.9375 67.421875 
Q 19.578125 74.21875 30.609375 74.21875 
Q 43.265625 74.21875 49.921875 64.515625 
Q 56.59375 54.828125 56.59375 36.375 
Q 56.59375 19.140625 48.40625 8.859375 
Q 40.234375 -1.421875 26.421875 -1.421875 
Q 22.703125 -1.421875 18.890625 -0.6875 
Q 15.09375 0.046875 10.984375 1.515625 
M 30.609375 32.421875 
Q 37.25 32.421875 41.125 36.953125 
Q 45.015625 41.5 45.015625 49.421875 
Q 45.015625 57.28125 41.125 61.84375 
Q 37.25 66.40625 30.609375 66.40625 
Q 23.96875 66.40625 20.09375 61.84375 
Q 16.21875 57.28125 16.21875 49.421875 
Q 16.21875 41.5 20.09375 36.953125 
Q 23.96875 32.421875 30.609375 32.421875 
" id="DejaVuSans-39"/>
     <path d="M 33.015625 40.375 
Q 26.375 40.375 22.484375 35.828125 
Q 18.609375 31.296875 18.609375 23.390625 
Q 18.609375 15.53125 22.484375 10.953125 
Q 26.375 6.390625 33.015625 6.390625 
Q 39.65625 6.390625 43.53125 10.953125 
Q 47.40625 15.53125 47.40625 23.390625 
Q 47.40625 31.296875 43.53125 35.828125 
Q 39.65625 40.375 33.015625 40.375 
M 52.59375 71.296875 
L 52.59375 62.3125 
Q 48.875 64.0625 45.09375 64.984375 
Q 41.3125 65.921875 37.59375 65.921875 
Q 27.828125 65.921875 22.671875 59.328125 
Q 17.53125 52.734375 16.796875 39.40625 
Q 19.671875 43.65625 24.015625 45.921875 
Q 28.375 48.1875 33.59375 48.1875 
Q 44.578125 48.1875 50.953125 41.515625 
Q 57.328125 34.859375 57.328125 23.390625 
Q 57.328125 12.15625 50.6875 5.359375 
Q 44.046875 -1.421875 33.015625 -1.421875 
Q 20.359375 -1.421875 13.671875 8.265625 
Q 6.984375 17.96875 6.984375 36.375 
Q 6.984375 53.65625 15.1875 63.9375 
Q 23.390625 74.21875 37.203125 74.21875 
Q 40.921875 74.21875 44.703125 73.484375 
Q 48.484375 72.75 52.59375 71.296875 
" id="DejaVuSans-36"/>
    </defs>
    <g transform="translate(51.84 138.047372)scale(0.1 -0.1)">
     <use xlink:href="#DejaVuSans-41"/>
     <use x="68.408203" xlink:href="#DejaVuSans-72"/>
     <use x="109.490234" xlink:href="#DejaVuSans-65"/>
     <use x="171.013672" xlink:href="#DejaVuSans-61"/>
     <use x="232.292969" xlink:href="#DejaVuSans-20"/>
     <use x="264.080078" xlink:href="#DejaVuSans-3d"/>
     <use x="347.869141" xlink:href="#DejaVuSans-20"/>
     <use x="379.65625" xlink:href="#DejaVuSans-31"/>
     <use x="443.279297" xlink:href="#DejaVuSans-2e"/>
     <use x="475.066406" xlink:href="#DejaVuSans-39"/>
     <use x="538.689453" xlink:href="#DejaVuSans-36"/>
    </g>
   </g>
   <g id="text_15">
    <!-- $L(\theta\mid x=-6)$ -->
    <defs>
     <path d="M 16.796875 72.90625 
L 26.703125 72.90625 
L 14.203125 8.203125 
L 49.703125 8.203125 
L 48.09375 0 
L 2.6875 0 
z
" id="DejaVuSans-Oblique-4c"/>
     <path d="M 31 75.875 
Q 24.46875 64.65625 21.28125 53.65625 
Q 18.109375 42.671875 18.109375 31.390625 
Q 18.109375 20.125 21.3125 9.0625 
Q 24.515625 -2 31 -13.1875 
L 23.1875 -13.1875 
Q 15.875 -1.703125 12.234375 9.375 
Q 8.59375 20.453125 8.59375 31.390625 
Q 8.59375 42.28125 12.203125 53.3125 
Q 15.828125 64.359375 23.1875 75.875 
z
" id="DejaVuSans-28"/>
     <path d="M 45.515625 34.671875 
L 14.453125 34.671875 
Q 12.359375 20.0625 14.5 13.875 
Q 17.1875 6.25 24.46875 6.25 
Q 31.78125 6.25 37.359375 13.921875 
Q 42.234375 20.65625 45.515625 34.671875 
M 47.015625 42.96875 
Q 48.34375 56.84375 46.625 61.71875 
Q 43.953125 69.4375 36.765625 69.4375 
Q 29.296875 69.4375 23.828125 61.8125 
Q 19.53125 55.671875 16.15625 42.96875 
z
M 38.1875 76.765625 
Q 49.90625 76.765625 54.59375 66.40625 
Q 59.28125 56.109375 55.71875 37.84375 
Q 52.203125 19.625 43.453125 9.28125 
Q 34.765625 -1.125 23.046875 -1.125 
Q 11.28125 -1.125 6.640625 9.28125 
Q 2 19.625 5.515625 37.84375 
Q 9.078125 56.109375 17.71875 66.40625 
Q 26.421875 76.765625 38.1875 76.765625 
" id="DejaVuSans-Oblique-3b8"/>
     <path d="M 21.09375 77.09375 
L 28.90625 77.09375 
L 28.90625 -21.390625 
L 21.09375 -21.390625 
z
" id="DejaVuSans-2223"/>
     <path d="M 60.015625 54.6875 
L 34.90625 27.875 
L 50.296875 0 
L 39.984375 0 
L 28.421875 21.6875 
L 8.296875 0 
L -2.59375 0 
L 24.3125 28.8125 
L 10.015625 54.6875 
L 20.3125 54.6875 
L 30.8125 34.90625 
L 49.125 54.6875 
z
" id="DejaVuSans-Oblique-78"/>
     <path d="M 8.015625 75.875 
L 15.828125 75.875 
Q 23.140625 64.359375 26.78125 53.3125 
Q 30.421875 42.28125 30.421875 31.390625 
Q 30.421875 20.453125 26.78125 9.375 
Q 23.140625 -1.703125 15.828125 -13.1875 
L 8.015625 -13.1875 
Q 14.5 -2 17.703125 9.0625 
Q 20.90625 20.125 20.90625 31.390625 
Q 20.90625 42.671875 17.703125 53.65625 
Q 14.5 64.65625 8.015625 75.875 
" id="DejaVuSans-29"/>
    </defs>
    <g transform="translate(176.82 30)scale(0.12 -0.12)">
     <use transform="translate(0 0.90625)" xlink:href="#DejaVuSans-Oblique-4c"/>
     <use transform="translate(55.712891 0.90625)" xlink:href="#DejaVuSans-28"/>
     <use transform="translate(94.726562 0.90625)" xlink:href="#DejaVuSans-Oblique-3b8"/>
     <use transform="translate(175.390625 0.90625)" xlink:href="#DejaVuSans-2223"/>
     <use transform="translate(244.873047 0.90625)" xlink:href="#DejaVuSans-Oblique-78"/>
     <use transform="translate(323.535156 0.90625)" xlink:href="#DejaVuSans-3d"/>
     <use transform="translate(446.289062 0.90625)" xlink:href="#DejaVuSans-2212"/>
     <use transform="translate(549.560547 0.90625)" xlink:href="#DejaVuSans-36"/>
     <use transform="translate(613.183594 0.90625)" xlink:href="#DejaVuSans-29"/>
    </g>
   </g>
  </g>
  <g id="axes_2">
   <g id="patch_7">
    <path d="M 43.2 324 
L 388.8 324 
L 388.8 206.44898 
L 43.2 206.44898 
z
" style="fill:#ffffff;"/>
   </g>
   <g id="PolyCollection_2">
    <defs>
     <path d="M 43.2 -50.797115 
L 43.2 -36 
L 46.690909 -36 
L 50.181818 -36 
L 53.672727 -36 
L 57.163636 -36 
L 60.654545 -36 
L 64.145455 -36 
L 67.636364 -36 
L 71.127273 -36 
L 74.618182 -36 
L 78.109091 -36 
L 81.6 -36 
L 85.090909 -36 
L 88.581818 -36 
L 92.072727 -36 
L 95.563636 -36 
L 99.054545 -36 
L 102.545455 -36 
L 106.036364 -36 
L 109.527273 -36 
L 113.018182 -36 
L 116.509091 -36 
L 120 -36 
L 123.490909 -36 
L 126.981818 -36 
L 130.472727 -36 
L 133.963636 -36 
L 137.454545 -36 
L 140.945455 -36 
L 144.436364 -36 
L 147.927273 -36 
L 151.418182 -36 
L 154.909091 -36 
L 158.4 -36 
L 161.890909 -36 
L 165.381818 -36 
L 168.872727 -36 
L 172.363636 -36 
L 175.854545 -36 
L 179.345455 -36 
L 182.836364 -36 
L 186.327273 -36 
L 189.818182 -36 
L 193.309091 -36 
L 196.8 -36 
L 200.290909 -36 
L 203.781818 -36 
L 207.272727 -36 
L 210.763636 -36 
L 214.254545 -36 
L 217.745455 -36 
L 221.236364 -36 
L 224.727273 -36 
L 228.218182 -36 
L 231.709091 -36 
L 235.2 -36 
L 238.690909 -36 
L 242.181818 -36 
L 245.672727 -36 
L 249.163636 -36 
L 252.654545 -36 
L 256.145455 -36 
L 259.636364 -36 
L 263.127273 -36 
L 266.618182 -36 
L 270.109091 -36 
L 273.6 -36 
L 277.090909 -36 
L 280.581818 -36 
L 284.072727 -36 
L 287.563636 -36 
L 291.054545 -36 
L 294.545455 -36 
L 298.036364 -36 
L 301.527273 -36 
L 305.018182 -36 
L 308.509091 -36 
L 312 -36 
L 315.490909 -36 
L 318.981818 -36 
L 322.472727 -36 
L 325.963636 -36 
L 329.454545 -36 
L 332.945455 -36 
L 336.436364 -36 
L 339.927273 -36 
L 343.418182 -36 
L 346.909091 -36 
L 350.4 -36 
L 353.890909 -36 
L 357.381818 -36 
L 360.872727 -36 
L 364.363636 -36 
L 367.854545 -36 
L 371.345455 -36 
L 374.836364 -36 
L 378.327273 -36 
L 381.818182 -36 
L 385.309091 -36 
L 388.8 -36 
L 388.8 -55.762576 
L 388.8 -55.762576 
L 385.309091 -56.939988 
L 381.818182 -58.166364 
L 378.327273 -59.440022 
L 374.836364 -60.758577 
L 371.345455 -62.118963 
L 367.854545 -63.517487 
L 364.363636 -64.949915 
L 360.872727 -66.411589 
L 357.381818 -67.897566 
L 353.890909 -69.402765 
L 350.4 -70.92212 
L 346.909091 -72.450716 
L 343.418182 -73.983896 
L 339.927273 -75.517334 
L 336.436364 -77.047054 
L 332.945455 -78.569386 
L 329.454545 -80.080869 
L 325.963636 -81.578088 
L 322.472727 -83.057463 
L 318.981818 -84.514989 
L 315.490909 -85.945972 
L 312 -87.344745 
L 308.509091 -88.704423 
L 305.018182 -90.016712 
L 301.527273 -91.271787 
L 298.036364 -92.458286 
L 294.545455 -93.563421 
L 291.054545 -94.573235 
L 287.563636 -95.472998 
L 284.072727 -96.247748 
L 280.581818 -96.882957 
L 277.090909 -97.365299 
L 273.6 -97.683485 
L 270.109091 -97.829107 
L 266.618182 -97.797461 
L 263.127273 -97.588259 
L 259.636364 -97.206206 
L 256.145455 -96.661364 
L 252.654545 -95.969274 
L 249.163636 -95.150802 
L 245.672727 -94.231703 
L 242.181818 -93.241915 
L 238.690909 -92.214612 
L 235.2 -91.185083 
L 231.709091 -90.189497 
L 228.218182 -89.263658 
L 224.727273 -88.441822 
L 221.236364 -87.755679 
L 217.745455 -87.233574 
L 214.254545 -86.900004 
L 210.763636 -86.775451 
L 207.272727 -86.876512 
L 203.781818 -87.216299 
L 200.290909 -87.805045 
L 196.8 -88.650797 
L 193.309091 -89.76009 
L 189.818182 -91.138483 
L 186.327273 -92.790821 
L 182.836364 -94.721145 
L 179.345455 -96.932175 
L 175.854545 -99.424349 
L 172.363636 -102.194454 
L 168.872727 -105.233927 
L 165.381818 -108.526954 
L 161.890909 -112.048565 
L 158.4 -115.762899 
L 154.909091 -119.621879 
L 151.418182 -123.564484 
L 147.927273 -127.516804 
L 144.436364 -131.392999 
L 140.945455 -135.097216 
L 137.454545 -138.526447 
L 133.963636 -141.574231 
L 130.472727 -144.135001 
L 126.981818 -146.108848 
L 123.490909 -147.406377 
L 120 -147.953353 
L 116.509091 -147.694789 
L 113.018182 -146.598191 
L 109.527273 -144.655711 
L 106.036364 -141.885054 
L 102.545455 -138.329045 
L 99.054545 -134.053899 
L 95.563636 -129.1463 
L 92.072727 -123.709493 
L 88.581818 -117.858662 
L 85.090909 -111.715884 
L 81.6 -105.405006 
L 78.109091 -99.046735 
L 74.618182 -92.754223 
L 71.127273 -86.629372 
L 67.636364 -80.760005 
L 64.145455 -75.217992 
L 60.654545 -70.058325 
L 57.163636 -65.319099 
L 53.672727 -61.022289 
L 50.181818 -57.175161 
L 46.690909 -53.772164 
L 43.2 -50.797115 
z
" id="mfc08b69cbc" style="stroke:#00ffff;stroke-opacity:0.1;"/>
    </defs>
    <g clip-path="url(#pd5b4888cad)">
     <use style="fill:#00ffff;fill-opacity:0.1;stroke:#00ffff;stroke-opacity:0.1;" x="0" xlink:href="#mfc08b69cbc" y="360"/>
    </g>
   </g>
   <g id="matplotlib.axis_3">
    <g id="xtick_10">
     <g id="line2d_15">
      <g>
       <use style="stroke:#000000;stroke-width:0.8;" x="43.2" xlink:href="#m6aa0f39e59" y="324"/>
      </g>
     </g>
     <g id="text_16">
      <!-- −10.0 -->
      <g transform="translate(27.877344 338.598437)scale(0.1 -0.1)">
       <use xlink:href="#DejaVuSans-2212"/>
       <use x="83.789062" xlink:href="#DejaVuSans-31"/>
       <use x="147.412109" xlink:href="#DejaVuSans-30"/>
       <use x="211.035156" xlink:href="#DejaVuSans-2e"/>
       <use x="242.822266" xlink:href="#DejaVuSans-30"/>
      </g>
     </g>
    </g>
    <g id="xtick_11">
     <g id="line2d_16">
      <g>
       <use style="stroke:#000000;stroke-width:0.8;" x="86.4" xlink:href="#m6aa0f39e59" y="324"/>
      </g>
     </g>
     <g id="text_17">
      <!-- −7.5 -->
      <g transform="translate(74.258594 338.598437)scale(0.1 -0.1)">
       <use xlink:href="#DejaVuSans-2212"/>
       <use x="83.789062" xlink:href="#DejaVuSans-37"/>
       <use x="147.412109" xlink:href="#DejaVuSans-2e"/>
       <use x="179.199219" xlink:href="#DejaVuSans-35"/>
      </g>
     </g>
    </g>
    <g id="xtick_12">
     <g id="line2d_17">
      <g>
       <use style="stroke:#000000;stroke-width:0.8;" x="129.6" xlink:href="#m6aa0f39e59" y="324"/>
      </g>
     </g>
     <g id="text_18">
      <!-- −5.0 -->
      <g transform="translate(117.458594 338.598437)scale(0.1 -0.1)">
       <use xlink:href="#DejaVuSans-2212"/>
       <use x="83.789062" xlink:href="#DejaVuSans-35"/>
       <use x="147.412109" xlink:href="#DejaVuSans-2e"/>
       <use x="179.199219" xlink:href="#DejaVuSans-30"/>
      </g>
     </g>
    </g>
    <g id="xtick_13">
     <g id="line2d_18">
      <g>
       <use style="stroke:#000000;stroke-width:0.8;" x="172.8" xlink:href="#m6aa0f39e59" y="324"/>
      </g>
     </g>
     <g id="text_19">
      <!-- −2.5 -->
      <g transform="translate(160.658594 338.598437)scale(0.1 -0.1)">
       <use xlink:href="#DejaVuSans-2212"/>
       <use x="83.789062" xlink:href="#DejaVuSans-32"/>
       <use x="147.412109" xlink:href="#DejaVuSans-2e"/>
       <use x="179.199219" xlink:href="#DejaVuSans-35"/>
      </g>
     </g>
    </g>
    <g id="xtick_14">
     <g id="line2d_19">
      <g>
       <use style="stroke:#000000;stroke-width:0.8;" x="216" xlink:href="#m6aa0f39e59" y="324"/>
      </g>
     </g>
     <g id="text_20">
      <!-- 0.0 -->
      <g transform="translate(208.048438 338.598437)scale(0.1 -0.1)">
       <use xlink:href="#DejaVuSans-30"/>
       <use x="63.623047" xlink:href="#DejaVuSans-2e"/>
       <use x="95.410156" xlink:href="#DejaVuSans-30"/>
      </g>
     </g>
    </g>
    <g id="xtick_15">
     <g id="line2d_20">
      <g>
       <use style="stroke:#000000;stroke-width:0.8;" x="259.2" xlink:href="#m6aa0f39e59" y="324"/>
      </g>
     </g>
     <g id="text_21">
      <!-- 2.5 -->
      <g transform="translate(251.248437 338.598437)scale(0.1 -0.1)">
       <use xlink:href="#DejaVuSans-32"/>
       <use x="63.623047" xlink:href="#DejaVuSans-2e"/>
       <use x="95.410156" xlink:href="#DejaVuSans-35"/>
      </g>
     </g>
    </g>
    <g id="xtick_16">
     <g id="line2d_21">
      <g>
       <use style="stroke:#000000;stroke-width:0.8;" x="302.4" xlink:href="#m6aa0f39e59" y="324"/>
      </g>
     </g>
     <g id="text_22">
      <!-- 5.0 -->
      <g transform="translate(294.448437 338.598437)scale(0.1 -0.1)">
       <use xlink:href="#DejaVuSans-35"/>
       <use x="63.623047" xlink:href="#DejaVuSans-2e"/>
       <use x="95.410156" xlink:href="#DejaVuSans-30"/>
      </g>
     </g>
    </g>
    <g id="xtick_17">
     <g id="line2d_22">
      <g>
       <use style="stroke:#000000;stroke-width:0.8;" x="345.6" xlink:href="#m6aa0f39e59" y="324"/>
      </g>
     </g>
     <g id="text_23">
      <!-- 7.5 -->
      <g transform="translate(337.648438 338.598437)scale(0.1 -0.1)">
       <use xlink:href="#DejaVuSans-37"/>
       <use x="63.623047" xlink:href="#DejaVuSans-2e"/>
       <use x="95.410156" xlink:href="#DejaVuSans-35"/>
      </g>
     </g>
    </g>
    <g id="xtick_18">
     <g id="line2d_23">
      <g>
       <use style="stroke:#000000;stroke-width:0.8;" x="388.8" xlink:href="#m6aa0f39e59" y="324"/>
      </g>
     </g>
     <g id="text_24">
      <!-- 10.0 -->
      <g transform="translate(377.667188 338.598437)scale(0.1 -0.1)">
       <use xlink:href="#DejaVuSans-31"/>
       <use x="63.623047" xlink:href="#DejaVuSans-30"/>
       <use x="127.246094" xlink:href="#DejaVuSans-2e"/>
       <use x="159.033203" xlink:href="#DejaVuSans-30"/>
      </g>
     </g>
    </g>
   </g>
   <g id="matplotlib.axis_4">
    <g id="ytick_5">
     <g id="line2d_24">
      <g>
       <use style="stroke:#000000;stroke-width:0.8;" x="43.2" xlink:href="#m371dee0760" y="324"/>
      </g>
     </g>
     <g id="text_25">
      <!-- 0.000 -->
      <g transform="translate(7.571875 327.799219)scale(0.1 -0.1)">
       <use xlink:href="#DejaVuSans-30"/>
       <use x="63.623047" xlink:href="#DejaVuSans-2e"/>
       <use x="95.410156" xlink:href="#DejaVuSans-30"/>
       <use x="159.033203" xlink:href="#DejaVuSans-30"/>
       <use x="222.65625" xlink:href="#DejaVuSans-30"/>
      </g>
     </g>
    </g>
    <g id="ytick_6">
     <g id="line2d_25">
      <g>
       <use style="stroke:#000000;stroke-width:0.8;" x="43.2" xlink:href="#m371dee0760" y="294.340805"/>
      </g>
     </g>
     <g id="text_26">
      <!-- 0.005 -->
      <g transform="translate(7.571875 298.140024)scale(0.1 -0.1)">
       <use xlink:href="#DejaVuSans-30"/>
       <use x="63.623047" xlink:href="#DejaVuSans-2e"/>
       <use x="95.410156" xlink:href="#DejaVuSans-30"/>
       <use x="159.033203" xlink:href="#DejaVuSans-30"/>
       <use x="222.65625" xlink:href="#DejaVuSans-35"/>
      </g>
     </g>
    </g>
    <g id="ytick_7">
     <g id="line2d_26">
      <g>
       <use style="stroke:#000000;stroke-width:0.8;" x="43.2" xlink:href="#m371dee0760" y="264.681611"/>
      </g>
     </g>
     <g id="text_27">
      <!-- 0.010 -->
      <g transform="translate(7.571875 268.480829)scale(0.1 -0.1)">
       <use xlink:href="#DejaVuSans-30"/>
       <use x="63.623047" xlink:href="#DejaVuSans-2e"/>
       <use x="95.410156" xlink:href="#DejaVuSans-30"/>
       <use x="159.033203" xlink:href="#DejaVuSans-31"/>
       <use x="222.65625" xlink:href="#DejaVuSans-30"/>
      </g>
     </g>
    </g>
    <g id="ytick_8">
     <g id="line2d_27">
      <g>
       <use style="stroke:#000000;stroke-width:0.8;" x="43.2" xlink:href="#m371dee0760" y="235.022416"/>
      </g>
     </g>
     <g id="text_28">
      <!-- 0.015 -->
      <g transform="translate(7.571875 238.821635)scale(0.1 -0.1)">
       <use xlink:href="#DejaVuSans-30"/>
       <use x="63.623047" xlink:href="#DejaVuSans-2e"/>
       <use x="95.410156" xlink:href="#DejaVuSans-30"/>
       <use x="159.033203" xlink:href="#DejaVuSans-31"/>
       <use x="222.65625" xlink:href="#DejaVuSans-35"/>
      </g>
     </g>
    </g>
   </g>
   <g id="line2d_28">
    <path clip-path="url(#pd5b4888cad)" d="M 43.2 309.202885 
L 46.690909 306.227836 
L 50.181818 302.824839 
L 53.672727 298.977711 
L 57.163636 294.680901 
L 60.654545 289.941675 
L 64.145455 284.782008 
L 67.636364 279.239995 
L 71.127273 273.370628 
L 74.618182 267.245777 
L 78.109091 260.953265 
L 81.6 254.594994 
L 85.090909 248.284116 
L 88.581818 242.141338 
L 92.072727 236.290507 
L 95.563636 230.8537 
L 99.054545 225.946101 
L 102.545455 221.670955 
L 106.036364 218.114946 
L 109.527273 215.344289 
L 113.018182 213.401809 
L 116.509091 212.305211 
L 120 212.046647 
L 123.490909 212.593623 
L 126.981818 213.891152 
L 130.472727 215.864999 
L 133.963636 218.425769 
L 137.454545 221.473553 
L 140.945455 224.902784 
L 144.436364 228.607001 
L 147.927273 232.483196 
L 151.418182 236.435516 
L 154.909091 240.378121 
L 158.4 244.237101 
L 161.890909 247.951435 
L 165.381818 251.473046 
L 168.872727 254.766073 
L 172.363636 257.805546 
L 175.854545 260.575651 
L 179.345455 263.067825 
L 182.836364 265.278855 
L 186.327273 267.209179 
L 189.818182 268.861517 
L 193.309091 270.23991 
L 196.8 271.349203 
L 200.290909 272.194955 
L 203.781818 272.783701 
L 207.272727 273.123488 
L 210.763636 273.224549 
L 214.254545 273.099996 
L 217.745455 272.766426 
L 221.236364 272.244321 
L 224.727273 271.558178 
L 228.218182 270.736342 
L 231.709091 269.810503 
L 235.2 268.814917 
L 238.690909 267.785388 
L 242.181818 266.758085 
L 245.672727 265.768297 
L 249.163636 264.849198 
L 252.654545 264.030726 
L 256.145455 263.338636 
L 259.636364 262.793794 
L 263.127273 262.411741 
L 266.618182 262.202539 
L 270.109091 262.170893 
L 273.6 262.316515 
L 277.090909 262.634701 
L 280.581818 263.117043 
L 284.072727 263.752252 
L 287.563636 264.527002 
L 291.054545 265.426765 
L 294.545455 266.436579 
L 298.036364 267.541714 
L 301.527273 268.728213 
L 305.018182 269.983288 
L 308.509091 271.295577 
L 312 272.655255 
L 315.490909 274.054028 
L 318.981818 275.485011 
L 322.472727 276.942537 
L 325.963636 278.421912 
L 329.454545 279.919131 
L 332.945455 281.430614 
L 336.436364 282.952946 
L 339.927273 284.482666 
L 343.418182 286.016104 
L 346.909091 287.549284 
L 350.4 289.07788 
L 353.890909 290.597235 
L 357.381818 292.102434 
L 360.872727 293.588411 
L 364.363636 295.050085 
L 367.854545 296.482513 
L 371.345455 297.881037 
L 374.836364 299.241423 
L 378.327273 300.559978 
L 381.818182 301.833636 
L 385.309091 303.060012 
L 388.8 304.237424 
" style="fill:none;stroke:#00ffff;stroke-linecap:square;stroke-width:1.5;"/>
   </g>
   <g id="patch_8">
    <path d="M 43.2 324 
L 43.2 206.44898 
" style="fill:none;stroke:#000000;stroke-linecap:square;stroke-linejoin:miter;stroke-width:0.8;"/>
   </g>
   <g id="patch_9">
    <path d="M 388.8 324 
L 388.8 206.44898 
" style="fill:none;stroke:#000000;stroke-linecap:square;stroke-linejoin:miter;stroke-width:0.8;"/>
   </g>
   <g id="patch_10">
    <path d="M 43.2 324 
L 388.8 324 
" style="fill:none;stroke:#000000;stroke-linecap:square;stroke-linejoin:miter;stroke-width:0.8;"/>
   </g>
   <g id="patch_11">
    <path d="M 43.2 206.44898 
L 388.8 206.44898 
" style="fill:none;stroke:#000000;stroke-linecap:square;stroke-linejoin:miter;stroke-width:0.8;"/>
   </g>
   <g id="text_29">
    <!-- Area = 1.00 -->
    <g transform="translate(51.84 309.170403)scale(0.1 -0.1)">
     <use xlink:href="#DejaVuSans-41"/>
     <use x="68.408203" xlink:href="#DejaVuSans-72"/>
     <use x="109.490234" xlink:href="#DejaVuSans-65"/>
     <use x="171.013672" xlink:href="#DejaVuSans-61"/>
     <use x="232.292969" xlink:href="#DejaVuSans-20"/>
     <use x="264.080078" xlink:href="#DejaVuSans-3d"/>
     <use x="347.869141" xlink:href="#DejaVuSans-20"/>
     <use x="379.65625" xlink:href="#DejaVuSans-31"/>
     <use x="443.279297" xlink:href="#DejaVuSans-2e"/>
     <use x="475.066406" xlink:href="#DejaVuSans-30"/>
     <use x="538.689453" xlink:href="#DejaVuSans-30"/>
    </g>
   </g>
   <g id="text_30">
    <!-- $P(x\mid \theta=2)$ -->
    <defs>
     <path d="M 16.890625 72.90625 
L 39.703125 72.90625 
Q 49.65625 72.90625 54.875 68.265625 
Q 60.109375 63.625 60.109375 54.6875 
Q 60.109375 42.671875 52.390625 35.984375 
Q 44.671875 29.296875 30.71875 29.296875 
L 18.3125 29.296875 
L 12.59375 0 
L 2.6875 0 
z
M 25.203125 64.796875 
L 19.921875 37.40625 
L 32.328125 37.40625 
Q 40.71875 37.40625 45.203125 41.703125 
Q 49.703125 46 49.703125 54 
Q 49.703125 59.125 46.65625 61.953125 
Q 43.609375 64.796875 38.09375 64.796875 
z
" id="DejaVuSans-Oblique-50"/>
    </defs>
    <g transform="translate(183.9 200.44898)scale(0.12 -0.12)">
     <use transform="translate(0 0.90625)" xlink:href="#DejaVuSans-Oblique-50"/>
     <use transform="translate(60.302734 0.90625)" xlink:href="#DejaVuSans-28"/>
     <use transform="translate(99.316406 0.90625)" xlink:href="#DejaVuSans-Oblique-78"/>
     <use transform="translate(177.978516 0.90625)" xlink:href="#DejaVuSans-2223"/>
     <use transform="translate(247.460938 0.90625)" xlink:href="#DejaVuSans-Oblique-3b8"/>
     <use transform="translate(328.125 0.90625)" xlink:href="#DejaVuSans-3d"/>
     <use transform="translate(431.396484 0.90625)" xlink:href="#DejaVuSans-32"/>
     <use transform="translate(495.019531 0.90625)" xlink:href="#DejaVuSans-29"/>
    </g>
   </g>
  </g>
 </g>
 <defs>
  <clipPath id="p9349a260be">
   <rect height="117.55102" width="345.6" x="43.2" y="36"/>
  </clipPath>
  <clipPath id="pd5b4888cad">
   <rect height="117.55102" width="345.6" x="43.2" y="206.44898"/>
  </clipPath>
 </defs>
</svg>
