<?xml version="1.0" encoding="utf-8" standalone="no"?>
<!DOCTYPE svg PUBLIC "-//W3C//DTD SVG 1.1//EN"
  "http://www.w3.org/Graphics/SVG/1.1/DTD/svg11.dtd">
<!-- Created with matplotlib (http://matplotlib.org/) -->
<svg height="360pt" version="1.1" viewBox="0 0 432 360" width="432pt" xmlns="http://www.w3.org/2000/svg" xmlns:xlink="http://www.w3.org/1999/xlink">
 <defs>
  <style type="text/css">
*{stroke-linecap:butt;stroke-linejoin:round;}
  </style>
 </defs>
 <g id="figure_1">
  <g id="patch_1">
   <path d="M 0 360 
L 432 360 
L 432 0 
L 0 0 
z
" style="fill:#ffffff;"/>
  </g>
  <g id="axes_1">
   <g id="patch_2">
    <path d="M 43.2 153.55102 
L 388.8 153.55102 
L 388.8 36 
L 43.2 36 
z
" style="fill:#ffffff;"/>
   </g>
   <g id="PolyCollection_1">
    <defs>
     <path d="M 43.2 -219.691088 
L 43.2 -206.44898 
L 46.690909 -206.44898 
L 50.181818 -206.44898 
L 53.672727 -206.44898 
L 57.163636 -206.44898 
L 60.654545 -206.44898 
L 64.145455 -206.44898 
L 67.636364 -206.44898 
L 71.127273 -206.44898 
L 74.618182 -206.44898 
L 78.109091 -206.44898 
L 81.6 -206.44898 
L 85.090909 -206.44898 
L 88.581818 -206.44898 
L 92.072727 -206.44898 
L 95.563636 -206.44898 
L 99.054545 -206.44898 
L 102.545455 -206.44898 
L 106.036364 -206.44898 
L 109.527273 -206.44898 
L 113.018182 -206.44898 
L 116.509091 -206.44898 
L 120 -206.44898 
L 123.490909 -206.44898 
L 126.981818 -206.44898 
L 130.472727 -206.44898 
L 133.963636 -206.44898 
L 137.454545 -206.44898 
L 140.945455 -206.44898 
L 144.436364 -206.44898 
L 147.927273 -206.44898 
L 151.418182 -206.44898 
L 154.909091 -206.44898 
L 158.4 -206.44898 
L 161.890909 -206.44898 
L 165.381818 -206.44898 
L 168.872727 -206.44898 
L 172.363636 -206.44898 
L 175.854545 -206.44898 
L 179.345455 -206.44898 
L 182.836364 -206.44898 
L 186.327273 -206.44898 
L 189.818182 -206.44898 
L 193.309091 -206.44898 
L 196.8 -206.44898 
L 200.290909 -206.44898 
L 203.781818 -206.44898 
L 207.272727 -206.44898 
L 210.763636 -206.44898 
L 214.254545 -206.44898 
L 217.745455 -206.44898 
L 221.236364 -206.44898 
L 224.727273 -206.44898 
L 228.218182 -206.44898 
L 231.709091 -206.44898 
L 235.2 -206.44898 
L 238.690909 -206.44898 
L 242.181818 -206.44898 
L 245.672727 -206.44898 
L 249.163636 -206.44898 
L 252.654545 -206.44898 
L 256.145455 -206.44898 
L 259.636364 -206.44898 
L 263.127273 -206.44898 
L 266.618182 -206.44898 
L 270.109091 -206.44898 
L 273.6 -206.44898 
L 277.090909 -206.44898 
L 280.581818 -206.44898 
L 284.072727 -206.44898 
L 287.563636 -206.44898 
L 291.054545 -206.44898 
L 294.545455 -206.44898 
L 298.036364 -206.44898 
L 301.527273 -206.44898 
L 305.018182 -206.44898 
L 308.509091 -206.44898 
L 312 -206.44898 
L 315.490909 -206.44898 
L 318.981818 -206.44898 
L 322.472727 -206.44898 
L 325.963636 -206.44898 
L 329.454545 -206.44898 
L 332.945455 -206.44898 
L 336.436364 -206.44898 
L 339.927273 -206.44898 
L 343.418182 -206.44898 
L 346.909091 -206.44898 
L 350.4 -206.44898 
L 353.890909 -206.44898 
L 357.381818 -206.44898 
L 360.872727 -206.44898 
L 364.363636 -206.44898 
L 367.854545 -206.44898 
L 371.345455 -206.44898 
L 374.836364 -206.44898 
L 378.327273 -206.44898 
L 381.818182 -206.44898 
L 385.309091 -206.44898 
L 388.8 -206.44898 
L 388.8 -232.188881 
L 388.8 -232.188881 
L 385.309091 -234.529923 
L 381.818182 -237.004614 
L 378.327273 -239.593531 
L 374.836364 -242.271613 
L 371.345455 -245.008493 
L 367.854545 -247.76914 
L 364.363636 -250.514826 
L 360.872727 -253.204383 
L 357.381818 -255.795703 
L 353.890909 -258.247398 
L 350.4 -260.520531 
L 346.909091 -262.580319 
L 343.418182 -264.397682 
L 339.927273 -265.950546 
L 336.436364 -267.224799 
L 332.945455 -268.214842 
L 329.454545 -268.923675 
L 325.963636 -269.362529 
L 322.472727 -269.550051 
L 318.981818 -269.511108 
L 315.490909 -269.275284 
L 312 -268.875188 
L 308.509091 -268.34467 
L 305.018182 -267.71707 
L 301.527273 -267.023616 
L 298.036364 -266.292064 
L 294.545455 -265.545644 
L 291.054545 -264.802389 
L 287.563636 -264.074832 
L 284.072727 -263.370101 
L 280.581818 -262.690359 
L 277.090909 -262.033541 
L 273.6 -261.394321 
L 270.109091 -260.765233 
L 266.618182 -260.137854 
L 263.127273 -259.503973 
L 259.636364 -258.856666 
L 256.145455 -258.191218 
L 252.654545 -257.505845 
L 249.163636 -256.802177 
L 245.672727 -256.085498 
L 242.181818 -255.364754 
L 238.690909 -254.652343 
L 235.2 -253.963738 
L 231.709091 -253.316987 
L 228.218182 -252.732147 
L 224.727273 -252.230709 
L 221.236364 -251.835065 
L 217.745455 -251.56805 
L 214.254545 -251.452588 
L 210.763636 -251.511446 
L 207.272727 -251.76707 
L 203.781818 -252.241472 
L 200.290909 -252.956117 
L 196.8 -253.931736 
L 193.309091 -255.188007 
L 189.818182 -256.74303 
L 186.327273 -258.612554 
L 182.836364 -260.808932 
L 179.345455 -263.339803 
L 175.854545 -266.206545 
L 172.363636 -269.402588 
L 168.872727 -272.911683 
L 165.381818 -276.706294 
L 161.890909 -280.746265 
L 158.4 -284.977934 
L 154.909091 -289.333853 
L 151.418182 -293.733266 
L 147.927273 -298.083401 
L 144.436364 -302.281653 
L 140.945455 -306.218593 
L 137.454545 -309.781725 
L 133.963636 -312.859812 
L 130.472727 -315.347549 
L 126.981818 -317.150303 
L 123.490909 -318.188642 
L 120 -318.402332 
L 116.509091 -317.753553 
L 113.018182 -316.229083 
L 109.527273 -313.841309 
L 106.036364 -310.627975 
L 102.545455 -306.650675 
L 99.054545 -301.992183 
L 95.563636 -296.752806 
L 92.072727 -291.045976 
L 88.581818 -284.993387 
L 85.090909 -278.719956 
L 81.6 -272.348921 
L 78.109091 -265.997347 
L 74.618182 -259.772248 
L 71.127273 -253.767525 
L 67.636364 -248.061785 
L 64.145455 -242.717102 
L 60.654545 -237.77867 
L 57.163636 -233.275267 
L 53.672727 -229.220414 
L 50.181818 -225.614048 
L 46.690909 -222.444571 
L 43.2 -219.691088 
z
" id="m45fbe5e60f" style="stroke:#008000;stroke-opacity:0.1;"/>
    </defs>
    <g clip-path="url(#p16ea5e1dd4)">
     <use style="fill:#008000;fill-opacity:0.1;stroke:#008000;stroke-opacity:0.1;" x="0" xlink:href="#m45fbe5e60f" y="360"/>
    </g>
   </g>
   <g id="matplotlib.axis_1">
    <g id="xtick_1">
     <g id="line2d_1">
      <defs>
       <path d="M 0 0 
L 0 3.5 
" id="meae216e516" style="stroke:#000000;stroke-width:0.8;"/>
      </defs>
      <g>
       <use style="stroke:#000000;stroke-width:0.8;" x="43.2" xlink:href="#meae216e516" y="153.55102"/>
      </g>
     </g>
     <g id="text_1">
      <!-- −10.0 -->
      <defs>
       <path d="M 10.59375 35.5 
L 73.1875 35.5 
L 73.1875 27.203125 
L 10.59375 27.203125 
z
" id="DejaVuSans-2212"/>
       <path d="M 12.40625 8.296875 
L 28.515625 8.296875 
L 28.515625 63.921875 
L 10.984375 60.40625 
L 10.984375 69.390625 
L 28.421875 72.90625 
L 38.28125 72.90625 
L 38.28125 8.296875 
L 54.390625 8.296875 
L 54.390625 0 
L 12.40625 0 
z
" id="DejaVuSans-31"/>
       <path d="M 31.78125 66.40625 
Q 24.171875 66.40625 20.328125 58.90625 
Q 16.5 51.421875 16.5 36.375 
Q 16.5 21.390625 20.328125 13.890625 
Q 24.171875 6.390625 31.78125 6.390625 
Q 39.453125 6.390625 43.28125 13.890625 
Q 47.125 21.390625 47.125 36.375 
Q 47.125 51.421875 43.28125 58.90625 
Q 39.453125 66.40625 31.78125 66.40625 
M 31.78125 74.21875 
Q 44.046875 74.21875 50.515625 64.515625 
Q 56.984375 54.828125 56.984375 36.375 
Q 56.984375 17.96875 50.515625 8.265625 
Q 44.046875 -1.421875 31.78125 -1.421875 
Q 19.53125 -1.421875 13.0625 8.265625 
Q 6.59375 17.96875 6.59375 36.375 
Q 6.59375 54.828125 13.0625 64.515625 
Q 19.53125 74.21875 31.78125 74.21875 
" id="DejaVuSans-30"/>
       <path d="M 10.6875 12.40625 
L 21 12.40625 
L 21 0 
L 10.6875 0 
z
" id="DejaVuSans-2e"/>
      </defs>
      <g transform="translate(27.877344 168.149458)scale(0.1 -0.1)">
       <use xlink:href="#DejaVuSans-2212"/>
       <use x="83.789062" xlink:href="#DejaVuSans-31"/>
       <use x="147.412109" xlink:href="#DejaVuSans-30"/>
       <use x="211.035156" xlink:href="#DejaVuSans-2e"/>
       <use x="242.822266" xlink:href="#DejaVuSans-30"/>
      </g>
     </g>
    </g>
    <g id="xtick_2">
     <g id="line2d_2">
      <g>
       <use style="stroke:#000000;stroke-width:0.8;" x="86.4" xlink:href="#meae216e516" y="153.55102"/>
      </g>
     </g>
     <g id="text_2">
      <!-- −7.5 -->
      <defs>
       <path d="M 8.203125 72.90625 
L 55.078125 72.90625 
L 55.078125 68.703125 
L 28.609375 0 
L 18.3125 0 
L 43.21875 64.59375 
L 8.203125 64.59375 
z
" id="DejaVuSans-37"/>
       <path d="M 10.796875 72.90625 
L 49.515625 72.90625 
L 49.515625 64.59375 
L 19.828125 64.59375 
L 19.828125 46.734375 
Q 21.96875 47.46875 24.109375 47.828125 
Q 26.265625 48.1875 28.421875 48.1875 
Q 40.625 48.1875 47.75 41.5 
Q 54.890625 34.8125 54.890625 23.390625 
Q 54.890625 11.625 47.5625 5.09375 
Q 40.234375 -1.421875 26.90625 -1.421875 
Q 22.3125 -1.421875 17.546875 -0.640625 
Q 12.796875 0.140625 7.71875 1.703125 
L 7.71875 11.625 
Q 12.109375 9.234375 16.796875 8.0625 
Q 21.484375 6.890625 26.703125 6.890625 
Q 35.15625 6.890625 40.078125 11.328125 
Q 45.015625 15.765625 45.015625 23.390625 
Q 45.015625 31 40.078125 35.4375 
Q 35.15625 39.890625 26.703125 39.890625 
Q 22.75 39.890625 18.8125 39.015625 
Q 14.890625 38.140625 10.796875 36.28125 
z
" id="DejaVuSans-35"/>
      </defs>
      <g transform="translate(74.258594 168.149458)scale(0.1 -0.1)">
       <use xlink:href="#DejaVuSans-2212"/>
       <use x="83.789062" xlink:href="#DejaVuSans-37"/>
       <use x="147.412109" xlink:href="#DejaVuSans-2e"/>
       <use x="179.199219" xlink:href="#DejaVuSans-35"/>
      </g>
     </g>
    </g>
    <g id="xtick_3">
     <g id="line2d_3">
      <g>
       <use style="stroke:#000000;stroke-width:0.8;" x="129.6" xlink:href="#meae216e516" y="153.55102"/>
      </g>
     </g>
     <g id="text_3">
      <!-- −5.0 -->
      <g transform="translate(117.458594 168.149458)scale(0.1 -0.1)">
       <use xlink:href="#DejaVuSans-2212"/>
       <use x="83.789062" xlink:href="#DejaVuSans-35"/>
       <use x="147.412109" xlink:href="#DejaVuSans-2e"/>
       <use x="179.199219" xlink:href="#DejaVuSans-30"/>
      </g>
     </g>
    </g>
    <g id="xtick_4">
     <g id="line2d_4">
      <g>
       <use style="stroke:#000000;stroke-width:0.8;" x="172.8" xlink:href="#meae216e516" y="153.55102"/>
      </g>
     </g>
     <g id="text_4">
      <!-- −2.5 -->
      <defs>
       <path d="M 19.1875 8.296875 
L 53.609375 8.296875 
L 53.609375 0 
L 7.328125 0 
L 7.328125 8.296875 
Q 12.9375 14.109375 22.625 23.890625 
Q 32.328125 33.6875 34.8125 36.53125 
Q 39.546875 41.84375 41.421875 45.53125 
Q 43.3125 49.21875 43.3125 52.78125 
Q 43.3125 58.59375 39.234375 62.25 
Q 35.15625 65.921875 28.609375 65.921875 
Q 23.96875 65.921875 18.8125 64.3125 
Q 13.671875 62.703125 7.8125 59.421875 
L 7.8125 69.390625 
Q 13.765625 71.78125 18.9375 73 
Q 24.125 74.21875 28.421875 74.21875 
Q 39.75 74.21875 46.484375 68.546875 
Q 53.21875 62.890625 53.21875 53.421875 
Q 53.21875 48.921875 51.53125 44.890625 
Q 49.859375 40.875 45.40625 35.40625 
Q 44.1875 33.984375 37.640625 27.21875 
Q 31.109375 20.453125 19.1875 8.296875 
" id="DejaVuSans-32"/>
      </defs>
      <g transform="translate(160.658594 168.149458)scale(0.1 -0.1)">
       <use xlink:href="#DejaVuSans-2212"/>
       <use x="83.789062" xlink:href="#DejaVuSans-32"/>
       <use x="147.412109" xlink:href="#DejaVuSans-2e"/>
       <use x="179.199219" xlink:href="#DejaVuSans-35"/>
      </g>
     </g>
    </g>
    <g id="xtick_5">
     <g id="line2d_5">
      <g>
       <use style="stroke:#000000;stroke-width:0.8;" x="216" xlink:href="#meae216e516" y="153.55102"/>
      </g>
     </g>
     <g id="text_5">
      <!-- 0.0 -->
      <g transform="translate(208.048438 168.149458)scale(0.1 -0.1)">
       <use xlink:href="#DejaVuSans-30"/>
       <use x="63.623047" xlink:href="#DejaVuSans-2e"/>
       <use x="95.410156" xlink:href="#DejaVuSans-30"/>
      </g>
     </g>
    </g>
    <g id="xtick_6">
     <g id="line2d_6">
      <g>
       <use style="stroke:#000000;stroke-width:0.8;" x="259.2" xlink:href="#meae216e516" y="153.55102"/>
      </g>
     </g>
     <g id="text_6">
      <!-- 2.5 -->
      <g transform="translate(251.248437 168.149458)scale(0.1 -0.1)">
       <use xlink:href="#DejaVuSans-32"/>
       <use x="63.623047" xlink:href="#DejaVuSans-2e"/>
       <use x="95.410156" xlink:href="#DejaVuSans-35"/>
      </g>
     </g>
    </g>
    <g id="xtick_7">
     <g id="line2d_7">
      <g>
       <use style="stroke:#000000;stroke-width:0.8;" x="302.4" xlink:href="#meae216e516" y="153.55102"/>
      </g>
     </g>
     <g id="text_7">
      <!-- 5.0 -->
      <g transform="translate(294.448437 168.149458)scale(0.1 -0.1)">
       <use xlink:href="#DejaVuSans-35"/>
       <use x="63.623047" xlink:href="#DejaVuSans-2e"/>
       <use x="95.410156" xlink:href="#DejaVuSans-30"/>
      </g>
     </g>
    </g>
    <g id="xtick_8">
     <g id="line2d_8">
      <g>
       <use style="stroke:#000000;stroke-width:0.8;" x="345.6" xlink:href="#meae216e516" y="153.55102"/>
      </g>
     </g>
     <g id="text_8">
      <!-- 7.5 -->
      <g transform="translate(337.648438 168.149458)scale(0.1 -0.1)">
       <use xlink:href="#DejaVuSans-37"/>
       <use x="63.623047" xlink:href="#DejaVuSans-2e"/>
       <use x="95.410156" xlink:href="#DejaVuSans-35"/>
      </g>
     </g>
    </g>
    <g id="xtick_9">
     <g id="line2d_9">
      <g>
       <use style="stroke:#000000;stroke-width:0.8;" x="388.8" xlink:href="#meae216e516" y="153.55102"/>
      </g>
     </g>
     <g id="text_9">
      <!-- 10.0 -->
      <g transform="translate(377.667188 168.149458)scale(0.1 -0.1)">
       <use xlink:href="#DejaVuSans-31"/>
       <use x="63.623047" xlink:href="#DejaVuSans-30"/>
       <use x="127.246094" xlink:href="#DejaVuSans-2e"/>
       <use x="159.033203" xlink:href="#DejaVuSans-30"/>
      </g>
     </g>
    </g>
   </g>
   <g id="matplotlib.axis_2">
    <g id="ytick_1">
     <g id="line2d_10">
      <defs>
       <path d="M 0 0 
L -3.5 0 
" id="ma6c341815e" style="stroke:#000000;stroke-width:0.8;"/>
      </defs>
      <g>
       <use style="stroke:#000000;stroke-width:0.8;" x="43.2" xlink:href="#ma6c341815e" y="153.55102"/>
      </g>
     </g>
     <g id="text_10">
      <!-- 0.000 -->
      <g transform="translate(7.571875 157.350239)scale(0.1 -0.1)">
       <use xlink:href="#DejaVuSans-30"/>
       <use x="63.623047" xlink:href="#DejaVuSans-2e"/>
       <use x="95.410156" xlink:href="#DejaVuSans-30"/>
       <use x="159.033203" xlink:href="#DejaVuSans-30"/>
       <use x="222.65625" xlink:href="#DejaVuSans-30"/>
      </g>
     </g>
    </g>
    <g id="ytick_2">
     <g id="line2d_11">
      <g>
       <use style="stroke:#000000;stroke-width:0.8;" x="43.2" xlink:href="#ma6c341815e" y="123.388025"/>
      </g>
     </g>
     <g id="text_11">
      <!-- 0.005 -->
      <g transform="translate(7.571875 127.187244)scale(0.1 -0.1)">
       <use xlink:href="#DejaVuSans-30"/>
       <use x="63.623047" xlink:href="#DejaVuSans-2e"/>
       <use x="95.410156" xlink:href="#DejaVuSans-30"/>
       <use x="159.033203" xlink:href="#DejaVuSans-30"/>
       <use x="222.65625" xlink:href="#DejaVuSans-35"/>
      </g>
     </g>
    </g>
    <g id="ytick_3">
     <g id="line2d_12">
      <g>
       <use style="stroke:#000000;stroke-width:0.8;" x="43.2" xlink:href="#ma6c341815e" y="93.22503"/>
      </g>
     </g>
     <g id="text_12">
      <!-- 0.010 -->
      <g transform="translate(7.571875 97.024249)scale(0.1 -0.1)">
       <use xlink:href="#DejaVuSans-30"/>
       <use x="63.623047" xlink:href="#DejaVuSans-2e"/>
       <use x="95.410156" xlink:href="#DejaVuSans-30"/>
       <use x="159.033203" xlink:href="#DejaVuSans-31"/>
       <use x="222.65625" xlink:href="#DejaVuSans-30"/>
      </g>
     </g>
    </g>
    <g id="ytick_4">
     <g id="line2d_13">
      <g>
       <use style="stroke:#000000;stroke-width:0.8;" x="43.2" xlink:href="#ma6c341815e" y="63.062035"/>
      </g>
     </g>
     <g id="text_13">
      <!-- 0.015 -->
      <g transform="translate(7.571875 66.861253)scale(0.1 -0.1)">
       <use xlink:href="#DejaVuSans-30"/>
       <use x="63.623047" xlink:href="#DejaVuSans-2e"/>
       <use x="95.410156" xlink:href="#DejaVuSans-30"/>
       <use x="159.033203" xlink:href="#DejaVuSans-31"/>
       <use x="222.65625" xlink:href="#DejaVuSans-35"/>
      </g>
     </g>
    </g>
   </g>
   <g id="line2d_14">
    <path clip-path="url(#p16ea5e1dd4)" d="M 43.2 140.308912 
L 46.690909 137.555429 
L 50.181818 134.385952 
L 53.672727 130.779586 
L 57.163636 126.724733 
L 60.654545 122.22133 
L 64.145455 117.282898 
L 67.636364 111.938215 
L 71.127273 106.232475 
L 74.618182 100.227752 
L 78.109091 94.002653 
L 81.6 87.651079 
L 85.090909 81.280044 
L 88.581818 75.006613 
L 92.072727 68.954024 
L 95.563636 63.247194 
L 99.054545 58.007817 
L 102.545455 53.349325 
L 106.036364 49.372025 
L 109.527273 46.158691 
L 113.018182 43.770917 
L 116.509091 42.246447 
L 120 41.597668 
L 123.490909 41.811358 
L 126.981818 42.849697 
L 130.472727 44.652451 
L 133.963636 47.140188 
L 137.454545 50.218275 
L 140.945455 53.781407 
L 144.436364 57.718347 
L 147.927273 61.916599 
L 151.418182 66.266734 
L 154.909091 70.666147 
L 158.4 75.022066 
L 161.890909 79.253735 
L 165.381818 83.293706 
L 168.872727 87.088317 
L 172.363636 90.597412 
L 175.854545 93.793455 
L 179.345455 96.660197 
L 182.836364 99.191068 
L 186.327273 101.387446 
L 189.818182 103.25697 
L 193.309091 104.811993 
L 196.8 106.068264 
L 200.290909 107.043883 
L 203.781818 107.758528 
L 207.272727 108.23293 
L 210.763636 108.488554 
L 214.254545 108.547412 
L 217.745455 108.43195 
L 221.236364 108.164935 
L 224.727273 107.769291 
L 228.218182 107.267853 
L 231.709091 106.683013 
L 235.2 106.036262 
L 238.690909 105.347657 
L 242.181818 104.635246 
L 245.672727 103.914502 
L 249.163636 103.197823 
L 252.654545 102.494155 
L 256.145455 101.808782 
L 259.636364 101.143334 
L 263.127273 100.496027 
L 266.618182 99.862146 
L 270.109091 99.234767 
L 273.6 98.605679 
L 277.090909 97.966459 
L 280.581818 97.309641 
L 284.072727 96.629899 
L 287.563636 95.925168 
L 291.054545 95.197611 
L 294.545455 94.454356 
L 298.036364 93.707936 
L 301.527273 92.976384 
L 305.018182 92.28293 
L 308.509091 91.65533 
L 312 91.124812 
L 315.490909 90.724716 
L 318.981818 90.488892 
L 322.472727 90.449949 
L 325.963636 90.637471 
L 329.454545 91.076325 
L 332.945455 91.785158 
L 336.436364 92.775201 
L 339.927273 94.049454 
L 343.418182 95.602318 
L 346.909091 97.419681 
L 350.4 99.479469 
L 353.890909 101.752602 
L 357.381818 104.204297 
L 360.872727 106.795617 
L 364.363636 109.485174 
L 367.854545 112.23086 
L 371.345455 114.991507 
L 374.836364 117.728387 
L 378.327273 120.406469 
L 381.818182 122.995386 
L 385.309091 125.470077 
L 388.8 127.811119 
" style="fill:none;stroke:#008000;stroke-linecap:square;stroke-width:1.5;"/>
   </g>
   <g id="patch_3">
    <path d="M 43.2 153.55102 
L 43.2 36 
" style="fill:none;stroke:#000000;stroke-linecap:square;stroke-linejoin:miter;stroke-width:0.8;"/>
   </g>
   <g id="patch_4">
    <path d="M 388.8 153.55102 
L 388.8 36 
" style="fill:none;stroke:#000000;stroke-linecap:square;stroke-linejoin:miter;stroke-width:0.8;"/>
   </g>
   <g id="patch_5">
    <path d="M 43.2 153.55102 
L 388.8 153.55102 
" style="fill:none;stroke:#000000;stroke-linecap:square;stroke-linejoin:miter;stroke-width:0.8;"/>
   </g>
   <g id="patch_6">
    <path d="M 43.2 36 
L 388.8 36 
" style="fill:none;stroke:#000000;stroke-linecap:square;stroke-linejoin:miter;stroke-width:0.8;"/>
   </g>
   <g id="text_14">
    <!-- $P(x)$ -->
    <defs>
     <path d="M 16.890625 72.90625 
L 39.703125 72.90625 
Q 49.65625 72.90625 54.875 68.265625 
Q 60.109375 63.625 60.109375 54.6875 
Q 60.109375 42.671875 52.390625 35.984375 
Q 44.671875 29.296875 30.71875 29.296875 
L 18.3125 29.296875 
L 12.59375 0 
L 2.6875 0 
z
M 25.203125 64.796875 
L 19.921875 37.40625 
L 32.328125 37.40625 
Q 40.71875 37.40625 45.203125 41.703125 
Q 49.703125 46 49.703125 54 
Q 49.703125 59.125 46.65625 61.953125 
Q 43.609375 64.796875 38.09375 64.796875 
z
" id="DejaVuSans-Oblique-50"/>
     <path d="M 31 75.875 
Q 24.46875 64.65625 21.28125 53.65625 
Q 18.109375 42.671875 18.109375 31.390625 
Q 18.109375 20.125 21.3125 9.0625 
Q 24.515625 -2 31 -13.1875 
L 23.1875 -13.1875 
Q 15.875 -1.703125 12.234375 9.375 
Q 8.59375 20.453125 8.59375 31.390625 
Q 8.59375 42.28125 12.203125 53.3125 
Q 15.828125 64.359375 23.1875 75.875 
z
" id="DejaVuSans-28"/>
     <path d="M 60.015625 54.6875 
L 34.90625 27.875 
L 50.296875 0 
L 39.984375 0 
L 28.421875 21.6875 
L 8.296875 0 
L -2.59375 0 
L 24.3125 28.8125 
L 10.015625 54.6875 
L 20.3125 54.6875 
L 30.8125 34.90625 
L 49.125 54.6875 
z
" id="DejaVuSans-Oblique-78"/>
     <path d="M 8.015625 75.875 
L 15.828125 75.875 
Q 23.140625 64.359375 26.78125 53.3125 
Q 30.421875 42.28125 30.421875 31.390625 
Q 30.421875 20.453125 26.78125 9.375 
Q 23.140625 -1.703125 15.828125 -13.1875 
L 8.015625 -13.1875 
Q 14.5 -2 17.703125 9.0625 
Q 20.90625 20.125 20.90625 31.390625 
Q 20.90625 42.671875 17.703125 53.65625 
Q 14.5 64.65625 8.015625 75.875 
" id="DejaVuSans-29"/>
    </defs>
    <g transform="translate(204.12 30)scale(0.12 -0.12)">
     <use transform="translate(0 0.125)" xlink:href="#DejaVuSans-Oblique-50"/>
     <use transform="translate(60.302734 0.125)" xlink:href="#DejaVuSans-28"/>
     <use transform="translate(99.316406 0.125)" xlink:href="#DejaVuSans-Oblique-78"/>
     <use transform="translate(158.496094 0.125)" xlink:href="#DejaVuSans-29"/>
    </g>
   </g>
  </g>
  <g id="axes_2">
   <g id="patch_7">
    <path d="M 43.2 324 
L 388.8 324 
L 388.8 206.44898 
L 43.2 206.44898 
z
" style="fill:#ffffff;"/>
   </g>
   <g id="PolyCollection_2">
    <defs>
     <path d="M 43.2 -50.99225 
L 43.2 -36 
L 46.690909 -36 
L 50.181818 -36 
L 53.672727 -36 
L 57.163636 -36 
L 60.654545 -36 
L 64.145455 -36 
L 67.636364 -36 
L 71.127273 -36 
L 74.618182 -36 
L 78.109091 -36 
L 81.6 -36 
L 85.090909 -36 
L 88.581818 -36 
L 92.072727 -36 
L 95.563636 -36 
L 99.054545 -36 
L 102.545455 -36 
L 106.036364 -36 
L 109.527273 -36 
L 113.018182 -36 
L 116.509091 -36 
L 120 -36 
L 123.490909 -36 
L 126.981818 -36 
L 130.472727 -36 
L 133.963636 -36 
L 137.454545 -36 
L 140.945455 -36 
L 144.436364 -36 
L 147.927273 -36 
L 151.418182 -36 
L 154.909091 -36 
L 158.4 -36 
L 161.890909 -36 
L 165.381818 -36 
L 168.872727 -36 
L 172.363636 -36 
L 175.854545 -36 
L 179.345455 -36 
L 182.836364 -36 
L 186.327273 -36 
L 189.818182 -36 
L 193.309091 -36 
L 196.8 -36 
L 200.290909 -36 
L 203.781818 -36 
L 207.272727 -36 
L 210.763636 -36 
L 214.254545 -36 
L 217.745455 -36 
L 221.236364 -36 
L 224.727273 -36 
L 228.218182 -36 
L 231.709091 -36 
L 235.2 -36 
L 238.690909 -36 
L 242.181818 -36 
L 245.672727 -36 
L 249.163636 -36 
L 252.654545 -36 
L 256.145455 -36 
L 259.636364 -36 
L 263.127273 -36 
L 266.618182 -36 
L 270.109091 -36 
L 273.6 -36 
L 277.090909 -36 
L 280.581818 -36 
L 284.072727 -36 
L 287.563636 -36 
L 291.054545 -36 
L 294.545455 -36 
L 298.036364 -36 
L 301.527273 -36 
L 305.018182 -36 
L 308.509091 -36 
L 312 -36 
L 315.490909 -36 
L 318.981818 -36 
L 322.472727 -36 
L 325.963636 -36 
L 329.454545 -36 
L 332.945455 -36 
L 336.436364 -36 
L 339.927273 -36 
L 343.418182 -36 
L 346.909091 -36 
L 350.4 -36 
L 353.890909 -36 
L 357.381818 -36 
L 360.872727 -36 
L 364.363636 -36 
L 367.854545 -36 
L 371.345455 -36 
L 374.836364 -36 
L 378.327273 -36 
L 381.818182 -36 
L 385.309091 -36 
L 388.8 -36 
L 388.8 -66.510087 
L 388.8 -66.510087 
L 385.309091 -68.715125 
L 381.818182 -71.077635 
L 378.327273 -73.611678 
L 374.836364 -76.330779 
L 371.345455 -79.24704 
L 367.854545 -82.370076 
L 364.363636 -85.705837 
L 360.872727 -89.255356 
L 357.381818 -93.013488 
L 353.890909 -96.967738 
L 350.4 -101.097265 
L 346.909091 -105.372157 
L 343.418182 -109.753087 
L 339.927273 -114.191412 
L 336.436364 -118.629793 
L 332.945455 -123.003351 
L 329.454545 -127.241358 
L 325.963636 -131.269417 
L 322.472727 -135.012031 
L 318.981818 -138.395443 
L 315.490909 -141.350596 
L 312 -143.816025 
L 308.509091 -145.740517 
L 305.018182 -147.085361 
L 301.527273 -147.826055 
L 298.036364 -147.953353 
L 294.545455 -147.473605 
L 291.054545 -146.408373 
L 287.563636 -144.793375 
L 284.072727 -142.676845 
L 280.581818 -140.117438 
L 277.090909 -137.181844 
L 273.6 -133.942255 
L 270.109091 -130.473867 
L 266.618182 -126.85254 
L 263.127273 -123.152735 
L 259.636364 -119.445789 
L 256.145455 -115.798571 
L 252.654545 -112.272499 
L 249.163636 -108.922889 
L 245.672727 -105.798553 
L 242.181818 -102.941579 
L 238.690909 -100.387208 
L 235.2 -98.163733 
L 231.709091 -96.292364 
L 228.218182 -94.787036 
L 224.727273 -93.654149 
L 221.236364 -92.892272 
L 217.745455 -92.491849 
L 214.254545 -92.434993 
L 210.763636 -92.695415 
L 207.272727 -93.238585 
L 203.781818 -94.022181 
L 200.290909 -94.99687 
L 196.8 -96.107446 
L 193.309091 -97.294311 
L 189.818182 -98.495276 
L 186.327273 -99.647585 
L 182.836364 -100.690106 
L 179.345455 -101.565536 
L 175.854545 -102.222531 
L 172.363636 -102.61762 
L 168.872727 -102.716792 
L 165.381818 -102.496662 
L 161.890909 -101.945151 
L 158.4 -101.061627 
L 154.909091 -99.856526 
L 151.418182 -98.350466 
L 147.927273 -96.572919 
L 144.436364 -94.56055 
L 140.945455 -92.355298 
L 137.454545 -90.002346 
L 133.963636 -87.548093 
L 130.472727 -85.03822 
L 126.981818 -82.515981 
L 123.490909 -80.020761 
L 120 -77.586972 
L 116.509091 -75.243306 
L 113.018182 -73.012342 
L 109.527273 -70.910488 
L 106.036364 -68.94821 
L 102.545455 -67.130508 
L 99.054545 -65.457566 
L 95.563636 -63.925511 
L 92.072727 -62.527243 
L 88.581818 -61.253248 
L 85.090909 -60.092392 
L 81.6 -59.032618 
L 78.109091 -58.061567 
L 74.618182 -57.167074 
L 71.127273 -56.337563 
L 67.636364 -55.562332 
L 64.145455 -54.831738 
L 60.654545 -54.137301 
L 57.163636 -53.471737 
L 53.672727 -52.828937 
L 50.181818 -52.20391 
L 46.690909 -51.592693 
L 43.2 -50.99225 
z
" id="mf01dcdeafd" style="stroke:#ffa500;stroke-opacity:0.1;"/>
    </defs>
    <g clip-path="url(#p7fb3cb449d)">
     <use style="fill:#ffa500;fill-opacity:0.1;stroke:#ffa500;stroke-opacity:0.1;" x="0" xlink:href="#mf01dcdeafd" y="360"/>
    </g>
   </g>
   <g id="matplotlib.axis_3">
    <g id="xtick_10">
     <g id="line2d_15">
      <g>
       <use style="stroke:#000000;stroke-width:0.8;" x="43.2" xlink:href="#meae216e516" y="324"/>
      </g>
     </g>
     <g id="text_15">
      <!-- −10.0 -->
      <g transform="translate(27.877344 338.598437)scale(0.1 -0.1)">
       <use xlink:href="#DejaVuSans-2212"/>
       <use x="83.789062" xlink:href="#DejaVuSans-31"/>
       <use x="147.412109" xlink:href="#DejaVuSans-30"/>
       <use x="211.035156" xlink:href="#DejaVuSans-2e"/>
       <use x="242.822266" xlink:href="#DejaVuSans-30"/>
      </g>
     </g>
    </g>
    <g id="xtick_11">
     <g id="line2d_16">
      <g>
       <use style="stroke:#000000;stroke-width:0.8;" x="86.4" xlink:href="#meae216e516" y="324"/>
      </g>
     </g>
     <g id="text_16">
      <!-- −7.5 -->
      <g transform="translate(74.258594 338.598437)scale(0.1 -0.1)">
       <use xlink:href="#DejaVuSans-2212"/>
       <use x="83.789062" xlink:href="#DejaVuSans-37"/>
       <use x="147.412109" xlink:href="#DejaVuSans-2e"/>
       <use x="179.199219" xlink:href="#DejaVuSans-35"/>
      </g>
     </g>
    </g>
    <g id="xtick_12">
     <g id="line2d_17">
      <g>
       <use style="stroke:#000000;stroke-width:0.8;" x="129.6" xlink:href="#meae216e516" y="324"/>
      </g>
     </g>
     <g id="text_17">
      <!-- −5.0 -->
      <g transform="translate(117.458594 338.598437)scale(0.1 -0.1)">
       <use xlink:href="#DejaVuSans-2212"/>
       <use x="83.789062" xlink:href="#DejaVuSans-35"/>
       <use x="147.412109" xlink:href="#DejaVuSans-2e"/>
       <use x="179.199219" xlink:href="#DejaVuSans-30"/>
      </g>
     </g>
    </g>
    <g id="xtick_13">
     <g id="line2d_18">
      <g>
       <use style="stroke:#000000;stroke-width:0.8;" x="172.8" xlink:href="#meae216e516" y="324"/>
      </g>
     </g>
     <g id="text_18">
      <!-- −2.5 -->
      <g transform="translate(160.658594 338.598437)scale(0.1 -0.1)">
       <use xlink:href="#DejaVuSans-2212"/>
       <use x="83.789062" xlink:href="#DejaVuSans-32"/>
       <use x="147.412109" xlink:href="#DejaVuSans-2e"/>
       <use x="179.199219" xlink:href="#DejaVuSans-35"/>
      </g>
     </g>
    </g>
    <g id="xtick_14">
     <g id="line2d_19">
      <g>
       <use style="stroke:#000000;stroke-width:0.8;" x="216" xlink:href="#meae216e516" y="324"/>
      </g>
     </g>
     <g id="text_19">
      <!-- 0.0 -->
      <g transform="translate(208.048438 338.598437)scale(0.1 -0.1)">
       <use xlink:href="#DejaVuSans-30"/>
       <use x="63.623047" xlink:href="#DejaVuSans-2e"/>
       <use x="95.410156" xlink:href="#DejaVuSans-30"/>
      </g>
     </g>
    </g>
    <g id="xtick_15">
     <g id="line2d_20">
      <g>
       <use style="stroke:#000000;stroke-width:0.8;" x="259.2" xlink:href="#meae216e516" y="324"/>
      </g>
     </g>
     <g id="text_20">
      <!-- 2.5 -->
      <g transform="translate(251.248437 338.598437)scale(0.1 -0.1)">
       <use xlink:href="#DejaVuSans-32"/>
       <use x="63.623047" xlink:href="#DejaVuSans-2e"/>
       <use x="95.410156" xlink:href="#DejaVuSans-35"/>
      </g>
     </g>
    </g>
    <g id="xtick_16">
     <g id="line2d_21">
      <g>
       <use style="stroke:#000000;stroke-width:0.8;" x="302.4" xlink:href="#meae216e516" y="324"/>
      </g>
     </g>
     <g id="text_21">
      <!-- 5.0 -->
      <g transform="translate(294.448437 338.598437)scale(0.1 -0.1)">
       <use xlink:href="#DejaVuSans-35"/>
       <use x="63.623047" xlink:href="#DejaVuSans-2e"/>
       <use x="95.410156" xlink:href="#DejaVuSans-30"/>
      </g>
     </g>
    </g>
    <g id="xtick_17">
     <g id="line2d_22">
      <g>
       <use style="stroke:#000000;stroke-width:0.8;" x="345.6" xlink:href="#meae216e516" y="324"/>
      </g>
     </g>
     <g id="text_22">
      <!-- 7.5 -->
      <g transform="translate(337.648438 338.598437)scale(0.1 -0.1)">
       <use xlink:href="#DejaVuSans-37"/>
       <use x="63.623047" xlink:href="#DejaVuSans-2e"/>
       <use x="95.410156" xlink:href="#DejaVuSans-35"/>
      </g>
     </g>
    </g>
    <g id="xtick_18">
     <g id="line2d_23">
      <g>
       <use style="stroke:#000000;stroke-width:0.8;" x="388.8" xlink:href="#meae216e516" y="324"/>
      </g>
     </g>
     <g id="text_23">
      <!-- 10.0 -->
      <g transform="translate(377.667188 338.598437)scale(0.1 -0.1)">
       <use xlink:href="#DejaVuSans-31"/>
       <use x="63.623047" xlink:href="#DejaVuSans-30"/>
       <use x="127.246094" xlink:href="#DejaVuSans-2e"/>
       <use x="159.033203" xlink:href="#DejaVuSans-30"/>
      </g>
     </g>
    </g>
   </g>
   <g id="matplotlib.axis_4">
    <g id="ytick_5">
     <g id="line2d_24">
      <g>
       <use style="stroke:#000000;stroke-width:0.8;" x="43.2" xlink:href="#ma6c341815e" y="324"/>
      </g>
     </g>
     <g id="text_24">
      <!-- 0.000 -->
      <g transform="translate(7.571875 327.799219)scale(0.1 -0.1)">
       <use xlink:href="#DejaVuSans-30"/>
       <use x="63.623047" xlink:href="#DejaVuSans-2e"/>
       <use x="95.410156" xlink:href="#DejaVuSans-30"/>
       <use x="159.033203" xlink:href="#DejaVuSans-30"/>
       <use x="222.65625" xlink:href="#DejaVuSans-30"/>
      </g>
     </g>
    </g>
    <g id="ytick_6">
     <g id="line2d_25">
      <g>
       <use style="stroke:#000000;stroke-width:0.8;" x="43.2" xlink:href="#ma6c341815e" y="293.745796"/>
      </g>
     </g>
     <g id="text_25">
      <!-- 0.005 -->
      <g transform="translate(7.571875 297.545015)scale(0.1 -0.1)">
       <use xlink:href="#DejaVuSans-30"/>
       <use x="63.623047" xlink:href="#DejaVuSans-2e"/>
       <use x="95.410156" xlink:href="#DejaVuSans-30"/>
       <use x="159.033203" xlink:href="#DejaVuSans-30"/>
       <use x="222.65625" xlink:href="#DejaVuSans-35"/>
      </g>
     </g>
    </g>
    <g id="ytick_7">
     <g id="line2d_26">
      <g>
       <use style="stroke:#000000;stroke-width:0.8;" x="43.2" xlink:href="#ma6c341815e" y="263.491592"/>
      </g>
     </g>
     <g id="text_26">
      <!-- 0.010 -->
      <g transform="translate(7.571875 267.290811)scale(0.1 -0.1)">
       <use xlink:href="#DejaVuSans-30"/>
       <use x="63.623047" xlink:href="#DejaVuSans-2e"/>
       <use x="95.410156" xlink:href="#DejaVuSans-30"/>
       <use x="159.033203" xlink:href="#DejaVuSans-31"/>
       <use x="222.65625" xlink:href="#DejaVuSans-30"/>
      </g>
     </g>
    </g>
    <g id="ytick_8">
     <g id="line2d_27">
      <g>
       <use style="stroke:#000000;stroke-width:0.8;" x="43.2" xlink:href="#ma6c341815e" y="233.237388"/>
      </g>
     </g>
     <g id="text_27">
      <!-- 0.015 -->
      <g transform="translate(7.571875 237.036607)scale(0.1 -0.1)">
       <use xlink:href="#DejaVuSans-30"/>
       <use x="63.623047" xlink:href="#DejaVuSans-2e"/>
       <use x="95.410156" xlink:href="#DejaVuSans-30"/>
       <use x="159.033203" xlink:href="#DejaVuSans-31"/>
       <use x="222.65625" xlink:href="#DejaVuSans-35"/>
      </g>
     </g>
    </g>
   </g>
   <g id="line2d_28">
    <path clip-path="url(#p7fb3cb449d)" d="M 43.2 309.00775 
L 46.690909 308.407307 
L 50.181818 307.79609 
L 53.672727 307.171063 
L 57.163636 306.528263 
L 60.654545 305.862699 
L 64.145455 305.168262 
L 67.636364 304.437668 
L 71.127273 303.662437 
L 74.618182 302.832926 
L 78.109091 301.938433 
L 81.6 300.967382 
L 85.090909 299.907608 
L 88.581818 298.746752 
L 92.072727 297.472757 
L 95.563636 296.074489 
L 99.054545 294.542434 
L 102.545455 292.869492 
L 106.036364 291.05179 
L 109.527273 289.089512 
L 113.018182 286.987658 
L 116.509091 284.756694 
L 120 282.413028 
L 123.490909 279.979239 
L 126.981818 277.484019 
L 130.472727 274.96178 
L 133.963636 272.451907 
L 137.454545 269.997654 
L 140.945455 267.644702 
L 144.436364 265.43945 
L 147.927273 263.427081 
L 151.418182 261.649534 
L 154.909091 260.143474 
L 158.4 258.938373 
L 161.890909 258.054849 
L 165.381818 257.503338 
L 168.872727 257.283208 
L 172.363636 257.38238 
L 175.854545 257.777469 
L 179.345455 258.434464 
L 182.836364 259.309894 
L 186.327273 260.352415 
L 189.818182 261.504724 
L 193.309091 262.705689 
L 196.8 263.892554 
L 200.290909 265.00313 
L 203.781818 265.977819 
L 207.272727 266.761415 
L 210.763636 267.304585 
L 214.254545 267.565007 
L 217.745455 267.508151 
L 221.236364 267.107728 
L 224.727273 266.345851 
L 228.218182 265.212964 
L 231.709091 263.707636 
L 235.2 261.836267 
L 238.690909 259.612792 
L 242.181818 257.058421 
L 245.672727 254.201447 
L 249.163636 251.077111 
L 252.654545 247.727501 
L 256.145455 244.201429 
L 259.636364 240.554211 
L 263.127273 236.847265 
L 266.618182 233.14746 
L 270.109091 229.526133 
L 273.6 226.057745 
L 277.090909 222.818156 
L 280.581818 219.882562 
L 284.072727 217.323155 
L 287.563636 215.206625 
L 291.054545 213.591627 
L 294.545455 212.526395 
L 298.036364 212.046647 
L 301.527273 212.173945 
L 305.018182 212.914639 
L 308.509091 214.259483 
L 312 216.183975 
L 315.490909 218.649404 
L 318.981818 221.604557 
L 322.472727 224.987969 
L 325.963636 228.730583 
L 329.454545 232.758642 
L 332.945455 236.996649 
L 336.436364 241.370207 
L 339.927273 245.808588 
L 343.418182 250.246913 
L 346.909091 254.627843 
L 350.4 258.902735 
L 353.890909 263.032262 
L 357.381818 266.986512 
L 360.872727 270.744644 
L 364.363636 274.294163 
L 367.854545 277.629924 
L 371.345455 280.75296 
L 374.836364 283.669221 
L 378.327273 286.388322 
L 381.818182 288.922365 
L 385.309091 291.284875 
L 388.8 293.489913 
" style="fill:none;stroke:#ffa500;stroke-linecap:square;stroke-width:1.5;"/>
   </g>
   <g id="patch_8">
    <path d="M 43.2 324 
L 43.2 206.44898 
" style="fill:none;stroke:#000000;stroke-linecap:square;stroke-linejoin:miter;stroke-width:0.8;"/>
   </g>
   <g id="patch_9">
    <path d="M 388.8 324 
L 388.8 206.44898 
" style="fill:none;stroke:#000000;stroke-linecap:square;stroke-linejoin:miter;stroke-width:0.8;"/>
   </g>
   <g id="patch_10">
    <path d="M 43.2 324 
L 388.8 324 
" style="fill:none;stroke:#000000;stroke-linecap:square;stroke-linejoin:miter;stroke-width:0.8;"/>
   </g>
   <g id="patch_11">
    <path d="M 43.2 206.44898 
L 388.8 206.44898 
" style="fill:none;stroke:#000000;stroke-linecap:square;stroke-linejoin:miter;stroke-width:0.8;"/>
   </g>
   <g id="text_28">
    <!-- $P(\theta)$ -->
    <defs>
     <path d="M 45.515625 34.671875 
L 14.453125 34.671875 
Q 12.359375 20.0625 14.5 13.875 
Q 17.1875 6.25 24.46875 6.25 
Q 31.78125 6.25 37.359375 13.921875 
Q 42.234375 20.65625 45.515625 34.671875 
M 47.015625 42.96875 
Q 48.34375 56.84375 46.625 61.71875 
Q 43.953125 69.4375 36.765625 69.4375 
Q 29.296875 69.4375 23.828125 61.8125 
Q 19.53125 55.671875 16.15625 42.96875 
z
M 38.1875 76.765625 
Q 49.90625 76.765625 54.59375 66.40625 
Q 59.28125 56.109375 55.71875 37.84375 
Q 52.203125 19.625 43.453125 9.28125 
Q 34.765625 -1.125 23.046875 -1.125 
Q 11.28125 -1.125 6.640625 9.28125 
Q 2 19.625 5.515625 37.84375 
Q 9.078125 56.109375 17.71875 66.40625 
Q 26.421875 76.765625 38.1875 76.765625 
" id="DejaVuSans-Oblique-3b8"/>
    </defs>
    <g transform="translate(204 200.44898)scale(0.12 -0.12)">
     <use transform="translate(0 0.234375)" xlink:href="#DejaVuSans-Oblique-50"/>
     <use transform="translate(60.302734 0.234375)" xlink:href="#DejaVuSans-28"/>
     <use transform="translate(99.316406 0.234375)" xlink:href="#DejaVuSans-Oblique-3b8"/>
     <use transform="translate(160.498047 0.234375)" xlink:href="#DejaVuSans-29"/>
    </g>
   </g>
  </g>
 </g>
 <defs>
  <clipPath id="p16ea5e1dd4">
   <rect height="117.55102" width="345.6" x="43.2" y="36"/>
  </clipPath>
  <clipPath id="p7fb3cb449d">
   <rect height="117.55102" width="345.6" x="43.2" y="206.44898"/>
  </clipPath>
 </defs>
</svg>
